G04 #@! TF.GenerationSoftware,KiCad,Pcbnew,5.0.2+dfsg1-1~bpo9+1*
G04 #@! TF.CreationDate,2019-10-12T12:41:39-07:00*
G04 #@! TF.ProjectId,birdEar,62697264-4561-4722-9e6b-696361645f70,rev?*
G04 #@! TF.SameCoordinates,Original*
G04 #@! TF.FileFunction,Soldermask,Top*
G04 #@! TF.FilePolarity,Negative*
%FSLAX46Y46*%
G04 Gerber Fmt 4.6, Leading zero omitted, Abs format (unit mm)*
G04 Created by KiCad (PCBNEW 5.0.2+dfsg1-1~bpo9+1) date Sat 12 Oct 2019 12:41:39 PM PDT*
%MOMM*%
%LPD*%
G01*
G04 APERTURE LIST*
%ADD10C,0.100000*%
G04 APERTURE END LIST*
D10*
G36*
X153755000Y-166090000D02*
X147305000Y-166090000D01*
X147305000Y-158650000D01*
X153755000Y-158650000D01*
X153755000Y-166090000D01*
X153755000Y-166090000D01*
G37*
G36*
X121500000Y-165705000D02*
X120100000Y-165705000D01*
X120100000Y-163705000D01*
X121500000Y-163705000D01*
X121500000Y-165705000D01*
X121500000Y-165705000D01*
G37*
G36*
X107850000Y-165705000D02*
X106750000Y-165705000D01*
X106750000Y-162805000D01*
X107850000Y-162805000D01*
X107850000Y-165705000D01*
X107850000Y-165705000D01*
G37*
G36*
X107850000Y-160555000D02*
X106750000Y-160555000D01*
X106750000Y-159655000D01*
X107850000Y-159655000D01*
X107850000Y-160555000D01*
X107850000Y-160555000D01*
G37*
G36*
X107850000Y-154555000D02*
X106750000Y-154555000D01*
X106750000Y-153255000D01*
X107850000Y-153255000D01*
X107850000Y-154555000D01*
X107850000Y-154555000D01*
G37*
G36*
X123831722Y-151413043D02*
X123879764Y-151427616D01*
X123924048Y-151451287D01*
X123962861Y-151483139D01*
X123994713Y-151521952D01*
X124018384Y-151566236D01*
X124032957Y-151614278D01*
X124038000Y-151665482D01*
X124038000Y-152225518D01*
X124032957Y-152276722D01*
X124018384Y-152324764D01*
X123994713Y-152369048D01*
X123962861Y-152407861D01*
X123924048Y-152439713D01*
X123879764Y-152463384D01*
X123831722Y-152477957D01*
X123780518Y-152483000D01*
X122795482Y-152483000D01*
X122744278Y-152477957D01*
X122696236Y-152463384D01*
X122651952Y-152439713D01*
X122613139Y-152407861D01*
X122581287Y-152369048D01*
X122557616Y-152324764D01*
X122543043Y-152276722D01*
X122538000Y-152225518D01*
X122538000Y-151665482D01*
X122543043Y-151614278D01*
X122557616Y-151566236D01*
X122581287Y-151521952D01*
X122613139Y-151483139D01*
X122651952Y-151451287D01*
X122696236Y-151427616D01*
X122744278Y-151413043D01*
X122795482Y-151408000D01*
X123780518Y-151408000D01*
X123831722Y-151413043D01*
X123831722Y-151413043D01*
G37*
G36*
X125831722Y-151413043D02*
X125879764Y-151427616D01*
X125924048Y-151451287D01*
X125962861Y-151483139D01*
X125994713Y-151521952D01*
X126018384Y-151566236D01*
X126032957Y-151614278D01*
X126038000Y-151665482D01*
X126038000Y-152225518D01*
X126032957Y-152276722D01*
X126018384Y-152324764D01*
X125994713Y-152369048D01*
X125962861Y-152407861D01*
X125924048Y-152439713D01*
X125879764Y-152463384D01*
X125831722Y-152477957D01*
X125780518Y-152483000D01*
X124795482Y-152483000D01*
X124744278Y-152477957D01*
X124696236Y-152463384D01*
X124651952Y-152439713D01*
X124613139Y-152407861D01*
X124581287Y-152369048D01*
X124557616Y-152324764D01*
X124543043Y-152276722D01*
X124538000Y-152225518D01*
X124538000Y-151665482D01*
X124543043Y-151614278D01*
X124557616Y-151566236D01*
X124581287Y-151521952D01*
X124613139Y-151483139D01*
X124651952Y-151451287D01*
X124696236Y-151427616D01*
X124744278Y-151413043D01*
X124795482Y-151408000D01*
X125780518Y-151408000D01*
X125831722Y-151413043D01*
X125831722Y-151413043D01*
G37*
G36*
X158876285Y-148899106D02*
X159047750Y-148933213D01*
X159370778Y-149067015D01*
X159661495Y-149261267D01*
X159908733Y-149508505D01*
X160102985Y-149799222D01*
X160236787Y-150122250D01*
X160236787Y-150122252D01*
X160300409Y-150442096D01*
X160305000Y-150465180D01*
X160305000Y-150814820D01*
X160236787Y-151157750D01*
X160102985Y-151480778D01*
X159908733Y-151771495D01*
X159661495Y-152018733D01*
X159370778Y-152212985D01*
X159047750Y-152346787D01*
X158935836Y-152369048D01*
X158704822Y-152415000D01*
X158355178Y-152415000D01*
X158124164Y-152369048D01*
X158012250Y-152346787D01*
X157689222Y-152212985D01*
X157398505Y-152018733D01*
X157151267Y-151771495D01*
X156957015Y-151480778D01*
X156823213Y-151157750D01*
X156755000Y-150814820D01*
X156755000Y-150465180D01*
X156759592Y-150442096D01*
X156823213Y-150122252D01*
X156823213Y-150122250D01*
X156957015Y-149799222D01*
X157151267Y-149508505D01*
X157398505Y-149261267D01*
X157689222Y-149067015D01*
X158012250Y-148933213D01*
X158183715Y-148899106D01*
X158355178Y-148865000D01*
X158704822Y-148865000D01*
X158876285Y-148899106D01*
X158876285Y-148899106D01*
G37*
G36*
X134796431Y-150243023D02*
X134966081Y-150294486D01*
X134966084Y-150294487D01*
X135049829Y-150339250D01*
X135122432Y-150378057D01*
X135259475Y-150490525D01*
X135339786Y-150588384D01*
X135371942Y-150627567D01*
X135455513Y-150783916D01*
X135455514Y-150783919D01*
X135506977Y-150953569D01*
X135524354Y-151130000D01*
X135506977Y-151306431D01*
X135455514Y-151476081D01*
X135455513Y-151476084D01*
X135430996Y-151521952D01*
X135371943Y-151632432D01*
X135259475Y-151769475D01*
X135122432Y-151881943D01*
X135054353Y-151918332D01*
X134966084Y-151965513D01*
X134966081Y-151965514D01*
X134796431Y-152016977D01*
X134664207Y-152030000D01*
X134575793Y-152030000D01*
X134443569Y-152016977D01*
X134273919Y-151965514D01*
X134273916Y-151965513D01*
X134185647Y-151918332D01*
X134117568Y-151881943D01*
X133980525Y-151769475D01*
X133868057Y-151632432D01*
X133809004Y-151521952D01*
X133784487Y-151476084D01*
X133784486Y-151476081D01*
X133733023Y-151306431D01*
X133715646Y-151130000D01*
X133733023Y-150953569D01*
X133784486Y-150783919D01*
X133784487Y-150783916D01*
X133868058Y-150627567D01*
X133900215Y-150588384D01*
X133980525Y-150490525D01*
X134117568Y-150378057D01*
X134190171Y-150339250D01*
X134273916Y-150294487D01*
X134273919Y-150294486D01*
X134443569Y-150243023D01*
X134575793Y-150230000D01*
X134664207Y-150230000D01*
X134796431Y-150243023D01*
X134796431Y-150243023D01*
G37*
G36*
X125831722Y-149538043D02*
X125879764Y-149552616D01*
X125924048Y-149576287D01*
X125962861Y-149608139D01*
X125994713Y-149646952D01*
X126018384Y-149691236D01*
X126032957Y-149739278D01*
X126038000Y-149790482D01*
X126038000Y-150350518D01*
X126032957Y-150401722D01*
X126018384Y-150449764D01*
X125994713Y-150494048D01*
X125962861Y-150532861D01*
X125924048Y-150564713D01*
X125879764Y-150588384D01*
X125831722Y-150602957D01*
X125780518Y-150608000D01*
X124795482Y-150608000D01*
X124744278Y-150602957D01*
X124696236Y-150588384D01*
X124651952Y-150564713D01*
X124613139Y-150532861D01*
X124581287Y-150494048D01*
X124557616Y-150449764D01*
X124543043Y-150401722D01*
X124538000Y-150350518D01*
X124538000Y-149790482D01*
X124543043Y-149739278D01*
X124557616Y-149691236D01*
X124581287Y-149646952D01*
X124613139Y-149608139D01*
X124651952Y-149576287D01*
X124696236Y-149552616D01*
X124744278Y-149538043D01*
X124795482Y-149533000D01*
X125780518Y-149533000D01*
X125831722Y-149538043D01*
X125831722Y-149538043D01*
G37*
G36*
X123831722Y-149538043D02*
X123879764Y-149552616D01*
X123924048Y-149576287D01*
X123962861Y-149608139D01*
X123994713Y-149646952D01*
X124018384Y-149691236D01*
X124032957Y-149739278D01*
X124038000Y-149790482D01*
X124038000Y-150350518D01*
X124032957Y-150401722D01*
X124018384Y-150449764D01*
X123994713Y-150494048D01*
X123962861Y-150532861D01*
X123924048Y-150564713D01*
X123879764Y-150588384D01*
X123831722Y-150602957D01*
X123780518Y-150608000D01*
X122795482Y-150608000D01*
X122744278Y-150602957D01*
X122696236Y-150588384D01*
X122651952Y-150564713D01*
X122613139Y-150532861D01*
X122581287Y-150494048D01*
X122557616Y-150449764D01*
X122543043Y-150401722D01*
X122538000Y-150350518D01*
X122538000Y-149790482D01*
X122543043Y-149739278D01*
X122557616Y-149691236D01*
X122581287Y-149646952D01*
X122613139Y-149608139D01*
X122651952Y-149576287D01*
X122696236Y-149552616D01*
X122744278Y-149538043D01*
X122795482Y-149533000D01*
X123780518Y-149533000D01*
X123831722Y-149538043D01*
X123831722Y-149538043D01*
G37*
G36*
X117300000Y-150255000D02*
X116500000Y-150255000D01*
X116500000Y-148955000D01*
X117300000Y-148955000D01*
X117300000Y-150255000D01*
X117300000Y-150255000D01*
G37*
G36*
X109600000Y-150255000D02*
X108800000Y-150255000D01*
X108800000Y-148955000D01*
X109600000Y-148955000D01*
X109600000Y-150255000D01*
X109600000Y-150255000D01*
G37*
G36*
X116200000Y-150255000D02*
X115400000Y-150255000D01*
X115400000Y-148955000D01*
X116200000Y-148955000D01*
X116200000Y-150255000D01*
X116200000Y-150255000D01*
G37*
G36*
X115100000Y-150255000D02*
X114300000Y-150255000D01*
X114300000Y-148955000D01*
X115100000Y-148955000D01*
X115100000Y-150255000D01*
X115100000Y-150255000D01*
G37*
G36*
X114000000Y-150255000D02*
X113200000Y-150255000D01*
X113200000Y-148955000D01*
X114000000Y-148955000D01*
X114000000Y-150255000D01*
X114000000Y-150255000D01*
G37*
G36*
X111800000Y-150255000D02*
X111000000Y-150255000D01*
X111000000Y-148955000D01*
X111800000Y-148955000D01*
X111800000Y-150255000D01*
X111800000Y-150255000D01*
G37*
G36*
X108650000Y-150255000D02*
X107850000Y-150255000D01*
X107850000Y-148955000D01*
X108650000Y-148955000D01*
X108650000Y-150255000D01*
X108650000Y-150255000D01*
G37*
G36*
X110700000Y-150255000D02*
X109900000Y-150255000D01*
X109900000Y-148955000D01*
X110700000Y-148955000D01*
X110700000Y-150255000D01*
X110700000Y-150255000D01*
G37*
G36*
X119000000Y-150255000D02*
X117900000Y-150255000D01*
X117900000Y-148955000D01*
X119000000Y-148955000D01*
X119000000Y-150255000D01*
X119000000Y-150255000D01*
G37*
G36*
X112900000Y-150255000D02*
X112100000Y-150255000D01*
X112100000Y-148955000D01*
X112900000Y-148955000D01*
X112900000Y-150255000D01*
X112900000Y-150255000D01*
G37*
G36*
X135520000Y-149490000D02*
X133720000Y-149490000D01*
X133720000Y-147690000D01*
X135520000Y-147690000D01*
X135520000Y-149490000D01*
X135520000Y-149490000D01*
G37*
G36*
X109472722Y-146575043D02*
X109520764Y-146589616D01*
X109565048Y-146613287D01*
X109603861Y-146645139D01*
X109635713Y-146683952D01*
X109659384Y-146728236D01*
X109673957Y-146776278D01*
X109679000Y-146827482D01*
X109679000Y-147812518D01*
X109673957Y-147863722D01*
X109659384Y-147911764D01*
X109635713Y-147956048D01*
X109603861Y-147994861D01*
X109565048Y-148026713D01*
X109520764Y-148050384D01*
X109472722Y-148064957D01*
X109421518Y-148070000D01*
X108861482Y-148070000D01*
X108810278Y-148064957D01*
X108762236Y-148050384D01*
X108717952Y-148026713D01*
X108679139Y-147994861D01*
X108647287Y-147956048D01*
X108623616Y-147911764D01*
X108609043Y-147863722D01*
X108604000Y-147812518D01*
X108604000Y-146827482D01*
X108609043Y-146776278D01*
X108623616Y-146728236D01*
X108647287Y-146683952D01*
X108679139Y-146645139D01*
X108717952Y-146613287D01*
X108762236Y-146589616D01*
X108810278Y-146575043D01*
X108861482Y-146570000D01*
X109421518Y-146570000D01*
X109472722Y-146575043D01*
X109472722Y-146575043D01*
G37*
G36*
X107597722Y-146575043D02*
X107645764Y-146589616D01*
X107690048Y-146613287D01*
X107728861Y-146645139D01*
X107760713Y-146683952D01*
X107784384Y-146728236D01*
X107798957Y-146776278D01*
X107804000Y-146827482D01*
X107804000Y-147812518D01*
X107798957Y-147863722D01*
X107784384Y-147911764D01*
X107760713Y-147956048D01*
X107728861Y-147994861D01*
X107690048Y-148026713D01*
X107645764Y-148050384D01*
X107597722Y-148064957D01*
X107546518Y-148070000D01*
X106986482Y-148070000D01*
X106935278Y-148064957D01*
X106887236Y-148050384D01*
X106842952Y-148026713D01*
X106804139Y-147994861D01*
X106772287Y-147956048D01*
X106748616Y-147911764D01*
X106734043Y-147863722D01*
X106729000Y-147812518D01*
X106729000Y-146827482D01*
X106734043Y-146776278D01*
X106748616Y-146728236D01*
X106772287Y-146683952D01*
X106804139Y-146645139D01*
X106842952Y-146613287D01*
X106887236Y-146589616D01*
X106935278Y-146575043D01*
X106986482Y-146570000D01*
X107546518Y-146570000D01*
X107597722Y-146575043D01*
X107597722Y-146575043D01*
G37*
G36*
X83742431Y-144909023D02*
X83912081Y-144960486D01*
X83912084Y-144960487D01*
X84000353Y-145007668D01*
X84068432Y-145044057D01*
X84205475Y-145156525D01*
X84317943Y-145293568D01*
X84351462Y-145356278D01*
X84401513Y-145449916D01*
X84401514Y-145449919D01*
X84452977Y-145619569D01*
X84470354Y-145796000D01*
X84452977Y-145972431D01*
X84401514Y-146142081D01*
X84401513Y-146142084D01*
X84354332Y-146230353D01*
X84317943Y-146298432D01*
X84205475Y-146435475D01*
X84068432Y-146547943D01*
X84027166Y-146570000D01*
X83912084Y-146631513D01*
X83912081Y-146631514D01*
X83742431Y-146682977D01*
X83610207Y-146696000D01*
X83521793Y-146696000D01*
X83389569Y-146682977D01*
X83219919Y-146631514D01*
X83219916Y-146631513D01*
X83104834Y-146570000D01*
X83063568Y-146547943D01*
X82926525Y-146435475D01*
X82814057Y-146298432D01*
X82777668Y-146230353D01*
X82730487Y-146142084D01*
X82730486Y-146142081D01*
X82679023Y-145972431D01*
X82661646Y-145796000D01*
X82679023Y-145619569D01*
X82730486Y-145449919D01*
X82730487Y-145449916D01*
X82780538Y-145356278D01*
X82814057Y-145293568D01*
X82926525Y-145156525D01*
X83063568Y-145044057D01*
X83131647Y-145007668D01*
X83219916Y-144960487D01*
X83219919Y-144960486D01*
X83389569Y-144909023D01*
X83521793Y-144896000D01*
X83610207Y-144896000D01*
X83742431Y-144909023D01*
X83742431Y-144909023D01*
G37*
G36*
X87006000Y-146696000D02*
X85206000Y-146696000D01*
X85206000Y-144896000D01*
X87006000Y-144896000D01*
X87006000Y-146696000D01*
X87006000Y-146696000D01*
G37*
G36*
X120473722Y-145155043D02*
X120521764Y-145169616D01*
X120566048Y-145193287D01*
X120604861Y-145225139D01*
X120636713Y-145263952D01*
X120660384Y-145308236D01*
X120674957Y-145356278D01*
X120680000Y-145407482D01*
X120680000Y-146392518D01*
X120674957Y-146443722D01*
X120660384Y-146491764D01*
X120636713Y-146536048D01*
X120604861Y-146574861D01*
X120566048Y-146606713D01*
X120521764Y-146630384D01*
X120473722Y-146644957D01*
X120422518Y-146650000D01*
X119862482Y-146650000D01*
X119811278Y-146644957D01*
X119763236Y-146630384D01*
X119718952Y-146606713D01*
X119680139Y-146574861D01*
X119648287Y-146536048D01*
X119624616Y-146491764D01*
X119610043Y-146443722D01*
X119605000Y-146392518D01*
X119605000Y-145407482D01*
X119610043Y-145356278D01*
X119624616Y-145308236D01*
X119648287Y-145263952D01*
X119680139Y-145225139D01*
X119718952Y-145193287D01*
X119763236Y-145169616D01*
X119811278Y-145155043D01*
X119862482Y-145150000D01*
X120422518Y-145150000D01*
X120473722Y-145155043D01*
X120473722Y-145155043D01*
G37*
G36*
X118598722Y-145155043D02*
X118646764Y-145169616D01*
X118691048Y-145193287D01*
X118729861Y-145225139D01*
X118761713Y-145263952D01*
X118785384Y-145308236D01*
X118799957Y-145356278D01*
X118805000Y-145407482D01*
X118805000Y-146392518D01*
X118799957Y-146443722D01*
X118785384Y-146491764D01*
X118761713Y-146536048D01*
X118729861Y-146574861D01*
X118691048Y-146606713D01*
X118646764Y-146630384D01*
X118598722Y-146644957D01*
X118547518Y-146650000D01*
X117987482Y-146650000D01*
X117936278Y-146644957D01*
X117888236Y-146630384D01*
X117843952Y-146606713D01*
X117805139Y-146574861D01*
X117773287Y-146536048D01*
X117749616Y-146491764D01*
X117735043Y-146443722D01*
X117730000Y-146392518D01*
X117730000Y-145407482D01*
X117735043Y-145356278D01*
X117749616Y-145308236D01*
X117773287Y-145263952D01*
X117805139Y-145225139D01*
X117843952Y-145193287D01*
X117888236Y-145169616D01*
X117936278Y-145155043D01*
X117987482Y-145150000D01*
X118547518Y-145150000D01*
X118598722Y-145155043D01*
X118598722Y-145155043D01*
G37*
G36*
X110488722Y-144543043D02*
X110536764Y-144557616D01*
X110581048Y-144581287D01*
X110619861Y-144613139D01*
X110651713Y-144651952D01*
X110675384Y-144696236D01*
X110689957Y-144744278D01*
X110695000Y-144795482D01*
X110695000Y-145780518D01*
X110689957Y-145831722D01*
X110675384Y-145879764D01*
X110651713Y-145924048D01*
X110619861Y-145962861D01*
X110581048Y-145994713D01*
X110536764Y-146018384D01*
X110488722Y-146032957D01*
X110437518Y-146038000D01*
X109877482Y-146038000D01*
X109826278Y-146032957D01*
X109778236Y-146018384D01*
X109733952Y-145994713D01*
X109695139Y-145962861D01*
X109663287Y-145924048D01*
X109639616Y-145879764D01*
X109625043Y-145831722D01*
X109620000Y-145780518D01*
X109620000Y-144795482D01*
X109625043Y-144744278D01*
X109639616Y-144696236D01*
X109663287Y-144651952D01*
X109695139Y-144613139D01*
X109733952Y-144581287D01*
X109778236Y-144557616D01*
X109826278Y-144543043D01*
X109877482Y-144538000D01*
X110437518Y-144538000D01*
X110488722Y-144543043D01*
X110488722Y-144543043D01*
G37*
G36*
X108613722Y-144543043D02*
X108661764Y-144557616D01*
X108706048Y-144581287D01*
X108744861Y-144613139D01*
X108776713Y-144651952D01*
X108800384Y-144696236D01*
X108814957Y-144744278D01*
X108820000Y-144795482D01*
X108820000Y-145780518D01*
X108814957Y-145831722D01*
X108800384Y-145879764D01*
X108776713Y-145924048D01*
X108744861Y-145962861D01*
X108706048Y-145994713D01*
X108661764Y-146018384D01*
X108613722Y-146032957D01*
X108562518Y-146038000D01*
X108002482Y-146038000D01*
X107951278Y-146032957D01*
X107903236Y-146018384D01*
X107858952Y-145994713D01*
X107820139Y-145962861D01*
X107788287Y-145924048D01*
X107764616Y-145879764D01*
X107750043Y-145831722D01*
X107745000Y-145780518D01*
X107745000Y-144795482D01*
X107750043Y-144744278D01*
X107764616Y-144696236D01*
X107788287Y-144651952D01*
X107820139Y-144613139D01*
X107858952Y-144581287D01*
X107903236Y-144557616D01*
X107951278Y-144543043D01*
X108002482Y-144538000D01*
X108562518Y-144538000D01*
X108613722Y-144543043D01*
X108613722Y-144543043D01*
G37*
G36*
X120473722Y-141980043D02*
X120521764Y-141994616D01*
X120566048Y-142018287D01*
X120604861Y-142050139D01*
X120636713Y-142088952D01*
X120660384Y-142133236D01*
X120674957Y-142181278D01*
X120680000Y-142232482D01*
X120680000Y-143217518D01*
X120674957Y-143268722D01*
X120660384Y-143316764D01*
X120636713Y-143361048D01*
X120604861Y-143399861D01*
X120566048Y-143431713D01*
X120521764Y-143455384D01*
X120473722Y-143469957D01*
X120422518Y-143475000D01*
X119862482Y-143475000D01*
X119811278Y-143469957D01*
X119763236Y-143455384D01*
X119718952Y-143431713D01*
X119680139Y-143399861D01*
X119648287Y-143361048D01*
X119624616Y-143316764D01*
X119610043Y-143268722D01*
X119605000Y-143217518D01*
X119605000Y-142232482D01*
X119610043Y-142181278D01*
X119624616Y-142133236D01*
X119648287Y-142088952D01*
X119680139Y-142050139D01*
X119718952Y-142018287D01*
X119763236Y-141994616D01*
X119811278Y-141980043D01*
X119862482Y-141975000D01*
X120422518Y-141975000D01*
X120473722Y-141980043D01*
X120473722Y-141980043D01*
G37*
G36*
X118598722Y-141980043D02*
X118646764Y-141994616D01*
X118691048Y-142018287D01*
X118729861Y-142050139D01*
X118761713Y-142088952D01*
X118785384Y-142133236D01*
X118799957Y-142181278D01*
X118805000Y-142232482D01*
X118805000Y-143217518D01*
X118799957Y-143268722D01*
X118785384Y-143316764D01*
X118761713Y-143361048D01*
X118729861Y-143399861D01*
X118691048Y-143431713D01*
X118646764Y-143455384D01*
X118598722Y-143469957D01*
X118547518Y-143475000D01*
X117987482Y-143475000D01*
X117936278Y-143469957D01*
X117888236Y-143455384D01*
X117843952Y-143431713D01*
X117805139Y-143399861D01*
X117773287Y-143361048D01*
X117749616Y-143316764D01*
X117735043Y-143268722D01*
X117730000Y-143217518D01*
X117730000Y-142232482D01*
X117735043Y-142181278D01*
X117749616Y-142133236D01*
X117773287Y-142088952D01*
X117805139Y-142050139D01*
X117843952Y-142018287D01*
X117888236Y-141994616D01*
X117936278Y-141980043D01*
X117987482Y-141975000D01*
X118547518Y-141975000D01*
X118598722Y-141980043D01*
X118598722Y-141980043D01*
G37*
G36*
X111428431Y-139829023D02*
X111598081Y-139880486D01*
X111598084Y-139880487D01*
X111686353Y-139927668D01*
X111754432Y-139964057D01*
X111891475Y-140076525D01*
X112003943Y-140213568D01*
X112009979Y-140224861D01*
X112087513Y-140369916D01*
X112087514Y-140369919D01*
X112138977Y-140539569D01*
X112156354Y-140716000D01*
X112138977Y-140892431D01*
X112087514Y-141062081D01*
X112087513Y-141062084D01*
X112040332Y-141150353D01*
X112003943Y-141218432D01*
X111891475Y-141355475D01*
X111754432Y-141467943D01*
X111686353Y-141504332D01*
X111598084Y-141551513D01*
X111598081Y-141551514D01*
X111428431Y-141602977D01*
X111296207Y-141616000D01*
X111207793Y-141616000D01*
X111075569Y-141602977D01*
X110905919Y-141551514D01*
X110905916Y-141551513D01*
X110817647Y-141504332D01*
X110749568Y-141467943D01*
X110612525Y-141355475D01*
X110500057Y-141218432D01*
X110463668Y-141150353D01*
X110416487Y-141062084D01*
X110416486Y-141062081D01*
X110365023Y-140892431D01*
X110347646Y-140716000D01*
X110365023Y-140539569D01*
X110416486Y-140369919D01*
X110416487Y-140369916D01*
X110494021Y-140224861D01*
X110500057Y-140213568D01*
X110612525Y-140076525D01*
X110749568Y-139964057D01*
X110817647Y-139927668D01*
X110905916Y-139880487D01*
X110905919Y-139880486D01*
X111075569Y-139829023D01*
X111207793Y-139816000D01*
X111296207Y-139816000D01*
X111428431Y-139829023D01*
X111428431Y-139829023D01*
G37*
G36*
X118598722Y-138805043D02*
X118646764Y-138819616D01*
X118691048Y-138843287D01*
X118729861Y-138875139D01*
X118761713Y-138913952D01*
X118785384Y-138958236D01*
X118799957Y-139006278D01*
X118805000Y-139057482D01*
X118805000Y-140042518D01*
X118799957Y-140093722D01*
X118785384Y-140141764D01*
X118761713Y-140186048D01*
X118729861Y-140224861D01*
X118691048Y-140256713D01*
X118646764Y-140280384D01*
X118598722Y-140294957D01*
X118547518Y-140300000D01*
X117987482Y-140300000D01*
X117936278Y-140294957D01*
X117888236Y-140280384D01*
X117843952Y-140256713D01*
X117805139Y-140224861D01*
X117773287Y-140186048D01*
X117749616Y-140141764D01*
X117735043Y-140093722D01*
X117730000Y-140042518D01*
X117730000Y-139057482D01*
X117735043Y-139006278D01*
X117749616Y-138958236D01*
X117773287Y-138913952D01*
X117805139Y-138875139D01*
X117843952Y-138843287D01*
X117888236Y-138819616D01*
X117936278Y-138805043D01*
X117987482Y-138800000D01*
X118547518Y-138800000D01*
X118598722Y-138805043D01*
X118598722Y-138805043D01*
G37*
G36*
X120473722Y-138805043D02*
X120521764Y-138819616D01*
X120566048Y-138843287D01*
X120604861Y-138875139D01*
X120636713Y-138913952D01*
X120660384Y-138958236D01*
X120674957Y-139006278D01*
X120680000Y-139057482D01*
X120680000Y-140042518D01*
X120674957Y-140093722D01*
X120660384Y-140141764D01*
X120636713Y-140186048D01*
X120604861Y-140224861D01*
X120566048Y-140256713D01*
X120521764Y-140280384D01*
X120473722Y-140294957D01*
X120422518Y-140300000D01*
X119862482Y-140300000D01*
X119811278Y-140294957D01*
X119763236Y-140280384D01*
X119718952Y-140256713D01*
X119680139Y-140224861D01*
X119648287Y-140186048D01*
X119624616Y-140141764D01*
X119610043Y-140093722D01*
X119605000Y-140042518D01*
X119605000Y-139057482D01*
X119610043Y-139006278D01*
X119624616Y-138958236D01*
X119648287Y-138913952D01*
X119680139Y-138875139D01*
X119718952Y-138843287D01*
X119763236Y-138819616D01*
X119811278Y-138805043D01*
X119862482Y-138800000D01*
X120422518Y-138800000D01*
X120473722Y-138805043D01*
X120473722Y-138805043D01*
G37*
G36*
X111428431Y-137289023D02*
X111598081Y-137340486D01*
X111598084Y-137340487D01*
X111686353Y-137387668D01*
X111754432Y-137424057D01*
X111754434Y-137424058D01*
X111754433Y-137424058D01*
X111891475Y-137536525D01*
X112003942Y-137673567D01*
X112087513Y-137829916D01*
X112087514Y-137829919D01*
X112138977Y-137999569D01*
X112156354Y-138176000D01*
X112138977Y-138352431D01*
X112087514Y-138522081D01*
X112087513Y-138522084D01*
X112040332Y-138610353D01*
X112003943Y-138678432D01*
X111891475Y-138815475D01*
X111754432Y-138927943D01*
X111686353Y-138964332D01*
X111598084Y-139011513D01*
X111598081Y-139011514D01*
X111428431Y-139062977D01*
X111296207Y-139076000D01*
X111207793Y-139076000D01*
X111075569Y-139062977D01*
X110905919Y-139011514D01*
X110905916Y-139011513D01*
X110817647Y-138964332D01*
X110749568Y-138927943D01*
X110612525Y-138815475D01*
X110500057Y-138678432D01*
X110463668Y-138610353D01*
X110416487Y-138522084D01*
X110416486Y-138522081D01*
X110365023Y-138352431D01*
X110347646Y-138176000D01*
X110365023Y-137999569D01*
X110416486Y-137829919D01*
X110416487Y-137829916D01*
X110500058Y-137673567D01*
X110612525Y-137536525D01*
X110749567Y-137424058D01*
X110749566Y-137424058D01*
X110749568Y-137424057D01*
X110817647Y-137387668D01*
X110905916Y-137340487D01*
X110905919Y-137340486D01*
X111075569Y-137289023D01*
X111207793Y-137276000D01*
X111296207Y-137276000D01*
X111428431Y-137289023D01*
X111428431Y-137289023D01*
G37*
G36*
X112152000Y-136536000D02*
X110352000Y-136536000D01*
X110352000Y-134736000D01*
X112152000Y-134736000D01*
X112152000Y-136536000D01*
X112152000Y-136536000D01*
G37*
G36*
X100063722Y-132335043D02*
X100111764Y-132349616D01*
X100156048Y-132373287D01*
X100194861Y-132405139D01*
X100226713Y-132443952D01*
X100250384Y-132488236D01*
X100264957Y-132536278D01*
X100270000Y-132587482D01*
X100270000Y-133147518D01*
X100264957Y-133198722D01*
X100250384Y-133246764D01*
X100226713Y-133291048D01*
X100194861Y-133329861D01*
X100156048Y-133361713D01*
X100111764Y-133385384D01*
X100063722Y-133399957D01*
X100012518Y-133405000D01*
X99027482Y-133405000D01*
X98976278Y-133399957D01*
X98928236Y-133385384D01*
X98883952Y-133361713D01*
X98845139Y-133329861D01*
X98813287Y-133291048D01*
X98789616Y-133246764D01*
X98775043Y-133198722D01*
X98770000Y-133147518D01*
X98770000Y-132587482D01*
X98775043Y-132536278D01*
X98789616Y-132488236D01*
X98813287Y-132443952D01*
X98845139Y-132405139D01*
X98883952Y-132373287D01*
X98928236Y-132349616D01*
X98976278Y-132335043D01*
X99027482Y-132330000D01*
X100012518Y-132330000D01*
X100063722Y-132335043D01*
X100063722Y-132335043D01*
G37*
G36*
X105699722Y-132335043D02*
X105747764Y-132349616D01*
X105792048Y-132373287D01*
X105830861Y-132405139D01*
X105862713Y-132443952D01*
X105886384Y-132488236D01*
X105900957Y-132536278D01*
X105906000Y-132587482D01*
X105906000Y-133147518D01*
X105900957Y-133198722D01*
X105886384Y-133246764D01*
X105862713Y-133291048D01*
X105830861Y-133329861D01*
X105792048Y-133361713D01*
X105747764Y-133385384D01*
X105699722Y-133399957D01*
X105648518Y-133405000D01*
X104663482Y-133405000D01*
X104612278Y-133399957D01*
X104564236Y-133385384D01*
X104519952Y-133361713D01*
X104481139Y-133329861D01*
X104449287Y-133291048D01*
X104425616Y-133246764D01*
X104411043Y-133198722D01*
X104406000Y-133147518D01*
X104406000Y-132587482D01*
X104411043Y-132536278D01*
X104425616Y-132488236D01*
X104449287Y-132443952D01*
X104481139Y-132405139D01*
X104519952Y-132373287D01*
X104564236Y-132349616D01*
X104612278Y-132335043D01*
X104663482Y-132330000D01*
X105648518Y-132330000D01*
X105699722Y-132335043D01*
X105699722Y-132335043D01*
G37*
G36*
X112128722Y-132335043D02*
X112176764Y-132349616D01*
X112221048Y-132373287D01*
X112259861Y-132405139D01*
X112291713Y-132443952D01*
X112315384Y-132488236D01*
X112329957Y-132536278D01*
X112335000Y-132587482D01*
X112335000Y-133147518D01*
X112329957Y-133198722D01*
X112315384Y-133246764D01*
X112291713Y-133291048D01*
X112259861Y-133329861D01*
X112221048Y-133361713D01*
X112176764Y-133385384D01*
X112128722Y-133399957D01*
X112077518Y-133405000D01*
X111092482Y-133405000D01*
X111041278Y-133399957D01*
X110993236Y-133385384D01*
X110948952Y-133361713D01*
X110910139Y-133329861D01*
X110878287Y-133291048D01*
X110854616Y-133246764D01*
X110840043Y-133198722D01*
X110835000Y-133147518D01*
X110835000Y-132587482D01*
X110840043Y-132536278D01*
X110854616Y-132488236D01*
X110878287Y-132443952D01*
X110910139Y-132405139D01*
X110948952Y-132373287D01*
X110993236Y-132349616D01*
X111041278Y-132335043D01*
X111092482Y-132330000D01*
X112077518Y-132330000D01*
X112128722Y-132335043D01*
X112128722Y-132335043D01*
G37*
G36*
X85520431Y-131193023D02*
X85690081Y-131244486D01*
X85690084Y-131244487D01*
X85778353Y-131291668D01*
X85846432Y-131328057D01*
X85983475Y-131440525D01*
X86095943Y-131577568D01*
X86124911Y-131631764D01*
X86179513Y-131733916D01*
X86179514Y-131733919D01*
X86230977Y-131903569D01*
X86248354Y-132080000D01*
X86230977Y-132256431D01*
X86202454Y-132350457D01*
X86179513Y-132426084D01*
X86146292Y-132488236D01*
X86095943Y-132582432D01*
X85983475Y-132719475D01*
X85846432Y-132831943D01*
X85778353Y-132868332D01*
X85690084Y-132915513D01*
X85690081Y-132915514D01*
X85520431Y-132966977D01*
X85388207Y-132980000D01*
X85299793Y-132980000D01*
X85167569Y-132966977D01*
X84997919Y-132915514D01*
X84997916Y-132915513D01*
X84909647Y-132868332D01*
X84841568Y-132831943D01*
X84704525Y-132719475D01*
X84592057Y-132582432D01*
X84541708Y-132488236D01*
X84508487Y-132426084D01*
X84485546Y-132350457D01*
X84457023Y-132256431D01*
X84439646Y-132080000D01*
X84457023Y-131903569D01*
X84508486Y-131733919D01*
X84508487Y-131733916D01*
X84563089Y-131631764D01*
X84592057Y-131577568D01*
X84704525Y-131440525D01*
X84841568Y-131328057D01*
X84909647Y-131291668D01*
X84997916Y-131244487D01*
X84997919Y-131244486D01*
X85167569Y-131193023D01*
X85299793Y-131180000D01*
X85388207Y-131180000D01*
X85520431Y-131193023D01*
X85520431Y-131193023D01*
G37*
G36*
X94853722Y-130295043D02*
X94901764Y-130309616D01*
X94946048Y-130333287D01*
X94984861Y-130365139D01*
X95016713Y-130403952D01*
X95040384Y-130448236D01*
X95054957Y-130496278D01*
X95060000Y-130547482D01*
X95060000Y-131532518D01*
X95054957Y-131583722D01*
X95040384Y-131631764D01*
X95016713Y-131676048D01*
X94984861Y-131714861D01*
X94946048Y-131746713D01*
X94901764Y-131770384D01*
X94853722Y-131784957D01*
X94802518Y-131790000D01*
X94242482Y-131790000D01*
X94191278Y-131784957D01*
X94143236Y-131770384D01*
X94098952Y-131746713D01*
X94060139Y-131714861D01*
X94028287Y-131676048D01*
X94004616Y-131631764D01*
X93990043Y-131583722D01*
X93985000Y-131532518D01*
X93985000Y-130547482D01*
X93990043Y-130496278D01*
X94004616Y-130448236D01*
X94028287Y-130403952D01*
X94060139Y-130365139D01*
X94098952Y-130333287D01*
X94143236Y-130309616D01*
X94191278Y-130295043D01*
X94242482Y-130290000D01*
X94802518Y-130290000D01*
X94853722Y-130295043D01*
X94853722Y-130295043D01*
G37*
G36*
X96728722Y-130295043D02*
X96776764Y-130309616D01*
X96821048Y-130333287D01*
X96859861Y-130365139D01*
X96891713Y-130403952D01*
X96915384Y-130448236D01*
X96929957Y-130496278D01*
X96935000Y-130547482D01*
X96935000Y-131532518D01*
X96929957Y-131583722D01*
X96915384Y-131631764D01*
X96891713Y-131676048D01*
X96859861Y-131714861D01*
X96821048Y-131746713D01*
X96776764Y-131770384D01*
X96728722Y-131784957D01*
X96677518Y-131790000D01*
X96117482Y-131790000D01*
X96066278Y-131784957D01*
X96018236Y-131770384D01*
X95973952Y-131746713D01*
X95935139Y-131714861D01*
X95903287Y-131676048D01*
X95879616Y-131631764D01*
X95865043Y-131583722D01*
X95860000Y-131532518D01*
X95860000Y-130547482D01*
X95865043Y-130496278D01*
X95879616Y-130448236D01*
X95903287Y-130403952D01*
X95935139Y-130365139D01*
X95973952Y-130333287D01*
X96018236Y-130309616D01*
X96066278Y-130295043D01*
X96117482Y-130290000D01*
X96677518Y-130290000D01*
X96728722Y-130295043D01*
X96728722Y-130295043D01*
G37*
G36*
X100063722Y-130460043D02*
X100111764Y-130474616D01*
X100156048Y-130498287D01*
X100194861Y-130530139D01*
X100226713Y-130568952D01*
X100250384Y-130613236D01*
X100264957Y-130661278D01*
X100270000Y-130712482D01*
X100270000Y-131272518D01*
X100264957Y-131323722D01*
X100250384Y-131371764D01*
X100226713Y-131416048D01*
X100194861Y-131454861D01*
X100156048Y-131486713D01*
X100111764Y-131510384D01*
X100063722Y-131524957D01*
X100012518Y-131530000D01*
X99027482Y-131530000D01*
X98976278Y-131524957D01*
X98928236Y-131510384D01*
X98883952Y-131486713D01*
X98845139Y-131454861D01*
X98813287Y-131416048D01*
X98789616Y-131371764D01*
X98775043Y-131323722D01*
X98770000Y-131272518D01*
X98770000Y-130712482D01*
X98775043Y-130661278D01*
X98789616Y-130613236D01*
X98813287Y-130568952D01*
X98845139Y-130530139D01*
X98883952Y-130498287D01*
X98928236Y-130474616D01*
X98976278Y-130460043D01*
X99027482Y-130455000D01*
X100012518Y-130455000D01*
X100063722Y-130460043D01*
X100063722Y-130460043D01*
G37*
G36*
X105699722Y-130460043D02*
X105747764Y-130474616D01*
X105792048Y-130498287D01*
X105830861Y-130530139D01*
X105862713Y-130568952D01*
X105886384Y-130613236D01*
X105900957Y-130661278D01*
X105906000Y-130712482D01*
X105906000Y-131272518D01*
X105900957Y-131323722D01*
X105886384Y-131371764D01*
X105862713Y-131416048D01*
X105830861Y-131454861D01*
X105792048Y-131486713D01*
X105747764Y-131510384D01*
X105699722Y-131524957D01*
X105648518Y-131530000D01*
X104663482Y-131530000D01*
X104612278Y-131524957D01*
X104564236Y-131510384D01*
X104519952Y-131486713D01*
X104481139Y-131454861D01*
X104449287Y-131416048D01*
X104425616Y-131371764D01*
X104411043Y-131323722D01*
X104406000Y-131272518D01*
X104406000Y-130712482D01*
X104411043Y-130661278D01*
X104425616Y-130613236D01*
X104449287Y-130568952D01*
X104481139Y-130530139D01*
X104519952Y-130498287D01*
X104564236Y-130474616D01*
X104612278Y-130460043D01*
X104663482Y-130455000D01*
X105648518Y-130455000D01*
X105699722Y-130460043D01*
X105699722Y-130460043D01*
G37*
G36*
X112128722Y-130460043D02*
X112176764Y-130474616D01*
X112221048Y-130498287D01*
X112259861Y-130530139D01*
X112291713Y-130568952D01*
X112315384Y-130613236D01*
X112329957Y-130661278D01*
X112335000Y-130712482D01*
X112335000Y-131272518D01*
X112329957Y-131323722D01*
X112315384Y-131371764D01*
X112291713Y-131416048D01*
X112259861Y-131454861D01*
X112221048Y-131486713D01*
X112176764Y-131510384D01*
X112128722Y-131524957D01*
X112077518Y-131530000D01*
X111092482Y-131530000D01*
X111041278Y-131524957D01*
X110993236Y-131510384D01*
X110948952Y-131486713D01*
X110910139Y-131454861D01*
X110878287Y-131416048D01*
X110854616Y-131371764D01*
X110840043Y-131323722D01*
X110835000Y-131272518D01*
X110835000Y-130712482D01*
X110840043Y-130661278D01*
X110854616Y-130613236D01*
X110878287Y-130568952D01*
X110910139Y-130530139D01*
X110948952Y-130498287D01*
X110993236Y-130474616D01*
X111041278Y-130460043D01*
X111092482Y-130455000D01*
X112077518Y-130455000D01*
X112128722Y-130460043D01*
X112128722Y-130460043D01*
G37*
G36*
X85520431Y-128653023D02*
X85690081Y-128704486D01*
X85690084Y-128704487D01*
X85778353Y-128751668D01*
X85846432Y-128788057D01*
X85846434Y-128788058D01*
X85846433Y-128788058D01*
X85983475Y-128900525D01*
X86095942Y-129037567D01*
X86179513Y-129193916D01*
X86179514Y-129193919D01*
X86230977Y-129363569D01*
X86248354Y-129540000D01*
X86230977Y-129716431D01*
X86179514Y-129886081D01*
X86179513Y-129886084D01*
X86132332Y-129974353D01*
X86095943Y-130042432D01*
X85983475Y-130179475D01*
X85846432Y-130291943D01*
X85778353Y-130328332D01*
X85690084Y-130375513D01*
X85690081Y-130375514D01*
X85520431Y-130426977D01*
X85388207Y-130440000D01*
X85299793Y-130440000D01*
X85167569Y-130426977D01*
X84997919Y-130375514D01*
X84997916Y-130375513D01*
X84909647Y-130328332D01*
X84841568Y-130291943D01*
X84704525Y-130179475D01*
X84592057Y-130042432D01*
X84555668Y-129974353D01*
X84508487Y-129886084D01*
X84508486Y-129886081D01*
X84457023Y-129716431D01*
X84439646Y-129540000D01*
X84457023Y-129363569D01*
X84508486Y-129193919D01*
X84508487Y-129193916D01*
X84592058Y-129037567D01*
X84704525Y-128900525D01*
X84841567Y-128788058D01*
X84841566Y-128788058D01*
X84841568Y-128788057D01*
X84909647Y-128751668D01*
X84997916Y-128704487D01*
X84997919Y-128704486D01*
X85167569Y-128653023D01*
X85299793Y-128640000D01*
X85388207Y-128640000D01*
X85520431Y-128653023D01*
X85520431Y-128653023D01*
G37*
G36*
X94780000Y-129485000D02*
X94380000Y-129485000D01*
X94380000Y-127835000D01*
X94780000Y-127835000D01*
X94780000Y-129485000D01*
X94780000Y-129485000D01*
G37*
G36*
X95280000Y-129485000D02*
X94880000Y-129485000D01*
X94880000Y-127835000D01*
X95280000Y-127835000D01*
X95280000Y-129485000D01*
X95280000Y-129485000D01*
G37*
G36*
X95780000Y-129485000D02*
X95380000Y-129485000D01*
X95380000Y-127835000D01*
X95780000Y-127835000D01*
X95780000Y-129485000D01*
X95780000Y-129485000D01*
G37*
G36*
X96280000Y-129485000D02*
X95880000Y-129485000D01*
X95880000Y-127835000D01*
X96280000Y-127835000D01*
X96280000Y-129485000D01*
X96280000Y-129485000D01*
G37*
G36*
X96780000Y-129485000D02*
X96380000Y-129485000D01*
X96380000Y-127835000D01*
X96780000Y-127835000D01*
X96780000Y-129485000D01*
X96780000Y-129485000D01*
G37*
G36*
X97280000Y-129485000D02*
X96880000Y-129485000D01*
X96880000Y-127835000D01*
X97280000Y-127835000D01*
X97280000Y-129485000D01*
X97280000Y-129485000D01*
G37*
G36*
X97780000Y-129485000D02*
X97380000Y-129485000D01*
X97380000Y-127835000D01*
X97780000Y-127835000D01*
X97780000Y-129485000D01*
X97780000Y-129485000D01*
G37*
G36*
X98280000Y-129485000D02*
X97880000Y-129485000D01*
X97880000Y-127835000D01*
X98280000Y-127835000D01*
X98280000Y-129485000D01*
X98280000Y-129485000D01*
G37*
G36*
X98780000Y-129485000D02*
X98380000Y-129485000D01*
X98380000Y-127835000D01*
X98780000Y-127835000D01*
X98780000Y-129485000D01*
X98780000Y-129485000D01*
G37*
G36*
X104280000Y-129485000D02*
X103880000Y-129485000D01*
X103880000Y-127835000D01*
X104280000Y-127835000D01*
X104280000Y-129485000D01*
X104280000Y-129485000D01*
G37*
G36*
X99780000Y-129485000D02*
X99380000Y-129485000D01*
X99380000Y-127835000D01*
X99780000Y-127835000D01*
X99780000Y-129485000D01*
X99780000Y-129485000D01*
G37*
G36*
X100280000Y-129485000D02*
X99880000Y-129485000D01*
X99880000Y-127835000D01*
X100280000Y-127835000D01*
X100280000Y-129485000D01*
X100280000Y-129485000D01*
G37*
G36*
X100780000Y-129485000D02*
X100380000Y-129485000D01*
X100380000Y-127835000D01*
X100780000Y-127835000D01*
X100780000Y-129485000D01*
X100780000Y-129485000D01*
G37*
G36*
X101280000Y-129485000D02*
X100880000Y-129485000D01*
X100880000Y-127835000D01*
X101280000Y-127835000D01*
X101280000Y-129485000D01*
X101280000Y-129485000D01*
G37*
G36*
X101780000Y-129485000D02*
X101380000Y-129485000D01*
X101380000Y-127835000D01*
X101780000Y-127835000D01*
X101780000Y-129485000D01*
X101780000Y-129485000D01*
G37*
G36*
X102280000Y-129485000D02*
X101880000Y-129485000D01*
X101880000Y-127835000D01*
X102280000Y-127835000D01*
X102280000Y-129485000D01*
X102280000Y-129485000D01*
G37*
G36*
X102780000Y-129485000D02*
X102380000Y-129485000D01*
X102380000Y-127835000D01*
X102780000Y-127835000D01*
X102780000Y-129485000D01*
X102780000Y-129485000D01*
G37*
G36*
X103280000Y-129485000D02*
X102880000Y-129485000D01*
X102880000Y-127835000D01*
X103280000Y-127835000D01*
X103280000Y-129485000D01*
X103280000Y-129485000D01*
G37*
G36*
X112280000Y-129485000D02*
X111880000Y-129485000D01*
X111880000Y-127835000D01*
X112280000Y-127835000D01*
X112280000Y-129485000D01*
X112280000Y-129485000D01*
G37*
G36*
X99280000Y-129485000D02*
X98880000Y-129485000D01*
X98880000Y-127835000D01*
X99280000Y-127835000D01*
X99280000Y-129485000D01*
X99280000Y-129485000D01*
G37*
G36*
X108780000Y-129485000D02*
X108380000Y-129485000D01*
X108380000Y-127835000D01*
X108780000Y-127835000D01*
X108780000Y-129485000D01*
X108780000Y-129485000D01*
G37*
G36*
X104780000Y-129485000D02*
X104380000Y-129485000D01*
X104380000Y-127835000D01*
X104780000Y-127835000D01*
X104780000Y-129485000D01*
X104780000Y-129485000D01*
G37*
G36*
X105280000Y-129485000D02*
X104880000Y-129485000D01*
X104880000Y-127835000D01*
X105280000Y-127835000D01*
X105280000Y-129485000D01*
X105280000Y-129485000D01*
G37*
G36*
X105780000Y-129485000D02*
X105380000Y-129485000D01*
X105380000Y-127835000D01*
X105780000Y-127835000D01*
X105780000Y-129485000D01*
X105780000Y-129485000D01*
G37*
G36*
X106280000Y-129485000D02*
X105880000Y-129485000D01*
X105880000Y-127835000D01*
X106280000Y-127835000D01*
X106280000Y-129485000D01*
X106280000Y-129485000D01*
G37*
G36*
X106780000Y-129485000D02*
X106380000Y-129485000D01*
X106380000Y-127835000D01*
X106780000Y-127835000D01*
X106780000Y-129485000D01*
X106780000Y-129485000D01*
G37*
G36*
X107280000Y-129485000D02*
X106880000Y-129485000D01*
X106880000Y-127835000D01*
X107280000Y-127835000D01*
X107280000Y-129485000D01*
X107280000Y-129485000D01*
G37*
G36*
X107780000Y-129485000D02*
X107380000Y-129485000D01*
X107380000Y-127835000D01*
X107780000Y-127835000D01*
X107780000Y-129485000D01*
X107780000Y-129485000D01*
G37*
G36*
X103780000Y-129485000D02*
X103380000Y-129485000D01*
X103380000Y-127835000D01*
X103780000Y-127835000D01*
X103780000Y-129485000D01*
X103780000Y-129485000D01*
G37*
G36*
X109280000Y-129485000D02*
X108880000Y-129485000D01*
X108880000Y-127835000D01*
X109280000Y-127835000D01*
X109280000Y-129485000D01*
X109280000Y-129485000D01*
G37*
G36*
X109780000Y-129485000D02*
X109380000Y-129485000D01*
X109380000Y-127835000D01*
X109780000Y-127835000D01*
X109780000Y-129485000D01*
X109780000Y-129485000D01*
G37*
G36*
X110280000Y-129485000D02*
X109880000Y-129485000D01*
X109880000Y-127835000D01*
X110280000Y-127835000D01*
X110280000Y-129485000D01*
X110280000Y-129485000D01*
G37*
G36*
X110780000Y-129485000D02*
X110380000Y-129485000D01*
X110380000Y-127835000D01*
X110780000Y-127835000D01*
X110780000Y-129485000D01*
X110780000Y-129485000D01*
G37*
G36*
X111280000Y-129485000D02*
X110880000Y-129485000D01*
X110880000Y-127835000D01*
X111280000Y-127835000D01*
X111280000Y-129485000D01*
X111280000Y-129485000D01*
G37*
G36*
X111780000Y-129485000D02*
X111380000Y-129485000D01*
X111380000Y-127835000D01*
X111780000Y-127835000D01*
X111780000Y-129485000D01*
X111780000Y-129485000D01*
G37*
G36*
X108280000Y-129485000D02*
X107880000Y-129485000D01*
X107880000Y-127835000D01*
X108280000Y-127835000D01*
X108280000Y-129485000D01*
X108280000Y-129485000D01*
G37*
G36*
X85520431Y-126113023D02*
X85690081Y-126164486D01*
X85690084Y-126164487D01*
X85716702Y-126178715D01*
X85846432Y-126248057D01*
X85846434Y-126248058D01*
X85846433Y-126248058D01*
X85983475Y-126360525D01*
X86095942Y-126497567D01*
X86179513Y-126653916D01*
X86179514Y-126653919D01*
X86230977Y-126823569D01*
X86248354Y-127000000D01*
X86230977Y-127176431D01*
X86184013Y-127331250D01*
X86179513Y-127346084D01*
X86132469Y-127434096D01*
X86095943Y-127502432D01*
X85983475Y-127639475D01*
X85846432Y-127751943D01*
X85778353Y-127788332D01*
X85690084Y-127835513D01*
X85690081Y-127835514D01*
X85520431Y-127886977D01*
X85388207Y-127900000D01*
X85299793Y-127900000D01*
X85167569Y-127886977D01*
X84997919Y-127835514D01*
X84997916Y-127835513D01*
X84909647Y-127788332D01*
X84841568Y-127751943D01*
X84704525Y-127639475D01*
X84592057Y-127502432D01*
X84555531Y-127434096D01*
X84508487Y-127346084D01*
X84503987Y-127331250D01*
X84457023Y-127176431D01*
X84439646Y-127000000D01*
X84457023Y-126823569D01*
X84508486Y-126653919D01*
X84508487Y-126653916D01*
X84592058Y-126497567D01*
X84704525Y-126360525D01*
X84841567Y-126248058D01*
X84841566Y-126248058D01*
X84841568Y-126248057D01*
X84971298Y-126178715D01*
X84997916Y-126164487D01*
X84997919Y-126164486D01*
X85167569Y-126113023D01*
X85299793Y-126100000D01*
X85388207Y-126100000D01*
X85520431Y-126113023D01*
X85520431Y-126113023D01*
G37*
G36*
X88753722Y-126105043D02*
X88801764Y-126119616D01*
X88846048Y-126143287D01*
X88884861Y-126175139D01*
X88916713Y-126213952D01*
X88940384Y-126258236D01*
X88954957Y-126306278D01*
X88960000Y-126357482D01*
X88960000Y-127342518D01*
X88954957Y-127393722D01*
X88940384Y-127441764D01*
X88916713Y-127486048D01*
X88884861Y-127524861D01*
X88846048Y-127556713D01*
X88801764Y-127580384D01*
X88753722Y-127594957D01*
X88702518Y-127600000D01*
X88142482Y-127600000D01*
X88091278Y-127594957D01*
X88043236Y-127580384D01*
X87998952Y-127556713D01*
X87960139Y-127524861D01*
X87928287Y-127486048D01*
X87904616Y-127441764D01*
X87890043Y-127393722D01*
X87885000Y-127342518D01*
X87885000Y-126357482D01*
X87890043Y-126306278D01*
X87904616Y-126258236D01*
X87928287Y-126213952D01*
X87960139Y-126175139D01*
X87998952Y-126143287D01*
X88043236Y-126119616D01*
X88091278Y-126105043D01*
X88142482Y-126100000D01*
X88702518Y-126100000D01*
X88753722Y-126105043D01*
X88753722Y-126105043D01*
G37*
G36*
X90628722Y-126105043D02*
X90676764Y-126119616D01*
X90721048Y-126143287D01*
X90759861Y-126175139D01*
X90791713Y-126213952D01*
X90815384Y-126258236D01*
X90829957Y-126306278D01*
X90835000Y-126357482D01*
X90835000Y-127342518D01*
X90829957Y-127393722D01*
X90815384Y-127441764D01*
X90791713Y-127486048D01*
X90759861Y-127524861D01*
X90721048Y-127556713D01*
X90676764Y-127580384D01*
X90628722Y-127594957D01*
X90577518Y-127600000D01*
X90017482Y-127600000D01*
X89966278Y-127594957D01*
X89918236Y-127580384D01*
X89873952Y-127556713D01*
X89835139Y-127524861D01*
X89803287Y-127486048D01*
X89779616Y-127441764D01*
X89765043Y-127393722D01*
X89760000Y-127342518D01*
X89760000Y-126357482D01*
X89765043Y-126306278D01*
X89779616Y-126258236D01*
X89803287Y-126213952D01*
X89835139Y-126175139D01*
X89873952Y-126143287D01*
X89918236Y-126119616D01*
X89966278Y-126105043D01*
X90017482Y-126100000D01*
X90577518Y-126100000D01*
X90628722Y-126105043D01*
X90628722Y-126105043D01*
G37*
G36*
X93455000Y-126910000D02*
X91805000Y-126910000D01*
X91805000Y-126510000D01*
X93455000Y-126510000D01*
X93455000Y-126910000D01*
X93455000Y-126910000D01*
G37*
G36*
X114855000Y-126910000D02*
X113205000Y-126910000D01*
X113205000Y-126510000D01*
X114855000Y-126510000D01*
X114855000Y-126910000D01*
X114855000Y-126910000D01*
G37*
G36*
X93455000Y-126410000D02*
X91805000Y-126410000D01*
X91805000Y-126010000D01*
X93455000Y-126010000D01*
X93455000Y-126410000D01*
X93455000Y-126410000D01*
G37*
G36*
X114855000Y-126410000D02*
X113205000Y-126410000D01*
X113205000Y-126010000D01*
X114855000Y-126010000D01*
X114855000Y-126410000D01*
X114855000Y-126410000D01*
G37*
G36*
X114855000Y-125910000D02*
X113205000Y-125910000D01*
X113205000Y-125510000D01*
X114855000Y-125510000D01*
X114855000Y-125910000D01*
X114855000Y-125910000D01*
G37*
G36*
X93455000Y-125910000D02*
X91805000Y-125910000D01*
X91805000Y-125510000D01*
X93455000Y-125510000D01*
X93455000Y-125910000D01*
X93455000Y-125910000D01*
G37*
G36*
X114855000Y-125410000D02*
X113205000Y-125410000D01*
X113205000Y-125010000D01*
X114855000Y-125010000D01*
X114855000Y-125410000D01*
X114855000Y-125410000D01*
G37*
G36*
X93455000Y-125410000D02*
X91805000Y-125410000D01*
X91805000Y-125010000D01*
X93455000Y-125010000D01*
X93455000Y-125410000D01*
X93455000Y-125410000D01*
G37*
G36*
X85520431Y-123573023D02*
X85690081Y-123624486D01*
X85690084Y-123624487D01*
X85778353Y-123671668D01*
X85846432Y-123708057D01*
X85846434Y-123708058D01*
X85846433Y-123708058D01*
X85983475Y-123820525D01*
X86095942Y-123957567D01*
X86179513Y-124113916D01*
X86179514Y-124113919D01*
X86230977Y-124283569D01*
X86248354Y-124460000D01*
X86230977Y-124636431D01*
X86179514Y-124806081D01*
X86179513Y-124806084D01*
X86132332Y-124894353D01*
X86095943Y-124962432D01*
X85983475Y-125099475D01*
X85846432Y-125211943D01*
X85778353Y-125248332D01*
X85690084Y-125295513D01*
X85690081Y-125295514D01*
X85520431Y-125346977D01*
X85388207Y-125360000D01*
X85299793Y-125360000D01*
X85167569Y-125346977D01*
X84997919Y-125295514D01*
X84997916Y-125295513D01*
X84909647Y-125248332D01*
X84841568Y-125211943D01*
X84704525Y-125099475D01*
X84592057Y-124962432D01*
X84555668Y-124894353D01*
X84508487Y-124806084D01*
X84508486Y-124806081D01*
X84457023Y-124636431D01*
X84439646Y-124460000D01*
X84457023Y-124283569D01*
X84508486Y-124113919D01*
X84508487Y-124113916D01*
X84592058Y-123957567D01*
X84704525Y-123820525D01*
X84841567Y-123708058D01*
X84841566Y-123708058D01*
X84841568Y-123708057D01*
X84909647Y-123671668D01*
X84997916Y-123624487D01*
X84997919Y-123624486D01*
X85167569Y-123573023D01*
X85299793Y-123560000D01*
X85388207Y-123560000D01*
X85520431Y-123573023D01*
X85520431Y-123573023D01*
G37*
G36*
X130351431Y-123573023D02*
X130521081Y-123624486D01*
X130521084Y-123624487D01*
X130609353Y-123671668D01*
X130677432Y-123708057D01*
X130677434Y-123708058D01*
X130677433Y-123708058D01*
X130814475Y-123820525D01*
X130926942Y-123957567D01*
X131010513Y-124113916D01*
X131010514Y-124113919D01*
X131061977Y-124283569D01*
X131079354Y-124460000D01*
X131061977Y-124636431D01*
X131010514Y-124806081D01*
X131010513Y-124806084D01*
X130963332Y-124894353D01*
X130926943Y-124962432D01*
X130814475Y-125099475D01*
X130677432Y-125211943D01*
X130609353Y-125248332D01*
X130521084Y-125295513D01*
X130521081Y-125295514D01*
X130351431Y-125346977D01*
X130219207Y-125360000D01*
X130130793Y-125360000D01*
X129998569Y-125346977D01*
X129828919Y-125295514D01*
X129828916Y-125295513D01*
X129740647Y-125248332D01*
X129672568Y-125211943D01*
X129535525Y-125099475D01*
X129423057Y-124962432D01*
X129386668Y-124894353D01*
X129339487Y-124806084D01*
X129339486Y-124806081D01*
X129288023Y-124636431D01*
X129270646Y-124460000D01*
X129288023Y-124283569D01*
X129339486Y-124113919D01*
X129339487Y-124113916D01*
X129423058Y-123957567D01*
X129535525Y-123820525D01*
X129672567Y-123708058D01*
X129672566Y-123708058D01*
X129672568Y-123708057D01*
X129740647Y-123671668D01*
X129828916Y-123624487D01*
X129828919Y-123624486D01*
X129998569Y-123573023D01*
X130130793Y-123560000D01*
X130219207Y-123560000D01*
X130351431Y-123573023D01*
X130351431Y-123573023D01*
G37*
G36*
X125271431Y-123573023D02*
X125441081Y-123624486D01*
X125441084Y-123624487D01*
X125529353Y-123671668D01*
X125597432Y-123708057D01*
X125597434Y-123708058D01*
X125597433Y-123708058D01*
X125734475Y-123820525D01*
X125846942Y-123957567D01*
X125930513Y-124113916D01*
X125930514Y-124113919D01*
X125981977Y-124283569D01*
X125999354Y-124460000D01*
X125981977Y-124636431D01*
X125930514Y-124806081D01*
X125930513Y-124806084D01*
X125883332Y-124894353D01*
X125846943Y-124962432D01*
X125734475Y-125099475D01*
X125597432Y-125211943D01*
X125529353Y-125248332D01*
X125441084Y-125295513D01*
X125441081Y-125295514D01*
X125271431Y-125346977D01*
X125139207Y-125360000D01*
X125050793Y-125360000D01*
X124918569Y-125346977D01*
X124748919Y-125295514D01*
X124748916Y-125295513D01*
X124660647Y-125248332D01*
X124592568Y-125211943D01*
X124455525Y-125099475D01*
X124343057Y-124962432D01*
X124306668Y-124894353D01*
X124259487Y-124806084D01*
X124259486Y-124806081D01*
X124208023Y-124636431D01*
X124190646Y-124460000D01*
X124208023Y-124283569D01*
X124259486Y-124113919D01*
X124259487Y-124113916D01*
X124343058Y-123957567D01*
X124455525Y-123820525D01*
X124592567Y-123708058D01*
X124592566Y-123708058D01*
X124592568Y-123708057D01*
X124660647Y-123671668D01*
X124748916Y-123624487D01*
X124748919Y-123624486D01*
X124918569Y-123573023D01*
X125050793Y-123560000D01*
X125139207Y-123560000D01*
X125271431Y-123573023D01*
X125271431Y-123573023D01*
G37*
G36*
X127811431Y-123573023D02*
X127981081Y-123624486D01*
X127981084Y-123624487D01*
X128069353Y-123671668D01*
X128137432Y-123708057D01*
X128137434Y-123708058D01*
X128137433Y-123708058D01*
X128274475Y-123820525D01*
X128386942Y-123957567D01*
X128470513Y-124113916D01*
X128470514Y-124113919D01*
X128521977Y-124283569D01*
X128539354Y-124460000D01*
X128521977Y-124636431D01*
X128470514Y-124806081D01*
X128470513Y-124806084D01*
X128423332Y-124894353D01*
X128386943Y-124962432D01*
X128274475Y-125099475D01*
X128137432Y-125211943D01*
X128069353Y-125248332D01*
X127981084Y-125295513D01*
X127981081Y-125295514D01*
X127811431Y-125346977D01*
X127679207Y-125360000D01*
X127590793Y-125360000D01*
X127458569Y-125346977D01*
X127288919Y-125295514D01*
X127288916Y-125295513D01*
X127200647Y-125248332D01*
X127132568Y-125211943D01*
X126995525Y-125099475D01*
X126883057Y-124962432D01*
X126846668Y-124894353D01*
X126799487Y-124806084D01*
X126799486Y-124806081D01*
X126748023Y-124636431D01*
X126730646Y-124460000D01*
X126748023Y-124283569D01*
X126799486Y-124113919D01*
X126799487Y-124113916D01*
X126883058Y-123957567D01*
X126995525Y-123820525D01*
X127132567Y-123708058D01*
X127132566Y-123708058D01*
X127132568Y-123708057D01*
X127200647Y-123671668D01*
X127288916Y-123624487D01*
X127288919Y-123624486D01*
X127458569Y-123573023D01*
X127590793Y-123560000D01*
X127679207Y-123560000D01*
X127811431Y-123573023D01*
X127811431Y-123573023D01*
G37*
G36*
X114855000Y-124910000D02*
X113205000Y-124910000D01*
X113205000Y-124510000D01*
X114855000Y-124510000D01*
X114855000Y-124910000D01*
X114855000Y-124910000D01*
G37*
G36*
X93455000Y-124910000D02*
X91805000Y-124910000D01*
X91805000Y-124510000D01*
X93455000Y-124510000D01*
X93455000Y-124910000D01*
X93455000Y-124910000D01*
G37*
G36*
X114855000Y-124410000D02*
X113205000Y-124410000D01*
X113205000Y-124010000D01*
X114855000Y-124010000D01*
X114855000Y-124410000D01*
X114855000Y-124410000D01*
G37*
G36*
X93455000Y-124410000D02*
X91805000Y-124410000D01*
X91805000Y-124010000D01*
X93455000Y-124010000D01*
X93455000Y-124410000D01*
X93455000Y-124410000D01*
G37*
G36*
X93455000Y-123910000D02*
X91805000Y-123910000D01*
X91805000Y-123510000D01*
X93455000Y-123510000D01*
X93455000Y-123910000D01*
X93455000Y-123910000D01*
G37*
G36*
X114855000Y-123910000D02*
X113205000Y-123910000D01*
X113205000Y-123510000D01*
X114855000Y-123510000D01*
X114855000Y-123910000D01*
X114855000Y-123910000D01*
G37*
G36*
X90459722Y-122833043D02*
X90507764Y-122847616D01*
X90552048Y-122871287D01*
X90590861Y-122903139D01*
X90622713Y-122941952D01*
X90646384Y-122986236D01*
X90660957Y-123034278D01*
X90666000Y-123085482D01*
X90666000Y-123645518D01*
X90660957Y-123696722D01*
X90646384Y-123744764D01*
X90622713Y-123789048D01*
X90590861Y-123827861D01*
X90552048Y-123859713D01*
X90507764Y-123883384D01*
X90459722Y-123897957D01*
X90408518Y-123903000D01*
X89423482Y-123903000D01*
X89372278Y-123897957D01*
X89324236Y-123883384D01*
X89279952Y-123859713D01*
X89241139Y-123827861D01*
X89209287Y-123789048D01*
X89185616Y-123744764D01*
X89171043Y-123696722D01*
X89166000Y-123645518D01*
X89166000Y-123085482D01*
X89171043Y-123034278D01*
X89185616Y-122986236D01*
X89209287Y-122941952D01*
X89241139Y-122903139D01*
X89279952Y-122871287D01*
X89324236Y-122847616D01*
X89372278Y-122833043D01*
X89423482Y-122828000D01*
X90408518Y-122828000D01*
X90459722Y-122833043D01*
X90459722Y-122833043D01*
G37*
G36*
X93455000Y-123410000D02*
X91805000Y-123410000D01*
X91805000Y-123010000D01*
X93455000Y-123010000D01*
X93455000Y-123410000D01*
X93455000Y-123410000D01*
G37*
G36*
X114855000Y-123410000D02*
X113205000Y-123410000D01*
X113205000Y-123010000D01*
X114855000Y-123010000D01*
X114855000Y-123410000D01*
X114855000Y-123410000D01*
G37*
G36*
X93455000Y-122910000D02*
X91805000Y-122910000D01*
X91805000Y-122510000D01*
X93455000Y-122510000D01*
X93455000Y-122910000D01*
X93455000Y-122910000D01*
G37*
G36*
X114855000Y-122910000D02*
X113205000Y-122910000D01*
X113205000Y-122510000D01*
X114855000Y-122510000D01*
X114855000Y-122910000D01*
X114855000Y-122910000D01*
G37*
G36*
X125271431Y-121033023D02*
X125439795Y-121084096D01*
X125441084Y-121084487D01*
X125461300Y-121095293D01*
X125597432Y-121168057D01*
X125646390Y-121208236D01*
X125734475Y-121280525D01*
X125846942Y-121417567D01*
X125930513Y-121573916D01*
X125930514Y-121573919D01*
X125981977Y-121743569D01*
X125999354Y-121920000D01*
X125981977Y-122096431D01*
X125930514Y-122266081D01*
X125930513Y-122266084D01*
X125883332Y-122354353D01*
X125846943Y-122422432D01*
X125734475Y-122559475D01*
X125597432Y-122671943D01*
X125529353Y-122708332D01*
X125441084Y-122755513D01*
X125441081Y-122755514D01*
X125271431Y-122806977D01*
X125139207Y-122820000D01*
X125050793Y-122820000D01*
X124918569Y-122806977D01*
X124748919Y-122755514D01*
X124748916Y-122755513D01*
X124660647Y-122708332D01*
X124592568Y-122671943D01*
X124455525Y-122559475D01*
X124343057Y-122422432D01*
X124306668Y-122354353D01*
X124259487Y-122266084D01*
X124259486Y-122266081D01*
X124208023Y-122096431D01*
X124190646Y-121920000D01*
X124208023Y-121743569D01*
X124259486Y-121573919D01*
X124259487Y-121573916D01*
X124343058Y-121417567D01*
X124455525Y-121280525D01*
X124543610Y-121208236D01*
X124592568Y-121168057D01*
X124728700Y-121095293D01*
X124748916Y-121084487D01*
X124750205Y-121084096D01*
X124918569Y-121033023D01*
X125050793Y-121020000D01*
X125139207Y-121020000D01*
X125271431Y-121033023D01*
X125271431Y-121033023D01*
G37*
G36*
X85520431Y-121033023D02*
X85688795Y-121084096D01*
X85690084Y-121084487D01*
X85710300Y-121095293D01*
X85846432Y-121168057D01*
X85895390Y-121208236D01*
X85983475Y-121280525D01*
X86095942Y-121417567D01*
X86179513Y-121573916D01*
X86179514Y-121573919D01*
X86230977Y-121743569D01*
X86248354Y-121920000D01*
X86230977Y-122096431D01*
X86179514Y-122266081D01*
X86179513Y-122266084D01*
X86132332Y-122354353D01*
X86095943Y-122422432D01*
X85983475Y-122559475D01*
X85846432Y-122671943D01*
X85778353Y-122708332D01*
X85690084Y-122755513D01*
X85690081Y-122755514D01*
X85520431Y-122806977D01*
X85388207Y-122820000D01*
X85299793Y-122820000D01*
X85167569Y-122806977D01*
X84997919Y-122755514D01*
X84997916Y-122755513D01*
X84909647Y-122708332D01*
X84841568Y-122671943D01*
X84704525Y-122559475D01*
X84592057Y-122422432D01*
X84555668Y-122354353D01*
X84508487Y-122266084D01*
X84508486Y-122266081D01*
X84457023Y-122096431D01*
X84439646Y-121920000D01*
X84457023Y-121743569D01*
X84508486Y-121573919D01*
X84508487Y-121573916D01*
X84592058Y-121417567D01*
X84704525Y-121280525D01*
X84792610Y-121208236D01*
X84841568Y-121168057D01*
X84977700Y-121095293D01*
X84997916Y-121084487D01*
X84999205Y-121084096D01*
X85167569Y-121033023D01*
X85299793Y-121020000D01*
X85388207Y-121020000D01*
X85520431Y-121033023D01*
X85520431Y-121033023D01*
G37*
G36*
X127811431Y-121033023D02*
X127979795Y-121084096D01*
X127981084Y-121084487D01*
X128001300Y-121095293D01*
X128137432Y-121168057D01*
X128186390Y-121208236D01*
X128274475Y-121280525D01*
X128386942Y-121417567D01*
X128470513Y-121573916D01*
X128470514Y-121573919D01*
X128521977Y-121743569D01*
X128539354Y-121920000D01*
X128521977Y-122096431D01*
X128470514Y-122266081D01*
X128470513Y-122266084D01*
X128423332Y-122354353D01*
X128386943Y-122422432D01*
X128274475Y-122559475D01*
X128137432Y-122671943D01*
X128069353Y-122708332D01*
X127981084Y-122755513D01*
X127981081Y-122755514D01*
X127811431Y-122806977D01*
X127679207Y-122820000D01*
X127590793Y-122820000D01*
X127458569Y-122806977D01*
X127288919Y-122755514D01*
X127288916Y-122755513D01*
X127200647Y-122708332D01*
X127132568Y-122671943D01*
X126995525Y-122559475D01*
X126883057Y-122422432D01*
X126846668Y-122354353D01*
X126799487Y-122266084D01*
X126799486Y-122266081D01*
X126748023Y-122096431D01*
X126730646Y-121920000D01*
X126748023Y-121743569D01*
X126799486Y-121573919D01*
X126799487Y-121573916D01*
X126883058Y-121417567D01*
X126995525Y-121280525D01*
X127083610Y-121208236D01*
X127132568Y-121168057D01*
X127268700Y-121095293D01*
X127288916Y-121084487D01*
X127290205Y-121084096D01*
X127458569Y-121033023D01*
X127590793Y-121020000D01*
X127679207Y-121020000D01*
X127811431Y-121033023D01*
X127811431Y-121033023D01*
G37*
G36*
X131075000Y-122820000D02*
X129275000Y-122820000D01*
X129275000Y-121020000D01*
X131075000Y-121020000D01*
X131075000Y-122820000D01*
X131075000Y-122820000D01*
G37*
G36*
X93455000Y-122410000D02*
X91805000Y-122410000D01*
X91805000Y-122010000D01*
X93455000Y-122010000D01*
X93455000Y-122410000D01*
X93455000Y-122410000D01*
G37*
G36*
X114855000Y-122410000D02*
X113205000Y-122410000D01*
X113205000Y-122010000D01*
X114855000Y-122010000D01*
X114855000Y-122410000D01*
X114855000Y-122410000D01*
G37*
G36*
X69631722Y-121055043D02*
X69679764Y-121069616D01*
X69724048Y-121093287D01*
X69762861Y-121125139D01*
X69794713Y-121163952D01*
X69818384Y-121208236D01*
X69832957Y-121256278D01*
X69838000Y-121307482D01*
X69838000Y-121867518D01*
X69832957Y-121918722D01*
X69818384Y-121966764D01*
X69794713Y-122011048D01*
X69762861Y-122049861D01*
X69724048Y-122081713D01*
X69679764Y-122105384D01*
X69631722Y-122119957D01*
X69580518Y-122125000D01*
X68595482Y-122125000D01*
X68544278Y-122119957D01*
X68496236Y-122105384D01*
X68451952Y-122081713D01*
X68413139Y-122049861D01*
X68381287Y-122011048D01*
X68357616Y-121966764D01*
X68343043Y-121918722D01*
X68338000Y-121867518D01*
X68338000Y-121307482D01*
X68343043Y-121256278D01*
X68357616Y-121208236D01*
X68381287Y-121163952D01*
X68413139Y-121125139D01*
X68451952Y-121093287D01*
X68496236Y-121069616D01*
X68544278Y-121055043D01*
X68595482Y-121050000D01*
X69580518Y-121050000D01*
X69631722Y-121055043D01*
X69631722Y-121055043D01*
G37*
G36*
X90459722Y-120958043D02*
X90507764Y-120972616D01*
X90552048Y-120996287D01*
X90590861Y-121028139D01*
X90622713Y-121066952D01*
X90646384Y-121111236D01*
X90660957Y-121159278D01*
X90666000Y-121210482D01*
X90666000Y-121770518D01*
X90660957Y-121821722D01*
X90646384Y-121869764D01*
X90622713Y-121914048D01*
X90590861Y-121952861D01*
X90552048Y-121984713D01*
X90507764Y-122008384D01*
X90459722Y-122022957D01*
X90408518Y-122028000D01*
X89423482Y-122028000D01*
X89372278Y-122022957D01*
X89324236Y-122008384D01*
X89279952Y-121984713D01*
X89241139Y-121952861D01*
X89209287Y-121914048D01*
X89185616Y-121869764D01*
X89171043Y-121821722D01*
X89166000Y-121770518D01*
X89166000Y-121210482D01*
X89171043Y-121159278D01*
X89185616Y-121111236D01*
X89209287Y-121066952D01*
X89241139Y-121028139D01*
X89279952Y-120996287D01*
X89324236Y-120972616D01*
X89372278Y-120958043D01*
X89423482Y-120953000D01*
X90408518Y-120953000D01*
X90459722Y-120958043D01*
X90459722Y-120958043D01*
G37*
G36*
X114855000Y-121910000D02*
X113205000Y-121910000D01*
X113205000Y-121510000D01*
X114855000Y-121510000D01*
X114855000Y-121910000D01*
X114855000Y-121910000D01*
G37*
G36*
X93455000Y-121910000D02*
X91805000Y-121910000D01*
X91805000Y-121510000D01*
X93455000Y-121510000D01*
X93455000Y-121910000D01*
X93455000Y-121910000D01*
G37*
G36*
X93455000Y-121410000D02*
X91805000Y-121410000D01*
X91805000Y-121010000D01*
X93455000Y-121010000D01*
X93455000Y-121410000D01*
X93455000Y-121410000D01*
G37*
G36*
X114855000Y-121410000D02*
X113205000Y-121410000D01*
X113205000Y-121010000D01*
X114855000Y-121010000D01*
X114855000Y-121410000D01*
X114855000Y-121410000D01*
G37*
G36*
X118568722Y-119755043D02*
X118616764Y-119769616D01*
X118661048Y-119793287D01*
X118699861Y-119825139D01*
X118731713Y-119863952D01*
X118755384Y-119908236D01*
X118769957Y-119956278D01*
X118775000Y-120007482D01*
X118775000Y-120992518D01*
X118769957Y-121043722D01*
X118755384Y-121091764D01*
X118731713Y-121136048D01*
X118699861Y-121174861D01*
X118661048Y-121206713D01*
X118616764Y-121230384D01*
X118568722Y-121244957D01*
X118517518Y-121250000D01*
X117957482Y-121250000D01*
X117906278Y-121244957D01*
X117858236Y-121230384D01*
X117813952Y-121206713D01*
X117775139Y-121174861D01*
X117743287Y-121136048D01*
X117719616Y-121091764D01*
X117705043Y-121043722D01*
X117700000Y-120992518D01*
X117700000Y-120007482D01*
X117705043Y-119956278D01*
X117719616Y-119908236D01*
X117743287Y-119863952D01*
X117775139Y-119825139D01*
X117813952Y-119793287D01*
X117858236Y-119769616D01*
X117906278Y-119755043D01*
X117957482Y-119750000D01*
X118517518Y-119750000D01*
X118568722Y-119755043D01*
X118568722Y-119755043D01*
G37*
G36*
X116693722Y-119755043D02*
X116741764Y-119769616D01*
X116786048Y-119793287D01*
X116824861Y-119825139D01*
X116856713Y-119863952D01*
X116880384Y-119908236D01*
X116894957Y-119956278D01*
X116900000Y-120007482D01*
X116900000Y-120992518D01*
X116894957Y-121043722D01*
X116880384Y-121091764D01*
X116856713Y-121136048D01*
X116824861Y-121174861D01*
X116786048Y-121206713D01*
X116741764Y-121230384D01*
X116693722Y-121244957D01*
X116642518Y-121250000D01*
X116082482Y-121250000D01*
X116031278Y-121244957D01*
X115983236Y-121230384D01*
X115938952Y-121206713D01*
X115900139Y-121174861D01*
X115868287Y-121136048D01*
X115844616Y-121091764D01*
X115830043Y-121043722D01*
X115825000Y-120992518D01*
X115825000Y-120007482D01*
X115830043Y-119956278D01*
X115844616Y-119908236D01*
X115868287Y-119863952D01*
X115900139Y-119825139D01*
X115938952Y-119793287D01*
X115983236Y-119769616D01*
X116031278Y-119755043D01*
X116082482Y-119750000D01*
X116642518Y-119750000D01*
X116693722Y-119755043D01*
X116693722Y-119755043D01*
G37*
G36*
X114855000Y-120910000D02*
X113205000Y-120910000D01*
X113205000Y-120510000D01*
X114855000Y-120510000D01*
X114855000Y-120910000D01*
X114855000Y-120910000D01*
G37*
G36*
X93455000Y-120910000D02*
X91805000Y-120910000D01*
X91805000Y-120510000D01*
X93455000Y-120510000D01*
X93455000Y-120910000D01*
X93455000Y-120910000D01*
G37*
G36*
X114855000Y-120410000D02*
X113205000Y-120410000D01*
X113205000Y-120010000D01*
X114855000Y-120010000D01*
X114855000Y-120410000D01*
X114855000Y-120410000D01*
G37*
G36*
X93455000Y-120410000D02*
X91805000Y-120410000D01*
X91805000Y-120010000D01*
X93455000Y-120010000D01*
X93455000Y-120410000D01*
X93455000Y-120410000D01*
G37*
G36*
X85520431Y-118493023D02*
X85690081Y-118544486D01*
X85690084Y-118544487D01*
X85726509Y-118563957D01*
X85846432Y-118628057D01*
X85983475Y-118740525D01*
X86095943Y-118877568D01*
X86113278Y-118910000D01*
X86179513Y-119033916D01*
X86179514Y-119033919D01*
X86230977Y-119203569D01*
X86248354Y-119380000D01*
X86230977Y-119556431D01*
X86181492Y-119719560D01*
X86179513Y-119726084D01*
X86156244Y-119769616D01*
X86095943Y-119882432D01*
X85983475Y-120019475D01*
X85846432Y-120131943D01*
X85778353Y-120168332D01*
X85690084Y-120215513D01*
X85690081Y-120215514D01*
X85520431Y-120266977D01*
X85388207Y-120280000D01*
X85299793Y-120280000D01*
X85167569Y-120266977D01*
X84997919Y-120215514D01*
X84997916Y-120215513D01*
X84909647Y-120168332D01*
X84841568Y-120131943D01*
X84704525Y-120019475D01*
X84592057Y-119882432D01*
X84531756Y-119769616D01*
X84508487Y-119726084D01*
X84506508Y-119719560D01*
X84457023Y-119556431D01*
X84439646Y-119380000D01*
X84457023Y-119203569D01*
X84508486Y-119033919D01*
X84508487Y-119033916D01*
X84574722Y-118910000D01*
X84592057Y-118877568D01*
X84704525Y-118740525D01*
X84841568Y-118628057D01*
X84961491Y-118563957D01*
X84997916Y-118544487D01*
X84997919Y-118544486D01*
X85167569Y-118493023D01*
X85299793Y-118480000D01*
X85388207Y-118480000D01*
X85520431Y-118493023D01*
X85520431Y-118493023D01*
G37*
G36*
X69631722Y-119180043D02*
X69679764Y-119194616D01*
X69724048Y-119218287D01*
X69762861Y-119250139D01*
X69794713Y-119288952D01*
X69818384Y-119333236D01*
X69832957Y-119381278D01*
X69838000Y-119432482D01*
X69838000Y-119992518D01*
X69832957Y-120043722D01*
X69818384Y-120091764D01*
X69794713Y-120136048D01*
X69762861Y-120174861D01*
X69724048Y-120206713D01*
X69679764Y-120230384D01*
X69631722Y-120244957D01*
X69580518Y-120250000D01*
X68595482Y-120250000D01*
X68544278Y-120244957D01*
X68496236Y-120230384D01*
X68451952Y-120206713D01*
X68413139Y-120174861D01*
X68381287Y-120136048D01*
X68357616Y-120091764D01*
X68343043Y-120043722D01*
X68338000Y-119992518D01*
X68338000Y-119432482D01*
X68343043Y-119381278D01*
X68357616Y-119333236D01*
X68381287Y-119288952D01*
X68413139Y-119250139D01*
X68451952Y-119218287D01*
X68496236Y-119194616D01*
X68544278Y-119180043D01*
X68595482Y-119175000D01*
X69580518Y-119175000D01*
X69631722Y-119180043D01*
X69631722Y-119180043D01*
G37*
G36*
X114855000Y-119910000D02*
X113205000Y-119910000D01*
X113205000Y-119510000D01*
X114855000Y-119510000D01*
X114855000Y-119910000D01*
X114855000Y-119910000D01*
G37*
G36*
X93455000Y-119910000D02*
X91805000Y-119910000D01*
X91805000Y-119510000D01*
X93455000Y-119510000D01*
X93455000Y-119910000D01*
X93455000Y-119910000D01*
G37*
G36*
X72171722Y-118769043D02*
X72219764Y-118783616D01*
X72264048Y-118807287D01*
X72302861Y-118839139D01*
X72334713Y-118877952D01*
X72358384Y-118922236D01*
X72372957Y-118970278D01*
X72378000Y-119021482D01*
X72378000Y-119581518D01*
X72372957Y-119632722D01*
X72358384Y-119680764D01*
X72334713Y-119725048D01*
X72302861Y-119763861D01*
X72264048Y-119795713D01*
X72219764Y-119819384D01*
X72171722Y-119833957D01*
X72120518Y-119839000D01*
X71135482Y-119839000D01*
X71084278Y-119833957D01*
X71036236Y-119819384D01*
X70991952Y-119795713D01*
X70953139Y-119763861D01*
X70921287Y-119725048D01*
X70897616Y-119680764D01*
X70883043Y-119632722D01*
X70878000Y-119581518D01*
X70878000Y-119021482D01*
X70883043Y-118970278D01*
X70897616Y-118922236D01*
X70921287Y-118877952D01*
X70953139Y-118839139D01*
X70991952Y-118807287D01*
X71036236Y-118783616D01*
X71084278Y-118769043D01*
X71135482Y-118764000D01*
X72120518Y-118764000D01*
X72171722Y-118769043D01*
X72171722Y-118769043D01*
G37*
G36*
X74203722Y-118769043D02*
X74251764Y-118783616D01*
X74296048Y-118807287D01*
X74334861Y-118839139D01*
X74366713Y-118877952D01*
X74390384Y-118922236D01*
X74404957Y-118970278D01*
X74410000Y-119021482D01*
X74410000Y-119581518D01*
X74404957Y-119632722D01*
X74390384Y-119680764D01*
X74366713Y-119725048D01*
X74334861Y-119763861D01*
X74296048Y-119795713D01*
X74251764Y-119819384D01*
X74203722Y-119833957D01*
X74152518Y-119839000D01*
X73167482Y-119839000D01*
X73116278Y-119833957D01*
X73068236Y-119819384D01*
X73023952Y-119795713D01*
X72985139Y-119763861D01*
X72953287Y-119725048D01*
X72929616Y-119680764D01*
X72915043Y-119632722D01*
X72910000Y-119581518D01*
X72910000Y-119021482D01*
X72915043Y-118970278D01*
X72929616Y-118922236D01*
X72953287Y-118877952D01*
X72985139Y-118839139D01*
X73023952Y-118807287D01*
X73068236Y-118783616D01*
X73116278Y-118769043D01*
X73167482Y-118764000D01*
X74152518Y-118764000D01*
X74203722Y-118769043D01*
X74203722Y-118769043D01*
G37*
G36*
X136904722Y-118127043D02*
X136952764Y-118141616D01*
X136997048Y-118165287D01*
X137035861Y-118197139D01*
X137067713Y-118235952D01*
X137091384Y-118280236D01*
X137105957Y-118328278D01*
X137111000Y-118379482D01*
X137111000Y-119364518D01*
X137105957Y-119415722D01*
X137091384Y-119463764D01*
X137067713Y-119508048D01*
X137035861Y-119546861D01*
X136997048Y-119578713D01*
X136952764Y-119602384D01*
X136904722Y-119616957D01*
X136853518Y-119622000D01*
X136293482Y-119622000D01*
X136242278Y-119616957D01*
X136194236Y-119602384D01*
X136149952Y-119578713D01*
X136111139Y-119546861D01*
X136079287Y-119508048D01*
X136055616Y-119463764D01*
X136041043Y-119415722D01*
X136036000Y-119364518D01*
X136036000Y-118379482D01*
X136041043Y-118328278D01*
X136055616Y-118280236D01*
X136079287Y-118235952D01*
X136111139Y-118197139D01*
X136149952Y-118165287D01*
X136194236Y-118141616D01*
X136242278Y-118127043D01*
X136293482Y-118122000D01*
X136853518Y-118122000D01*
X136904722Y-118127043D01*
X136904722Y-118127043D01*
G37*
G36*
X135029722Y-118127043D02*
X135077764Y-118141616D01*
X135122048Y-118165287D01*
X135160861Y-118197139D01*
X135192713Y-118235952D01*
X135216384Y-118280236D01*
X135230957Y-118328278D01*
X135236000Y-118379482D01*
X135236000Y-119364518D01*
X135230957Y-119415722D01*
X135216384Y-119463764D01*
X135192713Y-119508048D01*
X135160861Y-119546861D01*
X135122048Y-119578713D01*
X135077764Y-119602384D01*
X135029722Y-119616957D01*
X134978518Y-119622000D01*
X134418482Y-119622000D01*
X134367278Y-119616957D01*
X134319236Y-119602384D01*
X134274952Y-119578713D01*
X134236139Y-119546861D01*
X134204287Y-119508048D01*
X134180616Y-119463764D01*
X134166043Y-119415722D01*
X134161000Y-119364518D01*
X134161000Y-118379482D01*
X134166043Y-118328278D01*
X134180616Y-118280236D01*
X134204287Y-118235952D01*
X134236139Y-118197139D01*
X134274952Y-118165287D01*
X134319236Y-118141616D01*
X134367278Y-118127043D01*
X134418482Y-118122000D01*
X134978518Y-118122000D01*
X135029722Y-118127043D01*
X135029722Y-118127043D01*
G37*
G36*
X93455000Y-119410000D02*
X91805000Y-119410000D01*
X91805000Y-119010000D01*
X93455000Y-119010000D01*
X93455000Y-119410000D01*
X93455000Y-119410000D01*
G37*
G36*
X114855000Y-119410000D02*
X113205000Y-119410000D01*
X113205000Y-119010000D01*
X114855000Y-119010000D01*
X114855000Y-119410000D01*
X114855000Y-119410000D01*
G37*
G36*
X114855000Y-118910000D02*
X113205000Y-118910000D01*
X113205000Y-118510000D01*
X114855000Y-118510000D01*
X114855000Y-118910000D01*
X114855000Y-118910000D01*
G37*
G36*
X93455000Y-118910000D02*
X91805000Y-118910000D01*
X91805000Y-118510000D01*
X93455000Y-118510000D01*
X93455000Y-118910000D01*
X93455000Y-118910000D01*
G37*
G36*
X69631722Y-117499043D02*
X69679764Y-117513616D01*
X69724048Y-117537287D01*
X69762861Y-117569139D01*
X69794713Y-117607952D01*
X69818384Y-117652236D01*
X69832957Y-117700278D01*
X69838000Y-117751482D01*
X69838000Y-118311518D01*
X69832957Y-118362722D01*
X69818384Y-118410764D01*
X69794713Y-118455048D01*
X69762861Y-118493861D01*
X69724048Y-118525713D01*
X69679764Y-118549384D01*
X69631722Y-118563957D01*
X69580518Y-118569000D01*
X68595482Y-118569000D01*
X68544278Y-118563957D01*
X68496236Y-118549384D01*
X68451952Y-118525713D01*
X68413139Y-118493861D01*
X68381287Y-118455048D01*
X68357616Y-118410764D01*
X68343043Y-118362722D01*
X68338000Y-118311518D01*
X68338000Y-117751482D01*
X68343043Y-117700278D01*
X68357616Y-117652236D01*
X68381287Y-117607952D01*
X68413139Y-117569139D01*
X68451952Y-117537287D01*
X68496236Y-117513616D01*
X68544278Y-117499043D01*
X68595482Y-117494000D01*
X69580518Y-117494000D01*
X69631722Y-117499043D01*
X69631722Y-117499043D01*
G37*
G36*
X114855000Y-118410000D02*
X113205000Y-118410000D01*
X113205000Y-118010000D01*
X114855000Y-118010000D01*
X114855000Y-118410000D01*
X114855000Y-118410000D01*
G37*
G36*
X93455000Y-118410000D02*
X91805000Y-118410000D01*
X91805000Y-118010000D01*
X93455000Y-118010000D01*
X93455000Y-118410000D01*
X93455000Y-118410000D01*
G37*
G36*
X74203722Y-116894043D02*
X74251764Y-116908616D01*
X74296048Y-116932287D01*
X74334861Y-116964139D01*
X74366713Y-117002952D01*
X74390384Y-117047236D01*
X74404957Y-117095278D01*
X74410000Y-117146482D01*
X74410000Y-117706518D01*
X74404957Y-117757722D01*
X74390384Y-117805764D01*
X74366713Y-117850048D01*
X74334861Y-117888861D01*
X74296048Y-117920713D01*
X74251764Y-117944384D01*
X74203722Y-117958957D01*
X74152518Y-117964000D01*
X73167482Y-117964000D01*
X73116278Y-117958957D01*
X73068236Y-117944384D01*
X73023952Y-117920713D01*
X72985139Y-117888861D01*
X72953287Y-117850048D01*
X72929616Y-117805764D01*
X72915043Y-117757722D01*
X72910000Y-117706518D01*
X72910000Y-117146482D01*
X72915043Y-117095278D01*
X72929616Y-117047236D01*
X72953287Y-117002952D01*
X72985139Y-116964139D01*
X73023952Y-116932287D01*
X73068236Y-116908616D01*
X73116278Y-116894043D01*
X73167482Y-116889000D01*
X74152518Y-116889000D01*
X74203722Y-116894043D01*
X74203722Y-116894043D01*
G37*
G36*
X72171722Y-116894043D02*
X72219764Y-116908616D01*
X72264048Y-116932287D01*
X72302861Y-116964139D01*
X72334713Y-117002952D01*
X72358384Y-117047236D01*
X72372957Y-117095278D01*
X72378000Y-117146482D01*
X72378000Y-117706518D01*
X72372957Y-117757722D01*
X72358384Y-117805764D01*
X72334713Y-117850048D01*
X72302861Y-117888861D01*
X72264048Y-117920713D01*
X72219764Y-117944384D01*
X72171722Y-117958957D01*
X72120518Y-117964000D01*
X71135482Y-117964000D01*
X71084278Y-117958957D01*
X71036236Y-117944384D01*
X70991952Y-117920713D01*
X70953139Y-117888861D01*
X70921287Y-117850048D01*
X70897616Y-117805764D01*
X70883043Y-117757722D01*
X70878000Y-117706518D01*
X70878000Y-117146482D01*
X70883043Y-117095278D01*
X70897616Y-117047236D01*
X70921287Y-117002952D01*
X70953139Y-116964139D01*
X70991952Y-116932287D01*
X71036236Y-116908616D01*
X71084278Y-116894043D01*
X71135482Y-116889000D01*
X72120518Y-116889000D01*
X72171722Y-116894043D01*
X72171722Y-116894043D01*
G37*
G36*
X114855000Y-117910000D02*
X113205000Y-117910000D01*
X113205000Y-117510000D01*
X114855000Y-117510000D01*
X114855000Y-117910000D01*
X114855000Y-117910000D01*
G37*
G36*
X93455000Y-117910000D02*
X91805000Y-117910000D01*
X91805000Y-117510000D01*
X93455000Y-117510000D01*
X93455000Y-117910000D01*
X93455000Y-117910000D01*
G37*
G36*
X85520431Y-115953023D02*
X85688795Y-116004096D01*
X85690084Y-116004487D01*
X85776280Y-116050560D01*
X85846432Y-116088057D01*
X85983475Y-116200525D01*
X86095943Y-116337568D01*
X86115797Y-116374713D01*
X86179513Y-116493916D01*
X86179514Y-116493919D01*
X86230977Y-116663569D01*
X86248354Y-116840000D01*
X86230977Y-117016431D01*
X86191526Y-117146482D01*
X86179513Y-117186084D01*
X86132332Y-117274353D01*
X86095943Y-117342432D01*
X85983475Y-117479475D01*
X85846432Y-117591943D01*
X85778353Y-117628332D01*
X85690084Y-117675513D01*
X85690081Y-117675514D01*
X85520431Y-117726977D01*
X85388207Y-117740000D01*
X85299793Y-117740000D01*
X85167569Y-117726977D01*
X84997919Y-117675514D01*
X84997916Y-117675513D01*
X84909647Y-117628332D01*
X84841568Y-117591943D01*
X84704525Y-117479475D01*
X84592057Y-117342432D01*
X84555668Y-117274353D01*
X84508487Y-117186084D01*
X84496474Y-117146482D01*
X84457023Y-117016431D01*
X84439646Y-116840000D01*
X84457023Y-116663569D01*
X84508486Y-116493919D01*
X84508487Y-116493916D01*
X84572203Y-116374713D01*
X84592057Y-116337568D01*
X84704525Y-116200525D01*
X84841568Y-116088057D01*
X84911720Y-116050560D01*
X84997916Y-116004487D01*
X84999205Y-116004096D01*
X85167569Y-115953023D01*
X85299793Y-115940000D01*
X85388207Y-115940000D01*
X85520431Y-115953023D01*
X85520431Y-115953023D01*
G37*
G36*
X93455000Y-117410000D02*
X91805000Y-117410000D01*
X91805000Y-117010000D01*
X93455000Y-117010000D01*
X93455000Y-117410000D01*
X93455000Y-117410000D01*
G37*
G36*
X114855000Y-117410000D02*
X113205000Y-117410000D01*
X113205000Y-117010000D01*
X114855000Y-117010000D01*
X114855000Y-117410000D01*
X114855000Y-117410000D01*
G37*
G36*
X135907552Y-116350801D02*
X135923936Y-116355771D01*
X135939046Y-116363848D01*
X135952287Y-116374713D01*
X135963152Y-116387954D01*
X135971229Y-116403064D01*
X135976199Y-116419448D01*
X135978000Y-116437733D01*
X135978000Y-117010267D01*
X135976199Y-117028552D01*
X135971229Y-117044936D01*
X135963152Y-117060046D01*
X135952287Y-117073287D01*
X135939046Y-117084152D01*
X135923936Y-117092229D01*
X135907552Y-117097199D01*
X135889267Y-117099000D01*
X135666733Y-117099000D01*
X135648448Y-117097199D01*
X135632064Y-117092229D01*
X135616954Y-117084152D01*
X135603713Y-117073287D01*
X135592848Y-117060046D01*
X135584771Y-117044936D01*
X135579801Y-117028552D01*
X135578000Y-117010267D01*
X135578000Y-116437733D01*
X135579801Y-116419448D01*
X135584771Y-116403064D01*
X135592848Y-116387954D01*
X135603713Y-116374713D01*
X135616954Y-116363848D01*
X135632064Y-116355771D01*
X135648448Y-116350801D01*
X135666733Y-116349000D01*
X135889267Y-116349000D01*
X135907552Y-116350801D01*
X135907552Y-116350801D01*
G37*
G36*
X134607552Y-116350801D02*
X134623936Y-116355771D01*
X134639046Y-116363848D01*
X134652287Y-116374713D01*
X134663152Y-116387954D01*
X134671229Y-116403064D01*
X134676199Y-116419448D01*
X134678000Y-116437733D01*
X134678000Y-117010267D01*
X134676199Y-117028552D01*
X134671229Y-117044936D01*
X134663152Y-117060046D01*
X134652287Y-117073287D01*
X134639046Y-117084152D01*
X134623936Y-117092229D01*
X134607552Y-117097199D01*
X134589267Y-117099000D01*
X134366733Y-117099000D01*
X134348448Y-117097199D01*
X134332064Y-117092229D01*
X134316954Y-117084152D01*
X134303713Y-117073287D01*
X134292848Y-117060046D01*
X134284771Y-117044936D01*
X134279801Y-117028552D01*
X134278000Y-117010267D01*
X134278000Y-116437733D01*
X134279801Y-116419448D01*
X134284771Y-116403064D01*
X134292848Y-116387954D01*
X134303713Y-116374713D01*
X134316954Y-116363848D01*
X134332064Y-116355771D01*
X134348448Y-116350801D01*
X134366733Y-116349000D01*
X134589267Y-116349000D01*
X134607552Y-116350801D01*
X134607552Y-116350801D01*
G37*
G36*
X135257552Y-116350801D02*
X135273936Y-116355771D01*
X135289046Y-116363848D01*
X135302287Y-116374713D01*
X135313152Y-116387954D01*
X135321229Y-116403064D01*
X135326199Y-116419448D01*
X135328000Y-116437733D01*
X135328000Y-117010267D01*
X135326199Y-117028552D01*
X135321229Y-117044936D01*
X135313152Y-117060046D01*
X135302287Y-117073287D01*
X135289046Y-117084152D01*
X135273936Y-117092229D01*
X135257552Y-117097199D01*
X135239267Y-117099000D01*
X135016733Y-117099000D01*
X134998448Y-117097199D01*
X134982064Y-117092229D01*
X134966954Y-117084152D01*
X134953713Y-117073287D01*
X134942848Y-117060046D01*
X134934771Y-117044936D01*
X134929801Y-117028552D01*
X134928000Y-117010267D01*
X134928000Y-116437733D01*
X134929801Y-116419448D01*
X134934771Y-116403064D01*
X134942848Y-116387954D01*
X134953713Y-116374713D01*
X134966954Y-116363848D01*
X134982064Y-116355771D01*
X134998448Y-116350801D01*
X135016733Y-116349000D01*
X135239267Y-116349000D01*
X135257552Y-116350801D01*
X135257552Y-116350801D01*
G37*
G36*
X114855000Y-116910000D02*
X113205000Y-116910000D01*
X113205000Y-116510000D01*
X114855000Y-116510000D01*
X114855000Y-116910000D01*
X114855000Y-116910000D01*
G37*
G36*
X93455000Y-116910000D02*
X91805000Y-116910000D01*
X91805000Y-116510000D01*
X93455000Y-116510000D01*
X93455000Y-116910000D01*
X93455000Y-116910000D01*
G37*
G36*
X90967722Y-115721043D02*
X91015764Y-115735616D01*
X91060048Y-115759287D01*
X91098861Y-115791139D01*
X91130713Y-115829952D01*
X91154384Y-115874236D01*
X91168957Y-115922278D01*
X91174000Y-115973482D01*
X91174000Y-116533518D01*
X91168957Y-116584722D01*
X91154384Y-116632764D01*
X91130713Y-116677048D01*
X91098861Y-116715861D01*
X91060048Y-116747713D01*
X91015764Y-116771384D01*
X90967722Y-116785957D01*
X90916518Y-116791000D01*
X89931482Y-116791000D01*
X89880278Y-116785957D01*
X89832236Y-116771384D01*
X89787952Y-116747713D01*
X89749139Y-116715861D01*
X89717287Y-116677048D01*
X89693616Y-116632764D01*
X89679043Y-116584722D01*
X89674000Y-116533518D01*
X89674000Y-115973482D01*
X89679043Y-115922278D01*
X89693616Y-115874236D01*
X89717287Y-115829952D01*
X89749139Y-115791139D01*
X89787952Y-115759287D01*
X89832236Y-115735616D01*
X89880278Y-115721043D01*
X89931482Y-115716000D01*
X90916518Y-115716000D01*
X90967722Y-115721043D01*
X90967722Y-115721043D01*
G37*
G36*
X69631722Y-115624043D02*
X69679764Y-115638616D01*
X69724048Y-115662287D01*
X69762861Y-115694139D01*
X69794713Y-115732952D01*
X69818384Y-115777236D01*
X69832957Y-115825278D01*
X69838000Y-115876482D01*
X69838000Y-116436518D01*
X69832957Y-116487722D01*
X69818384Y-116535764D01*
X69794713Y-116580048D01*
X69762861Y-116618861D01*
X69724048Y-116650713D01*
X69679764Y-116674384D01*
X69631722Y-116688957D01*
X69580518Y-116694000D01*
X68595482Y-116694000D01*
X68544278Y-116688957D01*
X68496236Y-116674384D01*
X68451952Y-116650713D01*
X68413139Y-116618861D01*
X68381287Y-116580048D01*
X68357616Y-116535764D01*
X68343043Y-116487722D01*
X68338000Y-116436518D01*
X68338000Y-115876482D01*
X68343043Y-115825278D01*
X68357616Y-115777236D01*
X68381287Y-115732952D01*
X68413139Y-115694139D01*
X68451952Y-115662287D01*
X68496236Y-115638616D01*
X68544278Y-115624043D01*
X68595482Y-115619000D01*
X69580518Y-115619000D01*
X69631722Y-115624043D01*
X69631722Y-115624043D01*
G37*
G36*
X114855000Y-116410000D02*
X113205000Y-116410000D01*
X113205000Y-116010000D01*
X114855000Y-116010000D01*
X114855000Y-116410000D01*
X114855000Y-116410000D01*
G37*
G36*
X93455000Y-116410000D02*
X91805000Y-116410000D01*
X91805000Y-116010000D01*
X93455000Y-116010000D01*
X93455000Y-116410000D01*
X93455000Y-116410000D01*
G37*
G36*
X116693722Y-114675043D02*
X116741764Y-114689616D01*
X116786048Y-114713287D01*
X116824861Y-114745139D01*
X116856713Y-114783952D01*
X116880384Y-114828236D01*
X116894957Y-114876278D01*
X116900000Y-114927482D01*
X116900000Y-115912518D01*
X116894957Y-115963722D01*
X116880384Y-116011764D01*
X116856713Y-116056048D01*
X116824861Y-116094861D01*
X116786048Y-116126713D01*
X116741764Y-116150384D01*
X116693722Y-116164957D01*
X116642518Y-116170000D01*
X116082482Y-116170000D01*
X116031278Y-116164957D01*
X115983236Y-116150384D01*
X115938952Y-116126713D01*
X115900139Y-116094861D01*
X115868287Y-116056048D01*
X115844616Y-116011764D01*
X115830043Y-115963722D01*
X115825000Y-115912518D01*
X115825000Y-114927482D01*
X115830043Y-114876278D01*
X115844616Y-114828236D01*
X115868287Y-114783952D01*
X115900139Y-114745139D01*
X115938952Y-114713287D01*
X115983236Y-114689616D01*
X116031278Y-114675043D01*
X116082482Y-114670000D01*
X116642518Y-114670000D01*
X116693722Y-114675043D01*
X116693722Y-114675043D01*
G37*
G36*
X118568722Y-114675043D02*
X118616764Y-114689616D01*
X118661048Y-114713287D01*
X118699861Y-114745139D01*
X118731713Y-114783952D01*
X118755384Y-114828236D01*
X118769957Y-114876278D01*
X118775000Y-114927482D01*
X118775000Y-115912518D01*
X118769957Y-115963722D01*
X118755384Y-116011764D01*
X118731713Y-116056048D01*
X118699861Y-116094861D01*
X118661048Y-116126713D01*
X118616764Y-116150384D01*
X118568722Y-116164957D01*
X118517518Y-116170000D01*
X117957482Y-116170000D01*
X117906278Y-116164957D01*
X117858236Y-116150384D01*
X117813952Y-116126713D01*
X117775139Y-116094861D01*
X117743287Y-116056048D01*
X117719616Y-116011764D01*
X117705043Y-115963722D01*
X117700000Y-115912518D01*
X117700000Y-114927482D01*
X117705043Y-114876278D01*
X117719616Y-114828236D01*
X117743287Y-114783952D01*
X117775139Y-114745139D01*
X117813952Y-114713287D01*
X117858236Y-114689616D01*
X117906278Y-114675043D01*
X117957482Y-114670000D01*
X118517518Y-114670000D01*
X118568722Y-114675043D01*
X118568722Y-114675043D01*
G37*
G36*
X114855000Y-115910000D02*
X113205000Y-115910000D01*
X113205000Y-115510000D01*
X114855000Y-115510000D01*
X114855000Y-115910000D01*
X114855000Y-115910000D01*
G37*
G36*
X93455000Y-115910000D02*
X91805000Y-115910000D01*
X91805000Y-115510000D01*
X93455000Y-115510000D01*
X93455000Y-115910000D01*
X93455000Y-115910000D01*
G37*
G36*
X93455000Y-115410000D02*
X91805000Y-115410000D01*
X91805000Y-115010000D01*
X93455000Y-115010000D01*
X93455000Y-115410000D01*
X93455000Y-115410000D01*
G37*
G36*
X114855000Y-115410000D02*
X113205000Y-115410000D01*
X113205000Y-115010000D01*
X114855000Y-115010000D01*
X114855000Y-115410000D01*
X114855000Y-115410000D01*
G37*
G36*
X134607552Y-114550801D02*
X134623936Y-114555771D01*
X134639046Y-114563848D01*
X134652287Y-114574713D01*
X134663152Y-114587954D01*
X134671229Y-114603064D01*
X134676199Y-114619448D01*
X134678000Y-114637733D01*
X134678000Y-115210267D01*
X134676199Y-115228552D01*
X134671229Y-115244936D01*
X134663152Y-115260046D01*
X134652287Y-115273287D01*
X134639046Y-115284152D01*
X134623936Y-115292229D01*
X134607552Y-115297199D01*
X134589267Y-115299000D01*
X134366733Y-115299000D01*
X134348448Y-115297199D01*
X134332064Y-115292229D01*
X134316954Y-115284152D01*
X134303713Y-115273287D01*
X134292848Y-115260046D01*
X134284771Y-115244936D01*
X134279801Y-115228552D01*
X134278000Y-115210267D01*
X134278000Y-114637733D01*
X134279801Y-114619448D01*
X134284771Y-114603064D01*
X134292848Y-114587954D01*
X134303713Y-114574713D01*
X134316954Y-114563848D01*
X134332064Y-114555771D01*
X134348448Y-114550801D01*
X134366733Y-114549000D01*
X134589267Y-114549000D01*
X134607552Y-114550801D01*
X134607552Y-114550801D01*
G37*
G36*
X135907552Y-114550801D02*
X135923936Y-114555771D01*
X135939046Y-114563848D01*
X135952287Y-114574713D01*
X135963152Y-114587954D01*
X135971229Y-114603064D01*
X135976199Y-114619448D01*
X135978000Y-114637733D01*
X135978000Y-115210267D01*
X135976199Y-115228552D01*
X135971229Y-115244936D01*
X135963152Y-115260046D01*
X135952287Y-115273287D01*
X135939046Y-115284152D01*
X135923936Y-115292229D01*
X135907552Y-115297199D01*
X135889267Y-115299000D01*
X135666733Y-115299000D01*
X135648448Y-115297199D01*
X135632064Y-115292229D01*
X135616954Y-115284152D01*
X135603713Y-115273287D01*
X135592848Y-115260046D01*
X135584771Y-115244936D01*
X135579801Y-115228552D01*
X135578000Y-115210267D01*
X135578000Y-114637733D01*
X135579801Y-114619448D01*
X135584771Y-114603064D01*
X135592848Y-114587954D01*
X135603713Y-114574713D01*
X135616954Y-114563848D01*
X135632064Y-114555771D01*
X135648448Y-114550801D01*
X135666733Y-114549000D01*
X135889267Y-114549000D01*
X135907552Y-114550801D01*
X135907552Y-114550801D01*
G37*
G36*
X135257552Y-114550801D02*
X135273936Y-114555771D01*
X135289046Y-114563848D01*
X135302287Y-114574713D01*
X135313152Y-114587954D01*
X135321229Y-114603064D01*
X135326199Y-114619448D01*
X135328000Y-114637733D01*
X135328000Y-115210267D01*
X135326199Y-115228552D01*
X135321229Y-115244936D01*
X135313152Y-115260046D01*
X135302287Y-115273287D01*
X135289046Y-115284152D01*
X135273936Y-115292229D01*
X135257552Y-115297199D01*
X135239267Y-115299000D01*
X135016733Y-115299000D01*
X134998448Y-115297199D01*
X134982064Y-115292229D01*
X134966954Y-115284152D01*
X134953713Y-115273287D01*
X134942848Y-115260046D01*
X134934771Y-115244936D01*
X134929801Y-115228552D01*
X134928000Y-115210267D01*
X134928000Y-114637733D01*
X134929801Y-114619448D01*
X134934771Y-114603064D01*
X134942848Y-114587954D01*
X134953713Y-114574713D01*
X134966954Y-114563848D01*
X134982064Y-114555771D01*
X134998448Y-114550801D01*
X135016733Y-114549000D01*
X135239267Y-114549000D01*
X135257552Y-114550801D01*
X135257552Y-114550801D01*
G37*
G36*
X86244000Y-115200000D02*
X84444000Y-115200000D01*
X84444000Y-113400000D01*
X86244000Y-113400000D01*
X86244000Y-115200000D01*
X86244000Y-115200000D01*
G37*
G36*
X76932601Y-113559590D02*
X76984365Y-113581032D01*
X77072732Y-113617634D01*
X77167103Y-113680691D01*
X77198847Y-113701902D01*
X77306098Y-113809153D01*
X77306099Y-113809155D01*
X77390366Y-113935268D01*
X77426968Y-114023635D01*
X77448410Y-114075399D01*
X77478000Y-114224162D01*
X77478000Y-114375838D01*
X77448410Y-114524601D01*
X77427653Y-114574713D01*
X77390366Y-114664732D01*
X77336639Y-114745139D01*
X77306098Y-114790847D01*
X77198847Y-114898098D01*
X77181034Y-114910000D01*
X77072732Y-114982366D01*
X76984365Y-115018968D01*
X76932601Y-115040410D01*
X76783838Y-115070000D01*
X76632162Y-115070000D01*
X76483399Y-115040410D01*
X76431635Y-115018968D01*
X76343268Y-114982366D01*
X76234966Y-114910000D01*
X76217153Y-114898098D01*
X76109902Y-114790847D01*
X76079361Y-114745139D01*
X76025634Y-114664732D01*
X75988347Y-114574713D01*
X75967590Y-114524601D01*
X75938000Y-114375838D01*
X75938000Y-114224162D01*
X75967590Y-114075399D01*
X75989032Y-114023635D01*
X76025634Y-113935268D01*
X76109901Y-113809155D01*
X76109902Y-113809153D01*
X76217153Y-113701902D01*
X76248897Y-113680691D01*
X76343268Y-113617634D01*
X76431635Y-113581032D01*
X76483399Y-113559590D01*
X76632162Y-113530000D01*
X76783838Y-113530000D01*
X76932601Y-113559590D01*
X76932601Y-113559590D01*
G37*
G36*
X82012601Y-113559590D02*
X82064365Y-113581032D01*
X82152732Y-113617634D01*
X82247103Y-113680691D01*
X82278847Y-113701902D01*
X82386098Y-113809153D01*
X82386099Y-113809155D01*
X82470366Y-113935268D01*
X82506968Y-114023635D01*
X82528410Y-114075399D01*
X82558000Y-114224162D01*
X82558000Y-114375838D01*
X82528410Y-114524601D01*
X82507653Y-114574713D01*
X82470366Y-114664732D01*
X82416639Y-114745139D01*
X82386098Y-114790847D01*
X82278847Y-114898098D01*
X82261034Y-114910000D01*
X82152732Y-114982366D01*
X82064365Y-115018968D01*
X82012601Y-115040410D01*
X81863838Y-115070000D01*
X81712162Y-115070000D01*
X81563399Y-115040410D01*
X81511635Y-115018968D01*
X81423268Y-114982366D01*
X81314966Y-114910000D01*
X81297153Y-114898098D01*
X81189902Y-114790847D01*
X81159361Y-114745139D01*
X81105634Y-114664732D01*
X81068347Y-114574713D01*
X81047590Y-114524601D01*
X81018000Y-114375838D01*
X81018000Y-114224162D01*
X81047590Y-114075399D01*
X81069032Y-114023635D01*
X81105634Y-113935268D01*
X81189901Y-113809155D01*
X81189902Y-113809153D01*
X81297153Y-113701902D01*
X81328897Y-113680691D01*
X81423268Y-113617634D01*
X81511635Y-113581032D01*
X81563399Y-113559590D01*
X81712162Y-113530000D01*
X81863838Y-113530000D01*
X82012601Y-113559590D01*
X82012601Y-113559590D01*
G37*
G36*
X90967722Y-113846043D02*
X91015764Y-113860616D01*
X91060048Y-113884287D01*
X91098861Y-113916139D01*
X91130713Y-113954952D01*
X91154384Y-113999236D01*
X91168957Y-114047278D01*
X91174000Y-114098482D01*
X91174000Y-114658518D01*
X91168957Y-114709722D01*
X91154384Y-114757764D01*
X91130713Y-114802048D01*
X91098861Y-114840861D01*
X91060048Y-114872713D01*
X91015764Y-114896384D01*
X90967722Y-114910957D01*
X90916518Y-114916000D01*
X89931482Y-114916000D01*
X89880278Y-114910957D01*
X89832236Y-114896384D01*
X89787952Y-114872713D01*
X89749139Y-114840861D01*
X89717287Y-114802048D01*
X89693616Y-114757764D01*
X89679043Y-114709722D01*
X89674000Y-114658518D01*
X89674000Y-114098482D01*
X89679043Y-114047278D01*
X89693616Y-113999236D01*
X89717287Y-113954952D01*
X89749139Y-113916139D01*
X89787952Y-113884287D01*
X89832236Y-113860616D01*
X89880278Y-113846043D01*
X89931482Y-113841000D01*
X90916518Y-113841000D01*
X90967722Y-113846043D01*
X90967722Y-113846043D01*
G37*
G36*
X114855000Y-114910000D02*
X113205000Y-114910000D01*
X113205000Y-114510000D01*
X114855000Y-114510000D01*
X114855000Y-114910000D01*
X114855000Y-114910000D01*
G37*
G36*
X93455000Y-114910000D02*
X91805000Y-114910000D01*
X91805000Y-114510000D01*
X93455000Y-114510000D01*
X93455000Y-114910000D01*
X93455000Y-114910000D01*
G37*
G36*
X114855000Y-114410000D02*
X113205000Y-114410000D01*
X113205000Y-114010000D01*
X114855000Y-114010000D01*
X114855000Y-114410000D01*
X114855000Y-114410000D01*
G37*
G36*
X93455000Y-114410000D02*
X91805000Y-114410000D01*
X91805000Y-114010000D01*
X93455000Y-114010000D01*
X93455000Y-114410000D01*
X93455000Y-114410000D01*
G37*
G36*
X93455000Y-113910000D02*
X91805000Y-113910000D01*
X91805000Y-113510000D01*
X93455000Y-113510000D01*
X93455000Y-113910000D01*
X93455000Y-113910000D01*
G37*
G36*
X114855000Y-113910000D02*
X113205000Y-113910000D01*
X113205000Y-113510000D01*
X114855000Y-113510000D01*
X114855000Y-113910000D01*
X114855000Y-113910000D01*
G37*
G36*
X114855000Y-113410000D02*
X113205000Y-113410000D01*
X113205000Y-113010000D01*
X114855000Y-113010000D01*
X114855000Y-113410000D01*
X114855000Y-113410000D01*
G37*
G36*
X93455000Y-113410000D02*
X91805000Y-113410000D01*
X91805000Y-113010000D01*
X93455000Y-113010000D01*
X93455000Y-113410000D01*
X93455000Y-113410000D01*
G37*
G36*
X114855000Y-112910000D02*
X113205000Y-112910000D01*
X113205000Y-112510000D01*
X114855000Y-112510000D01*
X114855000Y-112910000D01*
X114855000Y-112910000D01*
G37*
G36*
X93455000Y-112910000D02*
X91805000Y-112910000D01*
X91805000Y-112510000D01*
X93455000Y-112510000D01*
X93455000Y-112910000D01*
X93455000Y-112910000D01*
G37*
G36*
X79472601Y-111019590D02*
X79524365Y-111041032D01*
X79612732Y-111077634D01*
X79707103Y-111140692D01*
X79738847Y-111161902D01*
X79846098Y-111269153D01*
X79846099Y-111269155D01*
X79930366Y-111395268D01*
X79948894Y-111440000D01*
X79988410Y-111535399D01*
X80018000Y-111684162D01*
X80018000Y-111835838D01*
X79988410Y-111984601D01*
X79977889Y-112010000D01*
X79930366Y-112124732D01*
X79867309Y-112219103D01*
X79846098Y-112250847D01*
X79738847Y-112358098D01*
X79707103Y-112379309D01*
X79612732Y-112442366D01*
X79546724Y-112469707D01*
X79472601Y-112500410D01*
X79323838Y-112530000D01*
X79172162Y-112530000D01*
X79023399Y-112500410D01*
X78949276Y-112469707D01*
X78883268Y-112442366D01*
X78788897Y-112379309D01*
X78757153Y-112358098D01*
X78649902Y-112250847D01*
X78628692Y-112219103D01*
X78565634Y-112124732D01*
X78518111Y-112010000D01*
X78507590Y-111984601D01*
X78478000Y-111835838D01*
X78478000Y-111684162D01*
X78507590Y-111535399D01*
X78547106Y-111440000D01*
X78565634Y-111395268D01*
X78649901Y-111269155D01*
X78649902Y-111269153D01*
X78757153Y-111161902D01*
X78788897Y-111140692D01*
X78883268Y-111077634D01*
X78971635Y-111041032D01*
X79023399Y-111019590D01*
X79172162Y-110990000D01*
X79323838Y-110990000D01*
X79472601Y-111019590D01*
X79472601Y-111019590D01*
G37*
G36*
X124503722Y-111445043D02*
X124551764Y-111459616D01*
X124596048Y-111483287D01*
X124634861Y-111515139D01*
X124666713Y-111553952D01*
X124690384Y-111598236D01*
X124704957Y-111646278D01*
X124710000Y-111697482D01*
X124710000Y-112257518D01*
X124704957Y-112308722D01*
X124690384Y-112356764D01*
X124666713Y-112401048D01*
X124634861Y-112439861D01*
X124596048Y-112471713D01*
X124551764Y-112495384D01*
X124503722Y-112509957D01*
X124452518Y-112515000D01*
X123467482Y-112515000D01*
X123416278Y-112509957D01*
X123368236Y-112495384D01*
X123323952Y-112471713D01*
X123285139Y-112439861D01*
X123253287Y-112401048D01*
X123229616Y-112356764D01*
X123215043Y-112308722D01*
X123210000Y-112257518D01*
X123210000Y-111697482D01*
X123215043Y-111646278D01*
X123229616Y-111598236D01*
X123253287Y-111553952D01*
X123285139Y-111515139D01*
X123323952Y-111483287D01*
X123368236Y-111459616D01*
X123416278Y-111445043D01*
X123467482Y-111440000D01*
X124452518Y-111440000D01*
X124503722Y-111445043D01*
X124503722Y-111445043D01*
G37*
G36*
X126503722Y-111445043D02*
X126551764Y-111459616D01*
X126596048Y-111483287D01*
X126634861Y-111515139D01*
X126666713Y-111553952D01*
X126690384Y-111598236D01*
X126704957Y-111646278D01*
X126710000Y-111697482D01*
X126710000Y-112257518D01*
X126704957Y-112308722D01*
X126690384Y-112356764D01*
X126666713Y-112401048D01*
X126634861Y-112439861D01*
X126596048Y-112471713D01*
X126551764Y-112495384D01*
X126503722Y-112509957D01*
X126452518Y-112515000D01*
X125467482Y-112515000D01*
X125416278Y-112509957D01*
X125368236Y-112495384D01*
X125323952Y-112471713D01*
X125285139Y-112439861D01*
X125253287Y-112401048D01*
X125229616Y-112356764D01*
X125215043Y-112308722D01*
X125210000Y-112257518D01*
X125210000Y-111697482D01*
X125215043Y-111646278D01*
X125229616Y-111598236D01*
X125253287Y-111553952D01*
X125285139Y-111515139D01*
X125323952Y-111483287D01*
X125368236Y-111459616D01*
X125416278Y-111445043D01*
X125467482Y-111440000D01*
X126452518Y-111440000D01*
X126503722Y-111445043D01*
X126503722Y-111445043D01*
G37*
G36*
X93455000Y-112410000D02*
X91805000Y-112410000D01*
X91805000Y-112010000D01*
X93455000Y-112010000D01*
X93455000Y-112410000D01*
X93455000Y-112410000D01*
G37*
G36*
X114855000Y-112410000D02*
X113205000Y-112410000D01*
X113205000Y-112010000D01*
X114855000Y-112010000D01*
X114855000Y-112410000D01*
X114855000Y-112410000D01*
G37*
G36*
X134545427Y-111496281D02*
X134566505Y-111502675D01*
X134585935Y-111513061D01*
X134602964Y-111527036D01*
X134616939Y-111544065D01*
X134627325Y-111563495D01*
X134633719Y-111584573D01*
X134636000Y-111607732D01*
X134636000Y-111880268D01*
X134633719Y-111903427D01*
X134627325Y-111924505D01*
X134616939Y-111943935D01*
X134602964Y-111960964D01*
X134585935Y-111974939D01*
X134566505Y-111985325D01*
X134545427Y-111991719D01*
X134522268Y-111994000D01*
X133849732Y-111994000D01*
X133826573Y-111991719D01*
X133805495Y-111985325D01*
X133786065Y-111974939D01*
X133769036Y-111960964D01*
X133755061Y-111943935D01*
X133744675Y-111924505D01*
X133738281Y-111903427D01*
X133736000Y-111880268D01*
X133736000Y-111607732D01*
X133738281Y-111584573D01*
X133744675Y-111563495D01*
X133755061Y-111544065D01*
X133769036Y-111527036D01*
X133786065Y-111513061D01*
X133805495Y-111502675D01*
X133826573Y-111496281D01*
X133849732Y-111494000D01*
X134522268Y-111494000D01*
X134545427Y-111496281D01*
X134545427Y-111496281D01*
G37*
G36*
X137445427Y-111496281D02*
X137466505Y-111502675D01*
X137485935Y-111513061D01*
X137502964Y-111527036D01*
X137516939Y-111544065D01*
X137527325Y-111563495D01*
X137533719Y-111584573D01*
X137536000Y-111607732D01*
X137536000Y-111880268D01*
X137533719Y-111903427D01*
X137527325Y-111924505D01*
X137516939Y-111943935D01*
X137502964Y-111960964D01*
X137485935Y-111974939D01*
X137466505Y-111985325D01*
X137445427Y-111991719D01*
X137422268Y-111994000D01*
X136749732Y-111994000D01*
X136726573Y-111991719D01*
X136705495Y-111985325D01*
X136686065Y-111974939D01*
X136669036Y-111960964D01*
X136655061Y-111943935D01*
X136644675Y-111924505D01*
X136638281Y-111903427D01*
X136636000Y-111880268D01*
X136636000Y-111607732D01*
X136638281Y-111584573D01*
X136644675Y-111563495D01*
X136655061Y-111544065D01*
X136669036Y-111527036D01*
X136686065Y-111513061D01*
X136705495Y-111502675D01*
X136726573Y-111496281D01*
X136749732Y-111494000D01*
X137422268Y-111494000D01*
X137445427Y-111496281D01*
X137445427Y-111496281D01*
G37*
G36*
X136234306Y-109498934D02*
X136281287Y-109513185D01*
X136324581Y-109536327D01*
X136362530Y-109567470D01*
X136393673Y-109605419D01*
X136416815Y-109648713D01*
X136431066Y-109695694D01*
X136436000Y-109745783D01*
X136436000Y-111742217D01*
X136431066Y-111792306D01*
X136416815Y-111839287D01*
X136393673Y-111882581D01*
X136362530Y-111920530D01*
X136324581Y-111951673D01*
X136281287Y-111974815D01*
X136234306Y-111989066D01*
X136184217Y-111994000D01*
X135087783Y-111994000D01*
X135037694Y-111989066D01*
X134990713Y-111974815D01*
X134947419Y-111951673D01*
X134909470Y-111920530D01*
X134878327Y-111882581D01*
X134855185Y-111839287D01*
X134840934Y-111792306D01*
X134836000Y-111742217D01*
X134836000Y-109745783D01*
X134840934Y-109695694D01*
X134855185Y-109648713D01*
X134878327Y-109605419D01*
X134909470Y-109567470D01*
X134947419Y-109536327D01*
X134990713Y-109513185D01*
X135037694Y-109498934D01*
X135087783Y-109494000D01*
X136184217Y-109494000D01*
X136234306Y-109498934D01*
X136234306Y-109498934D01*
G37*
G36*
X114855000Y-111910000D02*
X113205000Y-111910000D01*
X113205000Y-111510000D01*
X114855000Y-111510000D01*
X114855000Y-111910000D01*
X114855000Y-111910000D01*
G37*
G36*
X93455000Y-111910000D02*
X91805000Y-111910000D01*
X91805000Y-111510000D01*
X93455000Y-111510000D01*
X93455000Y-111910000D01*
X93455000Y-111910000D01*
G37*
G36*
X114855000Y-111410000D02*
X113205000Y-111410000D01*
X113205000Y-111010000D01*
X114855000Y-111010000D01*
X114855000Y-111410000D01*
X114855000Y-111410000D01*
G37*
G36*
X93455000Y-111410000D02*
X91805000Y-111410000D01*
X91805000Y-111010000D01*
X93455000Y-111010000D01*
X93455000Y-111410000D01*
X93455000Y-111410000D01*
G37*
G36*
X90628722Y-109595043D02*
X90676764Y-109609616D01*
X90721048Y-109633287D01*
X90759861Y-109665139D01*
X90791713Y-109703952D01*
X90815384Y-109748236D01*
X90829957Y-109796278D01*
X90835000Y-109847482D01*
X90835000Y-110832518D01*
X90829957Y-110883722D01*
X90815384Y-110931764D01*
X90791713Y-110976048D01*
X90759861Y-111014861D01*
X90721048Y-111046713D01*
X90676764Y-111070384D01*
X90628722Y-111084957D01*
X90577518Y-111090000D01*
X90017482Y-111090000D01*
X89966278Y-111084957D01*
X89918236Y-111070384D01*
X89873952Y-111046713D01*
X89835139Y-111014861D01*
X89803287Y-110976048D01*
X89779616Y-110931764D01*
X89765043Y-110883722D01*
X89760000Y-110832518D01*
X89760000Y-109847482D01*
X89765043Y-109796278D01*
X89779616Y-109748236D01*
X89803287Y-109703952D01*
X89835139Y-109665139D01*
X89873952Y-109633287D01*
X89918236Y-109609616D01*
X89966278Y-109595043D01*
X90017482Y-109590000D01*
X90577518Y-109590000D01*
X90628722Y-109595043D01*
X90628722Y-109595043D01*
G37*
G36*
X88753722Y-109595043D02*
X88801764Y-109609616D01*
X88846048Y-109633287D01*
X88884861Y-109665139D01*
X88916713Y-109703952D01*
X88940384Y-109748236D01*
X88954957Y-109796278D01*
X88960000Y-109847482D01*
X88960000Y-110832518D01*
X88954957Y-110883722D01*
X88940384Y-110931764D01*
X88916713Y-110976048D01*
X88884861Y-111014861D01*
X88846048Y-111046713D01*
X88801764Y-111070384D01*
X88753722Y-111084957D01*
X88702518Y-111090000D01*
X88142482Y-111090000D01*
X88091278Y-111084957D01*
X88043236Y-111070384D01*
X87998952Y-111046713D01*
X87960139Y-111014861D01*
X87928287Y-110976048D01*
X87904616Y-110931764D01*
X87890043Y-110883722D01*
X87885000Y-110832518D01*
X87885000Y-109847482D01*
X87890043Y-109796278D01*
X87904616Y-109748236D01*
X87928287Y-109703952D01*
X87960139Y-109665139D01*
X87998952Y-109633287D01*
X88043236Y-109609616D01*
X88091278Y-109595043D01*
X88142482Y-109590000D01*
X88702518Y-109590000D01*
X88753722Y-109595043D01*
X88753722Y-109595043D01*
G37*
G36*
X134545427Y-110496281D02*
X134566505Y-110502675D01*
X134585935Y-110513061D01*
X134602964Y-110527036D01*
X134616939Y-110544065D01*
X134627325Y-110563495D01*
X134633719Y-110584573D01*
X134636000Y-110607732D01*
X134636000Y-110880268D01*
X134633719Y-110903427D01*
X134627325Y-110924505D01*
X134616939Y-110943935D01*
X134602964Y-110960964D01*
X134585935Y-110974939D01*
X134566505Y-110985325D01*
X134545427Y-110991719D01*
X134522268Y-110994000D01*
X133849732Y-110994000D01*
X133826573Y-110991719D01*
X133805495Y-110985325D01*
X133786065Y-110974939D01*
X133769036Y-110960964D01*
X133755061Y-110943935D01*
X133744675Y-110924505D01*
X133738281Y-110903427D01*
X133736000Y-110880268D01*
X133736000Y-110607732D01*
X133738281Y-110584573D01*
X133744675Y-110563495D01*
X133755061Y-110544065D01*
X133769036Y-110527036D01*
X133786065Y-110513061D01*
X133805495Y-110502675D01*
X133826573Y-110496281D01*
X133849732Y-110494000D01*
X134522268Y-110494000D01*
X134545427Y-110496281D01*
X134545427Y-110496281D01*
G37*
G36*
X137445427Y-110496281D02*
X137466505Y-110502675D01*
X137485935Y-110513061D01*
X137502964Y-110527036D01*
X137516939Y-110544065D01*
X137527325Y-110563495D01*
X137533719Y-110584573D01*
X137536000Y-110607732D01*
X137536000Y-110880268D01*
X137533719Y-110903427D01*
X137527325Y-110924505D01*
X137516939Y-110943935D01*
X137502964Y-110960964D01*
X137485935Y-110974939D01*
X137466505Y-110985325D01*
X137445427Y-110991719D01*
X137422268Y-110994000D01*
X136749732Y-110994000D01*
X136726573Y-110991719D01*
X136705495Y-110985325D01*
X136686065Y-110974939D01*
X136669036Y-110960964D01*
X136655061Y-110943935D01*
X136644675Y-110924505D01*
X136638281Y-110903427D01*
X136636000Y-110880268D01*
X136636000Y-110607732D01*
X136638281Y-110584573D01*
X136644675Y-110563495D01*
X136655061Y-110544065D01*
X136669036Y-110527036D01*
X136686065Y-110513061D01*
X136705495Y-110502675D01*
X136726573Y-110496281D01*
X136749732Y-110494000D01*
X137422268Y-110494000D01*
X137445427Y-110496281D01*
X137445427Y-110496281D01*
G37*
G36*
X114855000Y-110910000D02*
X113205000Y-110910000D01*
X113205000Y-110510000D01*
X114855000Y-110510000D01*
X114855000Y-110910000D01*
X114855000Y-110910000D01*
G37*
G36*
X93455000Y-110910000D02*
X91805000Y-110910000D01*
X91805000Y-110510000D01*
X93455000Y-110510000D01*
X93455000Y-110910000D01*
X93455000Y-110910000D01*
G37*
G36*
X118728722Y-109287043D02*
X118776764Y-109301616D01*
X118821048Y-109325287D01*
X118859861Y-109357139D01*
X118891713Y-109395952D01*
X118915384Y-109440236D01*
X118929957Y-109488278D01*
X118935000Y-109539482D01*
X118935000Y-110524518D01*
X118929957Y-110575722D01*
X118915384Y-110623764D01*
X118891713Y-110668048D01*
X118859861Y-110706861D01*
X118821048Y-110738713D01*
X118776764Y-110762384D01*
X118728722Y-110776957D01*
X118677518Y-110782000D01*
X118117482Y-110782000D01*
X118066278Y-110776957D01*
X118018236Y-110762384D01*
X117973952Y-110738713D01*
X117935139Y-110706861D01*
X117903287Y-110668048D01*
X117879616Y-110623764D01*
X117865043Y-110575722D01*
X117860000Y-110524518D01*
X117860000Y-109539482D01*
X117865043Y-109488278D01*
X117879616Y-109440236D01*
X117903287Y-109395952D01*
X117935139Y-109357139D01*
X117973952Y-109325287D01*
X118018236Y-109301616D01*
X118066278Y-109287043D01*
X118117482Y-109282000D01*
X118677518Y-109282000D01*
X118728722Y-109287043D01*
X118728722Y-109287043D01*
G37*
G36*
X116853722Y-109287043D02*
X116901764Y-109301616D01*
X116946048Y-109325287D01*
X116984861Y-109357139D01*
X117016713Y-109395952D01*
X117040384Y-109440236D01*
X117054957Y-109488278D01*
X117060000Y-109539482D01*
X117060000Y-110524518D01*
X117054957Y-110575722D01*
X117040384Y-110623764D01*
X117016713Y-110668048D01*
X116984861Y-110706861D01*
X116946048Y-110738713D01*
X116901764Y-110762384D01*
X116853722Y-110776957D01*
X116802518Y-110782000D01*
X116242482Y-110782000D01*
X116191278Y-110776957D01*
X116143236Y-110762384D01*
X116098952Y-110738713D01*
X116060139Y-110706861D01*
X116028287Y-110668048D01*
X116004616Y-110623764D01*
X115990043Y-110575722D01*
X115985000Y-110524518D01*
X115985000Y-109539482D01*
X115990043Y-109488278D01*
X116004616Y-109440236D01*
X116028287Y-109395952D01*
X116060139Y-109357139D01*
X116098952Y-109325287D01*
X116143236Y-109301616D01*
X116191278Y-109287043D01*
X116242482Y-109282000D01*
X116802518Y-109282000D01*
X116853722Y-109287043D01*
X116853722Y-109287043D01*
G37*
G36*
X126503722Y-109570043D02*
X126551764Y-109584616D01*
X126596048Y-109608287D01*
X126634861Y-109640139D01*
X126666713Y-109678952D01*
X126690384Y-109723236D01*
X126704957Y-109771278D01*
X126710000Y-109822482D01*
X126710000Y-110382518D01*
X126704957Y-110433722D01*
X126690384Y-110481764D01*
X126666713Y-110526048D01*
X126634861Y-110564861D01*
X126596048Y-110596713D01*
X126551764Y-110620384D01*
X126503722Y-110634957D01*
X126452518Y-110640000D01*
X125467482Y-110640000D01*
X125416278Y-110634957D01*
X125368236Y-110620384D01*
X125323952Y-110596713D01*
X125285139Y-110564861D01*
X125253287Y-110526048D01*
X125229616Y-110481764D01*
X125215043Y-110433722D01*
X125210000Y-110382518D01*
X125210000Y-109822482D01*
X125215043Y-109771278D01*
X125229616Y-109723236D01*
X125253287Y-109678952D01*
X125285139Y-109640139D01*
X125323952Y-109608287D01*
X125368236Y-109584616D01*
X125416278Y-109570043D01*
X125467482Y-109565000D01*
X126452518Y-109565000D01*
X126503722Y-109570043D01*
X126503722Y-109570043D01*
G37*
G36*
X124503722Y-109570043D02*
X124551764Y-109584616D01*
X124596048Y-109608287D01*
X124634861Y-109640139D01*
X124666713Y-109678952D01*
X124690384Y-109723236D01*
X124704957Y-109771278D01*
X124710000Y-109822482D01*
X124710000Y-110382518D01*
X124704957Y-110433722D01*
X124690384Y-110481764D01*
X124666713Y-110526048D01*
X124634861Y-110564861D01*
X124596048Y-110596713D01*
X124551764Y-110620384D01*
X124503722Y-110634957D01*
X124452518Y-110640000D01*
X123467482Y-110640000D01*
X123416278Y-110634957D01*
X123368236Y-110620384D01*
X123323952Y-110596713D01*
X123285139Y-110564861D01*
X123253287Y-110526048D01*
X123229616Y-110481764D01*
X123215043Y-110433722D01*
X123210000Y-110382518D01*
X123210000Y-109822482D01*
X123215043Y-109771278D01*
X123229616Y-109723236D01*
X123253287Y-109678952D01*
X123285139Y-109640139D01*
X123323952Y-109608287D01*
X123368236Y-109584616D01*
X123416278Y-109570043D01*
X123467482Y-109565000D01*
X124452518Y-109565000D01*
X124503722Y-109570043D01*
X124503722Y-109570043D01*
G37*
G36*
X114855000Y-110410000D02*
X113205000Y-110410000D01*
X113205000Y-110010000D01*
X114855000Y-110010000D01*
X114855000Y-110410000D01*
X114855000Y-110410000D01*
G37*
G36*
X93455000Y-110410000D02*
X91805000Y-110410000D01*
X91805000Y-110010000D01*
X93455000Y-110010000D01*
X93455000Y-110410000D01*
X93455000Y-110410000D01*
G37*
G36*
X134545427Y-109496281D02*
X134566505Y-109502675D01*
X134585935Y-109513061D01*
X134602964Y-109527036D01*
X134616939Y-109544065D01*
X134627325Y-109563495D01*
X134633719Y-109584573D01*
X134636000Y-109607732D01*
X134636000Y-109880268D01*
X134633719Y-109903427D01*
X134627325Y-109924505D01*
X134616939Y-109943935D01*
X134602964Y-109960964D01*
X134585935Y-109974939D01*
X134566505Y-109985325D01*
X134545427Y-109991719D01*
X134522268Y-109994000D01*
X133849732Y-109994000D01*
X133826573Y-109991719D01*
X133805495Y-109985325D01*
X133786065Y-109974939D01*
X133769036Y-109960964D01*
X133755061Y-109943935D01*
X133744675Y-109924505D01*
X133738281Y-109903427D01*
X133736000Y-109880268D01*
X133736000Y-109607732D01*
X133738281Y-109584573D01*
X133744675Y-109563495D01*
X133755061Y-109544065D01*
X133769036Y-109527036D01*
X133786065Y-109513061D01*
X133805495Y-109502675D01*
X133826573Y-109496281D01*
X133849732Y-109494000D01*
X134522268Y-109494000D01*
X134545427Y-109496281D01*
X134545427Y-109496281D01*
G37*
G36*
X137445427Y-109496281D02*
X137466505Y-109502675D01*
X137485935Y-109513061D01*
X137502964Y-109527036D01*
X137516939Y-109544065D01*
X137527325Y-109563495D01*
X137533719Y-109584573D01*
X137536000Y-109607732D01*
X137536000Y-109880268D01*
X137533719Y-109903427D01*
X137527325Y-109924505D01*
X137516939Y-109943935D01*
X137502964Y-109960964D01*
X137485935Y-109974939D01*
X137466505Y-109985325D01*
X137445427Y-109991719D01*
X137422268Y-109994000D01*
X136749732Y-109994000D01*
X136726573Y-109991719D01*
X136705495Y-109985325D01*
X136686065Y-109974939D01*
X136669036Y-109960964D01*
X136655061Y-109943935D01*
X136644675Y-109924505D01*
X136638281Y-109903427D01*
X136636000Y-109880268D01*
X136636000Y-109607732D01*
X136638281Y-109584573D01*
X136644675Y-109563495D01*
X136655061Y-109544065D01*
X136669036Y-109527036D01*
X136686065Y-109513061D01*
X136705495Y-109502675D01*
X136726573Y-109496281D01*
X136749732Y-109494000D01*
X137422268Y-109494000D01*
X137445427Y-109496281D01*
X137445427Y-109496281D01*
G37*
G36*
X93455000Y-109910000D02*
X91805000Y-109910000D01*
X91805000Y-109510000D01*
X93455000Y-109510000D01*
X93455000Y-109910000D01*
X93455000Y-109910000D01*
G37*
G36*
X114855000Y-109910000D02*
X113205000Y-109910000D01*
X113205000Y-109510000D01*
X114855000Y-109510000D01*
X114855000Y-109910000D01*
X114855000Y-109910000D01*
G37*
G36*
X114855000Y-109410000D02*
X113205000Y-109410000D01*
X113205000Y-109010000D01*
X114855000Y-109010000D01*
X114855000Y-109410000D01*
X114855000Y-109410000D01*
G37*
G36*
X93455000Y-109410000D02*
X91805000Y-109410000D01*
X91805000Y-109010000D01*
X93455000Y-109010000D01*
X93455000Y-109410000D01*
X93455000Y-109410000D01*
G37*
G36*
X116853722Y-107287043D02*
X116901764Y-107301616D01*
X116946048Y-107325287D01*
X116984861Y-107357139D01*
X117016713Y-107395952D01*
X117040384Y-107440236D01*
X117054957Y-107488278D01*
X117060000Y-107539482D01*
X117060000Y-108524518D01*
X117054957Y-108575722D01*
X117040384Y-108623764D01*
X117016713Y-108668048D01*
X116984861Y-108706861D01*
X116946048Y-108738713D01*
X116901764Y-108762384D01*
X116853722Y-108776957D01*
X116802518Y-108782000D01*
X116242482Y-108782000D01*
X116191278Y-108776957D01*
X116143236Y-108762384D01*
X116098952Y-108738713D01*
X116060139Y-108706861D01*
X116028287Y-108668048D01*
X116004616Y-108623764D01*
X115990043Y-108575722D01*
X115985000Y-108524518D01*
X115985000Y-107539482D01*
X115990043Y-107488278D01*
X116004616Y-107440236D01*
X116028287Y-107395952D01*
X116060139Y-107357139D01*
X116098952Y-107325287D01*
X116143236Y-107301616D01*
X116191278Y-107287043D01*
X116242482Y-107282000D01*
X116802518Y-107282000D01*
X116853722Y-107287043D01*
X116853722Y-107287043D01*
G37*
G36*
X118728722Y-107287043D02*
X118776764Y-107301616D01*
X118821048Y-107325287D01*
X118859861Y-107357139D01*
X118891713Y-107395952D01*
X118915384Y-107440236D01*
X118929957Y-107488278D01*
X118935000Y-107539482D01*
X118935000Y-108524518D01*
X118929957Y-108575722D01*
X118915384Y-108623764D01*
X118891713Y-108668048D01*
X118859861Y-108706861D01*
X118821048Y-108738713D01*
X118776764Y-108762384D01*
X118728722Y-108776957D01*
X118677518Y-108782000D01*
X118117482Y-108782000D01*
X118066278Y-108776957D01*
X118018236Y-108762384D01*
X117973952Y-108738713D01*
X117935139Y-108706861D01*
X117903287Y-108668048D01*
X117879616Y-108623764D01*
X117865043Y-108575722D01*
X117860000Y-108524518D01*
X117860000Y-107539482D01*
X117865043Y-107488278D01*
X117879616Y-107440236D01*
X117903287Y-107395952D01*
X117935139Y-107357139D01*
X117973952Y-107325287D01*
X118018236Y-107301616D01*
X118066278Y-107287043D01*
X118117482Y-107282000D01*
X118677518Y-107282000D01*
X118728722Y-107287043D01*
X118728722Y-107287043D01*
G37*
G36*
X133505722Y-106951043D02*
X133553764Y-106965616D01*
X133598048Y-106989287D01*
X133636861Y-107021139D01*
X133668713Y-107059952D01*
X133692384Y-107104236D01*
X133706957Y-107152278D01*
X133712000Y-107203482D01*
X133712000Y-108188518D01*
X133706957Y-108239722D01*
X133692384Y-108287764D01*
X133668713Y-108332048D01*
X133636861Y-108370861D01*
X133598048Y-108402713D01*
X133553764Y-108426384D01*
X133505722Y-108440957D01*
X133454518Y-108446000D01*
X132894482Y-108446000D01*
X132843278Y-108440957D01*
X132795236Y-108426384D01*
X132750952Y-108402713D01*
X132712139Y-108370861D01*
X132680287Y-108332048D01*
X132656616Y-108287764D01*
X132642043Y-108239722D01*
X132637000Y-108188518D01*
X132637000Y-107203482D01*
X132642043Y-107152278D01*
X132656616Y-107104236D01*
X132680287Y-107059952D01*
X132712139Y-107021139D01*
X132750952Y-106989287D01*
X132795236Y-106965616D01*
X132843278Y-106951043D01*
X132894482Y-106946000D01*
X133454518Y-106946000D01*
X133505722Y-106951043D01*
X133505722Y-106951043D01*
G37*
G36*
X135380722Y-106951043D02*
X135428764Y-106965616D01*
X135473048Y-106989287D01*
X135511861Y-107021139D01*
X135543713Y-107059952D01*
X135567384Y-107104236D01*
X135581957Y-107152278D01*
X135587000Y-107203482D01*
X135587000Y-108188518D01*
X135581957Y-108239722D01*
X135567384Y-108287764D01*
X135543713Y-108332048D01*
X135511861Y-108370861D01*
X135473048Y-108402713D01*
X135428764Y-108426384D01*
X135380722Y-108440957D01*
X135329518Y-108446000D01*
X134769482Y-108446000D01*
X134718278Y-108440957D01*
X134670236Y-108426384D01*
X134625952Y-108402713D01*
X134587139Y-108370861D01*
X134555287Y-108332048D01*
X134531616Y-108287764D01*
X134517043Y-108239722D01*
X134512000Y-108188518D01*
X134512000Y-107203482D01*
X134517043Y-107152278D01*
X134531616Y-107104236D01*
X134555287Y-107059952D01*
X134587139Y-107021139D01*
X134625952Y-106989287D01*
X134670236Y-106965616D01*
X134718278Y-106951043D01*
X134769482Y-106946000D01*
X135329518Y-106946000D01*
X135380722Y-106951043D01*
X135380722Y-106951043D01*
G37*
G36*
X98280000Y-108085000D02*
X97880000Y-108085000D01*
X97880000Y-106435000D01*
X98280000Y-106435000D01*
X98280000Y-108085000D01*
X98280000Y-108085000D01*
G37*
G36*
X101280000Y-108085000D02*
X100880000Y-108085000D01*
X100880000Y-106435000D01*
X101280000Y-106435000D01*
X101280000Y-108085000D01*
X101280000Y-108085000D01*
G37*
G36*
X102780000Y-108085000D02*
X102380000Y-108085000D01*
X102380000Y-106435000D01*
X102780000Y-106435000D01*
X102780000Y-108085000D01*
X102780000Y-108085000D01*
G37*
G36*
X102280000Y-108085000D02*
X101880000Y-108085000D01*
X101880000Y-106435000D01*
X102280000Y-106435000D01*
X102280000Y-108085000D01*
X102280000Y-108085000D01*
G37*
G36*
X101780000Y-108085000D02*
X101380000Y-108085000D01*
X101380000Y-106435000D01*
X101780000Y-106435000D01*
X101780000Y-108085000D01*
X101780000Y-108085000D01*
G37*
G36*
X100780000Y-108085000D02*
X100380000Y-108085000D01*
X100380000Y-106435000D01*
X100780000Y-106435000D01*
X100780000Y-108085000D01*
X100780000Y-108085000D01*
G37*
G36*
X100280000Y-108085000D02*
X99880000Y-108085000D01*
X99880000Y-106435000D01*
X100280000Y-106435000D01*
X100280000Y-108085000D01*
X100280000Y-108085000D01*
G37*
G36*
X112280000Y-108085000D02*
X111880000Y-108085000D01*
X111880000Y-106435000D01*
X112280000Y-106435000D01*
X112280000Y-108085000D01*
X112280000Y-108085000D01*
G37*
G36*
X99780000Y-108085000D02*
X99380000Y-108085000D01*
X99380000Y-106435000D01*
X99780000Y-106435000D01*
X99780000Y-108085000D01*
X99780000Y-108085000D01*
G37*
G36*
X99280000Y-108085000D02*
X98880000Y-108085000D01*
X98880000Y-106435000D01*
X99280000Y-106435000D01*
X99280000Y-108085000D01*
X99280000Y-108085000D01*
G37*
G36*
X98780000Y-108085000D02*
X98380000Y-108085000D01*
X98380000Y-106435000D01*
X98780000Y-106435000D01*
X98780000Y-108085000D01*
X98780000Y-108085000D01*
G37*
G36*
X97780000Y-108085000D02*
X97380000Y-108085000D01*
X97380000Y-106435000D01*
X97780000Y-106435000D01*
X97780000Y-108085000D01*
X97780000Y-108085000D01*
G37*
G36*
X97280000Y-108085000D02*
X96880000Y-108085000D01*
X96880000Y-106435000D01*
X97280000Y-106435000D01*
X97280000Y-108085000D01*
X97280000Y-108085000D01*
G37*
G36*
X94780000Y-108085000D02*
X94380000Y-108085000D01*
X94380000Y-106435000D01*
X94780000Y-106435000D01*
X94780000Y-108085000D01*
X94780000Y-108085000D01*
G37*
G36*
X95280000Y-108085000D02*
X94880000Y-108085000D01*
X94880000Y-106435000D01*
X95280000Y-106435000D01*
X95280000Y-108085000D01*
X95280000Y-108085000D01*
G37*
G36*
X95780000Y-108085000D02*
X95380000Y-108085000D01*
X95380000Y-106435000D01*
X95780000Y-106435000D01*
X95780000Y-108085000D01*
X95780000Y-108085000D01*
G37*
G36*
X96280000Y-108085000D02*
X95880000Y-108085000D01*
X95880000Y-106435000D01*
X96280000Y-106435000D01*
X96280000Y-108085000D01*
X96280000Y-108085000D01*
G37*
G36*
X96780000Y-108085000D02*
X96380000Y-108085000D01*
X96380000Y-106435000D01*
X96780000Y-106435000D01*
X96780000Y-108085000D01*
X96780000Y-108085000D01*
G37*
G36*
X111780000Y-108085000D02*
X111380000Y-108085000D01*
X111380000Y-106435000D01*
X111780000Y-106435000D01*
X111780000Y-108085000D01*
X111780000Y-108085000D01*
G37*
G36*
X110280000Y-108085000D02*
X109880000Y-108085000D01*
X109880000Y-106435000D01*
X110280000Y-106435000D01*
X110280000Y-108085000D01*
X110280000Y-108085000D01*
G37*
G36*
X103280000Y-108085000D02*
X102880000Y-108085000D01*
X102880000Y-106435000D01*
X103280000Y-106435000D01*
X103280000Y-108085000D01*
X103280000Y-108085000D01*
G37*
G36*
X103780000Y-108085000D02*
X103380000Y-108085000D01*
X103380000Y-106435000D01*
X103780000Y-106435000D01*
X103780000Y-108085000D01*
X103780000Y-108085000D01*
G37*
G36*
X104280000Y-108085000D02*
X103880000Y-108085000D01*
X103880000Y-106435000D01*
X104280000Y-106435000D01*
X104280000Y-108085000D01*
X104280000Y-108085000D01*
G37*
G36*
X104780000Y-108085000D02*
X104380000Y-108085000D01*
X104380000Y-106435000D01*
X104780000Y-106435000D01*
X104780000Y-108085000D01*
X104780000Y-108085000D01*
G37*
G36*
X105280000Y-108085000D02*
X104880000Y-108085000D01*
X104880000Y-106435000D01*
X105280000Y-106435000D01*
X105280000Y-108085000D01*
X105280000Y-108085000D01*
G37*
G36*
X105780000Y-108085000D02*
X105380000Y-108085000D01*
X105380000Y-106435000D01*
X105780000Y-106435000D01*
X105780000Y-108085000D01*
X105780000Y-108085000D01*
G37*
G36*
X106280000Y-108085000D02*
X105880000Y-108085000D01*
X105880000Y-106435000D01*
X106280000Y-106435000D01*
X106280000Y-108085000D01*
X106280000Y-108085000D01*
G37*
G36*
X106780000Y-108085000D02*
X106380000Y-108085000D01*
X106380000Y-106435000D01*
X106780000Y-106435000D01*
X106780000Y-108085000D01*
X106780000Y-108085000D01*
G37*
G36*
X107780000Y-108085000D02*
X107380000Y-108085000D01*
X107380000Y-106435000D01*
X107780000Y-106435000D01*
X107780000Y-108085000D01*
X107780000Y-108085000D01*
G37*
G36*
X107280000Y-108085000D02*
X106880000Y-108085000D01*
X106880000Y-106435000D01*
X107280000Y-106435000D01*
X107280000Y-108085000D01*
X107280000Y-108085000D01*
G37*
G36*
X111280000Y-108085000D02*
X110880000Y-108085000D01*
X110880000Y-106435000D01*
X111280000Y-106435000D01*
X111280000Y-108085000D01*
X111280000Y-108085000D01*
G37*
G36*
X110780000Y-108085000D02*
X110380000Y-108085000D01*
X110380000Y-106435000D01*
X110780000Y-106435000D01*
X110780000Y-108085000D01*
X110780000Y-108085000D01*
G37*
G36*
X109780000Y-108085000D02*
X109380000Y-108085000D01*
X109380000Y-106435000D01*
X109780000Y-106435000D01*
X109780000Y-108085000D01*
X109780000Y-108085000D01*
G37*
G36*
X109280000Y-108085000D02*
X108880000Y-108085000D01*
X108880000Y-106435000D01*
X109280000Y-106435000D01*
X109280000Y-108085000D01*
X109280000Y-108085000D01*
G37*
G36*
X108780000Y-108085000D02*
X108380000Y-108085000D01*
X108380000Y-106435000D01*
X108780000Y-106435000D01*
X108780000Y-108085000D01*
X108780000Y-108085000D01*
G37*
G36*
X108280000Y-108085000D02*
X107880000Y-108085000D01*
X107880000Y-106435000D01*
X108280000Y-106435000D01*
X108280000Y-108085000D01*
X108280000Y-108085000D01*
G37*
G36*
X85343000Y-107569000D02*
X83743000Y-107569000D01*
X83743000Y-106869000D01*
X85343000Y-106869000D01*
X85343000Y-107569000D01*
X85343000Y-107569000D01*
G37*
G36*
X90743000Y-107569000D02*
X89143000Y-107569000D01*
X89143000Y-106869000D01*
X90743000Y-106869000D01*
X90743000Y-107569000D01*
X90743000Y-107569000D01*
G37*
G36*
X85343000Y-106299000D02*
X83743000Y-106299000D01*
X83743000Y-105599000D01*
X85343000Y-105599000D01*
X85343000Y-106299000D01*
X85343000Y-106299000D01*
G37*
G36*
X90743000Y-106299000D02*
X89143000Y-106299000D01*
X89143000Y-105599000D01*
X90743000Y-105599000D01*
X90743000Y-106299000D01*
X90743000Y-106299000D01*
G37*
G36*
X92103722Y-104030043D02*
X92151764Y-104044616D01*
X92196048Y-104068287D01*
X92234861Y-104100139D01*
X92266713Y-104138952D01*
X92290384Y-104183236D01*
X92304957Y-104231278D01*
X92310000Y-104282482D01*
X92310000Y-105267518D01*
X92304957Y-105318722D01*
X92290384Y-105366764D01*
X92266713Y-105411048D01*
X92234861Y-105449861D01*
X92196048Y-105481713D01*
X92151764Y-105505384D01*
X92103722Y-105519957D01*
X92052518Y-105525000D01*
X91492482Y-105525000D01*
X91441278Y-105519957D01*
X91393236Y-105505384D01*
X91348952Y-105481713D01*
X91310139Y-105449861D01*
X91278287Y-105411048D01*
X91254616Y-105366764D01*
X91240043Y-105318722D01*
X91235000Y-105267518D01*
X91235000Y-104282482D01*
X91240043Y-104231278D01*
X91254616Y-104183236D01*
X91278287Y-104138952D01*
X91310139Y-104100139D01*
X91348952Y-104068287D01*
X91393236Y-104044616D01*
X91441278Y-104030043D01*
X91492482Y-104025000D01*
X92052518Y-104025000D01*
X92103722Y-104030043D01*
X92103722Y-104030043D01*
G37*
G36*
X93978722Y-104030043D02*
X94026764Y-104044616D01*
X94071048Y-104068287D01*
X94109861Y-104100139D01*
X94141713Y-104138952D01*
X94165384Y-104183236D01*
X94179957Y-104231278D01*
X94185000Y-104282482D01*
X94185000Y-105267518D01*
X94179957Y-105318722D01*
X94165384Y-105366764D01*
X94141713Y-105411048D01*
X94109861Y-105449861D01*
X94071048Y-105481713D01*
X94026764Y-105505384D01*
X93978722Y-105519957D01*
X93927518Y-105525000D01*
X93367482Y-105525000D01*
X93316278Y-105519957D01*
X93268236Y-105505384D01*
X93223952Y-105481713D01*
X93185139Y-105449861D01*
X93153287Y-105411048D01*
X93129616Y-105366764D01*
X93115043Y-105318722D01*
X93110000Y-105267518D01*
X93110000Y-104282482D01*
X93115043Y-104231278D01*
X93129616Y-104183236D01*
X93153287Y-104138952D01*
X93185139Y-104100139D01*
X93223952Y-104068287D01*
X93268236Y-104044616D01*
X93316278Y-104030043D01*
X93367482Y-104025000D01*
X93927518Y-104025000D01*
X93978722Y-104030043D01*
X93978722Y-104030043D01*
G37*
G36*
X96503722Y-104445043D02*
X96551764Y-104459616D01*
X96596048Y-104483287D01*
X96634861Y-104515139D01*
X96666713Y-104553952D01*
X96690384Y-104598236D01*
X96704957Y-104646278D01*
X96710000Y-104697482D01*
X96710000Y-105257518D01*
X96704957Y-105308722D01*
X96690384Y-105356764D01*
X96666713Y-105401048D01*
X96634861Y-105439861D01*
X96596048Y-105471713D01*
X96551764Y-105495384D01*
X96503722Y-105509957D01*
X96452518Y-105515000D01*
X95467482Y-105515000D01*
X95416278Y-105509957D01*
X95368236Y-105495384D01*
X95323952Y-105471713D01*
X95285139Y-105439861D01*
X95253287Y-105401048D01*
X95229616Y-105356764D01*
X95215043Y-105308722D01*
X95210000Y-105257518D01*
X95210000Y-104697482D01*
X95215043Y-104646278D01*
X95229616Y-104598236D01*
X95253287Y-104553952D01*
X95285139Y-104515139D01*
X95323952Y-104483287D01*
X95368236Y-104459616D01*
X95416278Y-104445043D01*
X95467482Y-104440000D01*
X96452518Y-104440000D01*
X96503722Y-104445043D01*
X96503722Y-104445043D01*
G37*
G36*
X99095722Y-104445043D02*
X99143764Y-104459616D01*
X99188048Y-104483287D01*
X99226861Y-104515139D01*
X99258713Y-104553952D01*
X99282384Y-104598236D01*
X99296957Y-104646278D01*
X99302000Y-104697482D01*
X99302000Y-105257518D01*
X99296957Y-105308722D01*
X99282384Y-105356764D01*
X99258713Y-105401048D01*
X99226861Y-105439861D01*
X99188048Y-105471713D01*
X99143764Y-105495384D01*
X99095722Y-105509957D01*
X99044518Y-105515000D01*
X98059482Y-105515000D01*
X98008278Y-105509957D01*
X97960236Y-105495384D01*
X97915952Y-105471713D01*
X97877139Y-105439861D01*
X97845287Y-105401048D01*
X97821616Y-105356764D01*
X97807043Y-105308722D01*
X97802000Y-105257518D01*
X97802000Y-104697482D01*
X97807043Y-104646278D01*
X97821616Y-104598236D01*
X97845287Y-104553952D01*
X97877139Y-104515139D01*
X97915952Y-104483287D01*
X97960236Y-104459616D01*
X98008278Y-104445043D01*
X98059482Y-104440000D01*
X99044518Y-104440000D01*
X99095722Y-104445043D01*
X99095722Y-104445043D01*
G37*
G36*
X110223722Y-104395043D02*
X110271764Y-104409616D01*
X110316048Y-104433287D01*
X110354861Y-104465139D01*
X110386713Y-104503952D01*
X110410384Y-104548236D01*
X110424957Y-104596278D01*
X110430000Y-104647482D01*
X110430000Y-105207518D01*
X110424957Y-105258722D01*
X110410384Y-105306764D01*
X110386713Y-105351048D01*
X110354861Y-105389861D01*
X110316048Y-105421713D01*
X110271764Y-105445384D01*
X110223722Y-105459957D01*
X110172518Y-105465000D01*
X109187482Y-105465000D01*
X109136278Y-105459957D01*
X109088236Y-105445384D01*
X109043952Y-105421713D01*
X109005139Y-105389861D01*
X108973287Y-105351048D01*
X108949616Y-105306764D01*
X108935043Y-105258722D01*
X108930000Y-105207518D01*
X108930000Y-104647482D01*
X108935043Y-104596278D01*
X108949616Y-104548236D01*
X108973287Y-104503952D01*
X109005139Y-104465139D01*
X109043952Y-104433287D01*
X109088236Y-104409616D01*
X109136278Y-104395043D01*
X109187482Y-104390000D01*
X110172518Y-104390000D01*
X110223722Y-104395043D01*
X110223722Y-104395043D01*
G37*
G36*
X104508722Y-104395043D02*
X104556764Y-104409616D01*
X104601048Y-104433287D01*
X104639861Y-104465139D01*
X104671713Y-104503952D01*
X104695384Y-104548236D01*
X104709957Y-104596278D01*
X104715000Y-104647482D01*
X104715000Y-105207518D01*
X104709957Y-105258722D01*
X104695384Y-105306764D01*
X104671713Y-105351048D01*
X104639861Y-105389861D01*
X104601048Y-105421713D01*
X104556764Y-105445384D01*
X104508722Y-105459957D01*
X104457518Y-105465000D01*
X103472482Y-105465000D01*
X103421278Y-105459957D01*
X103373236Y-105445384D01*
X103328952Y-105421713D01*
X103290139Y-105389861D01*
X103258287Y-105351048D01*
X103234616Y-105306764D01*
X103220043Y-105258722D01*
X103215000Y-105207518D01*
X103215000Y-104647482D01*
X103220043Y-104596278D01*
X103234616Y-104548236D01*
X103258287Y-104503952D01*
X103290139Y-104465139D01*
X103328952Y-104433287D01*
X103373236Y-104409616D01*
X103421278Y-104395043D01*
X103472482Y-104390000D01*
X104457518Y-104390000D01*
X104508722Y-104395043D01*
X104508722Y-104395043D01*
G37*
G36*
X90743000Y-105029000D02*
X89143000Y-105029000D01*
X89143000Y-104329000D01*
X90743000Y-104329000D01*
X90743000Y-105029000D01*
X90743000Y-105029000D01*
G37*
G36*
X85343000Y-105029000D02*
X83743000Y-105029000D01*
X83743000Y-104329000D01*
X85343000Y-104329000D01*
X85343000Y-105029000D01*
X85343000Y-105029000D01*
G37*
G36*
X82040722Y-102887043D02*
X82088764Y-102901616D01*
X82133048Y-102925287D01*
X82171861Y-102957139D01*
X82203713Y-102995952D01*
X82227384Y-103040236D01*
X82241957Y-103088278D01*
X82247000Y-103139482D01*
X82247000Y-104124518D01*
X82241957Y-104175722D01*
X82227384Y-104223764D01*
X82203713Y-104268048D01*
X82171861Y-104306861D01*
X82133048Y-104338713D01*
X82088764Y-104362384D01*
X82040722Y-104376957D01*
X81989518Y-104382000D01*
X81429482Y-104382000D01*
X81378278Y-104376957D01*
X81330236Y-104362384D01*
X81285952Y-104338713D01*
X81247139Y-104306861D01*
X81215287Y-104268048D01*
X81191616Y-104223764D01*
X81177043Y-104175722D01*
X81172000Y-104124518D01*
X81172000Y-103139482D01*
X81177043Y-103088278D01*
X81191616Y-103040236D01*
X81215287Y-102995952D01*
X81247139Y-102957139D01*
X81285952Y-102925287D01*
X81330236Y-102901616D01*
X81378278Y-102887043D01*
X81429482Y-102882000D01*
X81989518Y-102882000D01*
X82040722Y-102887043D01*
X82040722Y-102887043D01*
G37*
G36*
X80165722Y-102887043D02*
X80213764Y-102901616D01*
X80258048Y-102925287D01*
X80296861Y-102957139D01*
X80328713Y-102995952D01*
X80352384Y-103040236D01*
X80366957Y-103088278D01*
X80372000Y-103139482D01*
X80372000Y-104124518D01*
X80366957Y-104175722D01*
X80352384Y-104223764D01*
X80328713Y-104268048D01*
X80296861Y-104306861D01*
X80258048Y-104338713D01*
X80213764Y-104362384D01*
X80165722Y-104376957D01*
X80114518Y-104382000D01*
X79554482Y-104382000D01*
X79503278Y-104376957D01*
X79455236Y-104362384D01*
X79410952Y-104338713D01*
X79372139Y-104306861D01*
X79340287Y-104268048D01*
X79316616Y-104223764D01*
X79302043Y-104175722D01*
X79297000Y-104124518D01*
X79297000Y-103139482D01*
X79302043Y-103088278D01*
X79316616Y-103040236D01*
X79340287Y-102995952D01*
X79372139Y-102957139D01*
X79410952Y-102925287D01*
X79455236Y-102901616D01*
X79503278Y-102887043D01*
X79554482Y-102882000D01*
X80114518Y-102882000D01*
X80165722Y-102887043D01*
X80165722Y-102887043D01*
G37*
G36*
X85343000Y-103759000D02*
X83743000Y-103759000D01*
X83743000Y-103059000D01*
X85343000Y-103059000D01*
X85343000Y-103759000D01*
X85343000Y-103759000D01*
G37*
G36*
X90743000Y-103759000D02*
X89143000Y-103759000D01*
X89143000Y-103059000D01*
X90743000Y-103059000D01*
X90743000Y-103759000D01*
X90743000Y-103759000D01*
G37*
G36*
X96503722Y-102570043D02*
X96551764Y-102584616D01*
X96596048Y-102608287D01*
X96634861Y-102640139D01*
X96666713Y-102678952D01*
X96690384Y-102723236D01*
X96704957Y-102771278D01*
X96710000Y-102822482D01*
X96710000Y-103382518D01*
X96704957Y-103433722D01*
X96690384Y-103481764D01*
X96666713Y-103526048D01*
X96634861Y-103564861D01*
X96596048Y-103596713D01*
X96551764Y-103620384D01*
X96503722Y-103634957D01*
X96452518Y-103640000D01*
X95467482Y-103640000D01*
X95416278Y-103634957D01*
X95368236Y-103620384D01*
X95323952Y-103596713D01*
X95285139Y-103564861D01*
X95253287Y-103526048D01*
X95229616Y-103481764D01*
X95215043Y-103433722D01*
X95210000Y-103382518D01*
X95210000Y-102822482D01*
X95215043Y-102771278D01*
X95229616Y-102723236D01*
X95253287Y-102678952D01*
X95285139Y-102640139D01*
X95323952Y-102608287D01*
X95368236Y-102584616D01*
X95416278Y-102570043D01*
X95467482Y-102565000D01*
X96452518Y-102565000D01*
X96503722Y-102570043D01*
X96503722Y-102570043D01*
G37*
G36*
X99095722Y-102570043D02*
X99143764Y-102584616D01*
X99188048Y-102608287D01*
X99226861Y-102640139D01*
X99258713Y-102678952D01*
X99282384Y-102723236D01*
X99296957Y-102771278D01*
X99302000Y-102822482D01*
X99302000Y-103382518D01*
X99296957Y-103433722D01*
X99282384Y-103481764D01*
X99258713Y-103526048D01*
X99226861Y-103564861D01*
X99188048Y-103596713D01*
X99143764Y-103620384D01*
X99095722Y-103634957D01*
X99044518Y-103640000D01*
X98059482Y-103640000D01*
X98008278Y-103634957D01*
X97960236Y-103620384D01*
X97915952Y-103596713D01*
X97877139Y-103564861D01*
X97845287Y-103526048D01*
X97821616Y-103481764D01*
X97807043Y-103433722D01*
X97802000Y-103382518D01*
X97802000Y-102822482D01*
X97807043Y-102771278D01*
X97821616Y-102723236D01*
X97845287Y-102678952D01*
X97877139Y-102640139D01*
X97915952Y-102608287D01*
X97960236Y-102584616D01*
X98008278Y-102570043D01*
X98059482Y-102565000D01*
X99044518Y-102565000D01*
X99095722Y-102570043D01*
X99095722Y-102570043D01*
G37*
G36*
X110223722Y-102520043D02*
X110271764Y-102534616D01*
X110316048Y-102558287D01*
X110354861Y-102590139D01*
X110386713Y-102628952D01*
X110410384Y-102673236D01*
X110424957Y-102721278D01*
X110430000Y-102772482D01*
X110430000Y-103332518D01*
X110424957Y-103383722D01*
X110410384Y-103431764D01*
X110386713Y-103476048D01*
X110354861Y-103514861D01*
X110316048Y-103546713D01*
X110271764Y-103570384D01*
X110223722Y-103584957D01*
X110172518Y-103590000D01*
X109187482Y-103590000D01*
X109136278Y-103584957D01*
X109088236Y-103570384D01*
X109043952Y-103546713D01*
X109005139Y-103514861D01*
X108973287Y-103476048D01*
X108949616Y-103431764D01*
X108935043Y-103383722D01*
X108930000Y-103332518D01*
X108930000Y-102772482D01*
X108935043Y-102721278D01*
X108949616Y-102673236D01*
X108973287Y-102628952D01*
X109005139Y-102590139D01*
X109043952Y-102558287D01*
X109088236Y-102534616D01*
X109136278Y-102520043D01*
X109187482Y-102515000D01*
X110172518Y-102515000D01*
X110223722Y-102520043D01*
X110223722Y-102520043D01*
G37*
G36*
X104508722Y-102520043D02*
X104556764Y-102534616D01*
X104601048Y-102558287D01*
X104639861Y-102590139D01*
X104671713Y-102628952D01*
X104695384Y-102673236D01*
X104709957Y-102721278D01*
X104715000Y-102772482D01*
X104715000Y-103332518D01*
X104709957Y-103383722D01*
X104695384Y-103431764D01*
X104671713Y-103476048D01*
X104639861Y-103514861D01*
X104601048Y-103546713D01*
X104556764Y-103570384D01*
X104508722Y-103584957D01*
X104457518Y-103590000D01*
X103472482Y-103590000D01*
X103421278Y-103584957D01*
X103373236Y-103570384D01*
X103328952Y-103546713D01*
X103290139Y-103514861D01*
X103258287Y-103476048D01*
X103234616Y-103431764D01*
X103220043Y-103383722D01*
X103215000Y-103332518D01*
X103215000Y-102772482D01*
X103220043Y-102721278D01*
X103234616Y-102673236D01*
X103258287Y-102628952D01*
X103290139Y-102590139D01*
X103328952Y-102558287D01*
X103373236Y-102534616D01*
X103421278Y-102520043D01*
X103472482Y-102515000D01*
X104457518Y-102515000D01*
X104508722Y-102520043D01*
X104508722Y-102520043D01*
G37*
G36*
X94523722Y-102337543D02*
X94571764Y-102352116D01*
X94616048Y-102375787D01*
X94654861Y-102407639D01*
X94686713Y-102446452D01*
X94710384Y-102490736D01*
X94724957Y-102538778D01*
X94730000Y-102589982D01*
X94730000Y-103150018D01*
X94724957Y-103201222D01*
X94710384Y-103249264D01*
X94686713Y-103293548D01*
X94654861Y-103332361D01*
X94616048Y-103364213D01*
X94571764Y-103387884D01*
X94523722Y-103402457D01*
X94472518Y-103407500D01*
X93487482Y-103407500D01*
X93436278Y-103402457D01*
X93388236Y-103387884D01*
X93343952Y-103364213D01*
X93305139Y-103332361D01*
X93273287Y-103293548D01*
X93249616Y-103249264D01*
X93235043Y-103201222D01*
X93230000Y-103150018D01*
X93230000Y-102589982D01*
X93235043Y-102538778D01*
X93249616Y-102490736D01*
X93273287Y-102446452D01*
X93305139Y-102407639D01*
X93343952Y-102375787D01*
X93388236Y-102352116D01*
X93436278Y-102337543D01*
X93487482Y-102332500D01*
X94472518Y-102332500D01*
X94523722Y-102337543D01*
X94523722Y-102337543D01*
G37*
G36*
X85343000Y-102489000D02*
X83743000Y-102489000D01*
X83743000Y-101789000D01*
X85343000Y-101789000D01*
X85343000Y-102489000D01*
X85343000Y-102489000D01*
G37*
G36*
X90743000Y-102489000D02*
X89143000Y-102489000D01*
X89143000Y-101789000D01*
X90743000Y-101789000D01*
X90743000Y-102489000D01*
X90743000Y-102489000D01*
G37*
G36*
X94523722Y-100462543D02*
X94571764Y-100477116D01*
X94616048Y-100500787D01*
X94654861Y-100532639D01*
X94686713Y-100571452D01*
X94710384Y-100615736D01*
X94724957Y-100663778D01*
X94730000Y-100714982D01*
X94730000Y-101275018D01*
X94724957Y-101326222D01*
X94710384Y-101374264D01*
X94686713Y-101418548D01*
X94654861Y-101457361D01*
X94616048Y-101489213D01*
X94571764Y-101512884D01*
X94523722Y-101527457D01*
X94472518Y-101532500D01*
X93487482Y-101532500D01*
X93436278Y-101527457D01*
X93388236Y-101512884D01*
X93343952Y-101489213D01*
X93305139Y-101457361D01*
X93273287Y-101418548D01*
X93249616Y-101374264D01*
X93235043Y-101326222D01*
X93230000Y-101275018D01*
X93230000Y-100714982D01*
X93235043Y-100663778D01*
X93249616Y-100615736D01*
X93273287Y-100571452D01*
X93305139Y-100532639D01*
X93343952Y-100500787D01*
X93388236Y-100477116D01*
X93436278Y-100462543D01*
X93487482Y-100457500D01*
X94472518Y-100457500D01*
X94523722Y-100462543D01*
X94523722Y-100462543D01*
G37*
G36*
X85343000Y-101219000D02*
X83743000Y-101219000D01*
X83743000Y-100519000D01*
X85343000Y-100519000D01*
X85343000Y-101219000D01*
X85343000Y-101219000D01*
G37*
G36*
X90743000Y-101219000D02*
X89143000Y-101219000D01*
X89143000Y-100519000D01*
X90743000Y-100519000D01*
X90743000Y-101219000D01*
X90743000Y-101219000D01*
G37*
G36*
X77948601Y-99335590D02*
X78000365Y-99357032D01*
X78088732Y-99393634D01*
X78183103Y-99456692D01*
X78214847Y-99477902D01*
X78322098Y-99585153D01*
X78322099Y-99585155D01*
X78406366Y-99711268D01*
X78438788Y-99789543D01*
X78464410Y-99851399D01*
X78494000Y-100000162D01*
X78494000Y-100151838D01*
X78464410Y-100300601D01*
X78442968Y-100352365D01*
X78406366Y-100440732D01*
X78354068Y-100519000D01*
X78322098Y-100566847D01*
X78214847Y-100674098D01*
X78183103Y-100695309D01*
X78088732Y-100758366D01*
X78000365Y-100794968D01*
X77948601Y-100816410D01*
X77799838Y-100846000D01*
X77648162Y-100846000D01*
X77499399Y-100816410D01*
X77447635Y-100794968D01*
X77359268Y-100758366D01*
X77264897Y-100695309D01*
X77233153Y-100674098D01*
X77125902Y-100566847D01*
X77093932Y-100519000D01*
X77041634Y-100440732D01*
X77005032Y-100352365D01*
X76983590Y-100300601D01*
X76954000Y-100151838D01*
X76954000Y-100000162D01*
X76983590Y-99851399D01*
X77009212Y-99789543D01*
X77041634Y-99711268D01*
X77125901Y-99585155D01*
X77125902Y-99585153D01*
X77233153Y-99477902D01*
X77264897Y-99456692D01*
X77359268Y-99393634D01*
X77447635Y-99357032D01*
X77499399Y-99335590D01*
X77648162Y-99306000D01*
X77799838Y-99306000D01*
X77948601Y-99335590D01*
X77948601Y-99335590D01*
G37*
G36*
X85343000Y-99949000D02*
X83743000Y-99949000D01*
X83743000Y-99249000D01*
X85343000Y-99249000D01*
X85343000Y-99949000D01*
X85343000Y-99949000D01*
G37*
G36*
X90743000Y-99949000D02*
X89143000Y-99949000D01*
X89143000Y-99249000D01*
X90743000Y-99249000D01*
X90743000Y-99949000D01*
X90743000Y-99949000D01*
G37*
G36*
X72896722Y-98315043D02*
X72944764Y-98329616D01*
X72989048Y-98353287D01*
X73027861Y-98385139D01*
X73059713Y-98423952D01*
X73083384Y-98468236D01*
X73097957Y-98516278D01*
X73103000Y-98567482D01*
X73103000Y-99552518D01*
X73097957Y-99603722D01*
X73083384Y-99651764D01*
X73059713Y-99696048D01*
X73027861Y-99734861D01*
X72989048Y-99766713D01*
X72944764Y-99790384D01*
X72896722Y-99804957D01*
X72845518Y-99810000D01*
X72285482Y-99810000D01*
X72234278Y-99804957D01*
X72186236Y-99790384D01*
X72141952Y-99766713D01*
X72103139Y-99734861D01*
X72071287Y-99696048D01*
X72047616Y-99651764D01*
X72033043Y-99603722D01*
X72028000Y-99552518D01*
X72028000Y-98567482D01*
X72033043Y-98516278D01*
X72047616Y-98468236D01*
X72071287Y-98423952D01*
X72103139Y-98385139D01*
X72141952Y-98353287D01*
X72186236Y-98329616D01*
X72234278Y-98315043D01*
X72285482Y-98310000D01*
X72845518Y-98310000D01*
X72896722Y-98315043D01*
X72896722Y-98315043D01*
G37*
G36*
X71021722Y-98315043D02*
X71069764Y-98329616D01*
X71114048Y-98353287D01*
X71152861Y-98385139D01*
X71184713Y-98423952D01*
X71208384Y-98468236D01*
X71222957Y-98516278D01*
X71228000Y-98567482D01*
X71228000Y-99552518D01*
X71222957Y-99603722D01*
X71208384Y-99651764D01*
X71184713Y-99696048D01*
X71152861Y-99734861D01*
X71114048Y-99766713D01*
X71069764Y-99790384D01*
X71021722Y-99804957D01*
X70970518Y-99810000D01*
X70410482Y-99810000D01*
X70359278Y-99804957D01*
X70311236Y-99790384D01*
X70266952Y-99766713D01*
X70228139Y-99734861D01*
X70196287Y-99696048D01*
X70172616Y-99651764D01*
X70158043Y-99603722D01*
X70153000Y-99552518D01*
X70153000Y-98567482D01*
X70158043Y-98516278D01*
X70172616Y-98468236D01*
X70196287Y-98423952D01*
X70228139Y-98385139D01*
X70266952Y-98353287D01*
X70311236Y-98329616D01*
X70359278Y-98315043D01*
X70410482Y-98310000D01*
X70970518Y-98310000D01*
X71021722Y-98315043D01*
X71021722Y-98315043D01*
G37*
G36*
X80488601Y-96795590D02*
X80540365Y-96817032D01*
X80628732Y-96853634D01*
X80723103Y-96916691D01*
X80754847Y-96937902D01*
X80862098Y-97045153D01*
X80862099Y-97045155D01*
X80946366Y-97171268D01*
X80974726Y-97239736D01*
X81004410Y-97311399D01*
X81034000Y-97460162D01*
X81034000Y-97611838D01*
X81004410Y-97760601D01*
X80982968Y-97812365D01*
X80946366Y-97900732D01*
X80883308Y-97995103D01*
X80862098Y-98026847D01*
X80754847Y-98134098D01*
X80723103Y-98155309D01*
X80628732Y-98218366D01*
X80540365Y-98254968D01*
X80488601Y-98276410D01*
X80339838Y-98306000D01*
X80188162Y-98306000D01*
X80039399Y-98276410D01*
X79987635Y-98254968D01*
X79899268Y-98218366D01*
X79804897Y-98155309D01*
X79773153Y-98134098D01*
X79665902Y-98026847D01*
X79644691Y-97995103D01*
X79581634Y-97900732D01*
X79545032Y-97812365D01*
X79523590Y-97760601D01*
X79494000Y-97611838D01*
X79494000Y-97460162D01*
X79523590Y-97311399D01*
X79553274Y-97239736D01*
X79581634Y-97171268D01*
X79665901Y-97045155D01*
X79665902Y-97045153D01*
X79773153Y-96937902D01*
X79804897Y-96916691D01*
X79899268Y-96853634D01*
X79987635Y-96817032D01*
X80039399Y-96795590D01*
X80188162Y-96766000D01*
X80339838Y-96766000D01*
X80488601Y-96795590D01*
X80488601Y-96795590D01*
G37*
G36*
X132873722Y-96455043D02*
X132921764Y-96469616D01*
X132966048Y-96493287D01*
X133004861Y-96525139D01*
X133036713Y-96563952D01*
X133060384Y-96608236D01*
X133074957Y-96656278D01*
X133080000Y-96707482D01*
X133080000Y-97267518D01*
X133074957Y-97318722D01*
X133060384Y-97366764D01*
X133036713Y-97411048D01*
X133004861Y-97449861D01*
X132966048Y-97481713D01*
X132921764Y-97505384D01*
X132873722Y-97519957D01*
X132822518Y-97525000D01*
X131837482Y-97525000D01*
X131786278Y-97519957D01*
X131738236Y-97505384D01*
X131693952Y-97481713D01*
X131655139Y-97449861D01*
X131623287Y-97411048D01*
X131599616Y-97366764D01*
X131585043Y-97318722D01*
X131580000Y-97267518D01*
X131580000Y-96707482D01*
X131585043Y-96656278D01*
X131599616Y-96608236D01*
X131623287Y-96563952D01*
X131655139Y-96525139D01*
X131693952Y-96493287D01*
X131738236Y-96469616D01*
X131786278Y-96455043D01*
X131837482Y-96450000D01*
X132822518Y-96450000D01*
X132873722Y-96455043D01*
X132873722Y-96455043D01*
G37*
G36*
X92674329Y-95800264D02*
X92674332Y-95800265D01*
X92674331Y-95800265D01*
X92810548Y-95856688D01*
X92933140Y-95938601D01*
X93037399Y-96042860D01*
X93110104Y-96151671D01*
X93119312Y-96165452D01*
X93175736Y-96301671D01*
X93204500Y-96446279D01*
X93204500Y-96593721D01*
X93175736Y-96738329D01*
X93175735Y-96738331D01*
X93119312Y-96874548D01*
X93067963Y-96951398D01*
X93037398Y-96997141D01*
X92933141Y-97101398D01*
X92810548Y-97183312D01*
X92674329Y-97239736D01*
X92529721Y-97268500D01*
X92382279Y-97268500D01*
X92237671Y-97239736D01*
X92101452Y-97183312D01*
X91978859Y-97101398D01*
X91874602Y-96997141D01*
X91844038Y-96951398D01*
X91792688Y-96874548D01*
X91736265Y-96738331D01*
X91736264Y-96738329D01*
X91707500Y-96593721D01*
X91707500Y-96446279D01*
X91736264Y-96301671D01*
X91792688Y-96165452D01*
X91801896Y-96151671D01*
X91874601Y-96042860D01*
X91978860Y-95938601D01*
X92101452Y-95856688D01*
X92237669Y-95800265D01*
X92237668Y-95800265D01*
X92237671Y-95800264D01*
X92382279Y-95771500D01*
X92529721Y-95771500D01*
X92674329Y-95800264D01*
X92674329Y-95800264D01*
G37*
G36*
X97754329Y-95800264D02*
X97754332Y-95800265D01*
X97754331Y-95800265D01*
X97890548Y-95856688D01*
X98013140Y-95938601D01*
X98117399Y-96042860D01*
X98190104Y-96151671D01*
X98199312Y-96165452D01*
X98255736Y-96301671D01*
X98284500Y-96446279D01*
X98284500Y-96593721D01*
X98255736Y-96738329D01*
X98255735Y-96738331D01*
X98199312Y-96874548D01*
X98147963Y-96951398D01*
X98117398Y-96997141D01*
X98013141Y-97101398D01*
X97890548Y-97183312D01*
X97754329Y-97239736D01*
X97609721Y-97268500D01*
X97462279Y-97268500D01*
X97317671Y-97239736D01*
X97181452Y-97183312D01*
X97058859Y-97101398D01*
X96954602Y-96997141D01*
X96924038Y-96951398D01*
X96872688Y-96874548D01*
X96816265Y-96738331D01*
X96816264Y-96738329D01*
X96787500Y-96593721D01*
X96787500Y-96446279D01*
X96816264Y-96301671D01*
X96872688Y-96165452D01*
X96881896Y-96151671D01*
X96954601Y-96042860D01*
X97058860Y-95938601D01*
X97181452Y-95856688D01*
X97317669Y-95800265D01*
X97317668Y-95800265D01*
X97317671Y-95800264D01*
X97462279Y-95771500D01*
X97609721Y-95771500D01*
X97754329Y-95800264D01*
X97754329Y-95800264D01*
G37*
G36*
X142876285Y-93699106D02*
X143047750Y-93733213D01*
X143370778Y-93867015D01*
X143661495Y-94061267D01*
X143908733Y-94308505D01*
X144102985Y-94599222D01*
X144236787Y-94922250D01*
X144236787Y-94922252D01*
X144305000Y-95265178D01*
X144305000Y-95614822D01*
X144280814Y-95736410D01*
X144236787Y-95957750D01*
X144102985Y-96280778D01*
X143908733Y-96571495D01*
X143661495Y-96818733D01*
X143370778Y-97012985D01*
X143047750Y-97146787D01*
X142876285Y-97180893D01*
X142704822Y-97215000D01*
X142355178Y-97215000D01*
X142183715Y-97180894D01*
X142012250Y-97146787D01*
X141689222Y-97012985D01*
X141398505Y-96818733D01*
X141151267Y-96571495D01*
X140957015Y-96280778D01*
X140823213Y-95957750D01*
X140779186Y-95736410D01*
X140755000Y-95614822D01*
X140755000Y-95265178D01*
X140823213Y-94922252D01*
X140823213Y-94922250D01*
X140957015Y-94599222D01*
X141151267Y-94308505D01*
X141398505Y-94061267D01*
X141689222Y-93867015D01*
X142012250Y-93733213D01*
X142183715Y-93699106D01*
X142355178Y-93665000D01*
X142704822Y-93665000D01*
X142876285Y-93699106D01*
X142876285Y-93699106D01*
G37*
G36*
X120693329Y-95650264D02*
X120761173Y-95678366D01*
X120829548Y-95706688D01*
X120952140Y-95788601D01*
X121056399Y-95892860D01*
X121099757Y-95957750D01*
X121138312Y-96015452D01*
X121194736Y-96151671D01*
X121223500Y-96296279D01*
X121223500Y-96443721D01*
X121194736Y-96588329D01*
X121186490Y-96608236D01*
X121138312Y-96724548D01*
X121075381Y-96818732D01*
X121056398Y-96847141D01*
X120952141Y-96951398D01*
X120829548Y-97033312D01*
X120693329Y-97089736D01*
X120548721Y-97118500D01*
X120401279Y-97118500D01*
X120256671Y-97089736D01*
X120120452Y-97033312D01*
X119997859Y-96951398D01*
X119893602Y-96847141D01*
X119874620Y-96818732D01*
X119811688Y-96724548D01*
X119763510Y-96608236D01*
X119755264Y-96588329D01*
X119726500Y-96443721D01*
X119726500Y-96296279D01*
X119755264Y-96151671D01*
X119811688Y-96015452D01*
X119850243Y-95957750D01*
X119893601Y-95892860D01*
X119997860Y-95788601D01*
X120120452Y-95706688D01*
X120188827Y-95678366D01*
X120256671Y-95650264D01*
X120401279Y-95621500D01*
X120548721Y-95621500D01*
X120693329Y-95650264D01*
X120693329Y-95650264D01*
G37*
G36*
X116248329Y-95650264D02*
X116316173Y-95678366D01*
X116384548Y-95706688D01*
X116507140Y-95788601D01*
X116611399Y-95892860D01*
X116654757Y-95957750D01*
X116693312Y-96015452D01*
X116749736Y-96151671D01*
X116778500Y-96296279D01*
X116778500Y-96443721D01*
X116749736Y-96588329D01*
X116741490Y-96608236D01*
X116693312Y-96724548D01*
X116630381Y-96818732D01*
X116611398Y-96847141D01*
X116507141Y-96951398D01*
X116384548Y-97033312D01*
X116248329Y-97089736D01*
X116103721Y-97118500D01*
X115956279Y-97118500D01*
X115811671Y-97089736D01*
X115675452Y-97033312D01*
X115552859Y-96951398D01*
X115448602Y-96847141D01*
X115429620Y-96818732D01*
X115366688Y-96724548D01*
X115318510Y-96608236D01*
X115310264Y-96588329D01*
X115281500Y-96443721D01*
X115281500Y-96296279D01*
X115310264Y-96151671D01*
X115366688Y-96015452D01*
X115405243Y-95957750D01*
X115448601Y-95892860D01*
X115552860Y-95788601D01*
X115675452Y-95706688D01*
X115743827Y-95678366D01*
X115811671Y-95650264D01*
X115956279Y-95621500D01*
X116103721Y-95621500D01*
X116248329Y-95650264D01*
X116248329Y-95650264D01*
G37*
G36*
X111168329Y-95650264D02*
X111236173Y-95678366D01*
X111304548Y-95706688D01*
X111427140Y-95788601D01*
X111531399Y-95892860D01*
X111574757Y-95957750D01*
X111613312Y-96015452D01*
X111669736Y-96151671D01*
X111698500Y-96296279D01*
X111698500Y-96443721D01*
X111669736Y-96588329D01*
X111661490Y-96608236D01*
X111613312Y-96724548D01*
X111550381Y-96818732D01*
X111531398Y-96847141D01*
X111427141Y-96951398D01*
X111304548Y-97033312D01*
X111168329Y-97089736D01*
X111023721Y-97118500D01*
X110876279Y-97118500D01*
X110731671Y-97089736D01*
X110595452Y-97033312D01*
X110472859Y-96951398D01*
X110368602Y-96847141D01*
X110349620Y-96818732D01*
X110286688Y-96724548D01*
X110238510Y-96608236D01*
X110230264Y-96588329D01*
X110201500Y-96443721D01*
X110201500Y-96296279D01*
X110230264Y-96151671D01*
X110286688Y-96015452D01*
X110325243Y-95957750D01*
X110368601Y-95892860D01*
X110472860Y-95788601D01*
X110595452Y-95706688D01*
X110663827Y-95678366D01*
X110731671Y-95650264D01*
X110876279Y-95621500D01*
X111023721Y-95621500D01*
X111168329Y-95650264D01*
X111168329Y-95650264D01*
G37*
G36*
X125773329Y-95650264D02*
X125841173Y-95678366D01*
X125909548Y-95706688D01*
X126032140Y-95788601D01*
X126136399Y-95892860D01*
X126179757Y-95957750D01*
X126218312Y-96015452D01*
X126274736Y-96151671D01*
X126303500Y-96296279D01*
X126303500Y-96443721D01*
X126274736Y-96588329D01*
X126266490Y-96608236D01*
X126218312Y-96724548D01*
X126155381Y-96818732D01*
X126136398Y-96847141D01*
X126032141Y-96951398D01*
X125909548Y-97033312D01*
X125773329Y-97089736D01*
X125628721Y-97118500D01*
X125481279Y-97118500D01*
X125336671Y-97089736D01*
X125200452Y-97033312D01*
X125077859Y-96951398D01*
X124973602Y-96847141D01*
X124954620Y-96818732D01*
X124891688Y-96724548D01*
X124843510Y-96608236D01*
X124835264Y-96588329D01*
X124806500Y-96443721D01*
X124806500Y-96296279D01*
X124835264Y-96151671D01*
X124891688Y-96015452D01*
X124930243Y-95957750D01*
X124973601Y-95892860D01*
X125077860Y-95788601D01*
X125200452Y-95706688D01*
X125268827Y-95678366D01*
X125336671Y-95650264D01*
X125481279Y-95621500D01*
X125628721Y-95621500D01*
X125773329Y-95650264D01*
X125773329Y-95650264D01*
G37*
G36*
X137953722Y-95185043D02*
X138001764Y-95199616D01*
X138046048Y-95223287D01*
X138084861Y-95255139D01*
X138116713Y-95293952D01*
X138140384Y-95338236D01*
X138154957Y-95386278D01*
X138160000Y-95437482D01*
X138160000Y-95997518D01*
X138154957Y-96048722D01*
X138140384Y-96096764D01*
X138116713Y-96141048D01*
X138084861Y-96179861D01*
X138046048Y-96211713D01*
X138001764Y-96235384D01*
X137953722Y-96249957D01*
X137902518Y-96255000D01*
X136917482Y-96255000D01*
X136866278Y-96249957D01*
X136818236Y-96235384D01*
X136773952Y-96211713D01*
X136735139Y-96179861D01*
X136703287Y-96141048D01*
X136679616Y-96096764D01*
X136665043Y-96048722D01*
X136660000Y-95997518D01*
X136660000Y-95437482D01*
X136665043Y-95386278D01*
X136679616Y-95338236D01*
X136703287Y-95293952D01*
X136735139Y-95255139D01*
X136773952Y-95223287D01*
X136818236Y-95199616D01*
X136866278Y-95185043D01*
X136917482Y-95180000D01*
X137902518Y-95180000D01*
X137953722Y-95185043D01*
X137953722Y-95185043D01*
G37*
G36*
X107302722Y-95124043D02*
X107350764Y-95138616D01*
X107395048Y-95162287D01*
X107433861Y-95194139D01*
X107465713Y-95232952D01*
X107489384Y-95277236D01*
X107503957Y-95325278D01*
X107509000Y-95376482D01*
X107509000Y-95936518D01*
X107503957Y-95987722D01*
X107489384Y-96035764D01*
X107465713Y-96080048D01*
X107433861Y-96118861D01*
X107395048Y-96150713D01*
X107350764Y-96174384D01*
X107302722Y-96188957D01*
X107251518Y-96194000D01*
X106266482Y-96194000D01*
X106215278Y-96188957D01*
X106167236Y-96174384D01*
X106122952Y-96150713D01*
X106084139Y-96118861D01*
X106052287Y-96080048D01*
X106028616Y-96035764D01*
X106014043Y-95987722D01*
X106009000Y-95936518D01*
X106009000Y-95376482D01*
X106014043Y-95325278D01*
X106028616Y-95277236D01*
X106052287Y-95232952D01*
X106084139Y-95194139D01*
X106122952Y-95162287D01*
X106167236Y-95138616D01*
X106215278Y-95124043D01*
X106266482Y-95119000D01*
X107251518Y-95119000D01*
X107302722Y-95124043D01*
X107302722Y-95124043D01*
G37*
G36*
X104127722Y-95124043D02*
X104175764Y-95138616D01*
X104220048Y-95162287D01*
X104258861Y-95194139D01*
X104290713Y-95232952D01*
X104314384Y-95277236D01*
X104328957Y-95325278D01*
X104334000Y-95376482D01*
X104334000Y-95936518D01*
X104328957Y-95987722D01*
X104314384Y-96035764D01*
X104290713Y-96080048D01*
X104258861Y-96118861D01*
X104220048Y-96150713D01*
X104175764Y-96174384D01*
X104127722Y-96188957D01*
X104076518Y-96194000D01*
X103091482Y-96194000D01*
X103040278Y-96188957D01*
X102992236Y-96174384D01*
X102947952Y-96150713D01*
X102909139Y-96118861D01*
X102877287Y-96080048D01*
X102853616Y-96035764D01*
X102839043Y-95987722D01*
X102834000Y-95936518D01*
X102834000Y-95376482D01*
X102839043Y-95325278D01*
X102853616Y-95277236D01*
X102877287Y-95232952D01*
X102909139Y-95194139D01*
X102947952Y-95162287D01*
X102992236Y-95138616D01*
X103040278Y-95124043D01*
X103091482Y-95119000D01*
X104076518Y-95119000D01*
X104127722Y-95124043D01*
X104127722Y-95124043D01*
G37*
G36*
X100952722Y-95124043D02*
X101000764Y-95138616D01*
X101045048Y-95162287D01*
X101083861Y-95194139D01*
X101115713Y-95232952D01*
X101139384Y-95277236D01*
X101153957Y-95325278D01*
X101159000Y-95376482D01*
X101159000Y-95936518D01*
X101153957Y-95987722D01*
X101139384Y-96035764D01*
X101115713Y-96080048D01*
X101083861Y-96118861D01*
X101045048Y-96150713D01*
X101000764Y-96174384D01*
X100952722Y-96188957D01*
X100901518Y-96194000D01*
X99916482Y-96194000D01*
X99865278Y-96188957D01*
X99817236Y-96174384D01*
X99772952Y-96150713D01*
X99734139Y-96118861D01*
X99702287Y-96080048D01*
X99678616Y-96035764D01*
X99664043Y-95987722D01*
X99659000Y-95936518D01*
X99659000Y-95376482D01*
X99664043Y-95325278D01*
X99678616Y-95277236D01*
X99702287Y-95232952D01*
X99734139Y-95194139D01*
X99772952Y-95162287D01*
X99817236Y-95138616D01*
X99865278Y-95124043D01*
X99916482Y-95119000D01*
X100901518Y-95119000D01*
X100952722Y-95124043D01*
X100952722Y-95124043D01*
G37*
G36*
X77948601Y-94255590D02*
X78000365Y-94277032D01*
X78088732Y-94313634D01*
X78158697Y-94360384D01*
X78214847Y-94397902D01*
X78322098Y-94505153D01*
X78322099Y-94505155D01*
X78406366Y-94631268D01*
X78430259Y-94688952D01*
X78464410Y-94771399D01*
X78494000Y-94920162D01*
X78494000Y-95071838D01*
X78464410Y-95220601D01*
X78442968Y-95272365D01*
X78406366Y-95360732D01*
X78343309Y-95455103D01*
X78322098Y-95486847D01*
X78214847Y-95594098D01*
X78198969Y-95604707D01*
X78088732Y-95678366D01*
X78000365Y-95714968D01*
X77948601Y-95736410D01*
X77799838Y-95766000D01*
X77648162Y-95766000D01*
X77499399Y-95736410D01*
X77447635Y-95714968D01*
X77359268Y-95678366D01*
X77249031Y-95604707D01*
X77233153Y-95594098D01*
X77125902Y-95486847D01*
X77104692Y-95455103D01*
X77041634Y-95360732D01*
X77005032Y-95272365D01*
X76983590Y-95220601D01*
X76954000Y-95071838D01*
X76954000Y-94920162D01*
X76983590Y-94771399D01*
X77017741Y-94688952D01*
X77041634Y-94631268D01*
X77125901Y-94505155D01*
X77125902Y-94505153D01*
X77233153Y-94397902D01*
X77289303Y-94360384D01*
X77359268Y-94313634D01*
X77447635Y-94277032D01*
X77499399Y-94255590D01*
X77648162Y-94226000D01*
X77799838Y-94226000D01*
X77948601Y-94255590D01*
X77948601Y-94255590D01*
G37*
G36*
X132873722Y-94580043D02*
X132921764Y-94594616D01*
X132966048Y-94618287D01*
X133004861Y-94650139D01*
X133036713Y-94688952D01*
X133060384Y-94733236D01*
X133074957Y-94781278D01*
X133080000Y-94832482D01*
X133080000Y-95392518D01*
X133074957Y-95443722D01*
X133060384Y-95491764D01*
X133036713Y-95536048D01*
X133004861Y-95574861D01*
X132966048Y-95606713D01*
X132921764Y-95630384D01*
X132873722Y-95644957D01*
X132822518Y-95650000D01*
X131837482Y-95650000D01*
X131786278Y-95644957D01*
X131738236Y-95630384D01*
X131693952Y-95606713D01*
X131655139Y-95574861D01*
X131623287Y-95536048D01*
X131599616Y-95491764D01*
X131585043Y-95443722D01*
X131580000Y-95392518D01*
X131580000Y-94832482D01*
X131585043Y-94781278D01*
X131599616Y-94733236D01*
X131623287Y-94688952D01*
X131655139Y-94650139D01*
X131693952Y-94618287D01*
X131738236Y-94594616D01*
X131786278Y-94580043D01*
X131837482Y-94575000D01*
X132822518Y-94575000D01*
X132873722Y-94580043D01*
X132873722Y-94580043D01*
G37*
G36*
X137953722Y-93310043D02*
X138001764Y-93324616D01*
X138046048Y-93348287D01*
X138084861Y-93380139D01*
X138116713Y-93418952D01*
X138140384Y-93463236D01*
X138154957Y-93511278D01*
X138160000Y-93562482D01*
X138160000Y-94122518D01*
X138154957Y-94173722D01*
X138140384Y-94221764D01*
X138116713Y-94266048D01*
X138084861Y-94304861D01*
X138046048Y-94336713D01*
X138001764Y-94360384D01*
X137953722Y-94374957D01*
X137902518Y-94380000D01*
X136917482Y-94380000D01*
X136866278Y-94374957D01*
X136818236Y-94360384D01*
X136773952Y-94336713D01*
X136735139Y-94304861D01*
X136703287Y-94266048D01*
X136679616Y-94221764D01*
X136665043Y-94173722D01*
X136660000Y-94122518D01*
X136660000Y-93562482D01*
X136665043Y-93511278D01*
X136679616Y-93463236D01*
X136703287Y-93418952D01*
X136735139Y-93380139D01*
X136773952Y-93348287D01*
X136818236Y-93324616D01*
X136866278Y-93310043D01*
X136917482Y-93305000D01*
X137902518Y-93305000D01*
X137953722Y-93310043D01*
X137953722Y-93310043D01*
G37*
G36*
X107302722Y-93249043D02*
X107350764Y-93263616D01*
X107395048Y-93287287D01*
X107433861Y-93319139D01*
X107465713Y-93357952D01*
X107489384Y-93402236D01*
X107503957Y-93450278D01*
X107509000Y-93501482D01*
X107509000Y-94061518D01*
X107503957Y-94112722D01*
X107489384Y-94160764D01*
X107465713Y-94205048D01*
X107433861Y-94243861D01*
X107395048Y-94275713D01*
X107350764Y-94299384D01*
X107302722Y-94313957D01*
X107251518Y-94319000D01*
X106266482Y-94319000D01*
X106215278Y-94313957D01*
X106167236Y-94299384D01*
X106122952Y-94275713D01*
X106084139Y-94243861D01*
X106052287Y-94205048D01*
X106028616Y-94160764D01*
X106014043Y-94112722D01*
X106009000Y-94061518D01*
X106009000Y-93501482D01*
X106014043Y-93450278D01*
X106028616Y-93402236D01*
X106052287Y-93357952D01*
X106084139Y-93319139D01*
X106122952Y-93287287D01*
X106167236Y-93263616D01*
X106215278Y-93249043D01*
X106266482Y-93244000D01*
X107251518Y-93244000D01*
X107302722Y-93249043D01*
X107302722Y-93249043D01*
G37*
G36*
X104127722Y-93249043D02*
X104175764Y-93263616D01*
X104220048Y-93287287D01*
X104258861Y-93319139D01*
X104290713Y-93357952D01*
X104314384Y-93402236D01*
X104328957Y-93450278D01*
X104334000Y-93501482D01*
X104334000Y-94061518D01*
X104328957Y-94112722D01*
X104314384Y-94160764D01*
X104290713Y-94205048D01*
X104258861Y-94243861D01*
X104220048Y-94275713D01*
X104175764Y-94299384D01*
X104127722Y-94313957D01*
X104076518Y-94319000D01*
X103091482Y-94319000D01*
X103040278Y-94313957D01*
X102992236Y-94299384D01*
X102947952Y-94275713D01*
X102909139Y-94243861D01*
X102877287Y-94205048D01*
X102853616Y-94160764D01*
X102839043Y-94112722D01*
X102834000Y-94061518D01*
X102834000Y-93501482D01*
X102839043Y-93450278D01*
X102853616Y-93402236D01*
X102877287Y-93357952D01*
X102909139Y-93319139D01*
X102947952Y-93287287D01*
X102992236Y-93263616D01*
X103040278Y-93249043D01*
X103091482Y-93244000D01*
X104076518Y-93244000D01*
X104127722Y-93249043D01*
X104127722Y-93249043D01*
G37*
G36*
X100952722Y-93249043D02*
X101000764Y-93263616D01*
X101045048Y-93287287D01*
X101083861Y-93319139D01*
X101115713Y-93357952D01*
X101139384Y-93402236D01*
X101153957Y-93450278D01*
X101159000Y-93501482D01*
X101159000Y-94061518D01*
X101153957Y-94112722D01*
X101139384Y-94160764D01*
X101115713Y-94205048D01*
X101083861Y-94243861D01*
X101045048Y-94275713D01*
X101000764Y-94299384D01*
X100952722Y-94313957D01*
X100901518Y-94319000D01*
X99916482Y-94319000D01*
X99865278Y-94313957D01*
X99817236Y-94299384D01*
X99772952Y-94275713D01*
X99734139Y-94243861D01*
X99702287Y-94205048D01*
X99678616Y-94160764D01*
X99664043Y-94112722D01*
X99659000Y-94061518D01*
X99659000Y-93501482D01*
X99664043Y-93450278D01*
X99678616Y-93402236D01*
X99702287Y-93357952D01*
X99734139Y-93319139D01*
X99772952Y-93287287D01*
X99817236Y-93263616D01*
X99865278Y-93249043D01*
X99916482Y-93244000D01*
X100901518Y-93244000D01*
X100952722Y-93249043D01*
X100952722Y-93249043D01*
G37*
G36*
X133130000Y-93900000D02*
X131530000Y-93900000D01*
X131530000Y-91800000D01*
X133130000Y-91800000D01*
X133130000Y-93900000D01*
X133130000Y-93900000D01*
G37*
G36*
X135430000Y-93900000D02*
X133830000Y-93900000D01*
X133830000Y-91800000D01*
X135430000Y-91800000D01*
X135430000Y-93900000D01*
X135430000Y-93900000D01*
G37*
G36*
X130830000Y-93900000D02*
X129230000Y-93900000D01*
X129230000Y-91800000D01*
X130830000Y-91800000D01*
X130830000Y-93900000D01*
X130830000Y-93900000D01*
G37*
G36*
X82980431Y-90553023D02*
X83150081Y-90604486D01*
X83150084Y-90604487D01*
X83238353Y-90651668D01*
X83306432Y-90688057D01*
X83443475Y-90800525D01*
X83555943Y-90937568D01*
X83592332Y-91005647D01*
X83639513Y-91093916D01*
X83639514Y-91093919D01*
X83690977Y-91263569D01*
X83708354Y-91440000D01*
X83690977Y-91616431D01*
X83663893Y-91705713D01*
X83639513Y-91786084D01*
X83592332Y-91874353D01*
X83555943Y-91942432D01*
X83443475Y-92079475D01*
X83306432Y-92191943D01*
X83238353Y-92228332D01*
X83150084Y-92275513D01*
X83150081Y-92275514D01*
X82980431Y-92326977D01*
X82848207Y-92340000D01*
X82759793Y-92340000D01*
X82627569Y-92326977D01*
X82457919Y-92275514D01*
X82457916Y-92275513D01*
X82369647Y-92228332D01*
X82301568Y-92191943D01*
X82164525Y-92079475D01*
X82052057Y-91942432D01*
X82015668Y-91874353D01*
X81968487Y-91786084D01*
X81944107Y-91705713D01*
X81917023Y-91616431D01*
X81899646Y-91440000D01*
X81917023Y-91263569D01*
X81968486Y-91093919D01*
X81968487Y-91093916D01*
X82015668Y-91005647D01*
X82052057Y-90937568D01*
X82164525Y-90800525D01*
X82301568Y-90688057D01*
X82369647Y-90651668D01*
X82457916Y-90604487D01*
X82457919Y-90604486D01*
X82627569Y-90553023D01*
X82759793Y-90540000D01*
X82848207Y-90540000D01*
X82980431Y-90553023D01*
X82980431Y-90553023D01*
G37*
G36*
X88784000Y-92340000D02*
X86984000Y-92340000D01*
X86984000Y-90540000D01*
X88784000Y-90540000D01*
X88784000Y-92340000D01*
X88784000Y-92340000D01*
G37*
G36*
X85520431Y-90553023D02*
X85690081Y-90604486D01*
X85690084Y-90604487D01*
X85778353Y-90651668D01*
X85846432Y-90688057D01*
X85983475Y-90800525D01*
X86095943Y-90937568D01*
X86132332Y-91005647D01*
X86179513Y-91093916D01*
X86179514Y-91093919D01*
X86230977Y-91263569D01*
X86248354Y-91440000D01*
X86230977Y-91616431D01*
X86203893Y-91705713D01*
X86179513Y-91786084D01*
X86132332Y-91874353D01*
X86095943Y-91942432D01*
X85983475Y-92079475D01*
X85846432Y-92191943D01*
X85778353Y-92228332D01*
X85690084Y-92275513D01*
X85690081Y-92275514D01*
X85520431Y-92326977D01*
X85388207Y-92340000D01*
X85299793Y-92340000D01*
X85167569Y-92326977D01*
X84997919Y-92275514D01*
X84997916Y-92275513D01*
X84909647Y-92228332D01*
X84841568Y-92191943D01*
X84704525Y-92079475D01*
X84592057Y-91942432D01*
X84555668Y-91874353D01*
X84508487Y-91786084D01*
X84484107Y-91705713D01*
X84457023Y-91616431D01*
X84439646Y-91440000D01*
X84457023Y-91263569D01*
X84508486Y-91093919D01*
X84508487Y-91093916D01*
X84555668Y-91005647D01*
X84592057Y-90937568D01*
X84704525Y-90800525D01*
X84841568Y-90688057D01*
X84909647Y-90651668D01*
X84997916Y-90604487D01*
X84997919Y-90604486D01*
X85167569Y-90553023D01*
X85299793Y-90540000D01*
X85388207Y-90540000D01*
X85520431Y-90553023D01*
X85520431Y-90553023D01*
G37*
G36*
X107302722Y-90679043D02*
X107350764Y-90693616D01*
X107395048Y-90717287D01*
X107433861Y-90749139D01*
X107465713Y-90787952D01*
X107489384Y-90832236D01*
X107503957Y-90880278D01*
X107509000Y-90931482D01*
X107509000Y-91491518D01*
X107503957Y-91542722D01*
X107489384Y-91590764D01*
X107465713Y-91635048D01*
X107433861Y-91673861D01*
X107395048Y-91705713D01*
X107350764Y-91729384D01*
X107302722Y-91743957D01*
X107251518Y-91749000D01*
X106266482Y-91749000D01*
X106215278Y-91743957D01*
X106167236Y-91729384D01*
X106122952Y-91705713D01*
X106084139Y-91673861D01*
X106052287Y-91635048D01*
X106028616Y-91590764D01*
X106014043Y-91542722D01*
X106009000Y-91491518D01*
X106009000Y-90931482D01*
X106014043Y-90880278D01*
X106028616Y-90832236D01*
X106052287Y-90787952D01*
X106084139Y-90749139D01*
X106122952Y-90717287D01*
X106167236Y-90693616D01*
X106215278Y-90679043D01*
X106266482Y-90674000D01*
X107251518Y-90674000D01*
X107302722Y-90679043D01*
X107302722Y-90679043D01*
G37*
G36*
X104127722Y-90679043D02*
X104175764Y-90693616D01*
X104220048Y-90717287D01*
X104258861Y-90749139D01*
X104290713Y-90787952D01*
X104314384Y-90832236D01*
X104328957Y-90880278D01*
X104334000Y-90931482D01*
X104334000Y-91491518D01*
X104328957Y-91542722D01*
X104314384Y-91590764D01*
X104290713Y-91635048D01*
X104258861Y-91673861D01*
X104220048Y-91705713D01*
X104175764Y-91729384D01*
X104127722Y-91743957D01*
X104076518Y-91749000D01*
X103091482Y-91749000D01*
X103040278Y-91743957D01*
X102992236Y-91729384D01*
X102947952Y-91705713D01*
X102909139Y-91673861D01*
X102877287Y-91635048D01*
X102853616Y-91590764D01*
X102839043Y-91542722D01*
X102834000Y-91491518D01*
X102834000Y-90931482D01*
X102839043Y-90880278D01*
X102853616Y-90832236D01*
X102877287Y-90787952D01*
X102909139Y-90749139D01*
X102947952Y-90717287D01*
X102992236Y-90693616D01*
X103040278Y-90679043D01*
X103091482Y-90674000D01*
X104076518Y-90674000D01*
X104127722Y-90679043D01*
X104127722Y-90679043D01*
G37*
G36*
X100952722Y-90679043D02*
X101000764Y-90693616D01*
X101045048Y-90717287D01*
X101083861Y-90749139D01*
X101115713Y-90787952D01*
X101139384Y-90832236D01*
X101153957Y-90880278D01*
X101159000Y-90931482D01*
X101159000Y-91491518D01*
X101153957Y-91542722D01*
X101139384Y-91590764D01*
X101115713Y-91635048D01*
X101083861Y-91673861D01*
X101045048Y-91705713D01*
X101000764Y-91729384D01*
X100952722Y-91743957D01*
X100901518Y-91749000D01*
X99916482Y-91749000D01*
X99865278Y-91743957D01*
X99817236Y-91729384D01*
X99772952Y-91705713D01*
X99734139Y-91673861D01*
X99702287Y-91635048D01*
X99678616Y-91590764D01*
X99664043Y-91542722D01*
X99659000Y-91491518D01*
X99659000Y-90931482D01*
X99664043Y-90880278D01*
X99678616Y-90832236D01*
X99702287Y-90787952D01*
X99734139Y-90749139D01*
X99772952Y-90717287D01*
X99817236Y-90693616D01*
X99865278Y-90679043D01*
X99916482Y-90674000D01*
X100901518Y-90674000D01*
X100952722Y-90679043D01*
X100952722Y-90679043D01*
G37*
G36*
X104127722Y-88804043D02*
X104175764Y-88818616D01*
X104220048Y-88842287D01*
X104258861Y-88874139D01*
X104290713Y-88912952D01*
X104314384Y-88957236D01*
X104328957Y-89005278D01*
X104334000Y-89056482D01*
X104334000Y-89616518D01*
X104328957Y-89667722D01*
X104314384Y-89715764D01*
X104290713Y-89760048D01*
X104258861Y-89798861D01*
X104220048Y-89830713D01*
X104175764Y-89854384D01*
X104127722Y-89868957D01*
X104076518Y-89874000D01*
X103091482Y-89874000D01*
X103040278Y-89868957D01*
X102992236Y-89854384D01*
X102947952Y-89830713D01*
X102909139Y-89798861D01*
X102877287Y-89760048D01*
X102853616Y-89715764D01*
X102839043Y-89667722D01*
X102834000Y-89616518D01*
X102834000Y-89056482D01*
X102839043Y-89005278D01*
X102853616Y-88957236D01*
X102877287Y-88912952D01*
X102909139Y-88874139D01*
X102947952Y-88842287D01*
X102992236Y-88818616D01*
X103040278Y-88804043D01*
X103091482Y-88799000D01*
X104076518Y-88799000D01*
X104127722Y-88804043D01*
X104127722Y-88804043D01*
G37*
G36*
X100952722Y-88804043D02*
X101000764Y-88818616D01*
X101045048Y-88842287D01*
X101083861Y-88874139D01*
X101115713Y-88912952D01*
X101139384Y-88957236D01*
X101153957Y-89005278D01*
X101159000Y-89056482D01*
X101159000Y-89616518D01*
X101153957Y-89667722D01*
X101139384Y-89715764D01*
X101115713Y-89760048D01*
X101083861Y-89798861D01*
X101045048Y-89830713D01*
X101000764Y-89854384D01*
X100952722Y-89868957D01*
X100901518Y-89874000D01*
X99916482Y-89874000D01*
X99865278Y-89868957D01*
X99817236Y-89854384D01*
X99772952Y-89830713D01*
X99734139Y-89798861D01*
X99702287Y-89760048D01*
X99678616Y-89715764D01*
X99664043Y-89667722D01*
X99659000Y-89616518D01*
X99659000Y-89056482D01*
X99664043Y-89005278D01*
X99678616Y-88957236D01*
X99702287Y-88912952D01*
X99734139Y-88874139D01*
X99772952Y-88842287D01*
X99817236Y-88818616D01*
X99865278Y-88804043D01*
X99916482Y-88799000D01*
X100901518Y-88799000D01*
X100952722Y-88804043D01*
X100952722Y-88804043D01*
G37*
G36*
X107302722Y-88804043D02*
X107350764Y-88818616D01*
X107395048Y-88842287D01*
X107433861Y-88874139D01*
X107465713Y-88912952D01*
X107489384Y-88957236D01*
X107503957Y-89005278D01*
X107509000Y-89056482D01*
X107509000Y-89616518D01*
X107503957Y-89667722D01*
X107489384Y-89715764D01*
X107465713Y-89760048D01*
X107433861Y-89798861D01*
X107395048Y-89830713D01*
X107350764Y-89854384D01*
X107302722Y-89868957D01*
X107251518Y-89874000D01*
X106266482Y-89874000D01*
X106215278Y-89868957D01*
X106167236Y-89854384D01*
X106122952Y-89830713D01*
X106084139Y-89798861D01*
X106052287Y-89760048D01*
X106028616Y-89715764D01*
X106014043Y-89667722D01*
X106009000Y-89616518D01*
X106009000Y-89056482D01*
X106014043Y-89005278D01*
X106028616Y-88957236D01*
X106052287Y-88912952D01*
X106084139Y-88874139D01*
X106122952Y-88842287D01*
X106167236Y-88818616D01*
X106215278Y-88804043D01*
X106266482Y-88799000D01*
X107251518Y-88799000D01*
X107302722Y-88804043D01*
X107302722Y-88804043D01*
G37*
G36*
X92674329Y-88180264D02*
X92674332Y-88180265D01*
X92674331Y-88180265D01*
X92810548Y-88236688D01*
X92933140Y-88318601D01*
X93037399Y-88422860D01*
X93110104Y-88531671D01*
X93119312Y-88545452D01*
X93175736Y-88681671D01*
X93204500Y-88826279D01*
X93204500Y-88973721D01*
X93175736Y-89118329D01*
X93175735Y-89118331D01*
X93119312Y-89254548D01*
X93067963Y-89331398D01*
X93037398Y-89377141D01*
X92933141Y-89481398D01*
X92810548Y-89563312D01*
X92674329Y-89619736D01*
X92529721Y-89648500D01*
X92382279Y-89648500D01*
X92237671Y-89619736D01*
X92101452Y-89563312D01*
X91978859Y-89481398D01*
X91874602Y-89377141D01*
X91844038Y-89331398D01*
X91792688Y-89254548D01*
X91736265Y-89118331D01*
X91736264Y-89118329D01*
X91707500Y-88973721D01*
X91707500Y-88826279D01*
X91736264Y-88681671D01*
X91792688Y-88545452D01*
X91801896Y-88531671D01*
X91874601Y-88422860D01*
X91978860Y-88318601D01*
X92101452Y-88236688D01*
X92237669Y-88180265D01*
X92237668Y-88180265D01*
X92237671Y-88180264D01*
X92382279Y-88151500D01*
X92529721Y-88151500D01*
X92674329Y-88180264D01*
X92674329Y-88180264D01*
G37*
G36*
X97754329Y-88180264D02*
X97754332Y-88180265D01*
X97754331Y-88180265D01*
X97890548Y-88236688D01*
X98013140Y-88318601D01*
X98117399Y-88422860D01*
X98190104Y-88531671D01*
X98199312Y-88545452D01*
X98255736Y-88681671D01*
X98284500Y-88826279D01*
X98284500Y-88973721D01*
X98255736Y-89118329D01*
X98255735Y-89118331D01*
X98199312Y-89254548D01*
X98147963Y-89331398D01*
X98117398Y-89377141D01*
X98013141Y-89481398D01*
X97890548Y-89563312D01*
X97754329Y-89619736D01*
X97609721Y-89648500D01*
X97462279Y-89648500D01*
X97317671Y-89619736D01*
X97181452Y-89563312D01*
X97058859Y-89481398D01*
X96954602Y-89377141D01*
X96924038Y-89331398D01*
X96872688Y-89254548D01*
X96816265Y-89118331D01*
X96816264Y-89118329D01*
X96787500Y-88973721D01*
X96787500Y-88826279D01*
X96816264Y-88681671D01*
X96872688Y-88545452D01*
X96881896Y-88531671D01*
X96954601Y-88422860D01*
X97058860Y-88318601D01*
X97181452Y-88236688D01*
X97317669Y-88180265D01*
X97317668Y-88180265D01*
X97317671Y-88180264D01*
X97462279Y-88151500D01*
X97609721Y-88151500D01*
X97754329Y-88180264D01*
X97754329Y-88180264D01*
G37*
G36*
X125773329Y-88030264D02*
X125773332Y-88030265D01*
X125773331Y-88030265D01*
X125909548Y-88086688D01*
X126032140Y-88168601D01*
X126136399Y-88272860D01*
X126191283Y-88355000D01*
X126218312Y-88395452D01*
X126274736Y-88531671D01*
X126303500Y-88676279D01*
X126303500Y-88823721D01*
X126274736Y-88968329D01*
X126259431Y-89005278D01*
X126218312Y-89104548D01*
X126209103Y-89118331D01*
X126136398Y-89227141D01*
X126032141Y-89331398D01*
X125909548Y-89413312D01*
X125773329Y-89469736D01*
X125628721Y-89498500D01*
X125481279Y-89498500D01*
X125336671Y-89469736D01*
X125200452Y-89413312D01*
X125077859Y-89331398D01*
X124973602Y-89227141D01*
X124900898Y-89118331D01*
X124891688Y-89104548D01*
X124850569Y-89005278D01*
X124835264Y-88968329D01*
X124806500Y-88823721D01*
X124806500Y-88676279D01*
X124835264Y-88531671D01*
X124891688Y-88395452D01*
X124918717Y-88355000D01*
X124973601Y-88272860D01*
X125077860Y-88168601D01*
X125200452Y-88086688D01*
X125336669Y-88030265D01*
X125336668Y-88030265D01*
X125336671Y-88030264D01*
X125481279Y-88001500D01*
X125628721Y-88001500D01*
X125773329Y-88030264D01*
X125773329Y-88030264D01*
G37*
G36*
X111168329Y-88030264D02*
X111168332Y-88030265D01*
X111168331Y-88030265D01*
X111304548Y-88086688D01*
X111427140Y-88168601D01*
X111531399Y-88272860D01*
X111586283Y-88355000D01*
X111613312Y-88395452D01*
X111669736Y-88531671D01*
X111698500Y-88676279D01*
X111698500Y-88823721D01*
X111669736Y-88968329D01*
X111654431Y-89005278D01*
X111613312Y-89104548D01*
X111604103Y-89118331D01*
X111531398Y-89227141D01*
X111427141Y-89331398D01*
X111304548Y-89413312D01*
X111168329Y-89469736D01*
X111023721Y-89498500D01*
X110876279Y-89498500D01*
X110731671Y-89469736D01*
X110595452Y-89413312D01*
X110472859Y-89331398D01*
X110368602Y-89227141D01*
X110295898Y-89118331D01*
X110286688Y-89104548D01*
X110245569Y-89005278D01*
X110230264Y-88968329D01*
X110201500Y-88823721D01*
X110201500Y-88676279D01*
X110230264Y-88531671D01*
X110286688Y-88395452D01*
X110313717Y-88355000D01*
X110368601Y-88272860D01*
X110472860Y-88168601D01*
X110595452Y-88086688D01*
X110731669Y-88030265D01*
X110731668Y-88030265D01*
X110731671Y-88030264D01*
X110876279Y-88001500D01*
X111023721Y-88001500D01*
X111168329Y-88030264D01*
X111168329Y-88030264D01*
G37*
G36*
X120693329Y-88030264D02*
X120693332Y-88030265D01*
X120693331Y-88030265D01*
X120829548Y-88086688D01*
X120952140Y-88168601D01*
X121056399Y-88272860D01*
X121111283Y-88355000D01*
X121138312Y-88395452D01*
X121194736Y-88531671D01*
X121223500Y-88676279D01*
X121223500Y-88823721D01*
X121194736Y-88968329D01*
X121179431Y-89005278D01*
X121138312Y-89104548D01*
X121129103Y-89118331D01*
X121056398Y-89227141D01*
X120952141Y-89331398D01*
X120829548Y-89413312D01*
X120693329Y-89469736D01*
X120548721Y-89498500D01*
X120401279Y-89498500D01*
X120256671Y-89469736D01*
X120120452Y-89413312D01*
X119997859Y-89331398D01*
X119893602Y-89227141D01*
X119820898Y-89118331D01*
X119811688Y-89104548D01*
X119770569Y-89005278D01*
X119755264Y-88968329D01*
X119726500Y-88823721D01*
X119726500Y-88676279D01*
X119755264Y-88531671D01*
X119811688Y-88395452D01*
X119838717Y-88355000D01*
X119893601Y-88272860D01*
X119997860Y-88168601D01*
X120120452Y-88086688D01*
X120256669Y-88030265D01*
X120256668Y-88030265D01*
X120256671Y-88030264D01*
X120401279Y-88001500D01*
X120548721Y-88001500D01*
X120693329Y-88030264D01*
X120693329Y-88030264D01*
G37*
G36*
X116248329Y-88030264D02*
X116248332Y-88030265D01*
X116248331Y-88030265D01*
X116384548Y-88086688D01*
X116507140Y-88168601D01*
X116611399Y-88272860D01*
X116666283Y-88355000D01*
X116693312Y-88395452D01*
X116749736Y-88531671D01*
X116778500Y-88676279D01*
X116778500Y-88823721D01*
X116749736Y-88968329D01*
X116734431Y-89005278D01*
X116693312Y-89104548D01*
X116684103Y-89118331D01*
X116611398Y-89227141D01*
X116507141Y-89331398D01*
X116384548Y-89413312D01*
X116248329Y-89469736D01*
X116103721Y-89498500D01*
X115956279Y-89498500D01*
X115811671Y-89469736D01*
X115675452Y-89413312D01*
X115552859Y-89331398D01*
X115448602Y-89227141D01*
X115375898Y-89118331D01*
X115366688Y-89104548D01*
X115325569Y-89005278D01*
X115310264Y-88968329D01*
X115281500Y-88823721D01*
X115281500Y-88676279D01*
X115310264Y-88531671D01*
X115366688Y-88395452D01*
X115393717Y-88355000D01*
X115448601Y-88272860D01*
X115552860Y-88168601D01*
X115675452Y-88086688D01*
X115811669Y-88030265D01*
X115811668Y-88030265D01*
X115811671Y-88030264D01*
X115956279Y-88001500D01*
X116103721Y-88001500D01*
X116248329Y-88030264D01*
X116248329Y-88030264D01*
G37*
G36*
X158812976Y-85896897D02*
X158893154Y-85912845D01*
X159119729Y-86006695D01*
X159323641Y-86142945D01*
X159497055Y-86316359D01*
X159633305Y-86520271D01*
X159727155Y-86746847D01*
X159775000Y-86987378D01*
X159775000Y-87232622D01*
X159727155Y-87473153D01*
X159633305Y-87699729D01*
X159497055Y-87903641D01*
X159323641Y-88077055D01*
X159119729Y-88213305D01*
X158893154Y-88307155D01*
X158835611Y-88318601D01*
X158652622Y-88355000D01*
X158407378Y-88355000D01*
X158224389Y-88318601D01*
X158166846Y-88307155D01*
X157940271Y-88213305D01*
X157736359Y-88077055D01*
X157562945Y-87903641D01*
X157426695Y-87699729D01*
X157332845Y-87473153D01*
X157285000Y-87232622D01*
X157285000Y-86987378D01*
X157332845Y-86746847D01*
X157426695Y-86520271D01*
X157562945Y-86316359D01*
X157736359Y-86142945D01*
X157940271Y-86006695D01*
X158166846Y-85912845D01*
X158247024Y-85896897D01*
X158407378Y-85865000D01*
X158652622Y-85865000D01*
X158812976Y-85896897D01*
X158812976Y-85896897D01*
G37*
G36*
X134280000Y-87600000D02*
X130380000Y-87600000D01*
X130380000Y-85500000D01*
X134280000Y-85500000D01*
X134280000Y-87600000D01*
X134280000Y-87600000D01*
G37*
G36*
X153755000Y-87430000D02*
X147305000Y-87430000D01*
X147305000Y-79990000D01*
X153755000Y-79990000D01*
X153755000Y-87430000D01*
X153755000Y-87430000D01*
G37*
G36*
X144176431Y-80153023D02*
X144346081Y-80204486D01*
X144346084Y-80204487D01*
X144434353Y-80251668D01*
X144502432Y-80288057D01*
X144502434Y-80288058D01*
X144502433Y-80288058D01*
X144639475Y-80400525D01*
X144751942Y-80537567D01*
X144835513Y-80693916D01*
X144835514Y-80693919D01*
X144886977Y-80863569D01*
X144904354Y-81040000D01*
X144886977Y-81216431D01*
X144835514Y-81386081D01*
X144835513Y-81386084D01*
X144788332Y-81474353D01*
X144751943Y-81542432D01*
X144639475Y-81679475D01*
X144502432Y-81791943D01*
X144434353Y-81828332D01*
X144346084Y-81875513D01*
X144346081Y-81875514D01*
X144176431Y-81926977D01*
X144044207Y-81940000D01*
X143955793Y-81940000D01*
X143823569Y-81926977D01*
X143653919Y-81875514D01*
X143653916Y-81875513D01*
X143565647Y-81828332D01*
X143497568Y-81791943D01*
X143360525Y-81679475D01*
X143248057Y-81542432D01*
X143211668Y-81474353D01*
X143164487Y-81386084D01*
X143164486Y-81386081D01*
X143113023Y-81216431D01*
X143095646Y-81040000D01*
X143113023Y-80863569D01*
X143164486Y-80693919D01*
X143164487Y-80693916D01*
X143248058Y-80537567D01*
X143360525Y-80400525D01*
X143497567Y-80288058D01*
X143497566Y-80288058D01*
X143497568Y-80288057D01*
X143565647Y-80251668D01*
X143653916Y-80204487D01*
X143653919Y-80204486D01*
X143823569Y-80153023D01*
X143955793Y-80140000D01*
X144044207Y-80140000D01*
X144176431Y-80153023D01*
X144176431Y-80153023D01*
G37*
G36*
X142360000Y-81940000D02*
X140560000Y-81940000D01*
X140560000Y-80140000D01*
X142360000Y-80140000D01*
X142360000Y-81940000D01*
X142360000Y-81940000D01*
G37*
M02*
