G04 #@! TF.GenerationSoftware,KiCad,Pcbnew,5.1.4-e60b266~84~ubuntu16.04.1*
G04 #@! TF.CreationDate,2019-10-09T19:58:53-07:00*
G04 #@! TF.ProjectId,birdEar,62697264-4561-4722-9e6b-696361645f70,rev?*
G04 #@! TF.SameCoordinates,Original*
G04 #@! TF.FileFunction,Soldermask,Top*
G04 #@! TF.FilePolarity,Negative*
%FSLAX46Y46*%
G04 Gerber Fmt 4.6, Leading zero omitted, Abs format (unit mm)*
G04 Created by KiCad (PCBNEW 5.1.4-e60b266~84~ubuntu16.04.1) date 2019-10-09 19:58:53*
%MOMM*%
%LPD*%
G04 APERTURE LIST*
%ADD10C,0.100000*%
G04 APERTURE END LIST*
D10*
G36*
X153756000Y-166091000D02*
G01*
X147304000Y-166091000D01*
X147304000Y-158649000D01*
X153756000Y-158649000D01*
X153756000Y-166091000D01*
X153756000Y-166091000D01*
G37*
G36*
X121501000Y-165706000D02*
G01*
X120099000Y-165706000D01*
X120099000Y-163704000D01*
X121501000Y-163704000D01*
X121501000Y-165706000D01*
X121501000Y-165706000D01*
G37*
G36*
X107851000Y-165706000D02*
G01*
X106749000Y-165706000D01*
X106749000Y-162804000D01*
X107851000Y-162804000D01*
X107851000Y-165706000D01*
X107851000Y-165706000D01*
G37*
G36*
X107851000Y-160556000D02*
G01*
X106749000Y-160556000D01*
X106749000Y-159654000D01*
X107851000Y-159654000D01*
X107851000Y-160556000D01*
X107851000Y-160556000D01*
G37*
G36*
X107851000Y-154556000D02*
G01*
X106749000Y-154556000D01*
X106749000Y-153254000D01*
X107851000Y-153254000D01*
X107851000Y-154556000D01*
X107851000Y-154556000D01*
G37*
G36*
X123872468Y-151411565D02*
G01*
X123911138Y-151423296D01*
X123946777Y-151442346D01*
X123978017Y-151467983D01*
X124003654Y-151499223D01*
X124022704Y-151534862D01*
X124034435Y-151573532D01*
X124039000Y-151619888D01*
X124039000Y-152271112D01*
X124034435Y-152317468D01*
X124022704Y-152356138D01*
X124003654Y-152391777D01*
X123978017Y-152423017D01*
X123946777Y-152448654D01*
X123911138Y-152467704D01*
X123872468Y-152479435D01*
X123826112Y-152484000D01*
X122749888Y-152484000D01*
X122703532Y-152479435D01*
X122664862Y-152467704D01*
X122629223Y-152448654D01*
X122597983Y-152423017D01*
X122572346Y-152391777D01*
X122553296Y-152356138D01*
X122541565Y-152317468D01*
X122537000Y-152271112D01*
X122537000Y-151619888D01*
X122541565Y-151573532D01*
X122553296Y-151534862D01*
X122572346Y-151499223D01*
X122597983Y-151467983D01*
X122629223Y-151442346D01*
X122664862Y-151423296D01*
X122703532Y-151411565D01*
X122749888Y-151407000D01*
X123826112Y-151407000D01*
X123872468Y-151411565D01*
X123872468Y-151411565D01*
G37*
G36*
X125872468Y-151411565D02*
G01*
X125911138Y-151423296D01*
X125946777Y-151442346D01*
X125978017Y-151467983D01*
X126003654Y-151499223D01*
X126022704Y-151534862D01*
X126034435Y-151573532D01*
X126039000Y-151619888D01*
X126039000Y-152271112D01*
X126034435Y-152317468D01*
X126022704Y-152356138D01*
X126003654Y-152391777D01*
X125978017Y-152423017D01*
X125946777Y-152448654D01*
X125911138Y-152467704D01*
X125872468Y-152479435D01*
X125826112Y-152484000D01*
X124749888Y-152484000D01*
X124703532Y-152479435D01*
X124664862Y-152467704D01*
X124629223Y-152448654D01*
X124597983Y-152423017D01*
X124572346Y-152391777D01*
X124553296Y-152356138D01*
X124541565Y-152317468D01*
X124537000Y-152271112D01*
X124537000Y-151619888D01*
X124541565Y-151573532D01*
X124553296Y-151534862D01*
X124572346Y-151499223D01*
X124597983Y-151467983D01*
X124629223Y-151442346D01*
X124664862Y-151423296D01*
X124703532Y-151411565D01*
X124749888Y-151407000D01*
X125826112Y-151407000D01*
X125872468Y-151411565D01*
X125872468Y-151411565D01*
G37*
G36*
X159048039Y-148932250D02*
G01*
X159237372Y-149010675D01*
X159371251Y-149066129D01*
X159662134Y-149260491D01*
X159909509Y-149507866D01*
X160103871Y-149798749D01*
X160103871Y-149798750D01*
X160237750Y-150121961D01*
X160306000Y-150465078D01*
X160306000Y-150814922D01*
X160237750Y-151158039D01*
X160159325Y-151347372D01*
X160103871Y-151481251D01*
X159909509Y-151772134D01*
X159662134Y-152019509D01*
X159371251Y-152213871D01*
X159242315Y-152267278D01*
X159048039Y-152347750D01*
X158704922Y-152416000D01*
X158355078Y-152416000D01*
X158011961Y-152347750D01*
X157817685Y-152267278D01*
X157688749Y-152213871D01*
X157397866Y-152019509D01*
X157150491Y-151772134D01*
X156956129Y-151481251D01*
X156900675Y-151347372D01*
X156822250Y-151158039D01*
X156754000Y-150814922D01*
X156754000Y-150465078D01*
X156822250Y-150121961D01*
X156956129Y-149798750D01*
X156956129Y-149798749D01*
X157150491Y-149507866D01*
X157397866Y-149260491D01*
X157688749Y-149066129D01*
X157822628Y-149010675D01*
X158011961Y-148932250D01*
X158355078Y-148864000D01*
X158704922Y-148864000D01*
X159048039Y-148932250D01*
X159048039Y-148932250D01*
G37*
G36*
X134730442Y-150235518D02*
G01*
X134796627Y-150242037D01*
X134966466Y-150293557D01*
X135122991Y-150377222D01*
X135146008Y-150396112D01*
X135260186Y-150489814D01*
X135341178Y-150588505D01*
X135372778Y-150627009D01*
X135456443Y-150783534D01*
X135507963Y-150953373D01*
X135525359Y-151130000D01*
X135507963Y-151306627D01*
X135456443Y-151476466D01*
X135372778Y-151632991D01*
X135343448Y-151668729D01*
X135260186Y-151770186D01*
X135158729Y-151853448D01*
X135122991Y-151882778D01*
X134966466Y-151966443D01*
X134796627Y-152017963D01*
X134730442Y-152024482D01*
X134664260Y-152031000D01*
X134575740Y-152031000D01*
X134509558Y-152024482D01*
X134443373Y-152017963D01*
X134273534Y-151966443D01*
X134117009Y-151882778D01*
X134081271Y-151853448D01*
X133979814Y-151770186D01*
X133896552Y-151668729D01*
X133867222Y-151632991D01*
X133783557Y-151476466D01*
X133732037Y-151306627D01*
X133714641Y-151130000D01*
X133732037Y-150953373D01*
X133783557Y-150783534D01*
X133867222Y-150627009D01*
X133898822Y-150588505D01*
X133979814Y-150489814D01*
X134093992Y-150396112D01*
X134117009Y-150377222D01*
X134273534Y-150293557D01*
X134443373Y-150242037D01*
X134509558Y-150235518D01*
X134575740Y-150229000D01*
X134664260Y-150229000D01*
X134730442Y-150235518D01*
X134730442Y-150235518D01*
G37*
G36*
X123872468Y-149536565D02*
G01*
X123911138Y-149548296D01*
X123946777Y-149567346D01*
X123978017Y-149592983D01*
X124003654Y-149624223D01*
X124022704Y-149659862D01*
X124034435Y-149698532D01*
X124039000Y-149744888D01*
X124039000Y-150396112D01*
X124034435Y-150442468D01*
X124022704Y-150481138D01*
X124003654Y-150516777D01*
X123978017Y-150548017D01*
X123946777Y-150573654D01*
X123911138Y-150592704D01*
X123872468Y-150604435D01*
X123826112Y-150609000D01*
X122749888Y-150609000D01*
X122703532Y-150604435D01*
X122664862Y-150592704D01*
X122629223Y-150573654D01*
X122597983Y-150548017D01*
X122572346Y-150516777D01*
X122553296Y-150481138D01*
X122541565Y-150442468D01*
X122537000Y-150396112D01*
X122537000Y-149744888D01*
X122541565Y-149698532D01*
X122553296Y-149659862D01*
X122572346Y-149624223D01*
X122597983Y-149592983D01*
X122629223Y-149567346D01*
X122664862Y-149548296D01*
X122703532Y-149536565D01*
X122749888Y-149532000D01*
X123826112Y-149532000D01*
X123872468Y-149536565D01*
X123872468Y-149536565D01*
G37*
G36*
X125872468Y-149536565D02*
G01*
X125911138Y-149548296D01*
X125946777Y-149567346D01*
X125978017Y-149592983D01*
X126003654Y-149624223D01*
X126022704Y-149659862D01*
X126034435Y-149698532D01*
X126039000Y-149744888D01*
X126039000Y-150396112D01*
X126034435Y-150442468D01*
X126022704Y-150481138D01*
X126003654Y-150516777D01*
X125978017Y-150548017D01*
X125946777Y-150573654D01*
X125911138Y-150592704D01*
X125872468Y-150604435D01*
X125826112Y-150609000D01*
X124749888Y-150609000D01*
X124703532Y-150604435D01*
X124664862Y-150592704D01*
X124629223Y-150573654D01*
X124597983Y-150548017D01*
X124572346Y-150516777D01*
X124553296Y-150481138D01*
X124541565Y-150442468D01*
X124537000Y-150396112D01*
X124537000Y-149744888D01*
X124541565Y-149698532D01*
X124553296Y-149659862D01*
X124572346Y-149624223D01*
X124597983Y-149592983D01*
X124629223Y-149567346D01*
X124664862Y-149548296D01*
X124703532Y-149536565D01*
X124749888Y-149532000D01*
X125826112Y-149532000D01*
X125872468Y-149536565D01*
X125872468Y-149536565D01*
G37*
G36*
X114001000Y-150256000D02*
G01*
X113199000Y-150256000D01*
X113199000Y-148954000D01*
X114001000Y-148954000D01*
X114001000Y-150256000D01*
X114001000Y-150256000D01*
G37*
G36*
X109601000Y-150256000D02*
G01*
X107849000Y-150256000D01*
X107849000Y-148954000D01*
X109601000Y-148954000D01*
X109601000Y-150256000D01*
X109601000Y-150256000D01*
G37*
G36*
X117301000Y-150256000D02*
G01*
X116499000Y-150256000D01*
X116499000Y-148954000D01*
X117301000Y-148954000D01*
X117301000Y-150256000D01*
X117301000Y-150256000D01*
G37*
G36*
X116201000Y-150256000D02*
G01*
X115399000Y-150256000D01*
X115399000Y-148954000D01*
X116201000Y-148954000D01*
X116201000Y-150256000D01*
X116201000Y-150256000D01*
G37*
G36*
X115101000Y-150256000D02*
G01*
X114299000Y-150256000D01*
X114299000Y-148954000D01*
X115101000Y-148954000D01*
X115101000Y-150256000D01*
X115101000Y-150256000D01*
G37*
G36*
X112901000Y-150256000D02*
G01*
X112099000Y-150256000D01*
X112099000Y-148954000D01*
X112901000Y-148954000D01*
X112901000Y-150256000D01*
X112901000Y-150256000D01*
G37*
G36*
X111801000Y-150256000D02*
G01*
X110999000Y-150256000D01*
X110999000Y-148954000D01*
X111801000Y-148954000D01*
X111801000Y-150256000D01*
X111801000Y-150256000D01*
G37*
G36*
X119001000Y-150256000D02*
G01*
X117899000Y-150256000D01*
X117899000Y-148954000D01*
X119001000Y-148954000D01*
X119001000Y-150256000D01*
X119001000Y-150256000D01*
G37*
G36*
X110701000Y-150256000D02*
G01*
X109899000Y-150256000D01*
X109899000Y-148954000D01*
X110701000Y-148954000D01*
X110701000Y-150256000D01*
X110701000Y-150256000D01*
G37*
G36*
X135521000Y-149491000D02*
G01*
X133719000Y-149491000D01*
X133719000Y-147689000D01*
X135521000Y-147689000D01*
X135521000Y-149491000D01*
X135521000Y-149491000D01*
G37*
G36*
X107638468Y-146573565D02*
G01*
X107677138Y-146585296D01*
X107712777Y-146604346D01*
X107744017Y-146629983D01*
X107769654Y-146661223D01*
X107788704Y-146696862D01*
X107800435Y-146735532D01*
X107805000Y-146781888D01*
X107805000Y-147858112D01*
X107800435Y-147904468D01*
X107788704Y-147943138D01*
X107769654Y-147978777D01*
X107744017Y-148010017D01*
X107712777Y-148035654D01*
X107677138Y-148054704D01*
X107638468Y-148066435D01*
X107592112Y-148071000D01*
X106940888Y-148071000D01*
X106894532Y-148066435D01*
X106855862Y-148054704D01*
X106820223Y-148035654D01*
X106788983Y-148010017D01*
X106763346Y-147978777D01*
X106744296Y-147943138D01*
X106732565Y-147904468D01*
X106728000Y-147858112D01*
X106728000Y-146781888D01*
X106732565Y-146735532D01*
X106744296Y-146696862D01*
X106763346Y-146661223D01*
X106788983Y-146629983D01*
X106820223Y-146604346D01*
X106855862Y-146585296D01*
X106894532Y-146573565D01*
X106940888Y-146569000D01*
X107592112Y-146569000D01*
X107638468Y-146573565D01*
X107638468Y-146573565D01*
G37*
G36*
X109513468Y-146573565D02*
G01*
X109552138Y-146585296D01*
X109587777Y-146604346D01*
X109619017Y-146629983D01*
X109644654Y-146661223D01*
X109663704Y-146696862D01*
X109675435Y-146735532D01*
X109680000Y-146781888D01*
X109680000Y-147858112D01*
X109675435Y-147904468D01*
X109663704Y-147943138D01*
X109644654Y-147978777D01*
X109619017Y-148010017D01*
X109587777Y-148035654D01*
X109552138Y-148054704D01*
X109513468Y-148066435D01*
X109467112Y-148071000D01*
X108815888Y-148071000D01*
X108769532Y-148066435D01*
X108730862Y-148054704D01*
X108695223Y-148035654D01*
X108663983Y-148010017D01*
X108638346Y-147978777D01*
X108619296Y-147943138D01*
X108607565Y-147904468D01*
X108603000Y-147858112D01*
X108603000Y-146781888D01*
X108607565Y-146735532D01*
X108619296Y-146696862D01*
X108638346Y-146661223D01*
X108663983Y-146629983D01*
X108695223Y-146604346D01*
X108730862Y-146585296D01*
X108769532Y-146573565D01*
X108815888Y-146569000D01*
X109467112Y-146569000D01*
X109513468Y-146573565D01*
X109513468Y-146573565D01*
G37*
G36*
X83676442Y-144901518D02*
G01*
X83742627Y-144908037D01*
X83912466Y-144959557D01*
X84068991Y-145043222D01*
X84104729Y-145072552D01*
X84206186Y-145155814D01*
X84276278Y-145241223D01*
X84318778Y-145293009D01*
X84402443Y-145449534D01*
X84453963Y-145619373D01*
X84471359Y-145796000D01*
X84453963Y-145972627D01*
X84402443Y-146142466D01*
X84318778Y-146298991D01*
X84289448Y-146334729D01*
X84206186Y-146436186D01*
X84104729Y-146519448D01*
X84068991Y-146548778D01*
X83912466Y-146632443D01*
X83742627Y-146683963D01*
X83694906Y-146688663D01*
X83610260Y-146697000D01*
X83521740Y-146697000D01*
X83437094Y-146688663D01*
X83389373Y-146683963D01*
X83219534Y-146632443D01*
X83063009Y-146548778D01*
X83027271Y-146519448D01*
X82925814Y-146436186D01*
X82842552Y-146334729D01*
X82813222Y-146298991D01*
X82729557Y-146142466D01*
X82678037Y-145972627D01*
X82660641Y-145796000D01*
X82678037Y-145619373D01*
X82729557Y-145449534D01*
X82813222Y-145293009D01*
X82855722Y-145241223D01*
X82925814Y-145155814D01*
X83027271Y-145072552D01*
X83063009Y-145043222D01*
X83219534Y-144959557D01*
X83389373Y-144908037D01*
X83455558Y-144901518D01*
X83521740Y-144895000D01*
X83610260Y-144895000D01*
X83676442Y-144901518D01*
X83676442Y-144901518D01*
G37*
G36*
X87007000Y-146697000D02*
G01*
X85205000Y-146697000D01*
X85205000Y-144895000D01*
X87007000Y-144895000D01*
X87007000Y-146697000D01*
X87007000Y-146697000D01*
G37*
G36*
X118639468Y-145153565D02*
G01*
X118678138Y-145165296D01*
X118713777Y-145184346D01*
X118745017Y-145209983D01*
X118770654Y-145241223D01*
X118789704Y-145276862D01*
X118801435Y-145315532D01*
X118806000Y-145361888D01*
X118806000Y-146438112D01*
X118801435Y-146484468D01*
X118789704Y-146523138D01*
X118770654Y-146558777D01*
X118745017Y-146590017D01*
X118713777Y-146615654D01*
X118678138Y-146634704D01*
X118639468Y-146646435D01*
X118593112Y-146651000D01*
X117941888Y-146651000D01*
X117895532Y-146646435D01*
X117856862Y-146634704D01*
X117821223Y-146615654D01*
X117789983Y-146590017D01*
X117764346Y-146558777D01*
X117745296Y-146523138D01*
X117733565Y-146484468D01*
X117729000Y-146438112D01*
X117729000Y-145361888D01*
X117733565Y-145315532D01*
X117745296Y-145276862D01*
X117764346Y-145241223D01*
X117789983Y-145209983D01*
X117821223Y-145184346D01*
X117856862Y-145165296D01*
X117895532Y-145153565D01*
X117941888Y-145149000D01*
X118593112Y-145149000D01*
X118639468Y-145153565D01*
X118639468Y-145153565D01*
G37*
G36*
X120514468Y-145153565D02*
G01*
X120553138Y-145165296D01*
X120588777Y-145184346D01*
X120620017Y-145209983D01*
X120645654Y-145241223D01*
X120664704Y-145276862D01*
X120676435Y-145315532D01*
X120681000Y-145361888D01*
X120681000Y-146438112D01*
X120676435Y-146484468D01*
X120664704Y-146523138D01*
X120645654Y-146558777D01*
X120620017Y-146590017D01*
X120588777Y-146615654D01*
X120553138Y-146634704D01*
X120514468Y-146646435D01*
X120468112Y-146651000D01*
X119816888Y-146651000D01*
X119770532Y-146646435D01*
X119731862Y-146634704D01*
X119696223Y-146615654D01*
X119664983Y-146590017D01*
X119639346Y-146558777D01*
X119620296Y-146523138D01*
X119608565Y-146484468D01*
X119604000Y-146438112D01*
X119604000Y-145361888D01*
X119608565Y-145315532D01*
X119620296Y-145276862D01*
X119639346Y-145241223D01*
X119664983Y-145209983D01*
X119696223Y-145184346D01*
X119731862Y-145165296D01*
X119770532Y-145153565D01*
X119816888Y-145149000D01*
X120468112Y-145149000D01*
X120514468Y-145153565D01*
X120514468Y-145153565D01*
G37*
G36*
X108654468Y-144541565D02*
G01*
X108693138Y-144553296D01*
X108728777Y-144572346D01*
X108760017Y-144597983D01*
X108785654Y-144629223D01*
X108804704Y-144664862D01*
X108816435Y-144703532D01*
X108821000Y-144749888D01*
X108821000Y-145826112D01*
X108816435Y-145872468D01*
X108804704Y-145911138D01*
X108785654Y-145946777D01*
X108760017Y-145978017D01*
X108728777Y-146003654D01*
X108693138Y-146022704D01*
X108654468Y-146034435D01*
X108608112Y-146039000D01*
X107956888Y-146039000D01*
X107910532Y-146034435D01*
X107871862Y-146022704D01*
X107836223Y-146003654D01*
X107804983Y-145978017D01*
X107779346Y-145946777D01*
X107760296Y-145911138D01*
X107748565Y-145872468D01*
X107744000Y-145826112D01*
X107744000Y-144749888D01*
X107748565Y-144703532D01*
X107760296Y-144664862D01*
X107779346Y-144629223D01*
X107804983Y-144597983D01*
X107836223Y-144572346D01*
X107871862Y-144553296D01*
X107910532Y-144541565D01*
X107956888Y-144537000D01*
X108608112Y-144537000D01*
X108654468Y-144541565D01*
X108654468Y-144541565D01*
G37*
G36*
X110529468Y-144541565D02*
G01*
X110568138Y-144553296D01*
X110603777Y-144572346D01*
X110635017Y-144597983D01*
X110660654Y-144629223D01*
X110679704Y-144664862D01*
X110691435Y-144703532D01*
X110696000Y-144749888D01*
X110696000Y-145826112D01*
X110691435Y-145872468D01*
X110679704Y-145911138D01*
X110660654Y-145946777D01*
X110635017Y-145978017D01*
X110603777Y-146003654D01*
X110568138Y-146022704D01*
X110529468Y-146034435D01*
X110483112Y-146039000D01*
X109831888Y-146039000D01*
X109785532Y-146034435D01*
X109746862Y-146022704D01*
X109711223Y-146003654D01*
X109679983Y-145978017D01*
X109654346Y-145946777D01*
X109635296Y-145911138D01*
X109623565Y-145872468D01*
X109619000Y-145826112D01*
X109619000Y-144749888D01*
X109623565Y-144703532D01*
X109635296Y-144664862D01*
X109654346Y-144629223D01*
X109679983Y-144597983D01*
X109711223Y-144572346D01*
X109746862Y-144553296D01*
X109785532Y-144541565D01*
X109831888Y-144537000D01*
X110483112Y-144537000D01*
X110529468Y-144541565D01*
X110529468Y-144541565D01*
G37*
G36*
X120514468Y-141978565D02*
G01*
X120553138Y-141990296D01*
X120588777Y-142009346D01*
X120620017Y-142034983D01*
X120645654Y-142066223D01*
X120664704Y-142101862D01*
X120676435Y-142140532D01*
X120681000Y-142186888D01*
X120681000Y-143263112D01*
X120676435Y-143309468D01*
X120664704Y-143348138D01*
X120645654Y-143383777D01*
X120620017Y-143415017D01*
X120588777Y-143440654D01*
X120553138Y-143459704D01*
X120514468Y-143471435D01*
X120468112Y-143476000D01*
X119816888Y-143476000D01*
X119770532Y-143471435D01*
X119731862Y-143459704D01*
X119696223Y-143440654D01*
X119664983Y-143415017D01*
X119639346Y-143383777D01*
X119620296Y-143348138D01*
X119608565Y-143309468D01*
X119604000Y-143263112D01*
X119604000Y-142186888D01*
X119608565Y-142140532D01*
X119620296Y-142101862D01*
X119639346Y-142066223D01*
X119664983Y-142034983D01*
X119696223Y-142009346D01*
X119731862Y-141990296D01*
X119770532Y-141978565D01*
X119816888Y-141974000D01*
X120468112Y-141974000D01*
X120514468Y-141978565D01*
X120514468Y-141978565D01*
G37*
G36*
X118639468Y-141978565D02*
G01*
X118678138Y-141990296D01*
X118713777Y-142009346D01*
X118745017Y-142034983D01*
X118770654Y-142066223D01*
X118789704Y-142101862D01*
X118801435Y-142140532D01*
X118806000Y-142186888D01*
X118806000Y-143263112D01*
X118801435Y-143309468D01*
X118789704Y-143348138D01*
X118770654Y-143383777D01*
X118745017Y-143415017D01*
X118713777Y-143440654D01*
X118678138Y-143459704D01*
X118639468Y-143471435D01*
X118593112Y-143476000D01*
X117941888Y-143476000D01*
X117895532Y-143471435D01*
X117856862Y-143459704D01*
X117821223Y-143440654D01*
X117789983Y-143415017D01*
X117764346Y-143383777D01*
X117745296Y-143348138D01*
X117733565Y-143309468D01*
X117729000Y-143263112D01*
X117729000Y-142186888D01*
X117733565Y-142140532D01*
X117745296Y-142101862D01*
X117764346Y-142066223D01*
X117789983Y-142034983D01*
X117821223Y-142009346D01*
X117856862Y-141990296D01*
X117895532Y-141978565D01*
X117941888Y-141974000D01*
X118593112Y-141974000D01*
X118639468Y-141978565D01*
X118639468Y-141978565D01*
G37*
G36*
X111362443Y-139821519D02*
G01*
X111428627Y-139828037D01*
X111598466Y-139879557D01*
X111754991Y-139963222D01*
X111790729Y-139992552D01*
X111892186Y-140075814D01*
X111975448Y-140177271D01*
X112004778Y-140213009D01*
X112088443Y-140369534D01*
X112139963Y-140539373D01*
X112157359Y-140716000D01*
X112139963Y-140892627D01*
X112088443Y-141062466D01*
X112004778Y-141218991D01*
X111975448Y-141254729D01*
X111892186Y-141356186D01*
X111790729Y-141439448D01*
X111754991Y-141468778D01*
X111598466Y-141552443D01*
X111428627Y-141603963D01*
X111362443Y-141610481D01*
X111296260Y-141617000D01*
X111207740Y-141617000D01*
X111141557Y-141610481D01*
X111075373Y-141603963D01*
X110905534Y-141552443D01*
X110749009Y-141468778D01*
X110713271Y-141439448D01*
X110611814Y-141356186D01*
X110528552Y-141254729D01*
X110499222Y-141218991D01*
X110415557Y-141062466D01*
X110364037Y-140892627D01*
X110346641Y-140716000D01*
X110364037Y-140539373D01*
X110415557Y-140369534D01*
X110499222Y-140213009D01*
X110528552Y-140177271D01*
X110611814Y-140075814D01*
X110713271Y-139992552D01*
X110749009Y-139963222D01*
X110905534Y-139879557D01*
X111075373Y-139828037D01*
X111141557Y-139821519D01*
X111207740Y-139815000D01*
X111296260Y-139815000D01*
X111362443Y-139821519D01*
X111362443Y-139821519D01*
G37*
G36*
X118639468Y-138803565D02*
G01*
X118678138Y-138815296D01*
X118713777Y-138834346D01*
X118745017Y-138859983D01*
X118770654Y-138891223D01*
X118789704Y-138926862D01*
X118801435Y-138965532D01*
X118806000Y-139011888D01*
X118806000Y-140088112D01*
X118801435Y-140134468D01*
X118789704Y-140173138D01*
X118770654Y-140208777D01*
X118745017Y-140240017D01*
X118713777Y-140265654D01*
X118678138Y-140284704D01*
X118639468Y-140296435D01*
X118593112Y-140301000D01*
X117941888Y-140301000D01*
X117895532Y-140296435D01*
X117856862Y-140284704D01*
X117821223Y-140265654D01*
X117789983Y-140240017D01*
X117764346Y-140208777D01*
X117745296Y-140173138D01*
X117733565Y-140134468D01*
X117729000Y-140088112D01*
X117729000Y-139011888D01*
X117733565Y-138965532D01*
X117745296Y-138926862D01*
X117764346Y-138891223D01*
X117789983Y-138859983D01*
X117821223Y-138834346D01*
X117856862Y-138815296D01*
X117895532Y-138803565D01*
X117941888Y-138799000D01*
X118593112Y-138799000D01*
X118639468Y-138803565D01*
X118639468Y-138803565D01*
G37*
G36*
X120514468Y-138803565D02*
G01*
X120553138Y-138815296D01*
X120588777Y-138834346D01*
X120620017Y-138859983D01*
X120645654Y-138891223D01*
X120664704Y-138926862D01*
X120676435Y-138965532D01*
X120681000Y-139011888D01*
X120681000Y-140088112D01*
X120676435Y-140134468D01*
X120664704Y-140173138D01*
X120645654Y-140208777D01*
X120620017Y-140240017D01*
X120588777Y-140265654D01*
X120553138Y-140284704D01*
X120514468Y-140296435D01*
X120468112Y-140301000D01*
X119816888Y-140301000D01*
X119770532Y-140296435D01*
X119731862Y-140284704D01*
X119696223Y-140265654D01*
X119664983Y-140240017D01*
X119639346Y-140208777D01*
X119620296Y-140173138D01*
X119608565Y-140134468D01*
X119604000Y-140088112D01*
X119604000Y-139011888D01*
X119608565Y-138965532D01*
X119620296Y-138926862D01*
X119639346Y-138891223D01*
X119664983Y-138859983D01*
X119696223Y-138834346D01*
X119731862Y-138815296D01*
X119770532Y-138803565D01*
X119816888Y-138799000D01*
X120468112Y-138799000D01*
X120514468Y-138803565D01*
X120514468Y-138803565D01*
G37*
G36*
X111362442Y-137281518D02*
G01*
X111428627Y-137288037D01*
X111598466Y-137339557D01*
X111754991Y-137423222D01*
X111790729Y-137452552D01*
X111892186Y-137535814D01*
X111975448Y-137637271D01*
X112004778Y-137673009D01*
X112088443Y-137829534D01*
X112139963Y-137999373D01*
X112157359Y-138176000D01*
X112139963Y-138352627D01*
X112088443Y-138522466D01*
X112004778Y-138678991D01*
X111975448Y-138714729D01*
X111892186Y-138816186D01*
X111800752Y-138891223D01*
X111754991Y-138928778D01*
X111598466Y-139012443D01*
X111428627Y-139063963D01*
X111362442Y-139070482D01*
X111296260Y-139077000D01*
X111207740Y-139077000D01*
X111141558Y-139070482D01*
X111075373Y-139063963D01*
X110905534Y-139012443D01*
X110749009Y-138928778D01*
X110703248Y-138891223D01*
X110611814Y-138816186D01*
X110528552Y-138714729D01*
X110499222Y-138678991D01*
X110415557Y-138522466D01*
X110364037Y-138352627D01*
X110346641Y-138176000D01*
X110364037Y-137999373D01*
X110415557Y-137829534D01*
X110499222Y-137673009D01*
X110528552Y-137637271D01*
X110611814Y-137535814D01*
X110713271Y-137452552D01*
X110749009Y-137423222D01*
X110905534Y-137339557D01*
X111075373Y-137288037D01*
X111141558Y-137281518D01*
X111207740Y-137275000D01*
X111296260Y-137275000D01*
X111362442Y-137281518D01*
X111362442Y-137281518D01*
G37*
G36*
X112153000Y-136537000D02*
G01*
X110351000Y-136537000D01*
X110351000Y-134735000D01*
X112153000Y-134735000D01*
X112153000Y-136537000D01*
X112153000Y-136537000D01*
G37*
G36*
X112169468Y-132333565D02*
G01*
X112208138Y-132345296D01*
X112243777Y-132364346D01*
X112275017Y-132389983D01*
X112300654Y-132421223D01*
X112319704Y-132456862D01*
X112331435Y-132495532D01*
X112336000Y-132541888D01*
X112336000Y-133193112D01*
X112331435Y-133239468D01*
X112319704Y-133278138D01*
X112300654Y-133313777D01*
X112275017Y-133345017D01*
X112243777Y-133370654D01*
X112208138Y-133389704D01*
X112169468Y-133401435D01*
X112123112Y-133406000D01*
X111046888Y-133406000D01*
X111000532Y-133401435D01*
X110961862Y-133389704D01*
X110926223Y-133370654D01*
X110894983Y-133345017D01*
X110869346Y-133313777D01*
X110850296Y-133278138D01*
X110838565Y-133239468D01*
X110834000Y-133193112D01*
X110834000Y-132541888D01*
X110838565Y-132495532D01*
X110850296Y-132456862D01*
X110869346Y-132421223D01*
X110894983Y-132389983D01*
X110926223Y-132364346D01*
X110961862Y-132345296D01*
X111000532Y-132333565D01*
X111046888Y-132329000D01*
X112123112Y-132329000D01*
X112169468Y-132333565D01*
X112169468Y-132333565D01*
G37*
G36*
X105740468Y-132333565D02*
G01*
X105779138Y-132345296D01*
X105814777Y-132364346D01*
X105846017Y-132389983D01*
X105871654Y-132421223D01*
X105890704Y-132456862D01*
X105902435Y-132495532D01*
X105907000Y-132541888D01*
X105907000Y-133193112D01*
X105902435Y-133239468D01*
X105890704Y-133278138D01*
X105871654Y-133313777D01*
X105846017Y-133345017D01*
X105814777Y-133370654D01*
X105779138Y-133389704D01*
X105740468Y-133401435D01*
X105694112Y-133406000D01*
X104617888Y-133406000D01*
X104571532Y-133401435D01*
X104532862Y-133389704D01*
X104497223Y-133370654D01*
X104465983Y-133345017D01*
X104440346Y-133313777D01*
X104421296Y-133278138D01*
X104409565Y-133239468D01*
X104405000Y-133193112D01*
X104405000Y-132541888D01*
X104409565Y-132495532D01*
X104421296Y-132456862D01*
X104440346Y-132421223D01*
X104465983Y-132389983D01*
X104497223Y-132364346D01*
X104532862Y-132345296D01*
X104571532Y-132333565D01*
X104617888Y-132329000D01*
X105694112Y-132329000D01*
X105740468Y-132333565D01*
X105740468Y-132333565D01*
G37*
G36*
X100104468Y-132333565D02*
G01*
X100143138Y-132345296D01*
X100178777Y-132364346D01*
X100210017Y-132389983D01*
X100235654Y-132421223D01*
X100254704Y-132456862D01*
X100266435Y-132495532D01*
X100271000Y-132541888D01*
X100271000Y-133193112D01*
X100266435Y-133239468D01*
X100254704Y-133278138D01*
X100235654Y-133313777D01*
X100210017Y-133345017D01*
X100178777Y-133370654D01*
X100143138Y-133389704D01*
X100104468Y-133401435D01*
X100058112Y-133406000D01*
X98981888Y-133406000D01*
X98935532Y-133401435D01*
X98896862Y-133389704D01*
X98861223Y-133370654D01*
X98829983Y-133345017D01*
X98804346Y-133313777D01*
X98785296Y-133278138D01*
X98773565Y-133239468D01*
X98769000Y-133193112D01*
X98769000Y-132541888D01*
X98773565Y-132495532D01*
X98785296Y-132456862D01*
X98804346Y-132421223D01*
X98829983Y-132389983D01*
X98861223Y-132364346D01*
X98896862Y-132345296D01*
X98935532Y-132333565D01*
X98981888Y-132329000D01*
X100058112Y-132329000D01*
X100104468Y-132333565D01*
X100104468Y-132333565D01*
G37*
G36*
X85454442Y-131185518D02*
G01*
X85520627Y-131192037D01*
X85690466Y-131243557D01*
X85690468Y-131243558D01*
X85768728Y-131285389D01*
X85846991Y-131327222D01*
X85882729Y-131356552D01*
X85984186Y-131439814D01*
X86051428Y-131521750D01*
X86096778Y-131577009D01*
X86180443Y-131733534D01*
X86231963Y-131903373D01*
X86249359Y-132080000D01*
X86231963Y-132256627D01*
X86180443Y-132426466D01*
X86096778Y-132582991D01*
X86084255Y-132598250D01*
X85984186Y-132720186D01*
X85882729Y-132803448D01*
X85846991Y-132832778D01*
X85690466Y-132916443D01*
X85520627Y-132967963D01*
X85454443Y-132974481D01*
X85388260Y-132981000D01*
X85299740Y-132981000D01*
X85233557Y-132974481D01*
X85167373Y-132967963D01*
X84997534Y-132916443D01*
X84841009Y-132832778D01*
X84805271Y-132803448D01*
X84703814Y-132720186D01*
X84603745Y-132598250D01*
X84591222Y-132582991D01*
X84507557Y-132426466D01*
X84456037Y-132256627D01*
X84438641Y-132080000D01*
X84456037Y-131903373D01*
X84507557Y-131733534D01*
X84591222Y-131577009D01*
X84636572Y-131521750D01*
X84703814Y-131439814D01*
X84805271Y-131356552D01*
X84841009Y-131327222D01*
X84919272Y-131285389D01*
X84997532Y-131243558D01*
X84997534Y-131243557D01*
X85167373Y-131192037D01*
X85233558Y-131185518D01*
X85299740Y-131179000D01*
X85388260Y-131179000D01*
X85454442Y-131185518D01*
X85454442Y-131185518D01*
G37*
G36*
X96769468Y-130293565D02*
G01*
X96808138Y-130305296D01*
X96843777Y-130324346D01*
X96875017Y-130349983D01*
X96900654Y-130381223D01*
X96919704Y-130416862D01*
X96931435Y-130455532D01*
X96936000Y-130501888D01*
X96936000Y-131578112D01*
X96931435Y-131624468D01*
X96919704Y-131663138D01*
X96900654Y-131698777D01*
X96875017Y-131730017D01*
X96843777Y-131755654D01*
X96808138Y-131774704D01*
X96769468Y-131786435D01*
X96723112Y-131791000D01*
X96071888Y-131791000D01*
X96025532Y-131786435D01*
X95986862Y-131774704D01*
X95951223Y-131755654D01*
X95919983Y-131730017D01*
X95894346Y-131698777D01*
X95875296Y-131663138D01*
X95863565Y-131624468D01*
X95859000Y-131578112D01*
X95859000Y-130501888D01*
X95863565Y-130455532D01*
X95875296Y-130416862D01*
X95894346Y-130381223D01*
X95919983Y-130349983D01*
X95951223Y-130324346D01*
X95986862Y-130305296D01*
X96025532Y-130293565D01*
X96071888Y-130289000D01*
X96723112Y-130289000D01*
X96769468Y-130293565D01*
X96769468Y-130293565D01*
G37*
G36*
X94894468Y-130293565D02*
G01*
X94933138Y-130305296D01*
X94968777Y-130324346D01*
X95000017Y-130349983D01*
X95025654Y-130381223D01*
X95044704Y-130416862D01*
X95056435Y-130455532D01*
X95061000Y-130501888D01*
X95061000Y-131578112D01*
X95056435Y-131624468D01*
X95044704Y-131663138D01*
X95025654Y-131698777D01*
X95000017Y-131730017D01*
X94968777Y-131755654D01*
X94933138Y-131774704D01*
X94894468Y-131786435D01*
X94848112Y-131791000D01*
X94196888Y-131791000D01*
X94150532Y-131786435D01*
X94111862Y-131774704D01*
X94076223Y-131755654D01*
X94044983Y-131730017D01*
X94019346Y-131698777D01*
X94000296Y-131663138D01*
X93988565Y-131624468D01*
X93984000Y-131578112D01*
X93984000Y-130501888D01*
X93988565Y-130455532D01*
X94000296Y-130416862D01*
X94019346Y-130381223D01*
X94044983Y-130349983D01*
X94076223Y-130324346D01*
X94111862Y-130305296D01*
X94150532Y-130293565D01*
X94196888Y-130289000D01*
X94848112Y-130289000D01*
X94894468Y-130293565D01*
X94894468Y-130293565D01*
G37*
G36*
X105740468Y-130458565D02*
G01*
X105779138Y-130470296D01*
X105814777Y-130489346D01*
X105846017Y-130514983D01*
X105871654Y-130546223D01*
X105890704Y-130581862D01*
X105902435Y-130620532D01*
X105907000Y-130666888D01*
X105907000Y-131318112D01*
X105902435Y-131364468D01*
X105890704Y-131403138D01*
X105871654Y-131438777D01*
X105846017Y-131470017D01*
X105814777Y-131495654D01*
X105779138Y-131514704D01*
X105740468Y-131526435D01*
X105694112Y-131531000D01*
X104617888Y-131531000D01*
X104571532Y-131526435D01*
X104532862Y-131514704D01*
X104497223Y-131495654D01*
X104465983Y-131470017D01*
X104440346Y-131438777D01*
X104421296Y-131403138D01*
X104409565Y-131364468D01*
X104405000Y-131318112D01*
X104405000Y-130666888D01*
X104409565Y-130620532D01*
X104421296Y-130581862D01*
X104440346Y-130546223D01*
X104465983Y-130514983D01*
X104497223Y-130489346D01*
X104532862Y-130470296D01*
X104571532Y-130458565D01*
X104617888Y-130454000D01*
X105694112Y-130454000D01*
X105740468Y-130458565D01*
X105740468Y-130458565D01*
G37*
G36*
X100104468Y-130458565D02*
G01*
X100143138Y-130470296D01*
X100178777Y-130489346D01*
X100210017Y-130514983D01*
X100235654Y-130546223D01*
X100254704Y-130581862D01*
X100266435Y-130620532D01*
X100271000Y-130666888D01*
X100271000Y-131318112D01*
X100266435Y-131364468D01*
X100254704Y-131403138D01*
X100235654Y-131438777D01*
X100210017Y-131470017D01*
X100178777Y-131495654D01*
X100143138Y-131514704D01*
X100104468Y-131526435D01*
X100058112Y-131531000D01*
X98981888Y-131531000D01*
X98935532Y-131526435D01*
X98896862Y-131514704D01*
X98861223Y-131495654D01*
X98829983Y-131470017D01*
X98804346Y-131438777D01*
X98785296Y-131403138D01*
X98773565Y-131364468D01*
X98769000Y-131318112D01*
X98769000Y-130666888D01*
X98773565Y-130620532D01*
X98785296Y-130581862D01*
X98804346Y-130546223D01*
X98829983Y-130514983D01*
X98861223Y-130489346D01*
X98896862Y-130470296D01*
X98935532Y-130458565D01*
X98981888Y-130454000D01*
X100058112Y-130454000D01*
X100104468Y-130458565D01*
X100104468Y-130458565D01*
G37*
G36*
X112169468Y-130458565D02*
G01*
X112208138Y-130470296D01*
X112243777Y-130489346D01*
X112275017Y-130514983D01*
X112300654Y-130546223D01*
X112319704Y-130581862D01*
X112331435Y-130620532D01*
X112336000Y-130666888D01*
X112336000Y-131318112D01*
X112331435Y-131364468D01*
X112319704Y-131403138D01*
X112300654Y-131438777D01*
X112275017Y-131470017D01*
X112243777Y-131495654D01*
X112208138Y-131514704D01*
X112169468Y-131526435D01*
X112123112Y-131531000D01*
X111046888Y-131531000D01*
X111000532Y-131526435D01*
X110961862Y-131514704D01*
X110926223Y-131495654D01*
X110894983Y-131470017D01*
X110869346Y-131438777D01*
X110850296Y-131403138D01*
X110838565Y-131364468D01*
X110834000Y-131318112D01*
X110834000Y-130666888D01*
X110838565Y-130620532D01*
X110850296Y-130581862D01*
X110869346Y-130546223D01*
X110894983Y-130514983D01*
X110926223Y-130489346D01*
X110961862Y-130470296D01*
X111000532Y-130458565D01*
X111046888Y-130454000D01*
X112123112Y-130454000D01*
X112169468Y-130458565D01*
X112169468Y-130458565D01*
G37*
G36*
X85454443Y-128645519D02*
G01*
X85520627Y-128652037D01*
X85690466Y-128703557D01*
X85846991Y-128787222D01*
X85882729Y-128816552D01*
X85984186Y-128899814D01*
X86067448Y-129001271D01*
X86096778Y-129037009D01*
X86180443Y-129193534D01*
X86231963Y-129363373D01*
X86249359Y-129540000D01*
X86231963Y-129716627D01*
X86180443Y-129886466D01*
X86096778Y-130042991D01*
X86067448Y-130078729D01*
X85984186Y-130180186D01*
X85882729Y-130263448D01*
X85846991Y-130292778D01*
X85690466Y-130376443D01*
X85520627Y-130427963D01*
X85454443Y-130434481D01*
X85388260Y-130441000D01*
X85299740Y-130441000D01*
X85233557Y-130434481D01*
X85167373Y-130427963D01*
X84997534Y-130376443D01*
X84841009Y-130292778D01*
X84805271Y-130263448D01*
X84703814Y-130180186D01*
X84620552Y-130078729D01*
X84591222Y-130042991D01*
X84507557Y-129886466D01*
X84456037Y-129716627D01*
X84438641Y-129540000D01*
X84456037Y-129363373D01*
X84507557Y-129193534D01*
X84591222Y-129037009D01*
X84620552Y-129001271D01*
X84703814Y-128899814D01*
X84805271Y-128816552D01*
X84841009Y-128787222D01*
X84997534Y-128703557D01*
X85167373Y-128652037D01*
X85233557Y-128645519D01*
X85299740Y-128639000D01*
X85388260Y-128639000D01*
X85454443Y-128645519D01*
X85454443Y-128645519D01*
G37*
G36*
X112281000Y-129486000D02*
G01*
X94379000Y-129486000D01*
X94379000Y-127834000D01*
X112281000Y-127834000D01*
X112281000Y-129486000D01*
X112281000Y-129486000D01*
G37*
G36*
X85454443Y-126105519D02*
G01*
X85520627Y-126112037D01*
X85690466Y-126163557D01*
X85846991Y-126247222D01*
X85882729Y-126276552D01*
X85984186Y-126359814D01*
X86067448Y-126461271D01*
X86096778Y-126497009D01*
X86180443Y-126653534D01*
X86231963Y-126823373D01*
X86249359Y-127000000D01*
X86231963Y-127176627D01*
X86180443Y-127346466D01*
X86096778Y-127502991D01*
X86067448Y-127538729D01*
X85984186Y-127640186D01*
X85882729Y-127723448D01*
X85846991Y-127752778D01*
X85846989Y-127752779D01*
X85695037Y-127834000D01*
X85690466Y-127836443D01*
X85520627Y-127887963D01*
X85454442Y-127894482D01*
X85388260Y-127901000D01*
X85299740Y-127901000D01*
X85233558Y-127894482D01*
X85167373Y-127887963D01*
X84997534Y-127836443D01*
X84992964Y-127834000D01*
X84841011Y-127752779D01*
X84841009Y-127752778D01*
X84805271Y-127723448D01*
X84703814Y-127640186D01*
X84620552Y-127538729D01*
X84591222Y-127502991D01*
X84507557Y-127346466D01*
X84456037Y-127176627D01*
X84438641Y-127000000D01*
X84456037Y-126823373D01*
X84507557Y-126653534D01*
X84591222Y-126497009D01*
X84620552Y-126461271D01*
X84703814Y-126359814D01*
X84805271Y-126276552D01*
X84841009Y-126247222D01*
X84997534Y-126163557D01*
X85167373Y-126112037D01*
X85233557Y-126105519D01*
X85299740Y-126099000D01*
X85388260Y-126099000D01*
X85454443Y-126105519D01*
X85454443Y-126105519D01*
G37*
G36*
X88794468Y-126103565D02*
G01*
X88833138Y-126115296D01*
X88868777Y-126134346D01*
X88900017Y-126159983D01*
X88925654Y-126191223D01*
X88944704Y-126226862D01*
X88956435Y-126265532D01*
X88961000Y-126311888D01*
X88961000Y-127388112D01*
X88956435Y-127434468D01*
X88944704Y-127473138D01*
X88925654Y-127508777D01*
X88900017Y-127540017D01*
X88868777Y-127565654D01*
X88833138Y-127584704D01*
X88794468Y-127596435D01*
X88748112Y-127601000D01*
X88096888Y-127601000D01*
X88050532Y-127596435D01*
X88011862Y-127584704D01*
X87976223Y-127565654D01*
X87944983Y-127540017D01*
X87919346Y-127508777D01*
X87900296Y-127473138D01*
X87888565Y-127434468D01*
X87884000Y-127388112D01*
X87884000Y-126311888D01*
X87888565Y-126265532D01*
X87900296Y-126226862D01*
X87919346Y-126191223D01*
X87944983Y-126159983D01*
X87976223Y-126134346D01*
X88011862Y-126115296D01*
X88050532Y-126103565D01*
X88096888Y-126099000D01*
X88748112Y-126099000D01*
X88794468Y-126103565D01*
X88794468Y-126103565D01*
G37*
G36*
X90669468Y-126103565D02*
G01*
X90708138Y-126115296D01*
X90743777Y-126134346D01*
X90775017Y-126159983D01*
X90800654Y-126191223D01*
X90819704Y-126226862D01*
X90831435Y-126265532D01*
X90836000Y-126311888D01*
X90836000Y-127388112D01*
X90831435Y-127434468D01*
X90819704Y-127473138D01*
X90800654Y-127508777D01*
X90775017Y-127540017D01*
X90743777Y-127565654D01*
X90708138Y-127584704D01*
X90669468Y-127596435D01*
X90623112Y-127601000D01*
X89971888Y-127601000D01*
X89925532Y-127596435D01*
X89886862Y-127584704D01*
X89851223Y-127565654D01*
X89819983Y-127540017D01*
X89794346Y-127508777D01*
X89775296Y-127473138D01*
X89763565Y-127434468D01*
X89759000Y-127388112D01*
X89759000Y-126311888D01*
X89763565Y-126265532D01*
X89775296Y-126226862D01*
X89794346Y-126191223D01*
X89819983Y-126159983D01*
X89851223Y-126134346D01*
X89886862Y-126115296D01*
X89925532Y-126103565D01*
X89971888Y-126099000D01*
X90623112Y-126099000D01*
X90669468Y-126103565D01*
X90669468Y-126103565D01*
G37*
G36*
X93456000Y-126911000D02*
G01*
X91804000Y-126911000D01*
X91804000Y-109009000D01*
X93456000Y-109009000D01*
X93456000Y-126911000D01*
X93456000Y-126911000D01*
G37*
G36*
X114856000Y-126911000D02*
G01*
X113204000Y-126911000D01*
X113204000Y-109009000D01*
X114856000Y-109009000D01*
X114856000Y-126911000D01*
X114856000Y-126911000D01*
G37*
G36*
X125205442Y-123565518D02*
G01*
X125271627Y-123572037D01*
X125441466Y-123623557D01*
X125441468Y-123623558D01*
X125519728Y-123665389D01*
X125597991Y-123707222D01*
X125633729Y-123736552D01*
X125735186Y-123819814D01*
X125810019Y-123911000D01*
X125847778Y-123957009D01*
X125931443Y-124113534D01*
X125982963Y-124283373D01*
X126000359Y-124460000D01*
X125982963Y-124636627D01*
X125931443Y-124806466D01*
X125847778Y-124962991D01*
X125818448Y-124998729D01*
X125735186Y-125100186D01*
X125633729Y-125183448D01*
X125597991Y-125212778D01*
X125441466Y-125296443D01*
X125271627Y-125347963D01*
X125205442Y-125354482D01*
X125139260Y-125361000D01*
X125050740Y-125361000D01*
X124984558Y-125354482D01*
X124918373Y-125347963D01*
X124748534Y-125296443D01*
X124592009Y-125212778D01*
X124556271Y-125183448D01*
X124454814Y-125100186D01*
X124371552Y-124998729D01*
X124342222Y-124962991D01*
X124258557Y-124806466D01*
X124207037Y-124636627D01*
X124189641Y-124460000D01*
X124207037Y-124283373D01*
X124258557Y-124113534D01*
X124342222Y-123957009D01*
X124379981Y-123911000D01*
X124454814Y-123819814D01*
X124556271Y-123736552D01*
X124592009Y-123707222D01*
X124670272Y-123665389D01*
X124748532Y-123623558D01*
X124748534Y-123623557D01*
X124918373Y-123572037D01*
X124984558Y-123565518D01*
X125050740Y-123559000D01*
X125139260Y-123559000D01*
X125205442Y-123565518D01*
X125205442Y-123565518D01*
G37*
G36*
X127745442Y-123565518D02*
G01*
X127811627Y-123572037D01*
X127981466Y-123623557D01*
X127981468Y-123623558D01*
X128059728Y-123665389D01*
X128137991Y-123707222D01*
X128173729Y-123736552D01*
X128275186Y-123819814D01*
X128350019Y-123911000D01*
X128387778Y-123957009D01*
X128471443Y-124113534D01*
X128522963Y-124283373D01*
X128540359Y-124460000D01*
X128522963Y-124636627D01*
X128471443Y-124806466D01*
X128387778Y-124962991D01*
X128358448Y-124998729D01*
X128275186Y-125100186D01*
X128173729Y-125183448D01*
X128137991Y-125212778D01*
X127981466Y-125296443D01*
X127811627Y-125347963D01*
X127745442Y-125354482D01*
X127679260Y-125361000D01*
X127590740Y-125361000D01*
X127524558Y-125354482D01*
X127458373Y-125347963D01*
X127288534Y-125296443D01*
X127132009Y-125212778D01*
X127096271Y-125183448D01*
X126994814Y-125100186D01*
X126911552Y-124998729D01*
X126882222Y-124962991D01*
X126798557Y-124806466D01*
X126747037Y-124636627D01*
X126729641Y-124460000D01*
X126747037Y-124283373D01*
X126798557Y-124113534D01*
X126882222Y-123957009D01*
X126919981Y-123911000D01*
X126994814Y-123819814D01*
X127096271Y-123736552D01*
X127132009Y-123707222D01*
X127210272Y-123665389D01*
X127288532Y-123623558D01*
X127288534Y-123623557D01*
X127458373Y-123572037D01*
X127524558Y-123565518D01*
X127590740Y-123559000D01*
X127679260Y-123559000D01*
X127745442Y-123565518D01*
X127745442Y-123565518D01*
G37*
G36*
X130285442Y-123565518D02*
G01*
X130351627Y-123572037D01*
X130521466Y-123623557D01*
X130521468Y-123623558D01*
X130599728Y-123665389D01*
X130677991Y-123707222D01*
X130713729Y-123736552D01*
X130815186Y-123819814D01*
X130890019Y-123911000D01*
X130927778Y-123957009D01*
X131011443Y-124113534D01*
X131062963Y-124283373D01*
X131080359Y-124460000D01*
X131062963Y-124636627D01*
X131011443Y-124806466D01*
X130927778Y-124962991D01*
X130898448Y-124998729D01*
X130815186Y-125100186D01*
X130713729Y-125183448D01*
X130677991Y-125212778D01*
X130521466Y-125296443D01*
X130351627Y-125347963D01*
X130285442Y-125354482D01*
X130219260Y-125361000D01*
X130130740Y-125361000D01*
X130064558Y-125354482D01*
X129998373Y-125347963D01*
X129828534Y-125296443D01*
X129672009Y-125212778D01*
X129636271Y-125183448D01*
X129534814Y-125100186D01*
X129451552Y-124998729D01*
X129422222Y-124962991D01*
X129338557Y-124806466D01*
X129287037Y-124636627D01*
X129269641Y-124460000D01*
X129287037Y-124283373D01*
X129338557Y-124113534D01*
X129422222Y-123957009D01*
X129459981Y-123911000D01*
X129534814Y-123819814D01*
X129636271Y-123736552D01*
X129672009Y-123707222D01*
X129750272Y-123665389D01*
X129828532Y-123623558D01*
X129828534Y-123623557D01*
X129998373Y-123572037D01*
X130064558Y-123565518D01*
X130130740Y-123559000D01*
X130219260Y-123559000D01*
X130285442Y-123565518D01*
X130285442Y-123565518D01*
G37*
G36*
X85454442Y-123565518D02*
G01*
X85520627Y-123572037D01*
X85690466Y-123623557D01*
X85690468Y-123623558D01*
X85768728Y-123665389D01*
X85846991Y-123707222D01*
X85882729Y-123736552D01*
X85984186Y-123819814D01*
X86059019Y-123911000D01*
X86096778Y-123957009D01*
X86180443Y-124113534D01*
X86231963Y-124283373D01*
X86249359Y-124460000D01*
X86231963Y-124636627D01*
X86180443Y-124806466D01*
X86096778Y-124962991D01*
X86067448Y-124998729D01*
X85984186Y-125100186D01*
X85882729Y-125183448D01*
X85846991Y-125212778D01*
X85690466Y-125296443D01*
X85520627Y-125347963D01*
X85454442Y-125354482D01*
X85388260Y-125361000D01*
X85299740Y-125361000D01*
X85233558Y-125354482D01*
X85167373Y-125347963D01*
X84997534Y-125296443D01*
X84841009Y-125212778D01*
X84805271Y-125183448D01*
X84703814Y-125100186D01*
X84620552Y-124998729D01*
X84591222Y-124962991D01*
X84507557Y-124806466D01*
X84456037Y-124636627D01*
X84438641Y-124460000D01*
X84456037Y-124283373D01*
X84507557Y-124113534D01*
X84591222Y-123957009D01*
X84628981Y-123911000D01*
X84703814Y-123819814D01*
X84805271Y-123736552D01*
X84841009Y-123707222D01*
X84919272Y-123665389D01*
X84997532Y-123623558D01*
X84997534Y-123623557D01*
X85167373Y-123572037D01*
X85233558Y-123565518D01*
X85299740Y-123559000D01*
X85388260Y-123559000D01*
X85454442Y-123565518D01*
X85454442Y-123565518D01*
G37*
G36*
X90500468Y-122831565D02*
G01*
X90539138Y-122843296D01*
X90574777Y-122862346D01*
X90606017Y-122887983D01*
X90631654Y-122919223D01*
X90650704Y-122954862D01*
X90662435Y-122993532D01*
X90667000Y-123039888D01*
X90667000Y-123691112D01*
X90662435Y-123737468D01*
X90650704Y-123776138D01*
X90631654Y-123811777D01*
X90606017Y-123843017D01*
X90574777Y-123868654D01*
X90539138Y-123887704D01*
X90500468Y-123899435D01*
X90454112Y-123904000D01*
X89377888Y-123904000D01*
X89331532Y-123899435D01*
X89292862Y-123887704D01*
X89257223Y-123868654D01*
X89225983Y-123843017D01*
X89200346Y-123811777D01*
X89181296Y-123776138D01*
X89169565Y-123737468D01*
X89165000Y-123691112D01*
X89165000Y-123039888D01*
X89169565Y-122993532D01*
X89181296Y-122954862D01*
X89200346Y-122919223D01*
X89225983Y-122887983D01*
X89257223Y-122862346D01*
X89292862Y-122843296D01*
X89331532Y-122831565D01*
X89377888Y-122827000D01*
X90454112Y-122827000D01*
X90500468Y-122831565D01*
X90500468Y-122831565D01*
G37*
G36*
X85454442Y-121025518D02*
G01*
X85520627Y-121032037D01*
X85690466Y-121083557D01*
X85846991Y-121167222D01*
X85882729Y-121196552D01*
X85984186Y-121279814D01*
X86067448Y-121381271D01*
X86096778Y-121417009D01*
X86180443Y-121573534D01*
X86231963Y-121743373D01*
X86249359Y-121920000D01*
X86231963Y-122096627D01*
X86180443Y-122266466D01*
X86096778Y-122422991D01*
X86067448Y-122458729D01*
X85984186Y-122560186D01*
X85882729Y-122643448D01*
X85846991Y-122672778D01*
X85690466Y-122756443D01*
X85520627Y-122807963D01*
X85454443Y-122814481D01*
X85388260Y-122821000D01*
X85299740Y-122821000D01*
X85233557Y-122814481D01*
X85167373Y-122807963D01*
X84997534Y-122756443D01*
X84841009Y-122672778D01*
X84805271Y-122643448D01*
X84703814Y-122560186D01*
X84620552Y-122458729D01*
X84591222Y-122422991D01*
X84507557Y-122266466D01*
X84456037Y-122096627D01*
X84438641Y-121920000D01*
X84456037Y-121743373D01*
X84507557Y-121573534D01*
X84591222Y-121417009D01*
X84620552Y-121381271D01*
X84703814Y-121279814D01*
X84805271Y-121196552D01*
X84841009Y-121167222D01*
X84997534Y-121083557D01*
X85167373Y-121032037D01*
X85233558Y-121025518D01*
X85299740Y-121019000D01*
X85388260Y-121019000D01*
X85454442Y-121025518D01*
X85454442Y-121025518D01*
G37*
G36*
X125205442Y-121025518D02*
G01*
X125271627Y-121032037D01*
X125441466Y-121083557D01*
X125597991Y-121167222D01*
X125633729Y-121196552D01*
X125735186Y-121279814D01*
X125818448Y-121381271D01*
X125847778Y-121417009D01*
X125931443Y-121573534D01*
X125982963Y-121743373D01*
X126000359Y-121920000D01*
X125982963Y-122096627D01*
X125931443Y-122266466D01*
X125847778Y-122422991D01*
X125818448Y-122458729D01*
X125735186Y-122560186D01*
X125633729Y-122643448D01*
X125597991Y-122672778D01*
X125441466Y-122756443D01*
X125271627Y-122807963D01*
X125205443Y-122814481D01*
X125139260Y-122821000D01*
X125050740Y-122821000D01*
X124984557Y-122814481D01*
X124918373Y-122807963D01*
X124748534Y-122756443D01*
X124592009Y-122672778D01*
X124556271Y-122643448D01*
X124454814Y-122560186D01*
X124371552Y-122458729D01*
X124342222Y-122422991D01*
X124258557Y-122266466D01*
X124207037Y-122096627D01*
X124189641Y-121920000D01*
X124207037Y-121743373D01*
X124258557Y-121573534D01*
X124342222Y-121417009D01*
X124371552Y-121381271D01*
X124454814Y-121279814D01*
X124556271Y-121196552D01*
X124592009Y-121167222D01*
X124748534Y-121083557D01*
X124918373Y-121032037D01*
X124984558Y-121025518D01*
X125050740Y-121019000D01*
X125139260Y-121019000D01*
X125205442Y-121025518D01*
X125205442Y-121025518D01*
G37*
G36*
X127745442Y-121025518D02*
G01*
X127811627Y-121032037D01*
X127981466Y-121083557D01*
X128137991Y-121167222D01*
X128173729Y-121196552D01*
X128275186Y-121279814D01*
X128358448Y-121381271D01*
X128387778Y-121417009D01*
X128471443Y-121573534D01*
X128522963Y-121743373D01*
X128540359Y-121920000D01*
X128522963Y-122096627D01*
X128471443Y-122266466D01*
X128387778Y-122422991D01*
X128358448Y-122458729D01*
X128275186Y-122560186D01*
X128173729Y-122643448D01*
X128137991Y-122672778D01*
X127981466Y-122756443D01*
X127811627Y-122807963D01*
X127745443Y-122814481D01*
X127679260Y-122821000D01*
X127590740Y-122821000D01*
X127524557Y-122814481D01*
X127458373Y-122807963D01*
X127288534Y-122756443D01*
X127132009Y-122672778D01*
X127096271Y-122643448D01*
X126994814Y-122560186D01*
X126911552Y-122458729D01*
X126882222Y-122422991D01*
X126798557Y-122266466D01*
X126747037Y-122096627D01*
X126729641Y-121920000D01*
X126747037Y-121743373D01*
X126798557Y-121573534D01*
X126882222Y-121417009D01*
X126911552Y-121381271D01*
X126994814Y-121279814D01*
X127096271Y-121196552D01*
X127132009Y-121167222D01*
X127288534Y-121083557D01*
X127458373Y-121032037D01*
X127524558Y-121025518D01*
X127590740Y-121019000D01*
X127679260Y-121019000D01*
X127745442Y-121025518D01*
X127745442Y-121025518D01*
G37*
G36*
X131076000Y-122821000D02*
G01*
X129274000Y-122821000D01*
X129274000Y-121019000D01*
X131076000Y-121019000D01*
X131076000Y-122821000D01*
X131076000Y-122821000D01*
G37*
G36*
X69672468Y-121053565D02*
G01*
X69711138Y-121065296D01*
X69746777Y-121084346D01*
X69778017Y-121109983D01*
X69803654Y-121141223D01*
X69822704Y-121176862D01*
X69834435Y-121215532D01*
X69839000Y-121261888D01*
X69839000Y-121913112D01*
X69834435Y-121959468D01*
X69822704Y-121998138D01*
X69803654Y-122033777D01*
X69778017Y-122065017D01*
X69746777Y-122090654D01*
X69711138Y-122109704D01*
X69672468Y-122121435D01*
X69626112Y-122126000D01*
X68549888Y-122126000D01*
X68503532Y-122121435D01*
X68464862Y-122109704D01*
X68429223Y-122090654D01*
X68397983Y-122065017D01*
X68372346Y-122033777D01*
X68353296Y-121998138D01*
X68341565Y-121959468D01*
X68337000Y-121913112D01*
X68337000Y-121261888D01*
X68341565Y-121215532D01*
X68353296Y-121176862D01*
X68372346Y-121141223D01*
X68397983Y-121109983D01*
X68429223Y-121084346D01*
X68464862Y-121065296D01*
X68503532Y-121053565D01*
X68549888Y-121049000D01*
X69626112Y-121049000D01*
X69672468Y-121053565D01*
X69672468Y-121053565D01*
G37*
G36*
X90500468Y-120956565D02*
G01*
X90539138Y-120968296D01*
X90574777Y-120987346D01*
X90606017Y-121012983D01*
X90631654Y-121044223D01*
X90650704Y-121079862D01*
X90662435Y-121118532D01*
X90667000Y-121164888D01*
X90667000Y-121816112D01*
X90662435Y-121862468D01*
X90650704Y-121901138D01*
X90631654Y-121936777D01*
X90606017Y-121968017D01*
X90574777Y-121993654D01*
X90539138Y-122012704D01*
X90500468Y-122024435D01*
X90454112Y-122029000D01*
X89377888Y-122029000D01*
X89331532Y-122024435D01*
X89292862Y-122012704D01*
X89257223Y-121993654D01*
X89225983Y-121968017D01*
X89200346Y-121936777D01*
X89181296Y-121901138D01*
X89169565Y-121862468D01*
X89165000Y-121816112D01*
X89165000Y-121164888D01*
X89169565Y-121118532D01*
X89181296Y-121079862D01*
X89200346Y-121044223D01*
X89225983Y-121012983D01*
X89257223Y-120987346D01*
X89292862Y-120968296D01*
X89331532Y-120956565D01*
X89377888Y-120952000D01*
X90454112Y-120952000D01*
X90500468Y-120956565D01*
X90500468Y-120956565D01*
G37*
G36*
X116734468Y-119753565D02*
G01*
X116773138Y-119765296D01*
X116808777Y-119784346D01*
X116840017Y-119809983D01*
X116865654Y-119841223D01*
X116884704Y-119876862D01*
X116896435Y-119915532D01*
X116901000Y-119961888D01*
X116901000Y-121038112D01*
X116896435Y-121084468D01*
X116884704Y-121123138D01*
X116865654Y-121158777D01*
X116840017Y-121190017D01*
X116808777Y-121215654D01*
X116773138Y-121234704D01*
X116734468Y-121246435D01*
X116688112Y-121251000D01*
X116036888Y-121251000D01*
X115990532Y-121246435D01*
X115951862Y-121234704D01*
X115916223Y-121215654D01*
X115884983Y-121190017D01*
X115859346Y-121158777D01*
X115840296Y-121123138D01*
X115828565Y-121084468D01*
X115824000Y-121038112D01*
X115824000Y-119961888D01*
X115828565Y-119915532D01*
X115840296Y-119876862D01*
X115859346Y-119841223D01*
X115884983Y-119809983D01*
X115916223Y-119784346D01*
X115951862Y-119765296D01*
X115990532Y-119753565D01*
X116036888Y-119749000D01*
X116688112Y-119749000D01*
X116734468Y-119753565D01*
X116734468Y-119753565D01*
G37*
G36*
X118609468Y-119753565D02*
G01*
X118648138Y-119765296D01*
X118683777Y-119784346D01*
X118715017Y-119809983D01*
X118740654Y-119841223D01*
X118759704Y-119876862D01*
X118771435Y-119915532D01*
X118776000Y-119961888D01*
X118776000Y-121038112D01*
X118771435Y-121084468D01*
X118759704Y-121123138D01*
X118740654Y-121158777D01*
X118715017Y-121190017D01*
X118683777Y-121215654D01*
X118648138Y-121234704D01*
X118609468Y-121246435D01*
X118563112Y-121251000D01*
X117911888Y-121251000D01*
X117865532Y-121246435D01*
X117826862Y-121234704D01*
X117791223Y-121215654D01*
X117759983Y-121190017D01*
X117734346Y-121158777D01*
X117715296Y-121123138D01*
X117703565Y-121084468D01*
X117699000Y-121038112D01*
X117699000Y-119961888D01*
X117703565Y-119915532D01*
X117715296Y-119876862D01*
X117734346Y-119841223D01*
X117759983Y-119809983D01*
X117791223Y-119784346D01*
X117826862Y-119765296D01*
X117865532Y-119753565D01*
X117911888Y-119749000D01*
X118563112Y-119749000D01*
X118609468Y-119753565D01*
X118609468Y-119753565D01*
G37*
G36*
X85454442Y-118485518D02*
G01*
X85520627Y-118492037D01*
X85690466Y-118543557D01*
X85846991Y-118627222D01*
X85882729Y-118656552D01*
X85984186Y-118739814D01*
X86067448Y-118841271D01*
X86096778Y-118877009D01*
X86180443Y-119033534D01*
X86231963Y-119203373D01*
X86249359Y-119380000D01*
X86231963Y-119556627D01*
X86180443Y-119726466D01*
X86096778Y-119882991D01*
X86073791Y-119911000D01*
X85984186Y-120020186D01*
X85905467Y-120084788D01*
X85846991Y-120132778D01*
X85690466Y-120216443D01*
X85520627Y-120267963D01*
X85454442Y-120274482D01*
X85388260Y-120281000D01*
X85299740Y-120281000D01*
X85233558Y-120274482D01*
X85167373Y-120267963D01*
X84997534Y-120216443D01*
X84841009Y-120132778D01*
X84782533Y-120084788D01*
X84703814Y-120020186D01*
X84614209Y-119911000D01*
X84591222Y-119882991D01*
X84507557Y-119726466D01*
X84456037Y-119556627D01*
X84438641Y-119380000D01*
X84456037Y-119203373D01*
X84507557Y-119033534D01*
X84591222Y-118877009D01*
X84620552Y-118841271D01*
X84703814Y-118739814D01*
X84805271Y-118656552D01*
X84841009Y-118627222D01*
X84997534Y-118543557D01*
X85167373Y-118492037D01*
X85233558Y-118485518D01*
X85299740Y-118479000D01*
X85388260Y-118479000D01*
X85454442Y-118485518D01*
X85454442Y-118485518D01*
G37*
G36*
X69672468Y-119178565D02*
G01*
X69711138Y-119190296D01*
X69746777Y-119209346D01*
X69778017Y-119234983D01*
X69803654Y-119266223D01*
X69822704Y-119301862D01*
X69834435Y-119340532D01*
X69839000Y-119386888D01*
X69839000Y-120038112D01*
X69834435Y-120084468D01*
X69822704Y-120123138D01*
X69803654Y-120158777D01*
X69778017Y-120190017D01*
X69746777Y-120215654D01*
X69711138Y-120234704D01*
X69672468Y-120246435D01*
X69626112Y-120251000D01*
X68549888Y-120251000D01*
X68503532Y-120246435D01*
X68464862Y-120234704D01*
X68429223Y-120215654D01*
X68397983Y-120190017D01*
X68372346Y-120158777D01*
X68353296Y-120123138D01*
X68341565Y-120084468D01*
X68337000Y-120038112D01*
X68337000Y-119386888D01*
X68341565Y-119340532D01*
X68353296Y-119301862D01*
X68372346Y-119266223D01*
X68397983Y-119234983D01*
X68429223Y-119209346D01*
X68464862Y-119190296D01*
X68503532Y-119178565D01*
X68549888Y-119174000D01*
X69626112Y-119174000D01*
X69672468Y-119178565D01*
X69672468Y-119178565D01*
G37*
G36*
X72212468Y-118767565D02*
G01*
X72251138Y-118779296D01*
X72286777Y-118798346D01*
X72318017Y-118823983D01*
X72343654Y-118855223D01*
X72362704Y-118890862D01*
X72374435Y-118929532D01*
X72379000Y-118975888D01*
X72379000Y-119627112D01*
X72374435Y-119673468D01*
X72362704Y-119712138D01*
X72343654Y-119747777D01*
X72318017Y-119779017D01*
X72286777Y-119804654D01*
X72251138Y-119823704D01*
X72212468Y-119835435D01*
X72166112Y-119840000D01*
X71089888Y-119840000D01*
X71043532Y-119835435D01*
X71004862Y-119823704D01*
X70969223Y-119804654D01*
X70937983Y-119779017D01*
X70912346Y-119747777D01*
X70893296Y-119712138D01*
X70881565Y-119673468D01*
X70877000Y-119627112D01*
X70877000Y-118975888D01*
X70881565Y-118929532D01*
X70893296Y-118890862D01*
X70912346Y-118855223D01*
X70937983Y-118823983D01*
X70969223Y-118798346D01*
X71004862Y-118779296D01*
X71043532Y-118767565D01*
X71089888Y-118763000D01*
X72166112Y-118763000D01*
X72212468Y-118767565D01*
X72212468Y-118767565D01*
G37*
G36*
X74244468Y-118767565D02*
G01*
X74283138Y-118779296D01*
X74318777Y-118798346D01*
X74350017Y-118823983D01*
X74375654Y-118855223D01*
X74394704Y-118890862D01*
X74406435Y-118929532D01*
X74411000Y-118975888D01*
X74411000Y-119627112D01*
X74406435Y-119673468D01*
X74394704Y-119712138D01*
X74375654Y-119747777D01*
X74350017Y-119779017D01*
X74318777Y-119804654D01*
X74283138Y-119823704D01*
X74244468Y-119835435D01*
X74198112Y-119840000D01*
X73121888Y-119840000D01*
X73075532Y-119835435D01*
X73036862Y-119823704D01*
X73001223Y-119804654D01*
X72969983Y-119779017D01*
X72944346Y-119747777D01*
X72925296Y-119712138D01*
X72913565Y-119673468D01*
X72909000Y-119627112D01*
X72909000Y-118975888D01*
X72913565Y-118929532D01*
X72925296Y-118890862D01*
X72944346Y-118855223D01*
X72969983Y-118823983D01*
X73001223Y-118798346D01*
X73036862Y-118779296D01*
X73075532Y-118767565D01*
X73121888Y-118763000D01*
X74198112Y-118763000D01*
X74244468Y-118767565D01*
X74244468Y-118767565D01*
G37*
G36*
X135070468Y-118125565D02*
G01*
X135109138Y-118137296D01*
X135144777Y-118156346D01*
X135176017Y-118181983D01*
X135201654Y-118213223D01*
X135220704Y-118248862D01*
X135232435Y-118287532D01*
X135237000Y-118333888D01*
X135237000Y-119410112D01*
X135232435Y-119456468D01*
X135220704Y-119495138D01*
X135201654Y-119530777D01*
X135176017Y-119562017D01*
X135144777Y-119587654D01*
X135109138Y-119606704D01*
X135070468Y-119618435D01*
X135024112Y-119623000D01*
X134372888Y-119623000D01*
X134326532Y-119618435D01*
X134287862Y-119606704D01*
X134252223Y-119587654D01*
X134220983Y-119562017D01*
X134195346Y-119530777D01*
X134176296Y-119495138D01*
X134164565Y-119456468D01*
X134160000Y-119410112D01*
X134160000Y-118333888D01*
X134164565Y-118287532D01*
X134176296Y-118248862D01*
X134195346Y-118213223D01*
X134220983Y-118181983D01*
X134252223Y-118156346D01*
X134287862Y-118137296D01*
X134326532Y-118125565D01*
X134372888Y-118121000D01*
X135024112Y-118121000D01*
X135070468Y-118125565D01*
X135070468Y-118125565D01*
G37*
G36*
X136945468Y-118125565D02*
G01*
X136984138Y-118137296D01*
X137019777Y-118156346D01*
X137051017Y-118181983D01*
X137076654Y-118213223D01*
X137095704Y-118248862D01*
X137107435Y-118287532D01*
X137112000Y-118333888D01*
X137112000Y-119410112D01*
X137107435Y-119456468D01*
X137095704Y-119495138D01*
X137076654Y-119530777D01*
X137051017Y-119562017D01*
X137019777Y-119587654D01*
X136984138Y-119606704D01*
X136945468Y-119618435D01*
X136899112Y-119623000D01*
X136247888Y-119623000D01*
X136201532Y-119618435D01*
X136162862Y-119606704D01*
X136127223Y-119587654D01*
X136095983Y-119562017D01*
X136070346Y-119530777D01*
X136051296Y-119495138D01*
X136039565Y-119456468D01*
X136035000Y-119410112D01*
X136035000Y-118333888D01*
X136039565Y-118287532D01*
X136051296Y-118248862D01*
X136070346Y-118213223D01*
X136095983Y-118181983D01*
X136127223Y-118156346D01*
X136162862Y-118137296D01*
X136201532Y-118125565D01*
X136247888Y-118121000D01*
X136899112Y-118121000D01*
X136945468Y-118125565D01*
X136945468Y-118125565D01*
G37*
G36*
X69672468Y-117497565D02*
G01*
X69711138Y-117509296D01*
X69746777Y-117528346D01*
X69778017Y-117553983D01*
X69803654Y-117585223D01*
X69822704Y-117620862D01*
X69834435Y-117659532D01*
X69839000Y-117705888D01*
X69839000Y-118357112D01*
X69834435Y-118403468D01*
X69822704Y-118442138D01*
X69803654Y-118477777D01*
X69778017Y-118509017D01*
X69746777Y-118534654D01*
X69711138Y-118553704D01*
X69672468Y-118565435D01*
X69626112Y-118570000D01*
X68549888Y-118570000D01*
X68503532Y-118565435D01*
X68464862Y-118553704D01*
X68429223Y-118534654D01*
X68397983Y-118509017D01*
X68372346Y-118477777D01*
X68353296Y-118442138D01*
X68341565Y-118403468D01*
X68337000Y-118357112D01*
X68337000Y-117705888D01*
X68341565Y-117659532D01*
X68353296Y-117620862D01*
X68372346Y-117585223D01*
X68397983Y-117553983D01*
X68429223Y-117528346D01*
X68464862Y-117509296D01*
X68503532Y-117497565D01*
X68549888Y-117493000D01*
X69626112Y-117493000D01*
X69672468Y-117497565D01*
X69672468Y-117497565D01*
G37*
G36*
X72212468Y-116892565D02*
G01*
X72251138Y-116904296D01*
X72286777Y-116923346D01*
X72318017Y-116948983D01*
X72343654Y-116980223D01*
X72362704Y-117015862D01*
X72374435Y-117054532D01*
X72379000Y-117100888D01*
X72379000Y-117752112D01*
X72374435Y-117798468D01*
X72362704Y-117837138D01*
X72343654Y-117872777D01*
X72318017Y-117904017D01*
X72286777Y-117929654D01*
X72251138Y-117948704D01*
X72212468Y-117960435D01*
X72166112Y-117965000D01*
X71089888Y-117965000D01*
X71043532Y-117960435D01*
X71004862Y-117948704D01*
X70969223Y-117929654D01*
X70937983Y-117904017D01*
X70912346Y-117872777D01*
X70893296Y-117837138D01*
X70881565Y-117798468D01*
X70877000Y-117752112D01*
X70877000Y-117100888D01*
X70881565Y-117054532D01*
X70893296Y-117015862D01*
X70912346Y-116980223D01*
X70937983Y-116948983D01*
X70969223Y-116923346D01*
X71004862Y-116904296D01*
X71043532Y-116892565D01*
X71089888Y-116888000D01*
X72166112Y-116888000D01*
X72212468Y-116892565D01*
X72212468Y-116892565D01*
G37*
G36*
X74244468Y-116892565D02*
G01*
X74283138Y-116904296D01*
X74318777Y-116923346D01*
X74350017Y-116948983D01*
X74375654Y-116980223D01*
X74394704Y-117015862D01*
X74406435Y-117054532D01*
X74411000Y-117100888D01*
X74411000Y-117752112D01*
X74406435Y-117798468D01*
X74394704Y-117837138D01*
X74375654Y-117872777D01*
X74350017Y-117904017D01*
X74318777Y-117929654D01*
X74283138Y-117948704D01*
X74244468Y-117960435D01*
X74198112Y-117965000D01*
X73121888Y-117965000D01*
X73075532Y-117960435D01*
X73036862Y-117948704D01*
X73001223Y-117929654D01*
X72969983Y-117904017D01*
X72944346Y-117872777D01*
X72925296Y-117837138D01*
X72913565Y-117798468D01*
X72909000Y-117752112D01*
X72909000Y-117100888D01*
X72913565Y-117054532D01*
X72925296Y-117015862D01*
X72944346Y-116980223D01*
X72969983Y-116948983D01*
X73001223Y-116923346D01*
X73036862Y-116904296D01*
X73075532Y-116892565D01*
X73121888Y-116888000D01*
X74198112Y-116888000D01*
X74244468Y-116892565D01*
X74244468Y-116892565D01*
G37*
G36*
X85454442Y-115945518D02*
G01*
X85520627Y-115952037D01*
X85690466Y-116003557D01*
X85846991Y-116087222D01*
X85882729Y-116116552D01*
X85984186Y-116199814D01*
X86067448Y-116301271D01*
X86096778Y-116337009D01*
X86180443Y-116493534D01*
X86231963Y-116663373D01*
X86249359Y-116840000D01*
X86231963Y-117016627D01*
X86180443Y-117186466D01*
X86096778Y-117342991D01*
X86067448Y-117378729D01*
X85984186Y-117480186D01*
X85894263Y-117553983D01*
X85846991Y-117592778D01*
X85690466Y-117676443D01*
X85520627Y-117727963D01*
X85454442Y-117734482D01*
X85388260Y-117741000D01*
X85299740Y-117741000D01*
X85233558Y-117734482D01*
X85167373Y-117727963D01*
X84997534Y-117676443D01*
X84841009Y-117592778D01*
X84793737Y-117553983D01*
X84703814Y-117480186D01*
X84620552Y-117378729D01*
X84591222Y-117342991D01*
X84507557Y-117186466D01*
X84456037Y-117016627D01*
X84438641Y-116840000D01*
X84456037Y-116663373D01*
X84507557Y-116493534D01*
X84591222Y-116337009D01*
X84620552Y-116301271D01*
X84703814Y-116199814D01*
X84805271Y-116116552D01*
X84841009Y-116087222D01*
X84997534Y-116003557D01*
X85167373Y-115952037D01*
X85233558Y-115945518D01*
X85299740Y-115939000D01*
X85388260Y-115939000D01*
X85454442Y-115945518D01*
X85454442Y-115945518D01*
G37*
G36*
X134648295Y-116349323D02*
G01*
X134655310Y-116351451D01*
X134661776Y-116354908D01*
X134667442Y-116359558D01*
X134672092Y-116365224D01*
X134675549Y-116371690D01*
X134677677Y-116378705D01*
X134678603Y-116388109D01*
X134683383Y-116412142D01*
X134692761Y-116434781D01*
X134706374Y-116455155D01*
X134723701Y-116472482D01*
X134744076Y-116486096D01*
X134766715Y-116495474D01*
X134790748Y-116500254D01*
X134815252Y-116500254D01*
X134839285Y-116495474D01*
X134861924Y-116486096D01*
X134882298Y-116472483D01*
X134899625Y-116455156D01*
X134913239Y-116434781D01*
X134922617Y-116412142D01*
X134927397Y-116388109D01*
X134928323Y-116378705D01*
X134930451Y-116371690D01*
X134933908Y-116365224D01*
X134938558Y-116359558D01*
X134944224Y-116354908D01*
X134950690Y-116351451D01*
X134957705Y-116349323D01*
X134971140Y-116348000D01*
X135284860Y-116348000D01*
X135298295Y-116349323D01*
X135305310Y-116351451D01*
X135311776Y-116354908D01*
X135317442Y-116359558D01*
X135322092Y-116365224D01*
X135325549Y-116371690D01*
X135327677Y-116378705D01*
X135328603Y-116388109D01*
X135333383Y-116412142D01*
X135342761Y-116434781D01*
X135356374Y-116455155D01*
X135373701Y-116472482D01*
X135394076Y-116486096D01*
X135416715Y-116495474D01*
X135440748Y-116500254D01*
X135465252Y-116500254D01*
X135489285Y-116495474D01*
X135511924Y-116486096D01*
X135532298Y-116472483D01*
X135549625Y-116455156D01*
X135563239Y-116434781D01*
X135572617Y-116412142D01*
X135577397Y-116388109D01*
X135578323Y-116378705D01*
X135580451Y-116371690D01*
X135583908Y-116365224D01*
X135588558Y-116359558D01*
X135594224Y-116354908D01*
X135600690Y-116351451D01*
X135607705Y-116349323D01*
X135621140Y-116348000D01*
X135934860Y-116348000D01*
X135948295Y-116349323D01*
X135955310Y-116351451D01*
X135961776Y-116354908D01*
X135967442Y-116359558D01*
X135972092Y-116365224D01*
X135975549Y-116371690D01*
X135977677Y-116378705D01*
X135979000Y-116392140D01*
X135979000Y-117055860D01*
X135977677Y-117069295D01*
X135975549Y-117076310D01*
X135972092Y-117082776D01*
X135967442Y-117088442D01*
X135961776Y-117093092D01*
X135955310Y-117096549D01*
X135948295Y-117098677D01*
X135934860Y-117100000D01*
X135621140Y-117100000D01*
X135607705Y-117098677D01*
X135600690Y-117096549D01*
X135594224Y-117093092D01*
X135588558Y-117088442D01*
X135583908Y-117082776D01*
X135580451Y-117076310D01*
X135578323Y-117069295D01*
X135577397Y-117059891D01*
X135572617Y-117035858D01*
X135563239Y-117013219D01*
X135549626Y-116992845D01*
X135532299Y-116975518D01*
X135511924Y-116961904D01*
X135489285Y-116952526D01*
X135465252Y-116947746D01*
X135440748Y-116947746D01*
X135416715Y-116952526D01*
X135394076Y-116961904D01*
X135373702Y-116975517D01*
X135356375Y-116992844D01*
X135342761Y-117013219D01*
X135333383Y-117035858D01*
X135328603Y-117059891D01*
X135327677Y-117069295D01*
X135325549Y-117076310D01*
X135322092Y-117082776D01*
X135317442Y-117088442D01*
X135311776Y-117093092D01*
X135305310Y-117096549D01*
X135298295Y-117098677D01*
X135284860Y-117100000D01*
X134971140Y-117100000D01*
X134957705Y-117098677D01*
X134950690Y-117096549D01*
X134944224Y-117093092D01*
X134938558Y-117088442D01*
X134933908Y-117082776D01*
X134930451Y-117076310D01*
X134928323Y-117069295D01*
X134927397Y-117059891D01*
X134922617Y-117035858D01*
X134913239Y-117013219D01*
X134899626Y-116992845D01*
X134882299Y-116975518D01*
X134861924Y-116961904D01*
X134839285Y-116952526D01*
X134815252Y-116947746D01*
X134790748Y-116947746D01*
X134766715Y-116952526D01*
X134744076Y-116961904D01*
X134723702Y-116975517D01*
X134706375Y-116992844D01*
X134692761Y-117013219D01*
X134683383Y-117035858D01*
X134678603Y-117059891D01*
X134677677Y-117069295D01*
X134675549Y-117076310D01*
X134672092Y-117082776D01*
X134667442Y-117088442D01*
X134661776Y-117093092D01*
X134655310Y-117096549D01*
X134648295Y-117098677D01*
X134634860Y-117100000D01*
X134321140Y-117100000D01*
X134307705Y-117098677D01*
X134300690Y-117096549D01*
X134294224Y-117093092D01*
X134288558Y-117088442D01*
X134283908Y-117082776D01*
X134280451Y-117076310D01*
X134278323Y-117069295D01*
X134277000Y-117055860D01*
X134277000Y-116392140D01*
X134278323Y-116378705D01*
X134280451Y-116371690D01*
X134283908Y-116365224D01*
X134288558Y-116359558D01*
X134294224Y-116354908D01*
X134300690Y-116351451D01*
X134307705Y-116349323D01*
X134321140Y-116348000D01*
X134634860Y-116348000D01*
X134648295Y-116349323D01*
X134648295Y-116349323D01*
G37*
G36*
X91008468Y-115719565D02*
G01*
X91047138Y-115731296D01*
X91082777Y-115750346D01*
X91114017Y-115775983D01*
X91139654Y-115807223D01*
X91158704Y-115842862D01*
X91170435Y-115881532D01*
X91175000Y-115927888D01*
X91175000Y-116579112D01*
X91170435Y-116625468D01*
X91158704Y-116664138D01*
X91139654Y-116699777D01*
X91114017Y-116731017D01*
X91082777Y-116756654D01*
X91047138Y-116775704D01*
X91008468Y-116787435D01*
X90962112Y-116792000D01*
X89885888Y-116792000D01*
X89839532Y-116787435D01*
X89800862Y-116775704D01*
X89765223Y-116756654D01*
X89733983Y-116731017D01*
X89708346Y-116699777D01*
X89689296Y-116664138D01*
X89677565Y-116625468D01*
X89673000Y-116579112D01*
X89673000Y-115927888D01*
X89677565Y-115881532D01*
X89689296Y-115842862D01*
X89708346Y-115807223D01*
X89733983Y-115775983D01*
X89765223Y-115750346D01*
X89800862Y-115731296D01*
X89839532Y-115719565D01*
X89885888Y-115715000D01*
X90962112Y-115715000D01*
X91008468Y-115719565D01*
X91008468Y-115719565D01*
G37*
G36*
X69672468Y-115622565D02*
G01*
X69711138Y-115634296D01*
X69746777Y-115653346D01*
X69778017Y-115678983D01*
X69803654Y-115710223D01*
X69822704Y-115745862D01*
X69834435Y-115784532D01*
X69839000Y-115830888D01*
X69839000Y-116482112D01*
X69834435Y-116528468D01*
X69822704Y-116567138D01*
X69803654Y-116602777D01*
X69778017Y-116634017D01*
X69746777Y-116659654D01*
X69711138Y-116678704D01*
X69672468Y-116690435D01*
X69626112Y-116695000D01*
X68549888Y-116695000D01*
X68503532Y-116690435D01*
X68464862Y-116678704D01*
X68429223Y-116659654D01*
X68397983Y-116634017D01*
X68372346Y-116602777D01*
X68353296Y-116567138D01*
X68341565Y-116528468D01*
X68337000Y-116482112D01*
X68337000Y-115830888D01*
X68341565Y-115784532D01*
X68353296Y-115745862D01*
X68372346Y-115710223D01*
X68397983Y-115678983D01*
X68429223Y-115653346D01*
X68464862Y-115634296D01*
X68503532Y-115622565D01*
X68549888Y-115618000D01*
X69626112Y-115618000D01*
X69672468Y-115622565D01*
X69672468Y-115622565D01*
G37*
G36*
X116734468Y-114673565D02*
G01*
X116773138Y-114685296D01*
X116808777Y-114704346D01*
X116840017Y-114729983D01*
X116865654Y-114761223D01*
X116884704Y-114796862D01*
X116896435Y-114835532D01*
X116901000Y-114881888D01*
X116901000Y-115958112D01*
X116896435Y-116004468D01*
X116884704Y-116043138D01*
X116865654Y-116078777D01*
X116840017Y-116110017D01*
X116808777Y-116135654D01*
X116773138Y-116154704D01*
X116734468Y-116166435D01*
X116688112Y-116171000D01*
X116036888Y-116171000D01*
X115990532Y-116166435D01*
X115951862Y-116154704D01*
X115916223Y-116135654D01*
X115884983Y-116110017D01*
X115859346Y-116078777D01*
X115840296Y-116043138D01*
X115828565Y-116004468D01*
X115824000Y-115958112D01*
X115824000Y-114881888D01*
X115828565Y-114835532D01*
X115840296Y-114796862D01*
X115859346Y-114761223D01*
X115884983Y-114729983D01*
X115916223Y-114704346D01*
X115951862Y-114685296D01*
X115990532Y-114673565D01*
X116036888Y-114669000D01*
X116688112Y-114669000D01*
X116734468Y-114673565D01*
X116734468Y-114673565D01*
G37*
G36*
X118609468Y-114673565D02*
G01*
X118648138Y-114685296D01*
X118683777Y-114704346D01*
X118715017Y-114729983D01*
X118740654Y-114761223D01*
X118759704Y-114796862D01*
X118771435Y-114835532D01*
X118776000Y-114881888D01*
X118776000Y-115958112D01*
X118771435Y-116004468D01*
X118759704Y-116043138D01*
X118740654Y-116078777D01*
X118715017Y-116110017D01*
X118683777Y-116135654D01*
X118648138Y-116154704D01*
X118609468Y-116166435D01*
X118563112Y-116171000D01*
X117911888Y-116171000D01*
X117865532Y-116166435D01*
X117826862Y-116154704D01*
X117791223Y-116135654D01*
X117759983Y-116110017D01*
X117734346Y-116078777D01*
X117715296Y-116043138D01*
X117703565Y-116004468D01*
X117699000Y-115958112D01*
X117699000Y-114881888D01*
X117703565Y-114835532D01*
X117715296Y-114796862D01*
X117734346Y-114761223D01*
X117759983Y-114729983D01*
X117791223Y-114704346D01*
X117826862Y-114685296D01*
X117865532Y-114673565D01*
X117911888Y-114669000D01*
X118563112Y-114669000D01*
X118609468Y-114673565D01*
X118609468Y-114673565D01*
G37*
G36*
X134648295Y-114549323D02*
G01*
X134655310Y-114551451D01*
X134661776Y-114554908D01*
X134667442Y-114559558D01*
X134672092Y-114565224D01*
X134675549Y-114571690D01*
X134677677Y-114578705D01*
X134678603Y-114588109D01*
X134683383Y-114612142D01*
X134692761Y-114634781D01*
X134706374Y-114655155D01*
X134723701Y-114672482D01*
X134744076Y-114686096D01*
X134766715Y-114695474D01*
X134790748Y-114700254D01*
X134815252Y-114700254D01*
X134839285Y-114695474D01*
X134861924Y-114686096D01*
X134882298Y-114672483D01*
X134899625Y-114655156D01*
X134913239Y-114634781D01*
X134922617Y-114612142D01*
X134927397Y-114588109D01*
X134928323Y-114578705D01*
X134930451Y-114571690D01*
X134933908Y-114565224D01*
X134938558Y-114559558D01*
X134944224Y-114554908D01*
X134950690Y-114551451D01*
X134957705Y-114549323D01*
X134971140Y-114548000D01*
X135284860Y-114548000D01*
X135298295Y-114549323D01*
X135305310Y-114551451D01*
X135311776Y-114554908D01*
X135317442Y-114559558D01*
X135322092Y-114565224D01*
X135325549Y-114571690D01*
X135327677Y-114578705D01*
X135328603Y-114588109D01*
X135333383Y-114612142D01*
X135342761Y-114634781D01*
X135356374Y-114655155D01*
X135373701Y-114672482D01*
X135394076Y-114686096D01*
X135416715Y-114695474D01*
X135440748Y-114700254D01*
X135465252Y-114700254D01*
X135489285Y-114695474D01*
X135511924Y-114686096D01*
X135532298Y-114672483D01*
X135549625Y-114655156D01*
X135563239Y-114634781D01*
X135572617Y-114612142D01*
X135577397Y-114588109D01*
X135578323Y-114578705D01*
X135580451Y-114571690D01*
X135583908Y-114565224D01*
X135588558Y-114559558D01*
X135594224Y-114554908D01*
X135600690Y-114551451D01*
X135607705Y-114549323D01*
X135621140Y-114548000D01*
X135934860Y-114548000D01*
X135948295Y-114549323D01*
X135955310Y-114551451D01*
X135961776Y-114554908D01*
X135967442Y-114559558D01*
X135972092Y-114565224D01*
X135975549Y-114571690D01*
X135977677Y-114578705D01*
X135979000Y-114592140D01*
X135979000Y-115255860D01*
X135977677Y-115269295D01*
X135975549Y-115276310D01*
X135972092Y-115282776D01*
X135967442Y-115288442D01*
X135961776Y-115293092D01*
X135955310Y-115296549D01*
X135948295Y-115298677D01*
X135934860Y-115300000D01*
X135621140Y-115300000D01*
X135607705Y-115298677D01*
X135600690Y-115296549D01*
X135594224Y-115293092D01*
X135588558Y-115288442D01*
X135583908Y-115282776D01*
X135580451Y-115276310D01*
X135578323Y-115269295D01*
X135577397Y-115259891D01*
X135572617Y-115235858D01*
X135563239Y-115213219D01*
X135549626Y-115192845D01*
X135532299Y-115175518D01*
X135511924Y-115161904D01*
X135489285Y-115152526D01*
X135465252Y-115147746D01*
X135440748Y-115147746D01*
X135416715Y-115152526D01*
X135394076Y-115161904D01*
X135373702Y-115175517D01*
X135356375Y-115192844D01*
X135342761Y-115213219D01*
X135333383Y-115235858D01*
X135328603Y-115259891D01*
X135327677Y-115269295D01*
X135325549Y-115276310D01*
X135322092Y-115282776D01*
X135317442Y-115288442D01*
X135311776Y-115293092D01*
X135305310Y-115296549D01*
X135298295Y-115298677D01*
X135284860Y-115300000D01*
X134971140Y-115300000D01*
X134957705Y-115298677D01*
X134950690Y-115296549D01*
X134944224Y-115293092D01*
X134938558Y-115288442D01*
X134933908Y-115282776D01*
X134930451Y-115276310D01*
X134928323Y-115269295D01*
X134927397Y-115259891D01*
X134922617Y-115235858D01*
X134913239Y-115213219D01*
X134899626Y-115192845D01*
X134882299Y-115175518D01*
X134861924Y-115161904D01*
X134839285Y-115152526D01*
X134815252Y-115147746D01*
X134790748Y-115147746D01*
X134766715Y-115152526D01*
X134744076Y-115161904D01*
X134723702Y-115175517D01*
X134706375Y-115192844D01*
X134692761Y-115213219D01*
X134683383Y-115235858D01*
X134678603Y-115259891D01*
X134677677Y-115269295D01*
X134675549Y-115276310D01*
X134672092Y-115282776D01*
X134667442Y-115288442D01*
X134661776Y-115293092D01*
X134655310Y-115296549D01*
X134648295Y-115298677D01*
X134634860Y-115300000D01*
X134321140Y-115300000D01*
X134307705Y-115298677D01*
X134300690Y-115296549D01*
X134294224Y-115293092D01*
X134288558Y-115288442D01*
X134283908Y-115282776D01*
X134280451Y-115276310D01*
X134278323Y-115269295D01*
X134277000Y-115255860D01*
X134277000Y-114592140D01*
X134278323Y-114578705D01*
X134280451Y-114571690D01*
X134283908Y-114565224D01*
X134288558Y-114559558D01*
X134294224Y-114554908D01*
X134300690Y-114551451D01*
X134307705Y-114549323D01*
X134321140Y-114548000D01*
X134634860Y-114548000D01*
X134648295Y-114549323D01*
X134648295Y-114549323D01*
G37*
G36*
X86245000Y-115201000D02*
G01*
X84443000Y-115201000D01*
X84443000Y-113399000D01*
X86245000Y-113399000D01*
X86245000Y-115201000D01*
X86245000Y-115201000D01*
G37*
G36*
X81913589Y-113538876D02*
G01*
X82012893Y-113558629D01*
X82153206Y-113616748D01*
X82279484Y-113701125D01*
X82386875Y-113808516D01*
X82471252Y-113934794D01*
X82529371Y-114075107D01*
X82559000Y-114224063D01*
X82559000Y-114375937D01*
X82529371Y-114524893D01*
X82471252Y-114665206D01*
X82386875Y-114791484D01*
X82279484Y-114898875D01*
X82153206Y-114983252D01*
X82012893Y-115041371D01*
X81913589Y-115061124D01*
X81863938Y-115071000D01*
X81712062Y-115071000D01*
X81662411Y-115061124D01*
X81563107Y-115041371D01*
X81422794Y-114983252D01*
X81296516Y-114898875D01*
X81189125Y-114791484D01*
X81104748Y-114665206D01*
X81046629Y-114524893D01*
X81017000Y-114375937D01*
X81017000Y-114224063D01*
X81046629Y-114075107D01*
X81104748Y-113934794D01*
X81189125Y-113808516D01*
X81296516Y-113701125D01*
X81422794Y-113616748D01*
X81563107Y-113558629D01*
X81662411Y-113538876D01*
X81712062Y-113529000D01*
X81863938Y-113529000D01*
X81913589Y-113538876D01*
X81913589Y-113538876D01*
G37*
G36*
X76833589Y-113538876D02*
G01*
X76932893Y-113558629D01*
X77073206Y-113616748D01*
X77199484Y-113701125D01*
X77306875Y-113808516D01*
X77391252Y-113934794D01*
X77449371Y-114075107D01*
X77479000Y-114224063D01*
X77479000Y-114375937D01*
X77449371Y-114524893D01*
X77391252Y-114665206D01*
X77306875Y-114791484D01*
X77199484Y-114898875D01*
X77073206Y-114983252D01*
X76932893Y-115041371D01*
X76833589Y-115061124D01*
X76783938Y-115071000D01*
X76632062Y-115071000D01*
X76582411Y-115061124D01*
X76483107Y-115041371D01*
X76342794Y-114983252D01*
X76216516Y-114898875D01*
X76109125Y-114791484D01*
X76024748Y-114665206D01*
X75966629Y-114524893D01*
X75937000Y-114375937D01*
X75937000Y-114224063D01*
X75966629Y-114075107D01*
X76024748Y-113934794D01*
X76109125Y-113808516D01*
X76216516Y-113701125D01*
X76342794Y-113616748D01*
X76483107Y-113558629D01*
X76582411Y-113538876D01*
X76632062Y-113529000D01*
X76783938Y-113529000D01*
X76833589Y-113538876D01*
X76833589Y-113538876D01*
G37*
G36*
X91008468Y-113844565D02*
G01*
X91047138Y-113856296D01*
X91082777Y-113875346D01*
X91114017Y-113900983D01*
X91139654Y-113932223D01*
X91158704Y-113967862D01*
X91170435Y-114006532D01*
X91175000Y-114052888D01*
X91175000Y-114704112D01*
X91170435Y-114750468D01*
X91158704Y-114789138D01*
X91139654Y-114824777D01*
X91114017Y-114856017D01*
X91082777Y-114881654D01*
X91047138Y-114900704D01*
X91008468Y-114912435D01*
X90962112Y-114917000D01*
X89885888Y-114917000D01*
X89839532Y-114912435D01*
X89800862Y-114900704D01*
X89765223Y-114881654D01*
X89733983Y-114856017D01*
X89708346Y-114824777D01*
X89689296Y-114789138D01*
X89677565Y-114750468D01*
X89673000Y-114704112D01*
X89673000Y-114052888D01*
X89677565Y-114006532D01*
X89689296Y-113967862D01*
X89708346Y-113932223D01*
X89733983Y-113900983D01*
X89765223Y-113875346D01*
X89800862Y-113856296D01*
X89839532Y-113844565D01*
X89885888Y-113840000D01*
X90962112Y-113840000D01*
X91008468Y-113844565D01*
X91008468Y-113844565D01*
G37*
G36*
X79373090Y-110998777D02*
G01*
X79472893Y-111018629D01*
X79613206Y-111076748D01*
X79739484Y-111161125D01*
X79846875Y-111268516D01*
X79931252Y-111394794D01*
X79989371Y-111535107D01*
X80003316Y-111605212D01*
X80019000Y-111684062D01*
X80019000Y-111835938D01*
X80010944Y-111876438D01*
X79989371Y-111984893D01*
X79931252Y-112125206D01*
X79846875Y-112251484D01*
X79739484Y-112358875D01*
X79613206Y-112443252D01*
X79472893Y-112501371D01*
X79373589Y-112521124D01*
X79323938Y-112531000D01*
X79172062Y-112531000D01*
X79122411Y-112521124D01*
X79023107Y-112501371D01*
X78882794Y-112443252D01*
X78756516Y-112358875D01*
X78649125Y-112251484D01*
X78564748Y-112125206D01*
X78506629Y-111984893D01*
X78485056Y-111876438D01*
X78477000Y-111835938D01*
X78477000Y-111684062D01*
X78492684Y-111605212D01*
X78506629Y-111535107D01*
X78564748Y-111394794D01*
X78649125Y-111268516D01*
X78756516Y-111161125D01*
X78882794Y-111076748D01*
X79023107Y-111018629D01*
X79122910Y-110998777D01*
X79172062Y-110989000D01*
X79323938Y-110989000D01*
X79373090Y-110998777D01*
X79373090Y-110998777D01*
G37*
G36*
X126544468Y-111443565D02*
G01*
X126583138Y-111455296D01*
X126618777Y-111474346D01*
X126650017Y-111499983D01*
X126675654Y-111531223D01*
X126694704Y-111566862D01*
X126706435Y-111605532D01*
X126711000Y-111651888D01*
X126711000Y-112303112D01*
X126706435Y-112349468D01*
X126694704Y-112388138D01*
X126675654Y-112423777D01*
X126650017Y-112455017D01*
X126618777Y-112480654D01*
X126583138Y-112499704D01*
X126544468Y-112511435D01*
X126498112Y-112516000D01*
X125421888Y-112516000D01*
X125375532Y-112511435D01*
X125336862Y-112499704D01*
X125301223Y-112480654D01*
X125269983Y-112455017D01*
X125244346Y-112423777D01*
X125225296Y-112388138D01*
X125213565Y-112349468D01*
X125209000Y-112303112D01*
X125209000Y-111651888D01*
X125213565Y-111605532D01*
X125225296Y-111566862D01*
X125244346Y-111531223D01*
X125269983Y-111499983D01*
X125301223Y-111474346D01*
X125336862Y-111455296D01*
X125375532Y-111443565D01*
X125421888Y-111439000D01*
X126498112Y-111439000D01*
X126544468Y-111443565D01*
X126544468Y-111443565D01*
G37*
G36*
X124544468Y-111443565D02*
G01*
X124583138Y-111455296D01*
X124618777Y-111474346D01*
X124650017Y-111499983D01*
X124675654Y-111531223D01*
X124694704Y-111566862D01*
X124706435Y-111605532D01*
X124711000Y-111651888D01*
X124711000Y-112303112D01*
X124706435Y-112349468D01*
X124694704Y-112388138D01*
X124675654Y-112423777D01*
X124650017Y-112455017D01*
X124618777Y-112480654D01*
X124583138Y-112499704D01*
X124544468Y-112511435D01*
X124498112Y-112516000D01*
X123421888Y-112516000D01*
X123375532Y-112511435D01*
X123336862Y-112499704D01*
X123301223Y-112480654D01*
X123269983Y-112455017D01*
X123244346Y-112423777D01*
X123225296Y-112388138D01*
X123213565Y-112349468D01*
X123209000Y-112303112D01*
X123209000Y-111651888D01*
X123213565Y-111605532D01*
X123225296Y-111566862D01*
X123244346Y-111531223D01*
X123269983Y-111499983D01*
X123301223Y-111474346D01*
X123336862Y-111455296D01*
X123375532Y-111443565D01*
X123421888Y-111439000D01*
X124498112Y-111439000D01*
X124544468Y-111443565D01*
X124544468Y-111443565D01*
G37*
G36*
X134586170Y-109494803D02*
G01*
X134597875Y-109498354D01*
X134608665Y-109504121D01*
X134618119Y-109511881D01*
X134625879Y-109521335D01*
X134631648Y-109532129D01*
X134637442Y-109551227D01*
X134646820Y-109573866D01*
X134660434Y-109594240D01*
X134677761Y-109611566D01*
X134698136Y-109625179D01*
X134720775Y-109634556D01*
X134744809Y-109639335D01*
X134769313Y-109639335D01*
X134793346Y-109634553D01*
X134815985Y-109625175D01*
X134836359Y-109611561D01*
X134853685Y-109594234D01*
X134865570Y-109576445D01*
X134889403Y-109547403D01*
X134917239Y-109524560D01*
X134948990Y-109507589D01*
X134983454Y-109497134D01*
X135025425Y-109493000D01*
X136246575Y-109493000D01*
X136288546Y-109497134D01*
X136323010Y-109507589D01*
X136354761Y-109524560D01*
X136382597Y-109547403D01*
X136406430Y-109576445D01*
X136418316Y-109594235D01*
X136435643Y-109611562D01*
X136456017Y-109625176D01*
X136478655Y-109634554D01*
X136502689Y-109639335D01*
X136527193Y-109639335D01*
X136551226Y-109634555D01*
X136573865Y-109625178D01*
X136594240Y-109611565D01*
X136611567Y-109594238D01*
X136625181Y-109573864D01*
X136634558Y-109551227D01*
X136640352Y-109532129D01*
X136646121Y-109521335D01*
X136653881Y-109511881D01*
X136663335Y-109504121D01*
X136674125Y-109498354D01*
X136685830Y-109494803D01*
X136704138Y-109493000D01*
X137467862Y-109493000D01*
X137486170Y-109494803D01*
X137497875Y-109498354D01*
X137508665Y-109504121D01*
X137518119Y-109511881D01*
X137525879Y-109521335D01*
X137531646Y-109532125D01*
X137535197Y-109543830D01*
X137537000Y-109562138D01*
X137537000Y-109925862D01*
X137535197Y-109944170D01*
X137531646Y-109955875D01*
X137525879Y-109966665D01*
X137518119Y-109976119D01*
X137508665Y-109983879D01*
X137497875Y-109989646D01*
X137486170Y-109993197D01*
X137467862Y-109995000D01*
X136704138Y-109995000D01*
X136685830Y-109993197D01*
X136674125Y-109989646D01*
X136663335Y-109983879D01*
X136648096Y-109971372D01*
X136641298Y-109964574D01*
X136620924Y-109950960D01*
X136598285Y-109941583D01*
X136574252Y-109936802D01*
X136549748Y-109936802D01*
X136525715Y-109941582D01*
X136503076Y-109950959D01*
X136482701Y-109964573D01*
X136465374Y-109981900D01*
X136451760Y-110002274D01*
X136442383Y-110024913D01*
X136437602Y-110048946D01*
X136437000Y-110061199D01*
X136437000Y-110426801D01*
X136439402Y-110451187D01*
X136446515Y-110474636D01*
X136458066Y-110496247D01*
X136473611Y-110515189D01*
X136492553Y-110530734D01*
X136514164Y-110542285D01*
X136537613Y-110549398D01*
X136561999Y-110551800D01*
X136586385Y-110549398D01*
X136609834Y-110542285D01*
X136631445Y-110530734D01*
X136650387Y-110515189D01*
X136651948Y-110513467D01*
X136663335Y-110504121D01*
X136674125Y-110498354D01*
X136685830Y-110494803D01*
X136704138Y-110493000D01*
X137467862Y-110493000D01*
X137486170Y-110494803D01*
X137497875Y-110498354D01*
X137508665Y-110504121D01*
X137518119Y-110511881D01*
X137525879Y-110521335D01*
X137531646Y-110532125D01*
X137535197Y-110543830D01*
X137537000Y-110562138D01*
X137537000Y-110925862D01*
X137535197Y-110944170D01*
X137531646Y-110955875D01*
X137525879Y-110966665D01*
X137518119Y-110976119D01*
X137508665Y-110983879D01*
X137497875Y-110989646D01*
X137486170Y-110993197D01*
X137467862Y-110995000D01*
X136704138Y-110995000D01*
X136685830Y-110993197D01*
X136674125Y-110989646D01*
X136663335Y-110983879D01*
X136648096Y-110971372D01*
X136641298Y-110964574D01*
X136620924Y-110950960D01*
X136598285Y-110941583D01*
X136574252Y-110936802D01*
X136549748Y-110936802D01*
X136525715Y-110941582D01*
X136503076Y-110950959D01*
X136482701Y-110964573D01*
X136465374Y-110981900D01*
X136451760Y-111002274D01*
X136442383Y-111024913D01*
X136437602Y-111048946D01*
X136437000Y-111061199D01*
X136437000Y-111426801D01*
X136439402Y-111451187D01*
X136446515Y-111474636D01*
X136458066Y-111496247D01*
X136473611Y-111515189D01*
X136492553Y-111530734D01*
X136514164Y-111542285D01*
X136537613Y-111549398D01*
X136561999Y-111551800D01*
X136586385Y-111549398D01*
X136609834Y-111542285D01*
X136631445Y-111530734D01*
X136650387Y-111515189D01*
X136651948Y-111513467D01*
X136663335Y-111504121D01*
X136674125Y-111498354D01*
X136685830Y-111494803D01*
X136704138Y-111493000D01*
X137467862Y-111493000D01*
X137486170Y-111494803D01*
X137497875Y-111498354D01*
X137508665Y-111504121D01*
X137518119Y-111511881D01*
X137525879Y-111521335D01*
X137531646Y-111532125D01*
X137535197Y-111543830D01*
X137537000Y-111562138D01*
X137537000Y-111925862D01*
X137535197Y-111944170D01*
X137531646Y-111955875D01*
X137525879Y-111966665D01*
X137518119Y-111976119D01*
X137508665Y-111983879D01*
X137497875Y-111989646D01*
X137486170Y-111993197D01*
X137467862Y-111995000D01*
X136704138Y-111995000D01*
X136685830Y-111993197D01*
X136674125Y-111989646D01*
X136663335Y-111983879D01*
X136653881Y-111976119D01*
X136646121Y-111966665D01*
X136640352Y-111955871D01*
X136634558Y-111936773D01*
X136625180Y-111914134D01*
X136611566Y-111893760D01*
X136594239Y-111876434D01*
X136573864Y-111862821D01*
X136551225Y-111853444D01*
X136527191Y-111848665D01*
X136502687Y-111848665D01*
X136478654Y-111853447D01*
X136456015Y-111862825D01*
X136435641Y-111876439D01*
X136418315Y-111893766D01*
X136406430Y-111911555D01*
X136382597Y-111940597D01*
X136354761Y-111963440D01*
X136323010Y-111980411D01*
X136288546Y-111990866D01*
X136246575Y-111995000D01*
X135025425Y-111995000D01*
X134983454Y-111990866D01*
X134948990Y-111980411D01*
X134917239Y-111963440D01*
X134889403Y-111940597D01*
X134865570Y-111911555D01*
X134853684Y-111893765D01*
X134836357Y-111876438D01*
X134815983Y-111862824D01*
X134793345Y-111853446D01*
X134769311Y-111848665D01*
X134744807Y-111848665D01*
X134720774Y-111853445D01*
X134698135Y-111862822D01*
X134677760Y-111876435D01*
X134660433Y-111893762D01*
X134646819Y-111914136D01*
X134637442Y-111936773D01*
X134631648Y-111955871D01*
X134625879Y-111966665D01*
X134618119Y-111976119D01*
X134608665Y-111983879D01*
X134597875Y-111989646D01*
X134586170Y-111993197D01*
X134567862Y-111995000D01*
X133804138Y-111995000D01*
X133785830Y-111993197D01*
X133774125Y-111989646D01*
X133763335Y-111983879D01*
X133753881Y-111976119D01*
X133746121Y-111966665D01*
X133740354Y-111955875D01*
X133736803Y-111944170D01*
X133735000Y-111925862D01*
X133735000Y-111562138D01*
X133736803Y-111543830D01*
X133740354Y-111532125D01*
X133746121Y-111521335D01*
X133753881Y-111511881D01*
X133763335Y-111504121D01*
X133774125Y-111498354D01*
X133785830Y-111494803D01*
X133804138Y-111493000D01*
X134567862Y-111493000D01*
X134586170Y-111494803D01*
X134597875Y-111498354D01*
X134608665Y-111504121D01*
X134623904Y-111516628D01*
X134630702Y-111523426D01*
X134651076Y-111537040D01*
X134673715Y-111546417D01*
X134697748Y-111551198D01*
X134722252Y-111551198D01*
X134746285Y-111546418D01*
X134768924Y-111537041D01*
X134789299Y-111523427D01*
X134806626Y-111506100D01*
X134820240Y-111485726D01*
X134829617Y-111463087D01*
X134834398Y-111439054D01*
X134835000Y-111426801D01*
X134835000Y-111061199D01*
X134832598Y-111036813D01*
X134825485Y-111013364D01*
X134813934Y-110991753D01*
X134798389Y-110972811D01*
X134779447Y-110957266D01*
X134757836Y-110945715D01*
X134734387Y-110938602D01*
X134710001Y-110936200D01*
X134685615Y-110938602D01*
X134662166Y-110945715D01*
X134640555Y-110957266D01*
X134621613Y-110972811D01*
X134620052Y-110974533D01*
X134608665Y-110983879D01*
X134597875Y-110989646D01*
X134586170Y-110993197D01*
X134567862Y-110995000D01*
X133804138Y-110995000D01*
X133785830Y-110993197D01*
X133774125Y-110989646D01*
X133763335Y-110983879D01*
X133753881Y-110976119D01*
X133746121Y-110966665D01*
X133740354Y-110955875D01*
X133736803Y-110944170D01*
X133735000Y-110925862D01*
X133735000Y-110562138D01*
X133736803Y-110543830D01*
X133740354Y-110532125D01*
X133746121Y-110521335D01*
X133753881Y-110511881D01*
X133763335Y-110504121D01*
X133774125Y-110498354D01*
X133785830Y-110494803D01*
X133804138Y-110493000D01*
X134567862Y-110493000D01*
X134586170Y-110494803D01*
X134597875Y-110498354D01*
X134608665Y-110504121D01*
X134623904Y-110516628D01*
X134630702Y-110523426D01*
X134651076Y-110537040D01*
X134673715Y-110546417D01*
X134697748Y-110551198D01*
X134722252Y-110551198D01*
X134746285Y-110546418D01*
X134768924Y-110537041D01*
X134789299Y-110523427D01*
X134806626Y-110506100D01*
X134820240Y-110485726D01*
X134829617Y-110463087D01*
X134834398Y-110439054D01*
X134835000Y-110426801D01*
X134835000Y-110061199D01*
X134832598Y-110036813D01*
X134825485Y-110013364D01*
X134813934Y-109991753D01*
X134798389Y-109972811D01*
X134779447Y-109957266D01*
X134757836Y-109945715D01*
X134734387Y-109938602D01*
X134710001Y-109936200D01*
X134685615Y-109938602D01*
X134662166Y-109945715D01*
X134640555Y-109957266D01*
X134621613Y-109972811D01*
X134620052Y-109974533D01*
X134608665Y-109983879D01*
X134597875Y-109989646D01*
X134586170Y-109993197D01*
X134567862Y-109995000D01*
X133804138Y-109995000D01*
X133785830Y-109993197D01*
X133774125Y-109989646D01*
X133763335Y-109983879D01*
X133753881Y-109976119D01*
X133746121Y-109966665D01*
X133740354Y-109955875D01*
X133736803Y-109944170D01*
X133735000Y-109925862D01*
X133735000Y-109562138D01*
X133736803Y-109543830D01*
X133740354Y-109532125D01*
X133746121Y-109521335D01*
X133753881Y-109511881D01*
X133763335Y-109504121D01*
X133774125Y-109498354D01*
X133785830Y-109494803D01*
X133804138Y-109493000D01*
X134567862Y-109493000D01*
X134586170Y-109494803D01*
X134586170Y-109494803D01*
G37*
G36*
X88794468Y-109593565D02*
G01*
X88833138Y-109605296D01*
X88868777Y-109624346D01*
X88900017Y-109649983D01*
X88925654Y-109681223D01*
X88944704Y-109716862D01*
X88956435Y-109755532D01*
X88961000Y-109801888D01*
X88961000Y-110878112D01*
X88956435Y-110924468D01*
X88944704Y-110963138D01*
X88925654Y-110998777D01*
X88900017Y-111030017D01*
X88868777Y-111055654D01*
X88833138Y-111074704D01*
X88794468Y-111086435D01*
X88748112Y-111091000D01*
X88096888Y-111091000D01*
X88050532Y-111086435D01*
X88011862Y-111074704D01*
X87976223Y-111055654D01*
X87944983Y-111030017D01*
X87919346Y-110998777D01*
X87900296Y-110963138D01*
X87888565Y-110924468D01*
X87884000Y-110878112D01*
X87884000Y-109801888D01*
X87888565Y-109755532D01*
X87900296Y-109716862D01*
X87919346Y-109681223D01*
X87944983Y-109649983D01*
X87976223Y-109624346D01*
X88011862Y-109605296D01*
X88050532Y-109593565D01*
X88096888Y-109589000D01*
X88748112Y-109589000D01*
X88794468Y-109593565D01*
X88794468Y-109593565D01*
G37*
G36*
X90669468Y-109593565D02*
G01*
X90708138Y-109605296D01*
X90743777Y-109624346D01*
X90775017Y-109649983D01*
X90800654Y-109681223D01*
X90819704Y-109716862D01*
X90831435Y-109755532D01*
X90836000Y-109801888D01*
X90836000Y-110878112D01*
X90831435Y-110924468D01*
X90819704Y-110963138D01*
X90800654Y-110998777D01*
X90775017Y-111030017D01*
X90743777Y-111055654D01*
X90708138Y-111074704D01*
X90669468Y-111086435D01*
X90623112Y-111091000D01*
X89971888Y-111091000D01*
X89925532Y-111086435D01*
X89886862Y-111074704D01*
X89851223Y-111055654D01*
X89819983Y-111030017D01*
X89794346Y-110998777D01*
X89775296Y-110963138D01*
X89763565Y-110924468D01*
X89759000Y-110878112D01*
X89759000Y-109801888D01*
X89763565Y-109755532D01*
X89775296Y-109716862D01*
X89794346Y-109681223D01*
X89819983Y-109649983D01*
X89851223Y-109624346D01*
X89886862Y-109605296D01*
X89925532Y-109593565D01*
X89971888Y-109589000D01*
X90623112Y-109589000D01*
X90669468Y-109593565D01*
X90669468Y-109593565D01*
G37*
G36*
X118769468Y-109285565D02*
G01*
X118808138Y-109297296D01*
X118843777Y-109316346D01*
X118875017Y-109341983D01*
X118900654Y-109373223D01*
X118919704Y-109408862D01*
X118931435Y-109447532D01*
X118936000Y-109493888D01*
X118936000Y-110570112D01*
X118931435Y-110616468D01*
X118919704Y-110655138D01*
X118900654Y-110690777D01*
X118875017Y-110722017D01*
X118843777Y-110747654D01*
X118808138Y-110766704D01*
X118769468Y-110778435D01*
X118723112Y-110783000D01*
X118071888Y-110783000D01*
X118025532Y-110778435D01*
X117986862Y-110766704D01*
X117951223Y-110747654D01*
X117919983Y-110722017D01*
X117894346Y-110690777D01*
X117875296Y-110655138D01*
X117863565Y-110616468D01*
X117859000Y-110570112D01*
X117859000Y-109493888D01*
X117863565Y-109447532D01*
X117875296Y-109408862D01*
X117894346Y-109373223D01*
X117919983Y-109341983D01*
X117951223Y-109316346D01*
X117986862Y-109297296D01*
X118025532Y-109285565D01*
X118071888Y-109281000D01*
X118723112Y-109281000D01*
X118769468Y-109285565D01*
X118769468Y-109285565D01*
G37*
G36*
X116894468Y-109285565D02*
G01*
X116933138Y-109297296D01*
X116968777Y-109316346D01*
X117000017Y-109341983D01*
X117025654Y-109373223D01*
X117044704Y-109408862D01*
X117056435Y-109447532D01*
X117061000Y-109493888D01*
X117061000Y-110570112D01*
X117056435Y-110616468D01*
X117044704Y-110655138D01*
X117025654Y-110690777D01*
X117000017Y-110722017D01*
X116968777Y-110747654D01*
X116933138Y-110766704D01*
X116894468Y-110778435D01*
X116848112Y-110783000D01*
X116196888Y-110783000D01*
X116150532Y-110778435D01*
X116111862Y-110766704D01*
X116076223Y-110747654D01*
X116044983Y-110722017D01*
X116019346Y-110690777D01*
X116000296Y-110655138D01*
X115988565Y-110616468D01*
X115984000Y-110570112D01*
X115984000Y-109493888D01*
X115988565Y-109447532D01*
X116000296Y-109408862D01*
X116019346Y-109373223D01*
X116044983Y-109341983D01*
X116076223Y-109316346D01*
X116111862Y-109297296D01*
X116150532Y-109285565D01*
X116196888Y-109281000D01*
X116848112Y-109281000D01*
X116894468Y-109285565D01*
X116894468Y-109285565D01*
G37*
G36*
X124544468Y-109568565D02*
G01*
X124583138Y-109580296D01*
X124618777Y-109599346D01*
X124650017Y-109624983D01*
X124675654Y-109656223D01*
X124694704Y-109691862D01*
X124706435Y-109730532D01*
X124711000Y-109776888D01*
X124711000Y-110428112D01*
X124706435Y-110474468D01*
X124694704Y-110513138D01*
X124675654Y-110548777D01*
X124650017Y-110580017D01*
X124618777Y-110605654D01*
X124583138Y-110624704D01*
X124544468Y-110636435D01*
X124498112Y-110641000D01*
X123421888Y-110641000D01*
X123375532Y-110636435D01*
X123336862Y-110624704D01*
X123301223Y-110605654D01*
X123269983Y-110580017D01*
X123244346Y-110548777D01*
X123225296Y-110513138D01*
X123213565Y-110474468D01*
X123209000Y-110428112D01*
X123209000Y-109776888D01*
X123213565Y-109730532D01*
X123225296Y-109691862D01*
X123244346Y-109656223D01*
X123269983Y-109624983D01*
X123301223Y-109599346D01*
X123336862Y-109580296D01*
X123375532Y-109568565D01*
X123421888Y-109564000D01*
X124498112Y-109564000D01*
X124544468Y-109568565D01*
X124544468Y-109568565D01*
G37*
G36*
X126544468Y-109568565D02*
G01*
X126583138Y-109580296D01*
X126618777Y-109599346D01*
X126650017Y-109624983D01*
X126675654Y-109656223D01*
X126694704Y-109691862D01*
X126706435Y-109730532D01*
X126711000Y-109776888D01*
X126711000Y-110428112D01*
X126706435Y-110474468D01*
X126694704Y-110513138D01*
X126675654Y-110548777D01*
X126650017Y-110580017D01*
X126618777Y-110605654D01*
X126583138Y-110624704D01*
X126544468Y-110636435D01*
X126498112Y-110641000D01*
X125421888Y-110641000D01*
X125375532Y-110636435D01*
X125336862Y-110624704D01*
X125301223Y-110605654D01*
X125269983Y-110580017D01*
X125244346Y-110548777D01*
X125225296Y-110513138D01*
X125213565Y-110474468D01*
X125209000Y-110428112D01*
X125209000Y-109776888D01*
X125213565Y-109730532D01*
X125225296Y-109691862D01*
X125244346Y-109656223D01*
X125269983Y-109624983D01*
X125301223Y-109599346D01*
X125336862Y-109580296D01*
X125375532Y-109568565D01*
X125421888Y-109564000D01*
X126498112Y-109564000D01*
X126544468Y-109568565D01*
X126544468Y-109568565D01*
G37*
G36*
X116894468Y-107285565D02*
G01*
X116933138Y-107297296D01*
X116968777Y-107316346D01*
X117000017Y-107341983D01*
X117025654Y-107373223D01*
X117044704Y-107408862D01*
X117056435Y-107447532D01*
X117061000Y-107493888D01*
X117061000Y-108570112D01*
X117056435Y-108616468D01*
X117044704Y-108655138D01*
X117025654Y-108690777D01*
X117000017Y-108722017D01*
X116968777Y-108747654D01*
X116933138Y-108766704D01*
X116894468Y-108778435D01*
X116848112Y-108783000D01*
X116196888Y-108783000D01*
X116150532Y-108778435D01*
X116111862Y-108766704D01*
X116076223Y-108747654D01*
X116044983Y-108722017D01*
X116019346Y-108690777D01*
X116000296Y-108655138D01*
X115988565Y-108616468D01*
X115984000Y-108570112D01*
X115984000Y-107493888D01*
X115988565Y-107447532D01*
X116000296Y-107408862D01*
X116019346Y-107373223D01*
X116044983Y-107341983D01*
X116076223Y-107316346D01*
X116111862Y-107297296D01*
X116150532Y-107285565D01*
X116196888Y-107281000D01*
X116848112Y-107281000D01*
X116894468Y-107285565D01*
X116894468Y-107285565D01*
G37*
G36*
X118769468Y-107285565D02*
G01*
X118808138Y-107297296D01*
X118843777Y-107316346D01*
X118875017Y-107341983D01*
X118900654Y-107373223D01*
X118919704Y-107408862D01*
X118931435Y-107447532D01*
X118936000Y-107493888D01*
X118936000Y-108570112D01*
X118931435Y-108616468D01*
X118919704Y-108655138D01*
X118900654Y-108690777D01*
X118875017Y-108722017D01*
X118843777Y-108747654D01*
X118808138Y-108766704D01*
X118769468Y-108778435D01*
X118723112Y-108783000D01*
X118071888Y-108783000D01*
X118025532Y-108778435D01*
X117986862Y-108766704D01*
X117951223Y-108747654D01*
X117919983Y-108722017D01*
X117894346Y-108690777D01*
X117875296Y-108655138D01*
X117863565Y-108616468D01*
X117859000Y-108570112D01*
X117859000Y-107493888D01*
X117863565Y-107447532D01*
X117875296Y-107408862D01*
X117894346Y-107373223D01*
X117919983Y-107341983D01*
X117951223Y-107316346D01*
X117986862Y-107297296D01*
X118025532Y-107285565D01*
X118071888Y-107281000D01*
X118723112Y-107281000D01*
X118769468Y-107285565D01*
X118769468Y-107285565D01*
G37*
G36*
X133546468Y-106949565D02*
G01*
X133585138Y-106961296D01*
X133620777Y-106980346D01*
X133652017Y-107005983D01*
X133677654Y-107037223D01*
X133696704Y-107072862D01*
X133708435Y-107111532D01*
X133713000Y-107157888D01*
X133713000Y-108234112D01*
X133708435Y-108280468D01*
X133696704Y-108319138D01*
X133677654Y-108354777D01*
X133652017Y-108386017D01*
X133620777Y-108411654D01*
X133585138Y-108430704D01*
X133546468Y-108442435D01*
X133500112Y-108447000D01*
X132848888Y-108447000D01*
X132802532Y-108442435D01*
X132763862Y-108430704D01*
X132728223Y-108411654D01*
X132696983Y-108386017D01*
X132671346Y-108354777D01*
X132652296Y-108319138D01*
X132640565Y-108280468D01*
X132636000Y-108234112D01*
X132636000Y-107157888D01*
X132640565Y-107111532D01*
X132652296Y-107072862D01*
X132671346Y-107037223D01*
X132696983Y-107005983D01*
X132728223Y-106980346D01*
X132763862Y-106961296D01*
X132802532Y-106949565D01*
X132848888Y-106945000D01*
X133500112Y-106945000D01*
X133546468Y-106949565D01*
X133546468Y-106949565D01*
G37*
G36*
X135421468Y-106949565D02*
G01*
X135460138Y-106961296D01*
X135495777Y-106980346D01*
X135527017Y-107005983D01*
X135552654Y-107037223D01*
X135571704Y-107072862D01*
X135583435Y-107111532D01*
X135588000Y-107157888D01*
X135588000Y-108234112D01*
X135583435Y-108280468D01*
X135571704Y-108319138D01*
X135552654Y-108354777D01*
X135527017Y-108386017D01*
X135495777Y-108411654D01*
X135460138Y-108430704D01*
X135421468Y-108442435D01*
X135375112Y-108447000D01*
X134723888Y-108447000D01*
X134677532Y-108442435D01*
X134638862Y-108430704D01*
X134603223Y-108411654D01*
X134571983Y-108386017D01*
X134546346Y-108354777D01*
X134527296Y-108319138D01*
X134515565Y-108280468D01*
X134511000Y-108234112D01*
X134511000Y-107157888D01*
X134515565Y-107111532D01*
X134527296Y-107072862D01*
X134546346Y-107037223D01*
X134571983Y-107005983D01*
X134603223Y-106980346D01*
X134638862Y-106961296D01*
X134677532Y-106949565D01*
X134723888Y-106945000D01*
X135375112Y-106945000D01*
X135421468Y-106949565D01*
X135421468Y-106949565D01*
G37*
G36*
X112281000Y-108086000D02*
G01*
X94379000Y-108086000D01*
X94379000Y-106434000D01*
X112281000Y-106434000D01*
X112281000Y-108086000D01*
X112281000Y-108086000D01*
G37*
G36*
X90744000Y-107570000D02*
G01*
X89142000Y-107570000D01*
X89142000Y-106868000D01*
X90744000Y-106868000D01*
X90744000Y-107570000D01*
X90744000Y-107570000D01*
G37*
G36*
X85344000Y-107570000D02*
G01*
X83742000Y-107570000D01*
X83742000Y-106868000D01*
X85344000Y-106868000D01*
X85344000Y-107570000D01*
X85344000Y-107570000D01*
G37*
G36*
X90744000Y-106300000D02*
G01*
X89142000Y-106300000D01*
X89142000Y-105598000D01*
X90744000Y-105598000D01*
X90744000Y-106300000D01*
X90744000Y-106300000D01*
G37*
G36*
X85344000Y-106300000D02*
G01*
X83742000Y-106300000D01*
X83742000Y-105598000D01*
X85344000Y-105598000D01*
X85344000Y-106300000D01*
X85344000Y-106300000D01*
G37*
G36*
X92144468Y-104028565D02*
G01*
X92183138Y-104040296D01*
X92218777Y-104059346D01*
X92250017Y-104084983D01*
X92275654Y-104116223D01*
X92294704Y-104151862D01*
X92306435Y-104190532D01*
X92311000Y-104236888D01*
X92311000Y-105313112D01*
X92306435Y-105359468D01*
X92294704Y-105398138D01*
X92275654Y-105433777D01*
X92250017Y-105465017D01*
X92218777Y-105490654D01*
X92183138Y-105509704D01*
X92144468Y-105521435D01*
X92098112Y-105526000D01*
X91446888Y-105526000D01*
X91400532Y-105521435D01*
X91361862Y-105509704D01*
X91326223Y-105490654D01*
X91294983Y-105465017D01*
X91269346Y-105433777D01*
X91250296Y-105398138D01*
X91238565Y-105359468D01*
X91234000Y-105313112D01*
X91234000Y-104236888D01*
X91238565Y-104190532D01*
X91250296Y-104151862D01*
X91269346Y-104116223D01*
X91294983Y-104084983D01*
X91326223Y-104059346D01*
X91361862Y-104040296D01*
X91400532Y-104028565D01*
X91446888Y-104024000D01*
X92098112Y-104024000D01*
X92144468Y-104028565D01*
X92144468Y-104028565D01*
G37*
G36*
X94019468Y-104028565D02*
G01*
X94058138Y-104040296D01*
X94093777Y-104059346D01*
X94125017Y-104084983D01*
X94150654Y-104116223D01*
X94169704Y-104151862D01*
X94181435Y-104190532D01*
X94186000Y-104236888D01*
X94186000Y-105313112D01*
X94181435Y-105359468D01*
X94169704Y-105398138D01*
X94150654Y-105433777D01*
X94125017Y-105465017D01*
X94093777Y-105490654D01*
X94058138Y-105509704D01*
X94019468Y-105521435D01*
X93973112Y-105526000D01*
X93321888Y-105526000D01*
X93275532Y-105521435D01*
X93236862Y-105509704D01*
X93201223Y-105490654D01*
X93169983Y-105465017D01*
X93144346Y-105433777D01*
X93125296Y-105398138D01*
X93113565Y-105359468D01*
X93109000Y-105313112D01*
X93109000Y-104236888D01*
X93113565Y-104190532D01*
X93125296Y-104151862D01*
X93144346Y-104116223D01*
X93169983Y-104084983D01*
X93201223Y-104059346D01*
X93236862Y-104040296D01*
X93275532Y-104028565D01*
X93321888Y-104024000D01*
X93973112Y-104024000D01*
X94019468Y-104028565D01*
X94019468Y-104028565D01*
G37*
G36*
X96544468Y-104443565D02*
G01*
X96583138Y-104455296D01*
X96618777Y-104474346D01*
X96650017Y-104499983D01*
X96675654Y-104531223D01*
X96694704Y-104566862D01*
X96706435Y-104605532D01*
X96711000Y-104651888D01*
X96711000Y-105303112D01*
X96706435Y-105349468D01*
X96694704Y-105388138D01*
X96675654Y-105423777D01*
X96650017Y-105455017D01*
X96618777Y-105480654D01*
X96583138Y-105499704D01*
X96544468Y-105511435D01*
X96498112Y-105516000D01*
X95421888Y-105516000D01*
X95375532Y-105511435D01*
X95336862Y-105499704D01*
X95301223Y-105480654D01*
X95269983Y-105455017D01*
X95244346Y-105423777D01*
X95225296Y-105388138D01*
X95213565Y-105349468D01*
X95209000Y-105303112D01*
X95209000Y-104651888D01*
X95213565Y-104605532D01*
X95225296Y-104566862D01*
X95244346Y-104531223D01*
X95269983Y-104499983D01*
X95301223Y-104474346D01*
X95336862Y-104455296D01*
X95375532Y-104443565D01*
X95421888Y-104439000D01*
X96498112Y-104439000D01*
X96544468Y-104443565D01*
X96544468Y-104443565D01*
G37*
G36*
X99136468Y-104443565D02*
G01*
X99175138Y-104455296D01*
X99210777Y-104474346D01*
X99242017Y-104499983D01*
X99267654Y-104531223D01*
X99286704Y-104566862D01*
X99298435Y-104605532D01*
X99303000Y-104651888D01*
X99303000Y-105303112D01*
X99298435Y-105349468D01*
X99286704Y-105388138D01*
X99267654Y-105423777D01*
X99242017Y-105455017D01*
X99210777Y-105480654D01*
X99175138Y-105499704D01*
X99136468Y-105511435D01*
X99090112Y-105516000D01*
X98013888Y-105516000D01*
X97967532Y-105511435D01*
X97928862Y-105499704D01*
X97893223Y-105480654D01*
X97861983Y-105455017D01*
X97836346Y-105423777D01*
X97817296Y-105388138D01*
X97805565Y-105349468D01*
X97801000Y-105303112D01*
X97801000Y-104651888D01*
X97805565Y-104605532D01*
X97817296Y-104566862D01*
X97836346Y-104531223D01*
X97861983Y-104499983D01*
X97893223Y-104474346D01*
X97928862Y-104455296D01*
X97967532Y-104443565D01*
X98013888Y-104439000D01*
X99090112Y-104439000D01*
X99136468Y-104443565D01*
X99136468Y-104443565D01*
G37*
G36*
X110264468Y-104393565D02*
G01*
X110303138Y-104405296D01*
X110338777Y-104424346D01*
X110370017Y-104449983D01*
X110395654Y-104481223D01*
X110414704Y-104516862D01*
X110426435Y-104555532D01*
X110431000Y-104601888D01*
X110431000Y-105253112D01*
X110426435Y-105299468D01*
X110414704Y-105338138D01*
X110395654Y-105373777D01*
X110370017Y-105405017D01*
X110338777Y-105430654D01*
X110303138Y-105449704D01*
X110264468Y-105461435D01*
X110218112Y-105466000D01*
X109141888Y-105466000D01*
X109095532Y-105461435D01*
X109056862Y-105449704D01*
X109021223Y-105430654D01*
X108989983Y-105405017D01*
X108964346Y-105373777D01*
X108945296Y-105338138D01*
X108933565Y-105299468D01*
X108929000Y-105253112D01*
X108929000Y-104601888D01*
X108933565Y-104555532D01*
X108945296Y-104516862D01*
X108964346Y-104481223D01*
X108989983Y-104449983D01*
X109021223Y-104424346D01*
X109056862Y-104405296D01*
X109095532Y-104393565D01*
X109141888Y-104389000D01*
X110218112Y-104389000D01*
X110264468Y-104393565D01*
X110264468Y-104393565D01*
G37*
G36*
X104549468Y-104393565D02*
G01*
X104588138Y-104405296D01*
X104623777Y-104424346D01*
X104655017Y-104449983D01*
X104680654Y-104481223D01*
X104699704Y-104516862D01*
X104711435Y-104555532D01*
X104716000Y-104601888D01*
X104716000Y-105253112D01*
X104711435Y-105299468D01*
X104699704Y-105338138D01*
X104680654Y-105373777D01*
X104655017Y-105405017D01*
X104623777Y-105430654D01*
X104588138Y-105449704D01*
X104549468Y-105461435D01*
X104503112Y-105466000D01*
X103426888Y-105466000D01*
X103380532Y-105461435D01*
X103341862Y-105449704D01*
X103306223Y-105430654D01*
X103274983Y-105405017D01*
X103249346Y-105373777D01*
X103230296Y-105338138D01*
X103218565Y-105299468D01*
X103214000Y-105253112D01*
X103214000Y-104601888D01*
X103218565Y-104555532D01*
X103230296Y-104516862D01*
X103249346Y-104481223D01*
X103274983Y-104449983D01*
X103306223Y-104424346D01*
X103341862Y-104405296D01*
X103380532Y-104393565D01*
X103426888Y-104389000D01*
X104503112Y-104389000D01*
X104549468Y-104393565D01*
X104549468Y-104393565D01*
G37*
G36*
X85344000Y-105030000D02*
G01*
X83742000Y-105030000D01*
X83742000Y-104328000D01*
X85344000Y-104328000D01*
X85344000Y-105030000D01*
X85344000Y-105030000D01*
G37*
G36*
X90744000Y-105030000D02*
G01*
X89142000Y-105030000D01*
X89142000Y-104328000D01*
X90744000Y-104328000D01*
X90744000Y-105030000D01*
X90744000Y-105030000D01*
G37*
G36*
X82081468Y-102885565D02*
G01*
X82120138Y-102897296D01*
X82155777Y-102916346D01*
X82187017Y-102941983D01*
X82212654Y-102973223D01*
X82231704Y-103008862D01*
X82243435Y-103047532D01*
X82248000Y-103093888D01*
X82248000Y-104170112D01*
X82243435Y-104216468D01*
X82231704Y-104255138D01*
X82212654Y-104290777D01*
X82187017Y-104322017D01*
X82155777Y-104347654D01*
X82120138Y-104366704D01*
X82081468Y-104378435D01*
X82035112Y-104383000D01*
X81383888Y-104383000D01*
X81337532Y-104378435D01*
X81298862Y-104366704D01*
X81263223Y-104347654D01*
X81231983Y-104322017D01*
X81206346Y-104290777D01*
X81187296Y-104255138D01*
X81175565Y-104216468D01*
X81171000Y-104170112D01*
X81171000Y-103093888D01*
X81175565Y-103047532D01*
X81187296Y-103008862D01*
X81206346Y-102973223D01*
X81231983Y-102941983D01*
X81263223Y-102916346D01*
X81298862Y-102897296D01*
X81337532Y-102885565D01*
X81383888Y-102881000D01*
X82035112Y-102881000D01*
X82081468Y-102885565D01*
X82081468Y-102885565D01*
G37*
G36*
X80206468Y-102885565D02*
G01*
X80245138Y-102897296D01*
X80280777Y-102916346D01*
X80312017Y-102941983D01*
X80337654Y-102973223D01*
X80356704Y-103008862D01*
X80368435Y-103047532D01*
X80373000Y-103093888D01*
X80373000Y-104170112D01*
X80368435Y-104216468D01*
X80356704Y-104255138D01*
X80337654Y-104290777D01*
X80312017Y-104322017D01*
X80280777Y-104347654D01*
X80245138Y-104366704D01*
X80206468Y-104378435D01*
X80160112Y-104383000D01*
X79508888Y-104383000D01*
X79462532Y-104378435D01*
X79423862Y-104366704D01*
X79388223Y-104347654D01*
X79356983Y-104322017D01*
X79331346Y-104290777D01*
X79312296Y-104255138D01*
X79300565Y-104216468D01*
X79296000Y-104170112D01*
X79296000Y-103093888D01*
X79300565Y-103047532D01*
X79312296Y-103008862D01*
X79331346Y-102973223D01*
X79356983Y-102941983D01*
X79388223Y-102916346D01*
X79423862Y-102897296D01*
X79462532Y-102885565D01*
X79508888Y-102881000D01*
X80160112Y-102881000D01*
X80206468Y-102885565D01*
X80206468Y-102885565D01*
G37*
G36*
X85344000Y-103760000D02*
G01*
X83742000Y-103760000D01*
X83742000Y-103058000D01*
X85344000Y-103058000D01*
X85344000Y-103760000D01*
X85344000Y-103760000D01*
G37*
G36*
X90744000Y-103760000D02*
G01*
X89142000Y-103760000D01*
X89142000Y-103058000D01*
X90744000Y-103058000D01*
X90744000Y-103760000D01*
X90744000Y-103760000D01*
G37*
G36*
X96544468Y-102568565D02*
G01*
X96583138Y-102580296D01*
X96618777Y-102599346D01*
X96650017Y-102624983D01*
X96675654Y-102656223D01*
X96694704Y-102691862D01*
X96706435Y-102730532D01*
X96711000Y-102776888D01*
X96711000Y-103428112D01*
X96706435Y-103474468D01*
X96694704Y-103513138D01*
X96675654Y-103548777D01*
X96650017Y-103580017D01*
X96618777Y-103605654D01*
X96583138Y-103624704D01*
X96544468Y-103636435D01*
X96498112Y-103641000D01*
X95421888Y-103641000D01*
X95375532Y-103636435D01*
X95336862Y-103624704D01*
X95301223Y-103605654D01*
X95269983Y-103580017D01*
X95244346Y-103548777D01*
X95225296Y-103513138D01*
X95213565Y-103474468D01*
X95209000Y-103428112D01*
X95209000Y-102776888D01*
X95213565Y-102730532D01*
X95225296Y-102691862D01*
X95244346Y-102656223D01*
X95269983Y-102624983D01*
X95301223Y-102599346D01*
X95336862Y-102580296D01*
X95375532Y-102568565D01*
X95421888Y-102564000D01*
X96498112Y-102564000D01*
X96544468Y-102568565D01*
X96544468Y-102568565D01*
G37*
G36*
X99136468Y-102568565D02*
G01*
X99175138Y-102580296D01*
X99210777Y-102599346D01*
X99242017Y-102624983D01*
X99267654Y-102656223D01*
X99286704Y-102691862D01*
X99298435Y-102730532D01*
X99303000Y-102776888D01*
X99303000Y-103428112D01*
X99298435Y-103474468D01*
X99286704Y-103513138D01*
X99267654Y-103548777D01*
X99242017Y-103580017D01*
X99210777Y-103605654D01*
X99175138Y-103624704D01*
X99136468Y-103636435D01*
X99090112Y-103641000D01*
X98013888Y-103641000D01*
X97967532Y-103636435D01*
X97928862Y-103624704D01*
X97893223Y-103605654D01*
X97861983Y-103580017D01*
X97836346Y-103548777D01*
X97817296Y-103513138D01*
X97805565Y-103474468D01*
X97801000Y-103428112D01*
X97801000Y-102776888D01*
X97805565Y-102730532D01*
X97817296Y-102691862D01*
X97836346Y-102656223D01*
X97861983Y-102624983D01*
X97893223Y-102599346D01*
X97928862Y-102580296D01*
X97967532Y-102568565D01*
X98013888Y-102564000D01*
X99090112Y-102564000D01*
X99136468Y-102568565D01*
X99136468Y-102568565D01*
G37*
G36*
X104549468Y-102518565D02*
G01*
X104588138Y-102530296D01*
X104623777Y-102549346D01*
X104655017Y-102574983D01*
X104680654Y-102606223D01*
X104699704Y-102641862D01*
X104711435Y-102680532D01*
X104716000Y-102726888D01*
X104716000Y-103378112D01*
X104711435Y-103424468D01*
X104699704Y-103463138D01*
X104680654Y-103498777D01*
X104655017Y-103530017D01*
X104623777Y-103555654D01*
X104588138Y-103574704D01*
X104549468Y-103586435D01*
X104503112Y-103591000D01*
X103426888Y-103591000D01*
X103380532Y-103586435D01*
X103341862Y-103574704D01*
X103306223Y-103555654D01*
X103274983Y-103530017D01*
X103249346Y-103498777D01*
X103230296Y-103463138D01*
X103218565Y-103424468D01*
X103214000Y-103378112D01*
X103214000Y-102726888D01*
X103218565Y-102680532D01*
X103230296Y-102641862D01*
X103249346Y-102606223D01*
X103274983Y-102574983D01*
X103306223Y-102549346D01*
X103341862Y-102530296D01*
X103380532Y-102518565D01*
X103426888Y-102514000D01*
X104503112Y-102514000D01*
X104549468Y-102518565D01*
X104549468Y-102518565D01*
G37*
G36*
X110264468Y-102518565D02*
G01*
X110303138Y-102530296D01*
X110338777Y-102549346D01*
X110370017Y-102574983D01*
X110395654Y-102606223D01*
X110414704Y-102641862D01*
X110426435Y-102680532D01*
X110431000Y-102726888D01*
X110431000Y-103378112D01*
X110426435Y-103424468D01*
X110414704Y-103463138D01*
X110395654Y-103498777D01*
X110370017Y-103530017D01*
X110338777Y-103555654D01*
X110303138Y-103574704D01*
X110264468Y-103586435D01*
X110218112Y-103591000D01*
X109141888Y-103591000D01*
X109095532Y-103586435D01*
X109056862Y-103574704D01*
X109021223Y-103555654D01*
X108989983Y-103530017D01*
X108964346Y-103498777D01*
X108945296Y-103463138D01*
X108933565Y-103424468D01*
X108929000Y-103378112D01*
X108929000Y-102726888D01*
X108933565Y-102680532D01*
X108945296Y-102641862D01*
X108964346Y-102606223D01*
X108989983Y-102574983D01*
X109021223Y-102549346D01*
X109056862Y-102530296D01*
X109095532Y-102518565D01*
X109141888Y-102514000D01*
X110218112Y-102514000D01*
X110264468Y-102518565D01*
X110264468Y-102518565D01*
G37*
G36*
X94564468Y-102336065D02*
G01*
X94603138Y-102347796D01*
X94638777Y-102366846D01*
X94670017Y-102392483D01*
X94695654Y-102423723D01*
X94714704Y-102459362D01*
X94726435Y-102498032D01*
X94731000Y-102544388D01*
X94731000Y-103195612D01*
X94726435Y-103241968D01*
X94714704Y-103280638D01*
X94695654Y-103316277D01*
X94670017Y-103347517D01*
X94638777Y-103373154D01*
X94603138Y-103392204D01*
X94564468Y-103403935D01*
X94518112Y-103408500D01*
X93441888Y-103408500D01*
X93395532Y-103403935D01*
X93356862Y-103392204D01*
X93321223Y-103373154D01*
X93289983Y-103347517D01*
X93264346Y-103316277D01*
X93245296Y-103280638D01*
X93233565Y-103241968D01*
X93229000Y-103195612D01*
X93229000Y-102544388D01*
X93233565Y-102498032D01*
X93245296Y-102459362D01*
X93264346Y-102423723D01*
X93289983Y-102392483D01*
X93321223Y-102366846D01*
X93356862Y-102347796D01*
X93395532Y-102336065D01*
X93441888Y-102331500D01*
X94518112Y-102331500D01*
X94564468Y-102336065D01*
X94564468Y-102336065D01*
G37*
G36*
X85344000Y-102490000D02*
G01*
X83742000Y-102490000D01*
X83742000Y-101788000D01*
X85344000Y-101788000D01*
X85344000Y-102490000D01*
X85344000Y-102490000D01*
G37*
G36*
X90744000Y-102490000D02*
G01*
X89142000Y-102490000D01*
X89142000Y-101788000D01*
X90744000Y-101788000D01*
X90744000Y-102490000D01*
X90744000Y-102490000D01*
G37*
G36*
X94564468Y-100461065D02*
G01*
X94603138Y-100472796D01*
X94638777Y-100491846D01*
X94670017Y-100517483D01*
X94695654Y-100548723D01*
X94714704Y-100584362D01*
X94726435Y-100623032D01*
X94731000Y-100669388D01*
X94731000Y-101320612D01*
X94726435Y-101366968D01*
X94714704Y-101405638D01*
X94695654Y-101441277D01*
X94670017Y-101472517D01*
X94638777Y-101498154D01*
X94603138Y-101517204D01*
X94564468Y-101528935D01*
X94518112Y-101533500D01*
X93441888Y-101533500D01*
X93395532Y-101528935D01*
X93356862Y-101517204D01*
X93321223Y-101498154D01*
X93289983Y-101472517D01*
X93264346Y-101441277D01*
X93245296Y-101405638D01*
X93233565Y-101366968D01*
X93229000Y-101320612D01*
X93229000Y-100669388D01*
X93233565Y-100623032D01*
X93245296Y-100584362D01*
X93264346Y-100548723D01*
X93289983Y-100517483D01*
X93321223Y-100491846D01*
X93356862Y-100472796D01*
X93395532Y-100461065D01*
X93441888Y-100456500D01*
X94518112Y-100456500D01*
X94564468Y-100461065D01*
X94564468Y-100461065D01*
G37*
G36*
X85344000Y-101220000D02*
G01*
X83742000Y-101220000D01*
X83742000Y-100518000D01*
X85344000Y-100518000D01*
X85344000Y-101220000D01*
X85344000Y-101220000D01*
G37*
G36*
X90744000Y-101220000D02*
G01*
X89142000Y-101220000D01*
X89142000Y-100518000D01*
X90744000Y-100518000D01*
X90744000Y-101220000D01*
X90744000Y-101220000D01*
G37*
G36*
X77849589Y-99314876D02*
G01*
X77948893Y-99334629D01*
X78089206Y-99392748D01*
X78215484Y-99477125D01*
X78322875Y-99584516D01*
X78407252Y-99710794D01*
X78465371Y-99851107D01*
X78495000Y-100000063D01*
X78495000Y-100151937D01*
X78465371Y-100300893D01*
X78407252Y-100441206D01*
X78322875Y-100567484D01*
X78215484Y-100674875D01*
X78089206Y-100759252D01*
X77948893Y-100817371D01*
X77849589Y-100837124D01*
X77799938Y-100847000D01*
X77648062Y-100847000D01*
X77598411Y-100837124D01*
X77499107Y-100817371D01*
X77358794Y-100759252D01*
X77232516Y-100674875D01*
X77125125Y-100567484D01*
X77040748Y-100441206D01*
X76982629Y-100300893D01*
X76953000Y-100151937D01*
X76953000Y-100000063D01*
X76982629Y-99851107D01*
X77040748Y-99710794D01*
X77125125Y-99584516D01*
X77232516Y-99477125D01*
X77358794Y-99392748D01*
X77499107Y-99334629D01*
X77598411Y-99314876D01*
X77648062Y-99305000D01*
X77799938Y-99305000D01*
X77849589Y-99314876D01*
X77849589Y-99314876D01*
G37*
G36*
X85344000Y-99950000D02*
G01*
X83742000Y-99950000D01*
X83742000Y-99248000D01*
X85344000Y-99248000D01*
X85344000Y-99950000D01*
X85344000Y-99950000D01*
G37*
G36*
X90744000Y-99950000D02*
G01*
X89142000Y-99950000D01*
X89142000Y-99248000D01*
X90744000Y-99248000D01*
X90744000Y-99950000D01*
X90744000Y-99950000D01*
G37*
G36*
X72937468Y-98313565D02*
G01*
X72976138Y-98325296D01*
X73011777Y-98344346D01*
X73043017Y-98369983D01*
X73068654Y-98401223D01*
X73087704Y-98436862D01*
X73099435Y-98475532D01*
X73104000Y-98521888D01*
X73104000Y-99598112D01*
X73099435Y-99644468D01*
X73087704Y-99683138D01*
X73068654Y-99718777D01*
X73043017Y-99750017D01*
X73011777Y-99775654D01*
X72976138Y-99794704D01*
X72937468Y-99806435D01*
X72891112Y-99811000D01*
X72239888Y-99811000D01*
X72193532Y-99806435D01*
X72154862Y-99794704D01*
X72119223Y-99775654D01*
X72087983Y-99750017D01*
X72062346Y-99718777D01*
X72043296Y-99683138D01*
X72031565Y-99644468D01*
X72027000Y-99598112D01*
X72027000Y-98521888D01*
X72031565Y-98475532D01*
X72043296Y-98436862D01*
X72062346Y-98401223D01*
X72087983Y-98369983D01*
X72119223Y-98344346D01*
X72154862Y-98325296D01*
X72193532Y-98313565D01*
X72239888Y-98309000D01*
X72891112Y-98309000D01*
X72937468Y-98313565D01*
X72937468Y-98313565D01*
G37*
G36*
X71062468Y-98313565D02*
G01*
X71101138Y-98325296D01*
X71136777Y-98344346D01*
X71168017Y-98369983D01*
X71193654Y-98401223D01*
X71212704Y-98436862D01*
X71224435Y-98475532D01*
X71229000Y-98521888D01*
X71229000Y-99598112D01*
X71224435Y-99644468D01*
X71212704Y-99683138D01*
X71193654Y-99718777D01*
X71168017Y-99750017D01*
X71136777Y-99775654D01*
X71101138Y-99794704D01*
X71062468Y-99806435D01*
X71016112Y-99811000D01*
X70364888Y-99811000D01*
X70318532Y-99806435D01*
X70279862Y-99794704D01*
X70244223Y-99775654D01*
X70212983Y-99750017D01*
X70187346Y-99718777D01*
X70168296Y-99683138D01*
X70156565Y-99644468D01*
X70152000Y-99598112D01*
X70152000Y-98521888D01*
X70156565Y-98475532D01*
X70168296Y-98436862D01*
X70187346Y-98401223D01*
X70212983Y-98369983D01*
X70244223Y-98344346D01*
X70279862Y-98325296D01*
X70318532Y-98313565D01*
X70364888Y-98309000D01*
X71016112Y-98309000D01*
X71062468Y-98313565D01*
X71062468Y-98313565D01*
G37*
G36*
X80389589Y-96774876D02*
G01*
X80488893Y-96794629D01*
X80629206Y-96852748D01*
X80755484Y-96937125D01*
X80862875Y-97044516D01*
X80947252Y-97170794D01*
X81005371Y-97311107D01*
X81015054Y-97359788D01*
X81029772Y-97433777D01*
X81035000Y-97460063D01*
X81035000Y-97611937D01*
X81005371Y-97760893D01*
X80947252Y-97901206D01*
X80862875Y-98027484D01*
X80755484Y-98134875D01*
X80629206Y-98219252D01*
X80488893Y-98277371D01*
X80389589Y-98297124D01*
X80339938Y-98307000D01*
X80188062Y-98307000D01*
X80138411Y-98297124D01*
X80039107Y-98277371D01*
X79898794Y-98219252D01*
X79772516Y-98134875D01*
X79665125Y-98027484D01*
X79580748Y-97901206D01*
X79522629Y-97760893D01*
X79493000Y-97611937D01*
X79493000Y-97460063D01*
X79498229Y-97433777D01*
X79512946Y-97359788D01*
X79522629Y-97311107D01*
X79580748Y-97170794D01*
X79665125Y-97044516D01*
X79772516Y-96937125D01*
X79898794Y-96852748D01*
X80039107Y-96794629D01*
X80138411Y-96774876D01*
X80188062Y-96765000D01*
X80339938Y-96765000D01*
X80389589Y-96774876D01*
X80389589Y-96774876D01*
G37*
G36*
X132914468Y-96453565D02*
G01*
X132953138Y-96465296D01*
X132988777Y-96484346D01*
X133020017Y-96509983D01*
X133045654Y-96541223D01*
X133064704Y-96576862D01*
X133076435Y-96615532D01*
X133081000Y-96661888D01*
X133081000Y-97313112D01*
X133076435Y-97359468D01*
X133064704Y-97398138D01*
X133045654Y-97433777D01*
X133020017Y-97465017D01*
X132988777Y-97490654D01*
X132953138Y-97509704D01*
X132914468Y-97521435D01*
X132868112Y-97526000D01*
X131791888Y-97526000D01*
X131745532Y-97521435D01*
X131706862Y-97509704D01*
X131671223Y-97490654D01*
X131639983Y-97465017D01*
X131614346Y-97433777D01*
X131595296Y-97398138D01*
X131583565Y-97359468D01*
X131579000Y-97313112D01*
X131579000Y-96661888D01*
X131583565Y-96615532D01*
X131595296Y-96576862D01*
X131614346Y-96541223D01*
X131639983Y-96509983D01*
X131671223Y-96484346D01*
X131706862Y-96465296D01*
X131745532Y-96453565D01*
X131791888Y-96449000D01*
X132868112Y-96449000D01*
X132914468Y-96453565D01*
X132914468Y-96453565D01*
G37*
G36*
X92550425Y-95774599D02*
G01*
X92674621Y-95799302D01*
X92811022Y-95855801D01*
X92933779Y-95937825D01*
X93038175Y-96042221D01*
X93120199Y-96164978D01*
X93176698Y-96301379D01*
X93201401Y-96425575D01*
X93205031Y-96443820D01*
X93205500Y-96446181D01*
X93205500Y-96593819D01*
X93176698Y-96738621D01*
X93120199Y-96875022D01*
X93038175Y-96997779D01*
X92933779Y-97102175D01*
X92811022Y-97184199D01*
X92674621Y-97240698D01*
X92550425Y-97265401D01*
X92529820Y-97269500D01*
X92382180Y-97269500D01*
X92361575Y-97265401D01*
X92237379Y-97240698D01*
X92100978Y-97184199D01*
X91978221Y-97102175D01*
X91873825Y-96997779D01*
X91791801Y-96875022D01*
X91735302Y-96738621D01*
X91706500Y-96593819D01*
X91706500Y-96446181D01*
X91706970Y-96443820D01*
X91710599Y-96425575D01*
X91735302Y-96301379D01*
X91791801Y-96164978D01*
X91873825Y-96042221D01*
X91978221Y-95937825D01*
X92100978Y-95855801D01*
X92237379Y-95799302D01*
X92361575Y-95774599D01*
X92382180Y-95770500D01*
X92529820Y-95770500D01*
X92550425Y-95774599D01*
X92550425Y-95774599D01*
G37*
G36*
X97630425Y-95774599D02*
G01*
X97754621Y-95799302D01*
X97891022Y-95855801D01*
X98013779Y-95937825D01*
X98118175Y-96042221D01*
X98200199Y-96164978D01*
X98256698Y-96301379D01*
X98281401Y-96425575D01*
X98285031Y-96443820D01*
X98285500Y-96446181D01*
X98285500Y-96593819D01*
X98256698Y-96738621D01*
X98200199Y-96875022D01*
X98118175Y-96997779D01*
X98013779Y-97102175D01*
X97891022Y-97184199D01*
X97754621Y-97240698D01*
X97630425Y-97265401D01*
X97609820Y-97269500D01*
X97462180Y-97269500D01*
X97441575Y-97265401D01*
X97317379Y-97240698D01*
X97180978Y-97184199D01*
X97058221Y-97102175D01*
X96953825Y-96997779D01*
X96871801Y-96875022D01*
X96815302Y-96738621D01*
X96786500Y-96593819D01*
X96786500Y-96446181D01*
X96786970Y-96443820D01*
X96790599Y-96425575D01*
X96815302Y-96301379D01*
X96871801Y-96164978D01*
X96953825Y-96042221D01*
X97058221Y-95937825D01*
X97180978Y-95855801D01*
X97317379Y-95799302D01*
X97441575Y-95774599D01*
X97462180Y-95770500D01*
X97609820Y-95770500D01*
X97630425Y-95774599D01*
X97630425Y-95774599D01*
G37*
G36*
X143048039Y-93732250D02*
G01*
X143237372Y-93810675D01*
X143371251Y-93866129D01*
X143662134Y-94060491D01*
X143909509Y-94307866D01*
X144103871Y-94598749D01*
X144146582Y-94701862D01*
X144237750Y-94921961D01*
X144306000Y-95265078D01*
X144306000Y-95614922D01*
X144237750Y-95958039D01*
X144167292Y-96128138D01*
X144103871Y-96281251D01*
X143909509Y-96572134D01*
X143662134Y-96819509D01*
X143371251Y-97013871D01*
X143237372Y-97069325D01*
X143048039Y-97147750D01*
X142704922Y-97216000D01*
X142355078Y-97216000D01*
X142011961Y-97147750D01*
X141822628Y-97069325D01*
X141688749Y-97013871D01*
X141397866Y-96819509D01*
X141150491Y-96572134D01*
X140956129Y-96281251D01*
X140892708Y-96128138D01*
X140822250Y-95958039D01*
X140754000Y-95614922D01*
X140754000Y-95265078D01*
X140822250Y-94921961D01*
X140913418Y-94701862D01*
X140956129Y-94598749D01*
X141150491Y-94307866D01*
X141397866Y-94060491D01*
X141688749Y-93866129D01*
X141822628Y-93810675D01*
X142011961Y-93732250D01*
X142355078Y-93664000D01*
X142704922Y-93664000D01*
X143048039Y-93732250D01*
X143048039Y-93732250D01*
G37*
G36*
X116124425Y-95624599D02*
G01*
X116248621Y-95649302D01*
X116385022Y-95705801D01*
X116507779Y-95787825D01*
X116612175Y-95892221D01*
X116694199Y-96014978D01*
X116750698Y-96151379D01*
X116770600Y-96251435D01*
X116779500Y-96296180D01*
X116779500Y-96443820D01*
X116777440Y-96454174D01*
X116750698Y-96588621D01*
X116694199Y-96725022D01*
X116612175Y-96847779D01*
X116507779Y-96952175D01*
X116385022Y-97034199D01*
X116248621Y-97090698D01*
X116124425Y-97115401D01*
X116103820Y-97119500D01*
X115956180Y-97119500D01*
X115935575Y-97115401D01*
X115811379Y-97090698D01*
X115674978Y-97034199D01*
X115552221Y-96952175D01*
X115447825Y-96847779D01*
X115365801Y-96725022D01*
X115309302Y-96588621D01*
X115282560Y-96454174D01*
X115280500Y-96443820D01*
X115280500Y-96296180D01*
X115289400Y-96251435D01*
X115309302Y-96151379D01*
X115365801Y-96014978D01*
X115447825Y-95892221D01*
X115552221Y-95787825D01*
X115674978Y-95705801D01*
X115811379Y-95649302D01*
X115935575Y-95624599D01*
X115956180Y-95620500D01*
X116103820Y-95620500D01*
X116124425Y-95624599D01*
X116124425Y-95624599D01*
G37*
G36*
X125649425Y-95624599D02*
G01*
X125773621Y-95649302D01*
X125910022Y-95705801D01*
X126032779Y-95787825D01*
X126137175Y-95892221D01*
X126219199Y-96014978D01*
X126275698Y-96151379D01*
X126295600Y-96251435D01*
X126304500Y-96296180D01*
X126304500Y-96443820D01*
X126302440Y-96454174D01*
X126275698Y-96588621D01*
X126219199Y-96725022D01*
X126137175Y-96847779D01*
X126032779Y-96952175D01*
X125910022Y-97034199D01*
X125773621Y-97090698D01*
X125649425Y-97115401D01*
X125628820Y-97119500D01*
X125481180Y-97119500D01*
X125460575Y-97115401D01*
X125336379Y-97090698D01*
X125199978Y-97034199D01*
X125077221Y-96952175D01*
X124972825Y-96847779D01*
X124890801Y-96725022D01*
X124834302Y-96588621D01*
X124807560Y-96454174D01*
X124805500Y-96443820D01*
X124805500Y-96296180D01*
X124814400Y-96251435D01*
X124834302Y-96151379D01*
X124890801Y-96014978D01*
X124972825Y-95892221D01*
X125077221Y-95787825D01*
X125199978Y-95705801D01*
X125336379Y-95649302D01*
X125460575Y-95624599D01*
X125481180Y-95620500D01*
X125628820Y-95620500D01*
X125649425Y-95624599D01*
X125649425Y-95624599D01*
G37*
G36*
X120569425Y-95624599D02*
G01*
X120693621Y-95649302D01*
X120830022Y-95705801D01*
X120952779Y-95787825D01*
X121057175Y-95892221D01*
X121139199Y-96014978D01*
X121195698Y-96151379D01*
X121215600Y-96251435D01*
X121224500Y-96296180D01*
X121224500Y-96443820D01*
X121222440Y-96454174D01*
X121195698Y-96588621D01*
X121139199Y-96725022D01*
X121057175Y-96847779D01*
X120952779Y-96952175D01*
X120830022Y-97034199D01*
X120693621Y-97090698D01*
X120569425Y-97115401D01*
X120548820Y-97119500D01*
X120401180Y-97119500D01*
X120380575Y-97115401D01*
X120256379Y-97090698D01*
X120119978Y-97034199D01*
X119997221Y-96952175D01*
X119892825Y-96847779D01*
X119810801Y-96725022D01*
X119754302Y-96588621D01*
X119727560Y-96454174D01*
X119725500Y-96443820D01*
X119725500Y-96296180D01*
X119734400Y-96251435D01*
X119754302Y-96151379D01*
X119810801Y-96014978D01*
X119892825Y-95892221D01*
X119997221Y-95787825D01*
X120119978Y-95705801D01*
X120256379Y-95649302D01*
X120380575Y-95624599D01*
X120401180Y-95620500D01*
X120548820Y-95620500D01*
X120569425Y-95624599D01*
X120569425Y-95624599D01*
G37*
G36*
X111044425Y-95624599D02*
G01*
X111168621Y-95649302D01*
X111305022Y-95705801D01*
X111427779Y-95787825D01*
X111532175Y-95892221D01*
X111614199Y-96014978D01*
X111670698Y-96151379D01*
X111690600Y-96251435D01*
X111699500Y-96296180D01*
X111699500Y-96443820D01*
X111697440Y-96454174D01*
X111670698Y-96588621D01*
X111614199Y-96725022D01*
X111532175Y-96847779D01*
X111427779Y-96952175D01*
X111305022Y-97034199D01*
X111168621Y-97090698D01*
X111044425Y-97115401D01*
X111023820Y-97119500D01*
X110876180Y-97119500D01*
X110855575Y-97115401D01*
X110731379Y-97090698D01*
X110594978Y-97034199D01*
X110472221Y-96952175D01*
X110367825Y-96847779D01*
X110285801Y-96725022D01*
X110229302Y-96588621D01*
X110202560Y-96454174D01*
X110200500Y-96443820D01*
X110200500Y-96296180D01*
X110209400Y-96251435D01*
X110229302Y-96151379D01*
X110285801Y-96014978D01*
X110367825Y-95892221D01*
X110472221Y-95787825D01*
X110594978Y-95705801D01*
X110731379Y-95649302D01*
X110855575Y-95624599D01*
X110876180Y-95620500D01*
X111023820Y-95620500D01*
X111044425Y-95624599D01*
X111044425Y-95624599D01*
G37*
G36*
X137994468Y-95183565D02*
G01*
X138033138Y-95195296D01*
X138068777Y-95214346D01*
X138100017Y-95239983D01*
X138125654Y-95271223D01*
X138144704Y-95306862D01*
X138156435Y-95345532D01*
X138161000Y-95391888D01*
X138161000Y-96043112D01*
X138156435Y-96089468D01*
X138144704Y-96128138D01*
X138125654Y-96163777D01*
X138100017Y-96195017D01*
X138068777Y-96220654D01*
X138033138Y-96239704D01*
X137994468Y-96251435D01*
X137948112Y-96256000D01*
X136871888Y-96256000D01*
X136825532Y-96251435D01*
X136786862Y-96239704D01*
X136751223Y-96220654D01*
X136719983Y-96195017D01*
X136694346Y-96163777D01*
X136675296Y-96128138D01*
X136663565Y-96089468D01*
X136659000Y-96043112D01*
X136659000Y-95391888D01*
X136663565Y-95345532D01*
X136675296Y-95306862D01*
X136694346Y-95271223D01*
X136719983Y-95239983D01*
X136751223Y-95214346D01*
X136786862Y-95195296D01*
X136825532Y-95183565D01*
X136871888Y-95179000D01*
X137948112Y-95179000D01*
X137994468Y-95183565D01*
X137994468Y-95183565D01*
G37*
G36*
X104168468Y-95122565D02*
G01*
X104207138Y-95134296D01*
X104242777Y-95153346D01*
X104274017Y-95178983D01*
X104299654Y-95210223D01*
X104318704Y-95245862D01*
X104330435Y-95284532D01*
X104335000Y-95330888D01*
X104335000Y-95982112D01*
X104330435Y-96028468D01*
X104318704Y-96067138D01*
X104299654Y-96102777D01*
X104274017Y-96134017D01*
X104242777Y-96159654D01*
X104207138Y-96178704D01*
X104168468Y-96190435D01*
X104122112Y-96195000D01*
X103045888Y-96195000D01*
X102999532Y-96190435D01*
X102960862Y-96178704D01*
X102925223Y-96159654D01*
X102893983Y-96134017D01*
X102868346Y-96102777D01*
X102849296Y-96067138D01*
X102837565Y-96028468D01*
X102833000Y-95982112D01*
X102833000Y-95330888D01*
X102837565Y-95284532D01*
X102849296Y-95245862D01*
X102868346Y-95210223D01*
X102893983Y-95178983D01*
X102925223Y-95153346D01*
X102960862Y-95134296D01*
X102999532Y-95122565D01*
X103045888Y-95118000D01*
X104122112Y-95118000D01*
X104168468Y-95122565D01*
X104168468Y-95122565D01*
G37*
G36*
X107343468Y-95122565D02*
G01*
X107382138Y-95134296D01*
X107417777Y-95153346D01*
X107449017Y-95178983D01*
X107474654Y-95210223D01*
X107493704Y-95245862D01*
X107505435Y-95284532D01*
X107510000Y-95330888D01*
X107510000Y-95982112D01*
X107505435Y-96028468D01*
X107493704Y-96067138D01*
X107474654Y-96102777D01*
X107449017Y-96134017D01*
X107417777Y-96159654D01*
X107382138Y-96178704D01*
X107343468Y-96190435D01*
X107297112Y-96195000D01*
X106220888Y-96195000D01*
X106174532Y-96190435D01*
X106135862Y-96178704D01*
X106100223Y-96159654D01*
X106068983Y-96134017D01*
X106043346Y-96102777D01*
X106024296Y-96067138D01*
X106012565Y-96028468D01*
X106008000Y-95982112D01*
X106008000Y-95330888D01*
X106012565Y-95284532D01*
X106024296Y-95245862D01*
X106043346Y-95210223D01*
X106068983Y-95178983D01*
X106100223Y-95153346D01*
X106135862Y-95134296D01*
X106174532Y-95122565D01*
X106220888Y-95118000D01*
X107297112Y-95118000D01*
X107343468Y-95122565D01*
X107343468Y-95122565D01*
G37*
G36*
X100993468Y-95122565D02*
G01*
X101032138Y-95134296D01*
X101067777Y-95153346D01*
X101099017Y-95178983D01*
X101124654Y-95210223D01*
X101143704Y-95245862D01*
X101155435Y-95284532D01*
X101160000Y-95330888D01*
X101160000Y-95982112D01*
X101155435Y-96028468D01*
X101143704Y-96067138D01*
X101124654Y-96102777D01*
X101099017Y-96134017D01*
X101067777Y-96159654D01*
X101032138Y-96178704D01*
X100993468Y-96190435D01*
X100947112Y-96195000D01*
X99870888Y-96195000D01*
X99824532Y-96190435D01*
X99785862Y-96178704D01*
X99750223Y-96159654D01*
X99718983Y-96134017D01*
X99693346Y-96102777D01*
X99674296Y-96067138D01*
X99662565Y-96028468D01*
X99658000Y-95982112D01*
X99658000Y-95330888D01*
X99662565Y-95284532D01*
X99674296Y-95245862D01*
X99693346Y-95210223D01*
X99718983Y-95178983D01*
X99750223Y-95153346D01*
X99785862Y-95134296D01*
X99824532Y-95122565D01*
X99870888Y-95118000D01*
X100947112Y-95118000D01*
X100993468Y-95122565D01*
X100993468Y-95122565D01*
G37*
G36*
X77849589Y-94234876D02*
G01*
X77948893Y-94254629D01*
X78089206Y-94312748D01*
X78215484Y-94397125D01*
X78322875Y-94504516D01*
X78407252Y-94630794D01*
X78465371Y-94771107D01*
X78495000Y-94920063D01*
X78495000Y-95071937D01*
X78465371Y-95220893D01*
X78407252Y-95361206D01*
X78322875Y-95487484D01*
X78215484Y-95594875D01*
X78089206Y-95679252D01*
X77948893Y-95737371D01*
X77849589Y-95757124D01*
X77799938Y-95767000D01*
X77648062Y-95767000D01*
X77598411Y-95757124D01*
X77499107Y-95737371D01*
X77358794Y-95679252D01*
X77232516Y-95594875D01*
X77125125Y-95487484D01*
X77040748Y-95361206D01*
X76982629Y-95220893D01*
X76953000Y-95071937D01*
X76953000Y-94920063D01*
X76982629Y-94771107D01*
X77040748Y-94630794D01*
X77125125Y-94504516D01*
X77232516Y-94397125D01*
X77358794Y-94312748D01*
X77499107Y-94254629D01*
X77598411Y-94234876D01*
X77648062Y-94225000D01*
X77799938Y-94225000D01*
X77849589Y-94234876D01*
X77849589Y-94234876D01*
G37*
G36*
X132914468Y-94578565D02*
G01*
X132953138Y-94590296D01*
X132988777Y-94609346D01*
X133020017Y-94634983D01*
X133045654Y-94666223D01*
X133064704Y-94701862D01*
X133076435Y-94740532D01*
X133081000Y-94786888D01*
X133081000Y-95438112D01*
X133076435Y-95484468D01*
X133064704Y-95523138D01*
X133045654Y-95558777D01*
X133020017Y-95590017D01*
X132988777Y-95615654D01*
X132953138Y-95634704D01*
X132914468Y-95646435D01*
X132868112Y-95651000D01*
X131791888Y-95651000D01*
X131745532Y-95646435D01*
X131706862Y-95634704D01*
X131671223Y-95615654D01*
X131639983Y-95590017D01*
X131614346Y-95558777D01*
X131595296Y-95523138D01*
X131583565Y-95484468D01*
X131579000Y-95438112D01*
X131579000Y-94786888D01*
X131583565Y-94740532D01*
X131595296Y-94701862D01*
X131614346Y-94666223D01*
X131639983Y-94634983D01*
X131671223Y-94609346D01*
X131706862Y-94590296D01*
X131745532Y-94578565D01*
X131791888Y-94574000D01*
X132868112Y-94574000D01*
X132914468Y-94578565D01*
X132914468Y-94578565D01*
G37*
G36*
X137994468Y-93308565D02*
G01*
X138033138Y-93320296D01*
X138068777Y-93339346D01*
X138100017Y-93364983D01*
X138125654Y-93396223D01*
X138144704Y-93431862D01*
X138156435Y-93470532D01*
X138161000Y-93516888D01*
X138161000Y-94168112D01*
X138156435Y-94214468D01*
X138144704Y-94253138D01*
X138125654Y-94288777D01*
X138100017Y-94320017D01*
X138068777Y-94345654D01*
X138033138Y-94364704D01*
X137994468Y-94376435D01*
X137948112Y-94381000D01*
X136871888Y-94381000D01*
X136825532Y-94376435D01*
X136786862Y-94364704D01*
X136751223Y-94345654D01*
X136719983Y-94320017D01*
X136694346Y-94288777D01*
X136675296Y-94253138D01*
X136663565Y-94214468D01*
X136659000Y-94168112D01*
X136659000Y-93516888D01*
X136663565Y-93470532D01*
X136675296Y-93431862D01*
X136694346Y-93396223D01*
X136719983Y-93364983D01*
X136751223Y-93339346D01*
X136786862Y-93320296D01*
X136825532Y-93308565D01*
X136871888Y-93304000D01*
X137948112Y-93304000D01*
X137994468Y-93308565D01*
X137994468Y-93308565D01*
G37*
G36*
X100993468Y-93247565D02*
G01*
X101032138Y-93259296D01*
X101067777Y-93278346D01*
X101099017Y-93303983D01*
X101124654Y-93335223D01*
X101143704Y-93370862D01*
X101155435Y-93409532D01*
X101160000Y-93455888D01*
X101160000Y-94107112D01*
X101155435Y-94153468D01*
X101143704Y-94192138D01*
X101124654Y-94227777D01*
X101099017Y-94259017D01*
X101067777Y-94284654D01*
X101032138Y-94303704D01*
X100993468Y-94315435D01*
X100947112Y-94320000D01*
X99870888Y-94320000D01*
X99824532Y-94315435D01*
X99785862Y-94303704D01*
X99750223Y-94284654D01*
X99718983Y-94259017D01*
X99693346Y-94227777D01*
X99674296Y-94192138D01*
X99662565Y-94153468D01*
X99658000Y-94107112D01*
X99658000Y-93455888D01*
X99662565Y-93409532D01*
X99674296Y-93370862D01*
X99693346Y-93335223D01*
X99718983Y-93303983D01*
X99750223Y-93278346D01*
X99785862Y-93259296D01*
X99824532Y-93247565D01*
X99870888Y-93243000D01*
X100947112Y-93243000D01*
X100993468Y-93247565D01*
X100993468Y-93247565D01*
G37*
G36*
X107343468Y-93247565D02*
G01*
X107382138Y-93259296D01*
X107417777Y-93278346D01*
X107449017Y-93303983D01*
X107474654Y-93335223D01*
X107493704Y-93370862D01*
X107505435Y-93409532D01*
X107510000Y-93455888D01*
X107510000Y-94107112D01*
X107505435Y-94153468D01*
X107493704Y-94192138D01*
X107474654Y-94227777D01*
X107449017Y-94259017D01*
X107417777Y-94284654D01*
X107382138Y-94303704D01*
X107343468Y-94315435D01*
X107297112Y-94320000D01*
X106220888Y-94320000D01*
X106174532Y-94315435D01*
X106135862Y-94303704D01*
X106100223Y-94284654D01*
X106068983Y-94259017D01*
X106043346Y-94227777D01*
X106024296Y-94192138D01*
X106012565Y-94153468D01*
X106008000Y-94107112D01*
X106008000Y-93455888D01*
X106012565Y-93409532D01*
X106024296Y-93370862D01*
X106043346Y-93335223D01*
X106068983Y-93303983D01*
X106100223Y-93278346D01*
X106135862Y-93259296D01*
X106174532Y-93247565D01*
X106220888Y-93243000D01*
X107297112Y-93243000D01*
X107343468Y-93247565D01*
X107343468Y-93247565D01*
G37*
G36*
X104168468Y-93247565D02*
G01*
X104207138Y-93259296D01*
X104242777Y-93278346D01*
X104274017Y-93303983D01*
X104299654Y-93335223D01*
X104318704Y-93370862D01*
X104330435Y-93409532D01*
X104335000Y-93455888D01*
X104335000Y-94107112D01*
X104330435Y-94153468D01*
X104318704Y-94192138D01*
X104299654Y-94227777D01*
X104274017Y-94259017D01*
X104242777Y-94284654D01*
X104207138Y-94303704D01*
X104168468Y-94315435D01*
X104122112Y-94320000D01*
X103045888Y-94320000D01*
X102999532Y-94315435D01*
X102960862Y-94303704D01*
X102925223Y-94284654D01*
X102893983Y-94259017D01*
X102868346Y-94227777D01*
X102849296Y-94192138D01*
X102837565Y-94153468D01*
X102833000Y-94107112D01*
X102833000Y-93455888D01*
X102837565Y-93409532D01*
X102849296Y-93370862D01*
X102868346Y-93335223D01*
X102893983Y-93303983D01*
X102925223Y-93278346D01*
X102960862Y-93259296D01*
X102999532Y-93247565D01*
X103045888Y-93243000D01*
X104122112Y-93243000D01*
X104168468Y-93247565D01*
X104168468Y-93247565D01*
G37*
G36*
X133131000Y-93901000D02*
G01*
X131529000Y-93901000D01*
X131529000Y-91799000D01*
X133131000Y-91799000D01*
X133131000Y-93901000D01*
X133131000Y-93901000D01*
G37*
G36*
X135431000Y-93901000D02*
G01*
X133829000Y-93901000D01*
X133829000Y-91799000D01*
X135431000Y-91799000D01*
X135431000Y-93901000D01*
X135431000Y-93901000D01*
G37*
G36*
X130831000Y-93901000D02*
G01*
X129229000Y-93901000D01*
X129229000Y-91799000D01*
X130831000Y-91799000D01*
X130831000Y-93901000D01*
X130831000Y-93901000D01*
G37*
G36*
X85454443Y-90545519D02*
G01*
X85520627Y-90552037D01*
X85690466Y-90603557D01*
X85846991Y-90687222D01*
X85872730Y-90708346D01*
X85984186Y-90799814D01*
X86054824Y-90885888D01*
X86096778Y-90937009D01*
X86180443Y-91093534D01*
X86231963Y-91263373D01*
X86249359Y-91440000D01*
X86231963Y-91616627D01*
X86180443Y-91786466D01*
X86096778Y-91942991D01*
X86067448Y-91978729D01*
X85984186Y-92080186D01*
X85882729Y-92163448D01*
X85846991Y-92192778D01*
X85690466Y-92276443D01*
X85520627Y-92327963D01*
X85454443Y-92334481D01*
X85388260Y-92341000D01*
X85299740Y-92341000D01*
X85233557Y-92334481D01*
X85167373Y-92327963D01*
X84997534Y-92276443D01*
X84841009Y-92192778D01*
X84805271Y-92163448D01*
X84703814Y-92080186D01*
X84620552Y-91978729D01*
X84591222Y-91942991D01*
X84507557Y-91786466D01*
X84456037Y-91616627D01*
X84438641Y-91440000D01*
X84456037Y-91263373D01*
X84507557Y-91093534D01*
X84591222Y-90937009D01*
X84633176Y-90885888D01*
X84703814Y-90799814D01*
X84815270Y-90708346D01*
X84841009Y-90687222D01*
X84997534Y-90603557D01*
X85167373Y-90552037D01*
X85233557Y-90545519D01*
X85299740Y-90539000D01*
X85388260Y-90539000D01*
X85454443Y-90545519D01*
X85454443Y-90545519D01*
G37*
G36*
X88785000Y-92341000D02*
G01*
X86983000Y-92341000D01*
X86983000Y-90539000D01*
X88785000Y-90539000D01*
X88785000Y-92341000D01*
X88785000Y-92341000D01*
G37*
G36*
X82914443Y-90545519D02*
G01*
X82980627Y-90552037D01*
X83150466Y-90603557D01*
X83306991Y-90687222D01*
X83332730Y-90708346D01*
X83444186Y-90799814D01*
X83514824Y-90885888D01*
X83556778Y-90937009D01*
X83640443Y-91093534D01*
X83691963Y-91263373D01*
X83709359Y-91440000D01*
X83691963Y-91616627D01*
X83640443Y-91786466D01*
X83556778Y-91942991D01*
X83527448Y-91978729D01*
X83444186Y-92080186D01*
X83342729Y-92163448D01*
X83306991Y-92192778D01*
X83150466Y-92276443D01*
X82980627Y-92327963D01*
X82914443Y-92334481D01*
X82848260Y-92341000D01*
X82759740Y-92341000D01*
X82693557Y-92334481D01*
X82627373Y-92327963D01*
X82457534Y-92276443D01*
X82301009Y-92192778D01*
X82265271Y-92163448D01*
X82163814Y-92080186D01*
X82080552Y-91978729D01*
X82051222Y-91942991D01*
X81967557Y-91786466D01*
X81916037Y-91616627D01*
X81898641Y-91440000D01*
X81916037Y-91263373D01*
X81967557Y-91093534D01*
X82051222Y-90937009D01*
X82093176Y-90885888D01*
X82163814Y-90799814D01*
X82275270Y-90708346D01*
X82301009Y-90687222D01*
X82457534Y-90603557D01*
X82627373Y-90552037D01*
X82693557Y-90545519D01*
X82759740Y-90539000D01*
X82848260Y-90539000D01*
X82914443Y-90545519D01*
X82914443Y-90545519D01*
G37*
G36*
X100993468Y-90677565D02*
G01*
X101032138Y-90689296D01*
X101067777Y-90708346D01*
X101099017Y-90733983D01*
X101124654Y-90765223D01*
X101143704Y-90800862D01*
X101155435Y-90839532D01*
X101160000Y-90885888D01*
X101160000Y-91537112D01*
X101155435Y-91583468D01*
X101143704Y-91622138D01*
X101124654Y-91657777D01*
X101099017Y-91689017D01*
X101067777Y-91714654D01*
X101032138Y-91733704D01*
X100993468Y-91745435D01*
X100947112Y-91750000D01*
X99870888Y-91750000D01*
X99824532Y-91745435D01*
X99785862Y-91733704D01*
X99750223Y-91714654D01*
X99718983Y-91689017D01*
X99693346Y-91657777D01*
X99674296Y-91622138D01*
X99662565Y-91583468D01*
X99658000Y-91537112D01*
X99658000Y-90885888D01*
X99662565Y-90839532D01*
X99674296Y-90800862D01*
X99693346Y-90765223D01*
X99718983Y-90733983D01*
X99750223Y-90708346D01*
X99785862Y-90689296D01*
X99824532Y-90677565D01*
X99870888Y-90673000D01*
X100947112Y-90673000D01*
X100993468Y-90677565D01*
X100993468Y-90677565D01*
G37*
G36*
X104168468Y-90677565D02*
G01*
X104207138Y-90689296D01*
X104242777Y-90708346D01*
X104274017Y-90733983D01*
X104299654Y-90765223D01*
X104318704Y-90800862D01*
X104330435Y-90839532D01*
X104335000Y-90885888D01*
X104335000Y-91537112D01*
X104330435Y-91583468D01*
X104318704Y-91622138D01*
X104299654Y-91657777D01*
X104274017Y-91689017D01*
X104242777Y-91714654D01*
X104207138Y-91733704D01*
X104168468Y-91745435D01*
X104122112Y-91750000D01*
X103045888Y-91750000D01*
X102999532Y-91745435D01*
X102960862Y-91733704D01*
X102925223Y-91714654D01*
X102893983Y-91689017D01*
X102868346Y-91657777D01*
X102849296Y-91622138D01*
X102837565Y-91583468D01*
X102833000Y-91537112D01*
X102833000Y-90885888D01*
X102837565Y-90839532D01*
X102849296Y-90800862D01*
X102868346Y-90765223D01*
X102893983Y-90733983D01*
X102925223Y-90708346D01*
X102960862Y-90689296D01*
X102999532Y-90677565D01*
X103045888Y-90673000D01*
X104122112Y-90673000D01*
X104168468Y-90677565D01*
X104168468Y-90677565D01*
G37*
G36*
X107343468Y-90677565D02*
G01*
X107382138Y-90689296D01*
X107417777Y-90708346D01*
X107449017Y-90733983D01*
X107474654Y-90765223D01*
X107493704Y-90800862D01*
X107505435Y-90839532D01*
X107510000Y-90885888D01*
X107510000Y-91537112D01*
X107505435Y-91583468D01*
X107493704Y-91622138D01*
X107474654Y-91657777D01*
X107449017Y-91689017D01*
X107417777Y-91714654D01*
X107382138Y-91733704D01*
X107343468Y-91745435D01*
X107297112Y-91750000D01*
X106220888Y-91750000D01*
X106174532Y-91745435D01*
X106135862Y-91733704D01*
X106100223Y-91714654D01*
X106068983Y-91689017D01*
X106043346Y-91657777D01*
X106024296Y-91622138D01*
X106012565Y-91583468D01*
X106008000Y-91537112D01*
X106008000Y-90885888D01*
X106012565Y-90839532D01*
X106024296Y-90800862D01*
X106043346Y-90765223D01*
X106068983Y-90733983D01*
X106100223Y-90708346D01*
X106135862Y-90689296D01*
X106174532Y-90677565D01*
X106220888Y-90673000D01*
X107297112Y-90673000D01*
X107343468Y-90677565D01*
X107343468Y-90677565D01*
G37*
G36*
X107343468Y-88802565D02*
G01*
X107382138Y-88814296D01*
X107417777Y-88833346D01*
X107449017Y-88858983D01*
X107474654Y-88890223D01*
X107493704Y-88925862D01*
X107505435Y-88964532D01*
X107510000Y-89010888D01*
X107510000Y-89662112D01*
X107505435Y-89708468D01*
X107493704Y-89747138D01*
X107474654Y-89782777D01*
X107449017Y-89814017D01*
X107417777Y-89839654D01*
X107382138Y-89858704D01*
X107343468Y-89870435D01*
X107297112Y-89875000D01*
X106220888Y-89875000D01*
X106174532Y-89870435D01*
X106135862Y-89858704D01*
X106100223Y-89839654D01*
X106068983Y-89814017D01*
X106043346Y-89782777D01*
X106024296Y-89747138D01*
X106012565Y-89708468D01*
X106008000Y-89662112D01*
X106008000Y-89010888D01*
X106012565Y-88964532D01*
X106024296Y-88925862D01*
X106043346Y-88890223D01*
X106068983Y-88858983D01*
X106100223Y-88833346D01*
X106135862Y-88814296D01*
X106174532Y-88802565D01*
X106220888Y-88798000D01*
X107297112Y-88798000D01*
X107343468Y-88802565D01*
X107343468Y-88802565D01*
G37*
G36*
X100993468Y-88802565D02*
G01*
X101032138Y-88814296D01*
X101067777Y-88833346D01*
X101099017Y-88858983D01*
X101124654Y-88890223D01*
X101143704Y-88925862D01*
X101155435Y-88964532D01*
X101160000Y-89010888D01*
X101160000Y-89662112D01*
X101155435Y-89708468D01*
X101143704Y-89747138D01*
X101124654Y-89782777D01*
X101099017Y-89814017D01*
X101067777Y-89839654D01*
X101032138Y-89858704D01*
X100993468Y-89870435D01*
X100947112Y-89875000D01*
X99870888Y-89875000D01*
X99824532Y-89870435D01*
X99785862Y-89858704D01*
X99750223Y-89839654D01*
X99718983Y-89814017D01*
X99693346Y-89782777D01*
X99674296Y-89747138D01*
X99662565Y-89708468D01*
X99658000Y-89662112D01*
X99658000Y-89010888D01*
X99662565Y-88964532D01*
X99674296Y-88925862D01*
X99693346Y-88890223D01*
X99718983Y-88858983D01*
X99750223Y-88833346D01*
X99785862Y-88814296D01*
X99824532Y-88802565D01*
X99870888Y-88798000D01*
X100947112Y-88798000D01*
X100993468Y-88802565D01*
X100993468Y-88802565D01*
G37*
G36*
X104168468Y-88802565D02*
G01*
X104207138Y-88814296D01*
X104242777Y-88833346D01*
X104274017Y-88858983D01*
X104299654Y-88890223D01*
X104318704Y-88925862D01*
X104330435Y-88964532D01*
X104335000Y-89010888D01*
X104335000Y-89662112D01*
X104330435Y-89708468D01*
X104318704Y-89747138D01*
X104299654Y-89782777D01*
X104274017Y-89814017D01*
X104242777Y-89839654D01*
X104207138Y-89858704D01*
X104168468Y-89870435D01*
X104122112Y-89875000D01*
X103045888Y-89875000D01*
X102999532Y-89870435D01*
X102960862Y-89858704D01*
X102925223Y-89839654D01*
X102893983Y-89814017D01*
X102868346Y-89782777D01*
X102849296Y-89747138D01*
X102837565Y-89708468D01*
X102833000Y-89662112D01*
X102833000Y-89010888D01*
X102837565Y-88964532D01*
X102849296Y-88925862D01*
X102868346Y-88890223D01*
X102893983Y-88858983D01*
X102925223Y-88833346D01*
X102960862Y-88814296D01*
X102999532Y-88802565D01*
X103045888Y-88798000D01*
X104122112Y-88798000D01*
X104168468Y-88802565D01*
X104168468Y-88802565D01*
G37*
G36*
X97630425Y-88154599D02*
G01*
X97754621Y-88179302D01*
X97891022Y-88235801D01*
X98013779Y-88317825D01*
X98118175Y-88422221D01*
X98200199Y-88544978D01*
X98256698Y-88681379D01*
X98279895Y-88798000D01*
X98285031Y-88823820D01*
X98285500Y-88826181D01*
X98285500Y-88973819D01*
X98256698Y-89118621D01*
X98200199Y-89255022D01*
X98118175Y-89377779D01*
X98013779Y-89482175D01*
X97891022Y-89564199D01*
X97754621Y-89620698D01*
X97630425Y-89645401D01*
X97609820Y-89649500D01*
X97462180Y-89649500D01*
X97441575Y-89645401D01*
X97317379Y-89620698D01*
X97180978Y-89564199D01*
X97058221Y-89482175D01*
X96953825Y-89377779D01*
X96871801Y-89255022D01*
X96815302Y-89118621D01*
X96786500Y-88973819D01*
X96786500Y-88826181D01*
X96786970Y-88823820D01*
X96792105Y-88798000D01*
X96815302Y-88681379D01*
X96871801Y-88544978D01*
X96953825Y-88422221D01*
X97058221Y-88317825D01*
X97180978Y-88235801D01*
X97317379Y-88179302D01*
X97441575Y-88154599D01*
X97462180Y-88150500D01*
X97609820Y-88150500D01*
X97630425Y-88154599D01*
X97630425Y-88154599D01*
G37*
G36*
X92550425Y-88154599D02*
G01*
X92674621Y-88179302D01*
X92811022Y-88235801D01*
X92933779Y-88317825D01*
X93038175Y-88422221D01*
X93120199Y-88544978D01*
X93176698Y-88681379D01*
X93199895Y-88798000D01*
X93205031Y-88823820D01*
X93205500Y-88826181D01*
X93205500Y-88973819D01*
X93176698Y-89118621D01*
X93120199Y-89255022D01*
X93038175Y-89377779D01*
X92933779Y-89482175D01*
X92811022Y-89564199D01*
X92674621Y-89620698D01*
X92550425Y-89645401D01*
X92529820Y-89649500D01*
X92382180Y-89649500D01*
X92361575Y-89645401D01*
X92237379Y-89620698D01*
X92100978Y-89564199D01*
X91978221Y-89482175D01*
X91873825Y-89377779D01*
X91791801Y-89255022D01*
X91735302Y-89118621D01*
X91706500Y-88973819D01*
X91706500Y-88826181D01*
X91706970Y-88823820D01*
X91712105Y-88798000D01*
X91735302Y-88681379D01*
X91791801Y-88544978D01*
X91873825Y-88422221D01*
X91978221Y-88317825D01*
X92100978Y-88235801D01*
X92237379Y-88179302D01*
X92361575Y-88154599D01*
X92382180Y-88150500D01*
X92529820Y-88150500D01*
X92550425Y-88154599D01*
X92550425Y-88154599D01*
G37*
G36*
X111044425Y-88004599D02*
G01*
X111168621Y-88029302D01*
X111305022Y-88085801D01*
X111427779Y-88167825D01*
X111532175Y-88272221D01*
X111614199Y-88394978D01*
X111670698Y-88531379D01*
X111695401Y-88655575D01*
X111699500Y-88676180D01*
X111699500Y-88823820D01*
X111699030Y-88826181D01*
X111670698Y-88968621D01*
X111614199Y-89105022D01*
X111532175Y-89227779D01*
X111427779Y-89332175D01*
X111305022Y-89414199D01*
X111168621Y-89470698D01*
X111044425Y-89495401D01*
X111023820Y-89499500D01*
X110876180Y-89499500D01*
X110855575Y-89495401D01*
X110731379Y-89470698D01*
X110594978Y-89414199D01*
X110472221Y-89332175D01*
X110367825Y-89227779D01*
X110285801Y-89105022D01*
X110229302Y-88968621D01*
X110200970Y-88826181D01*
X110200500Y-88823820D01*
X110200500Y-88676180D01*
X110204599Y-88655575D01*
X110229302Y-88531379D01*
X110285801Y-88394978D01*
X110367825Y-88272221D01*
X110472221Y-88167825D01*
X110594978Y-88085801D01*
X110731379Y-88029302D01*
X110855575Y-88004599D01*
X110876180Y-88000500D01*
X111023820Y-88000500D01*
X111044425Y-88004599D01*
X111044425Y-88004599D01*
G37*
G36*
X125649425Y-88004599D02*
G01*
X125773621Y-88029302D01*
X125910022Y-88085801D01*
X126032779Y-88167825D01*
X126137175Y-88272221D01*
X126219199Y-88394978D01*
X126275698Y-88531379D01*
X126300401Y-88655575D01*
X126304500Y-88676180D01*
X126304500Y-88823820D01*
X126304030Y-88826181D01*
X126275698Y-88968621D01*
X126219199Y-89105022D01*
X126137175Y-89227779D01*
X126032779Y-89332175D01*
X125910022Y-89414199D01*
X125773621Y-89470698D01*
X125649425Y-89495401D01*
X125628820Y-89499500D01*
X125481180Y-89499500D01*
X125460575Y-89495401D01*
X125336379Y-89470698D01*
X125199978Y-89414199D01*
X125077221Y-89332175D01*
X124972825Y-89227779D01*
X124890801Y-89105022D01*
X124834302Y-88968621D01*
X124805970Y-88826181D01*
X124805500Y-88823820D01*
X124805500Y-88676180D01*
X124809599Y-88655575D01*
X124834302Y-88531379D01*
X124890801Y-88394978D01*
X124972825Y-88272221D01*
X125077221Y-88167825D01*
X125199978Y-88085801D01*
X125336379Y-88029302D01*
X125460575Y-88004599D01*
X125481180Y-88000500D01*
X125628820Y-88000500D01*
X125649425Y-88004599D01*
X125649425Y-88004599D01*
G37*
G36*
X120569425Y-88004599D02*
G01*
X120693621Y-88029302D01*
X120830022Y-88085801D01*
X120952779Y-88167825D01*
X121057175Y-88272221D01*
X121139199Y-88394978D01*
X121195698Y-88531379D01*
X121220401Y-88655575D01*
X121224500Y-88676180D01*
X121224500Y-88823820D01*
X121224030Y-88826181D01*
X121195698Y-88968621D01*
X121139199Y-89105022D01*
X121057175Y-89227779D01*
X120952779Y-89332175D01*
X120830022Y-89414199D01*
X120693621Y-89470698D01*
X120569425Y-89495401D01*
X120548820Y-89499500D01*
X120401180Y-89499500D01*
X120380575Y-89495401D01*
X120256379Y-89470698D01*
X120119978Y-89414199D01*
X119997221Y-89332175D01*
X119892825Y-89227779D01*
X119810801Y-89105022D01*
X119754302Y-88968621D01*
X119725970Y-88826181D01*
X119725500Y-88823820D01*
X119725500Y-88676180D01*
X119729599Y-88655575D01*
X119754302Y-88531379D01*
X119810801Y-88394978D01*
X119892825Y-88272221D01*
X119997221Y-88167825D01*
X120119978Y-88085801D01*
X120256379Y-88029302D01*
X120380575Y-88004599D01*
X120401180Y-88000500D01*
X120548820Y-88000500D01*
X120569425Y-88004599D01*
X120569425Y-88004599D01*
G37*
G36*
X116124425Y-88004599D02*
G01*
X116248621Y-88029302D01*
X116385022Y-88085801D01*
X116507779Y-88167825D01*
X116612175Y-88272221D01*
X116694199Y-88394978D01*
X116750698Y-88531379D01*
X116775401Y-88655575D01*
X116779500Y-88676180D01*
X116779500Y-88823820D01*
X116779030Y-88826181D01*
X116750698Y-88968621D01*
X116694199Y-89105022D01*
X116612175Y-89227779D01*
X116507779Y-89332175D01*
X116385022Y-89414199D01*
X116248621Y-89470698D01*
X116124425Y-89495401D01*
X116103820Y-89499500D01*
X115956180Y-89499500D01*
X115935575Y-89495401D01*
X115811379Y-89470698D01*
X115674978Y-89414199D01*
X115552221Y-89332175D01*
X115447825Y-89227779D01*
X115365801Y-89105022D01*
X115309302Y-88968621D01*
X115280970Y-88826181D01*
X115280500Y-88823820D01*
X115280500Y-88676180D01*
X115284599Y-88655575D01*
X115309302Y-88531379D01*
X115365801Y-88394978D01*
X115447825Y-88272221D01*
X115552221Y-88167825D01*
X115674978Y-88085801D01*
X115811379Y-88029302D01*
X115935575Y-88004599D01*
X115956180Y-88000500D01*
X116103820Y-88000500D01*
X116124425Y-88004599D01*
X116124425Y-88004599D01*
G37*
G36*
X158893444Y-85911882D02*
G01*
X159120201Y-86005808D01*
X159120202Y-86005809D01*
X159324279Y-86142168D01*
X159497832Y-86315721D01*
X159588944Y-86452081D01*
X159634192Y-86519799D01*
X159728118Y-86746556D01*
X159776000Y-86987278D01*
X159776000Y-87232722D01*
X159728118Y-87473444D01*
X159634192Y-87700201D01*
X159634191Y-87700202D01*
X159497832Y-87904279D01*
X159324279Y-88077832D01*
X159312352Y-88085801D01*
X159120201Y-88214192D01*
X158893444Y-88308118D01*
X158652722Y-88356000D01*
X158407278Y-88356000D01*
X158166556Y-88308118D01*
X157939799Y-88214192D01*
X157747648Y-88085801D01*
X157735721Y-88077832D01*
X157562168Y-87904279D01*
X157425809Y-87700202D01*
X157425808Y-87700201D01*
X157331882Y-87473444D01*
X157284000Y-87232722D01*
X157284000Y-86987278D01*
X157331882Y-86746556D01*
X157425808Y-86519799D01*
X157471056Y-86452081D01*
X157562168Y-86315721D01*
X157735721Y-86142168D01*
X157939798Y-86005809D01*
X157939799Y-86005808D01*
X158166556Y-85911882D01*
X158407278Y-85864000D01*
X158652722Y-85864000D01*
X158893444Y-85911882D01*
X158893444Y-85911882D01*
G37*
G36*
X134281000Y-87601000D02*
G01*
X130379000Y-87601000D01*
X130379000Y-85499000D01*
X134281000Y-85499000D01*
X134281000Y-87601000D01*
X134281000Y-87601000D01*
G37*
G36*
X153756000Y-87431000D02*
G01*
X147304000Y-87431000D01*
X147304000Y-79989000D01*
X153756000Y-79989000D01*
X153756000Y-87431000D01*
X153756000Y-87431000D01*
G37*
G36*
X144110442Y-80145518D02*
G01*
X144176627Y-80152037D01*
X144346466Y-80203557D01*
X144502991Y-80287222D01*
X144538729Y-80316552D01*
X144640186Y-80399814D01*
X144723448Y-80501271D01*
X144752778Y-80537009D01*
X144836443Y-80693534D01*
X144887963Y-80863373D01*
X144905359Y-81040000D01*
X144887963Y-81216627D01*
X144836443Y-81386466D01*
X144752778Y-81542991D01*
X144723448Y-81578729D01*
X144640186Y-81680186D01*
X144538729Y-81763448D01*
X144502991Y-81792778D01*
X144346466Y-81876443D01*
X144176627Y-81927963D01*
X144110443Y-81934481D01*
X144044260Y-81941000D01*
X143955740Y-81941000D01*
X143889557Y-81934481D01*
X143823373Y-81927963D01*
X143653534Y-81876443D01*
X143497009Y-81792778D01*
X143461271Y-81763448D01*
X143359814Y-81680186D01*
X143276552Y-81578729D01*
X143247222Y-81542991D01*
X143163557Y-81386466D01*
X143112037Y-81216627D01*
X143094641Y-81040000D01*
X143112037Y-80863373D01*
X143163557Y-80693534D01*
X143247222Y-80537009D01*
X143276552Y-80501271D01*
X143359814Y-80399814D01*
X143461271Y-80316552D01*
X143497009Y-80287222D01*
X143653534Y-80203557D01*
X143823373Y-80152037D01*
X143889558Y-80145518D01*
X143955740Y-80139000D01*
X144044260Y-80139000D01*
X144110442Y-80145518D01*
X144110442Y-80145518D01*
G37*
G36*
X142361000Y-81941000D02*
G01*
X140559000Y-81941000D01*
X140559000Y-80139000D01*
X142361000Y-80139000D01*
X142361000Y-81941000D01*
X142361000Y-81941000D01*
G37*
M02*
