G04 #@! TF.GenerationSoftware,KiCad,Pcbnew,5.0.2+dfsg1-1~bpo9+1*
G04 #@! TF.CreationDate,2019-10-12T12:41:39-07:00*
G04 #@! TF.ProjectId,birdEar,62697264-4561-4722-9e6b-696361645f70,rev?*
G04 #@! TF.SameCoordinates,Original*
G04 #@! TF.FileFunction,Paste,Top*
G04 #@! TF.FilePolarity,Positive*
%FSLAX46Y46*%
G04 Gerber Fmt 4.6, Leading zero omitted, Abs format (unit mm)*
G04 Created by KiCad (PCBNEW 5.0.2+dfsg1-1~bpo9+1) date Sat 12 Oct 2019 12:41:39 PM PDT*
%MOMM*%
%LPD*%
G01*
G04 APERTURE LIST*
%ADD10R,1.550000X0.300000*%
%ADD11R,0.300000X1.550000*%
%ADD12C,0.100000*%
%ADD13C,0.975000*%
%ADD14C,0.600000*%
%ADD15C,0.400000*%
%ADD16R,6.350000X7.340000*%
%ADD17R,0.700000X1.200000*%
%ADD18R,1.000000X1.200000*%
%ADD19R,1.000000X0.800000*%
%ADD20R,1.000000X2.800000*%
%ADD21R,1.300000X1.900000*%
%ADD22C,0.300000*%
%ADD23R,1.500000X0.600000*%
%ADD24R,3.800000X2.000000*%
%ADD25R,1.500000X2.000000*%
G04 APERTURE END LIST*
D10*
G04 #@! TO.C,U3*
X114030000Y-109210000D03*
X114030000Y-109710000D03*
X114030000Y-110210000D03*
X114030000Y-110710000D03*
X114030000Y-111210000D03*
X114030000Y-111710000D03*
X114030000Y-112210000D03*
X114030000Y-112710000D03*
X114030000Y-113210000D03*
X114030000Y-113710000D03*
X114030000Y-114210000D03*
X114030000Y-114710000D03*
X114030000Y-115210000D03*
X114030000Y-115710000D03*
X114030000Y-116210000D03*
X114030000Y-116710000D03*
X114030000Y-117210000D03*
X114030000Y-117710000D03*
X114030000Y-118210000D03*
X114030000Y-118710000D03*
X114030000Y-119210000D03*
X114030000Y-119710000D03*
X114030000Y-120210000D03*
X114030000Y-120710000D03*
X114030000Y-121210000D03*
X114030000Y-121710000D03*
X114030000Y-122210000D03*
X114030000Y-122710000D03*
X114030000Y-123210000D03*
X114030000Y-123710000D03*
X114030000Y-124210000D03*
X114030000Y-124710000D03*
X114030000Y-125210000D03*
X114030000Y-125710000D03*
X114030000Y-126210000D03*
X114030000Y-126710000D03*
D11*
X112080000Y-128660000D03*
X111580000Y-128660000D03*
X111080000Y-128660000D03*
X110580000Y-128660000D03*
X110080000Y-128660000D03*
X109580000Y-128660000D03*
X109080000Y-128660000D03*
X108580000Y-128660000D03*
X108080000Y-128660000D03*
X107580000Y-128660000D03*
X107080000Y-128660000D03*
X106580000Y-128660000D03*
X106080000Y-128660000D03*
X105580000Y-128660000D03*
X105080000Y-128660000D03*
X104580000Y-128660000D03*
X104080000Y-128660000D03*
X103580000Y-128660000D03*
X103080000Y-128660000D03*
X102580000Y-128660000D03*
X102080000Y-128660000D03*
X101580000Y-128660000D03*
X101080000Y-128660000D03*
X100580000Y-128660000D03*
X100080000Y-128660000D03*
X99580000Y-128660000D03*
X99080000Y-128660000D03*
X98580000Y-128660000D03*
X98080000Y-128660000D03*
X97580000Y-128660000D03*
X97080000Y-128660000D03*
X96580000Y-128660000D03*
X96080000Y-128660000D03*
X95580000Y-128660000D03*
X95080000Y-128660000D03*
X94580000Y-128660000D03*
D10*
X92630000Y-126710000D03*
X92630000Y-126210000D03*
X92630000Y-125710000D03*
X92630000Y-125210000D03*
X92630000Y-124710000D03*
X92630000Y-124210000D03*
X92630000Y-123710000D03*
X92630000Y-123210000D03*
X92630000Y-122710000D03*
X92630000Y-122210000D03*
X92630000Y-121710000D03*
X92630000Y-121210000D03*
X92630000Y-120710000D03*
X92630000Y-120210000D03*
X92630000Y-119710000D03*
X92630000Y-119210000D03*
X92630000Y-118710000D03*
X92630000Y-118210000D03*
X92630000Y-117710000D03*
X92630000Y-117210000D03*
X92630000Y-116710000D03*
X92630000Y-116210000D03*
X92630000Y-115710000D03*
X92630000Y-115210000D03*
X92630000Y-114710000D03*
X92630000Y-114210000D03*
X92630000Y-113710000D03*
X92630000Y-113210000D03*
X92630000Y-112710000D03*
X92630000Y-112210000D03*
X92630000Y-111710000D03*
X92630000Y-111210000D03*
X92630000Y-110710000D03*
X92630000Y-110210000D03*
X92630000Y-109710000D03*
X92630000Y-109210000D03*
D11*
X94580000Y-107260000D03*
X95080000Y-107260000D03*
X95580000Y-107260000D03*
X96080000Y-107260000D03*
X96580000Y-107260000D03*
X97080000Y-107260000D03*
X97580000Y-107260000D03*
X98080000Y-107260000D03*
X98580000Y-107260000D03*
X99080000Y-107260000D03*
X99580000Y-107260000D03*
X100080000Y-107260000D03*
X100580000Y-107260000D03*
X101080000Y-107260000D03*
X101580000Y-107260000D03*
X102080000Y-107260000D03*
X102580000Y-107260000D03*
X103080000Y-107260000D03*
X103580000Y-107260000D03*
X104080000Y-107260000D03*
X104580000Y-107260000D03*
X105080000Y-107260000D03*
X105580000Y-107260000D03*
X106080000Y-107260000D03*
X106580000Y-107260000D03*
X107080000Y-107260000D03*
X107580000Y-107260000D03*
X108080000Y-107260000D03*
X108580000Y-107260000D03*
X109080000Y-107260000D03*
X109580000Y-107260000D03*
X110080000Y-107260000D03*
X110580000Y-107260000D03*
X111080000Y-107260000D03*
X111580000Y-107260000D03*
X112080000Y-107260000D03*
G04 #@! TD*
D12*
G04 #@! TO.C,R15*
G36*
X92040142Y-104076174D02*
X92063803Y-104079684D01*
X92087007Y-104085496D01*
X92109529Y-104093554D01*
X92131153Y-104103782D01*
X92151670Y-104116079D01*
X92170883Y-104130329D01*
X92188607Y-104146393D01*
X92204671Y-104164117D01*
X92218921Y-104183330D01*
X92231218Y-104203847D01*
X92241446Y-104225471D01*
X92249504Y-104247993D01*
X92255316Y-104271197D01*
X92258826Y-104294858D01*
X92260000Y-104318750D01*
X92260000Y-105231250D01*
X92258826Y-105255142D01*
X92255316Y-105278803D01*
X92249504Y-105302007D01*
X92241446Y-105324529D01*
X92231218Y-105346153D01*
X92218921Y-105366670D01*
X92204671Y-105385883D01*
X92188607Y-105403607D01*
X92170883Y-105419671D01*
X92151670Y-105433921D01*
X92131153Y-105446218D01*
X92109529Y-105456446D01*
X92087007Y-105464504D01*
X92063803Y-105470316D01*
X92040142Y-105473826D01*
X92016250Y-105475000D01*
X91528750Y-105475000D01*
X91504858Y-105473826D01*
X91481197Y-105470316D01*
X91457993Y-105464504D01*
X91435471Y-105456446D01*
X91413847Y-105446218D01*
X91393330Y-105433921D01*
X91374117Y-105419671D01*
X91356393Y-105403607D01*
X91340329Y-105385883D01*
X91326079Y-105366670D01*
X91313782Y-105346153D01*
X91303554Y-105324529D01*
X91295496Y-105302007D01*
X91289684Y-105278803D01*
X91286174Y-105255142D01*
X91285000Y-105231250D01*
X91285000Y-104318750D01*
X91286174Y-104294858D01*
X91289684Y-104271197D01*
X91295496Y-104247993D01*
X91303554Y-104225471D01*
X91313782Y-104203847D01*
X91326079Y-104183330D01*
X91340329Y-104164117D01*
X91356393Y-104146393D01*
X91374117Y-104130329D01*
X91393330Y-104116079D01*
X91413847Y-104103782D01*
X91435471Y-104093554D01*
X91457993Y-104085496D01*
X91481197Y-104079684D01*
X91504858Y-104076174D01*
X91528750Y-104075000D01*
X92016250Y-104075000D01*
X92040142Y-104076174D01*
X92040142Y-104076174D01*
G37*
D13*
X91772500Y-104775000D03*
D12*
G36*
X93915142Y-104076174D02*
X93938803Y-104079684D01*
X93962007Y-104085496D01*
X93984529Y-104093554D01*
X94006153Y-104103782D01*
X94026670Y-104116079D01*
X94045883Y-104130329D01*
X94063607Y-104146393D01*
X94079671Y-104164117D01*
X94093921Y-104183330D01*
X94106218Y-104203847D01*
X94116446Y-104225471D01*
X94124504Y-104247993D01*
X94130316Y-104271197D01*
X94133826Y-104294858D01*
X94135000Y-104318750D01*
X94135000Y-105231250D01*
X94133826Y-105255142D01*
X94130316Y-105278803D01*
X94124504Y-105302007D01*
X94116446Y-105324529D01*
X94106218Y-105346153D01*
X94093921Y-105366670D01*
X94079671Y-105385883D01*
X94063607Y-105403607D01*
X94045883Y-105419671D01*
X94026670Y-105433921D01*
X94006153Y-105446218D01*
X93984529Y-105456446D01*
X93962007Y-105464504D01*
X93938803Y-105470316D01*
X93915142Y-105473826D01*
X93891250Y-105475000D01*
X93403750Y-105475000D01*
X93379858Y-105473826D01*
X93356197Y-105470316D01*
X93332993Y-105464504D01*
X93310471Y-105456446D01*
X93288847Y-105446218D01*
X93268330Y-105433921D01*
X93249117Y-105419671D01*
X93231393Y-105403607D01*
X93215329Y-105385883D01*
X93201079Y-105366670D01*
X93188782Y-105346153D01*
X93178554Y-105324529D01*
X93170496Y-105302007D01*
X93164684Y-105278803D01*
X93161174Y-105255142D01*
X93160000Y-105231250D01*
X93160000Y-104318750D01*
X93161174Y-104294858D01*
X93164684Y-104271197D01*
X93170496Y-104247993D01*
X93178554Y-104225471D01*
X93188782Y-104203847D01*
X93201079Y-104183330D01*
X93215329Y-104164117D01*
X93231393Y-104146393D01*
X93249117Y-104130329D01*
X93268330Y-104116079D01*
X93288847Y-104103782D01*
X93310471Y-104093554D01*
X93332993Y-104085496D01*
X93356197Y-104079684D01*
X93379858Y-104076174D01*
X93403750Y-104075000D01*
X93891250Y-104075000D01*
X93915142Y-104076174D01*
X93915142Y-104076174D01*
G37*
D13*
X93647500Y-104775000D03*
G04 #@! TD*
D12*
G04 #@! TO.C,C23*
G36*
X94460142Y-102383674D02*
X94483803Y-102387184D01*
X94507007Y-102392996D01*
X94529529Y-102401054D01*
X94551153Y-102411282D01*
X94571670Y-102423579D01*
X94590883Y-102437829D01*
X94608607Y-102453893D01*
X94624671Y-102471617D01*
X94638921Y-102490830D01*
X94651218Y-102511347D01*
X94661446Y-102532971D01*
X94669504Y-102555493D01*
X94675316Y-102578697D01*
X94678826Y-102602358D01*
X94680000Y-102626250D01*
X94680000Y-103113750D01*
X94678826Y-103137642D01*
X94675316Y-103161303D01*
X94669504Y-103184507D01*
X94661446Y-103207029D01*
X94651218Y-103228653D01*
X94638921Y-103249170D01*
X94624671Y-103268383D01*
X94608607Y-103286107D01*
X94590883Y-103302171D01*
X94571670Y-103316421D01*
X94551153Y-103328718D01*
X94529529Y-103338946D01*
X94507007Y-103347004D01*
X94483803Y-103352816D01*
X94460142Y-103356326D01*
X94436250Y-103357500D01*
X93523750Y-103357500D01*
X93499858Y-103356326D01*
X93476197Y-103352816D01*
X93452993Y-103347004D01*
X93430471Y-103338946D01*
X93408847Y-103328718D01*
X93388330Y-103316421D01*
X93369117Y-103302171D01*
X93351393Y-103286107D01*
X93335329Y-103268383D01*
X93321079Y-103249170D01*
X93308782Y-103228653D01*
X93298554Y-103207029D01*
X93290496Y-103184507D01*
X93284684Y-103161303D01*
X93281174Y-103137642D01*
X93280000Y-103113750D01*
X93280000Y-102626250D01*
X93281174Y-102602358D01*
X93284684Y-102578697D01*
X93290496Y-102555493D01*
X93298554Y-102532971D01*
X93308782Y-102511347D01*
X93321079Y-102490830D01*
X93335329Y-102471617D01*
X93351393Y-102453893D01*
X93369117Y-102437829D01*
X93388330Y-102423579D01*
X93408847Y-102411282D01*
X93430471Y-102401054D01*
X93452993Y-102392996D01*
X93476197Y-102387184D01*
X93499858Y-102383674D01*
X93523750Y-102382500D01*
X94436250Y-102382500D01*
X94460142Y-102383674D01*
X94460142Y-102383674D01*
G37*
D13*
X93980000Y-102870000D03*
D12*
G36*
X94460142Y-100508674D02*
X94483803Y-100512184D01*
X94507007Y-100517996D01*
X94529529Y-100526054D01*
X94551153Y-100536282D01*
X94571670Y-100548579D01*
X94590883Y-100562829D01*
X94608607Y-100578893D01*
X94624671Y-100596617D01*
X94638921Y-100615830D01*
X94651218Y-100636347D01*
X94661446Y-100657971D01*
X94669504Y-100680493D01*
X94675316Y-100703697D01*
X94678826Y-100727358D01*
X94680000Y-100751250D01*
X94680000Y-101238750D01*
X94678826Y-101262642D01*
X94675316Y-101286303D01*
X94669504Y-101309507D01*
X94661446Y-101332029D01*
X94651218Y-101353653D01*
X94638921Y-101374170D01*
X94624671Y-101393383D01*
X94608607Y-101411107D01*
X94590883Y-101427171D01*
X94571670Y-101441421D01*
X94551153Y-101453718D01*
X94529529Y-101463946D01*
X94507007Y-101472004D01*
X94483803Y-101477816D01*
X94460142Y-101481326D01*
X94436250Y-101482500D01*
X93523750Y-101482500D01*
X93499858Y-101481326D01*
X93476197Y-101477816D01*
X93452993Y-101472004D01*
X93430471Y-101463946D01*
X93408847Y-101453718D01*
X93388330Y-101441421D01*
X93369117Y-101427171D01*
X93351393Y-101411107D01*
X93335329Y-101393383D01*
X93321079Y-101374170D01*
X93308782Y-101353653D01*
X93298554Y-101332029D01*
X93290496Y-101309507D01*
X93284684Y-101286303D01*
X93281174Y-101262642D01*
X93280000Y-101238750D01*
X93280000Y-100751250D01*
X93281174Y-100727358D01*
X93284684Y-100703697D01*
X93290496Y-100680493D01*
X93298554Y-100657971D01*
X93308782Y-100636347D01*
X93321079Y-100615830D01*
X93335329Y-100596617D01*
X93351393Y-100578893D01*
X93369117Y-100562829D01*
X93388330Y-100548579D01*
X93408847Y-100536282D01*
X93430471Y-100526054D01*
X93452993Y-100517996D01*
X93476197Y-100512184D01*
X93499858Y-100508674D01*
X93523750Y-100507500D01*
X94436250Y-100507500D01*
X94460142Y-100508674D01*
X94460142Y-100508674D01*
G37*
D13*
X93980000Y-100995000D03*
G04 #@! TD*
D12*
G04 #@! TO.C,U4*
G36*
X136175703Y-110859722D02*
X136190264Y-110861882D01*
X136204543Y-110865459D01*
X136218403Y-110870418D01*
X136231710Y-110876712D01*
X136244336Y-110884280D01*
X136256159Y-110893048D01*
X136267066Y-110902934D01*
X136276952Y-110913841D01*
X136285720Y-110925664D01*
X136293288Y-110938290D01*
X136299582Y-110951597D01*
X136304541Y-110965457D01*
X136308118Y-110979736D01*
X136310278Y-110994297D01*
X136311000Y-111009000D01*
X136311000Y-111679000D01*
X136310278Y-111693703D01*
X136308118Y-111708264D01*
X136304541Y-111722543D01*
X136299582Y-111736403D01*
X136293288Y-111749710D01*
X136285720Y-111762336D01*
X136276952Y-111774159D01*
X136267066Y-111785066D01*
X136256159Y-111794952D01*
X136244336Y-111803720D01*
X136231710Y-111811288D01*
X136218403Y-111817582D01*
X136204543Y-111822541D01*
X136190264Y-111826118D01*
X136175703Y-111828278D01*
X136161000Y-111829000D01*
X135861000Y-111829000D01*
X135846297Y-111828278D01*
X135831736Y-111826118D01*
X135817457Y-111822541D01*
X135803597Y-111817582D01*
X135790290Y-111811288D01*
X135777664Y-111803720D01*
X135765841Y-111794952D01*
X135754934Y-111785066D01*
X135745048Y-111774159D01*
X135736280Y-111762336D01*
X135728712Y-111749710D01*
X135722418Y-111736403D01*
X135717459Y-111722543D01*
X135713882Y-111708264D01*
X135711722Y-111693703D01*
X135711000Y-111679000D01*
X135711000Y-111009000D01*
X135711722Y-110994297D01*
X135713882Y-110979736D01*
X135717459Y-110965457D01*
X135722418Y-110951597D01*
X135728712Y-110938290D01*
X135736280Y-110925664D01*
X135745048Y-110913841D01*
X135754934Y-110902934D01*
X135765841Y-110893048D01*
X135777664Y-110884280D01*
X135790290Y-110876712D01*
X135803597Y-110870418D01*
X135817457Y-110865459D01*
X135831736Y-110861882D01*
X135846297Y-110859722D01*
X135861000Y-110859000D01*
X136161000Y-110859000D01*
X136175703Y-110859722D01*
X136175703Y-110859722D01*
G37*
D14*
X136011000Y-111344000D03*
D12*
G36*
X136175703Y-109659722D02*
X136190264Y-109661882D01*
X136204543Y-109665459D01*
X136218403Y-109670418D01*
X136231710Y-109676712D01*
X136244336Y-109684280D01*
X136256159Y-109693048D01*
X136267066Y-109702934D01*
X136276952Y-109713841D01*
X136285720Y-109725664D01*
X136293288Y-109738290D01*
X136299582Y-109751597D01*
X136304541Y-109765457D01*
X136308118Y-109779736D01*
X136310278Y-109794297D01*
X136311000Y-109809000D01*
X136311000Y-110479000D01*
X136310278Y-110493703D01*
X136308118Y-110508264D01*
X136304541Y-110522543D01*
X136299582Y-110536403D01*
X136293288Y-110549710D01*
X136285720Y-110562336D01*
X136276952Y-110574159D01*
X136267066Y-110585066D01*
X136256159Y-110594952D01*
X136244336Y-110603720D01*
X136231710Y-110611288D01*
X136218403Y-110617582D01*
X136204543Y-110622541D01*
X136190264Y-110626118D01*
X136175703Y-110628278D01*
X136161000Y-110629000D01*
X135861000Y-110629000D01*
X135846297Y-110628278D01*
X135831736Y-110626118D01*
X135817457Y-110622541D01*
X135803597Y-110617582D01*
X135790290Y-110611288D01*
X135777664Y-110603720D01*
X135765841Y-110594952D01*
X135754934Y-110585066D01*
X135745048Y-110574159D01*
X135736280Y-110562336D01*
X135728712Y-110549710D01*
X135722418Y-110536403D01*
X135717459Y-110522543D01*
X135713882Y-110508264D01*
X135711722Y-110493703D01*
X135711000Y-110479000D01*
X135711000Y-109809000D01*
X135711722Y-109794297D01*
X135713882Y-109779736D01*
X135717459Y-109765457D01*
X135722418Y-109751597D01*
X135728712Y-109738290D01*
X135736280Y-109725664D01*
X135745048Y-109713841D01*
X135754934Y-109702934D01*
X135765841Y-109693048D01*
X135777664Y-109684280D01*
X135790290Y-109676712D01*
X135803597Y-109670418D01*
X135817457Y-109665459D01*
X135831736Y-109661882D01*
X135846297Y-109659722D01*
X135861000Y-109659000D01*
X136161000Y-109659000D01*
X136175703Y-109659722D01*
X136175703Y-109659722D01*
G37*
D14*
X136011000Y-110144000D03*
D12*
G36*
X135425703Y-110859722D02*
X135440264Y-110861882D01*
X135454543Y-110865459D01*
X135468403Y-110870418D01*
X135481710Y-110876712D01*
X135494336Y-110884280D01*
X135506159Y-110893048D01*
X135517066Y-110902934D01*
X135526952Y-110913841D01*
X135535720Y-110925664D01*
X135543288Y-110938290D01*
X135549582Y-110951597D01*
X135554541Y-110965457D01*
X135558118Y-110979736D01*
X135560278Y-110994297D01*
X135561000Y-111009000D01*
X135561000Y-111679000D01*
X135560278Y-111693703D01*
X135558118Y-111708264D01*
X135554541Y-111722543D01*
X135549582Y-111736403D01*
X135543288Y-111749710D01*
X135535720Y-111762336D01*
X135526952Y-111774159D01*
X135517066Y-111785066D01*
X135506159Y-111794952D01*
X135494336Y-111803720D01*
X135481710Y-111811288D01*
X135468403Y-111817582D01*
X135454543Y-111822541D01*
X135440264Y-111826118D01*
X135425703Y-111828278D01*
X135411000Y-111829000D01*
X135111000Y-111829000D01*
X135096297Y-111828278D01*
X135081736Y-111826118D01*
X135067457Y-111822541D01*
X135053597Y-111817582D01*
X135040290Y-111811288D01*
X135027664Y-111803720D01*
X135015841Y-111794952D01*
X135004934Y-111785066D01*
X134995048Y-111774159D01*
X134986280Y-111762336D01*
X134978712Y-111749710D01*
X134972418Y-111736403D01*
X134967459Y-111722543D01*
X134963882Y-111708264D01*
X134961722Y-111693703D01*
X134961000Y-111679000D01*
X134961000Y-111009000D01*
X134961722Y-110994297D01*
X134963882Y-110979736D01*
X134967459Y-110965457D01*
X134972418Y-110951597D01*
X134978712Y-110938290D01*
X134986280Y-110925664D01*
X134995048Y-110913841D01*
X135004934Y-110902934D01*
X135015841Y-110893048D01*
X135027664Y-110884280D01*
X135040290Y-110876712D01*
X135053597Y-110870418D01*
X135067457Y-110865459D01*
X135081736Y-110861882D01*
X135096297Y-110859722D01*
X135111000Y-110859000D01*
X135411000Y-110859000D01*
X135425703Y-110859722D01*
X135425703Y-110859722D01*
G37*
D14*
X135261000Y-111344000D03*
D12*
G36*
X135425703Y-109659722D02*
X135440264Y-109661882D01*
X135454543Y-109665459D01*
X135468403Y-109670418D01*
X135481710Y-109676712D01*
X135494336Y-109684280D01*
X135506159Y-109693048D01*
X135517066Y-109702934D01*
X135526952Y-109713841D01*
X135535720Y-109725664D01*
X135543288Y-109738290D01*
X135549582Y-109751597D01*
X135554541Y-109765457D01*
X135558118Y-109779736D01*
X135560278Y-109794297D01*
X135561000Y-109809000D01*
X135561000Y-110479000D01*
X135560278Y-110493703D01*
X135558118Y-110508264D01*
X135554541Y-110522543D01*
X135549582Y-110536403D01*
X135543288Y-110549710D01*
X135535720Y-110562336D01*
X135526952Y-110574159D01*
X135517066Y-110585066D01*
X135506159Y-110594952D01*
X135494336Y-110603720D01*
X135481710Y-110611288D01*
X135468403Y-110617582D01*
X135454543Y-110622541D01*
X135440264Y-110626118D01*
X135425703Y-110628278D01*
X135411000Y-110629000D01*
X135111000Y-110629000D01*
X135096297Y-110628278D01*
X135081736Y-110626118D01*
X135067457Y-110622541D01*
X135053597Y-110617582D01*
X135040290Y-110611288D01*
X135027664Y-110603720D01*
X135015841Y-110594952D01*
X135004934Y-110585066D01*
X134995048Y-110574159D01*
X134986280Y-110562336D01*
X134978712Y-110549710D01*
X134972418Y-110536403D01*
X134967459Y-110522543D01*
X134963882Y-110508264D01*
X134961722Y-110493703D01*
X134961000Y-110479000D01*
X134961000Y-109809000D01*
X134961722Y-109794297D01*
X134963882Y-109779736D01*
X134967459Y-109765457D01*
X134972418Y-109751597D01*
X134978712Y-109738290D01*
X134986280Y-109725664D01*
X134995048Y-109713841D01*
X135004934Y-109702934D01*
X135015841Y-109693048D01*
X135027664Y-109684280D01*
X135040290Y-109676712D01*
X135053597Y-109670418D01*
X135067457Y-109665459D01*
X135081736Y-109661882D01*
X135096297Y-109659722D01*
X135111000Y-109659000D01*
X135411000Y-109659000D01*
X135425703Y-109659722D01*
X135425703Y-109659722D01*
G37*
D14*
X135261000Y-110144000D03*
D12*
G36*
X137395802Y-111544482D02*
X137405509Y-111545921D01*
X137415028Y-111548306D01*
X137424268Y-111551612D01*
X137433140Y-111555808D01*
X137441557Y-111560853D01*
X137449439Y-111566699D01*
X137456711Y-111573289D01*
X137463301Y-111580561D01*
X137469147Y-111588443D01*
X137474192Y-111596860D01*
X137478388Y-111605732D01*
X137481694Y-111614972D01*
X137484079Y-111624491D01*
X137485518Y-111634198D01*
X137486000Y-111644000D01*
X137486000Y-111844000D01*
X137485518Y-111853802D01*
X137484079Y-111863509D01*
X137481694Y-111873028D01*
X137478388Y-111882268D01*
X137474192Y-111891140D01*
X137469147Y-111899557D01*
X137463301Y-111907439D01*
X137456711Y-111914711D01*
X137449439Y-111921301D01*
X137441557Y-111927147D01*
X137433140Y-111932192D01*
X137424268Y-111936388D01*
X137415028Y-111939694D01*
X137405509Y-111942079D01*
X137395802Y-111943518D01*
X137386000Y-111944000D01*
X136786000Y-111944000D01*
X136776198Y-111943518D01*
X136766491Y-111942079D01*
X136756972Y-111939694D01*
X136747732Y-111936388D01*
X136738860Y-111932192D01*
X136730443Y-111927147D01*
X136722561Y-111921301D01*
X136715289Y-111914711D01*
X136708699Y-111907439D01*
X136702853Y-111899557D01*
X136697808Y-111891140D01*
X136693612Y-111882268D01*
X136690306Y-111873028D01*
X136687921Y-111863509D01*
X136686482Y-111853802D01*
X136686000Y-111844000D01*
X136686000Y-111644000D01*
X136686482Y-111634198D01*
X136687921Y-111624491D01*
X136690306Y-111614972D01*
X136693612Y-111605732D01*
X136697808Y-111596860D01*
X136702853Y-111588443D01*
X136708699Y-111580561D01*
X136715289Y-111573289D01*
X136722561Y-111566699D01*
X136730443Y-111560853D01*
X136738860Y-111555808D01*
X136747732Y-111551612D01*
X136756972Y-111548306D01*
X136766491Y-111545921D01*
X136776198Y-111544482D01*
X136786000Y-111544000D01*
X137386000Y-111544000D01*
X137395802Y-111544482D01*
X137395802Y-111544482D01*
G37*
D15*
X137086000Y-111744000D03*
D12*
G36*
X137395802Y-110544482D02*
X137405509Y-110545921D01*
X137415028Y-110548306D01*
X137424268Y-110551612D01*
X137433140Y-110555808D01*
X137441557Y-110560853D01*
X137449439Y-110566699D01*
X137456711Y-110573289D01*
X137463301Y-110580561D01*
X137469147Y-110588443D01*
X137474192Y-110596860D01*
X137478388Y-110605732D01*
X137481694Y-110614972D01*
X137484079Y-110624491D01*
X137485518Y-110634198D01*
X137486000Y-110644000D01*
X137486000Y-110844000D01*
X137485518Y-110853802D01*
X137484079Y-110863509D01*
X137481694Y-110873028D01*
X137478388Y-110882268D01*
X137474192Y-110891140D01*
X137469147Y-110899557D01*
X137463301Y-110907439D01*
X137456711Y-110914711D01*
X137449439Y-110921301D01*
X137441557Y-110927147D01*
X137433140Y-110932192D01*
X137424268Y-110936388D01*
X137415028Y-110939694D01*
X137405509Y-110942079D01*
X137395802Y-110943518D01*
X137386000Y-110944000D01*
X136786000Y-110944000D01*
X136776198Y-110943518D01*
X136766491Y-110942079D01*
X136756972Y-110939694D01*
X136747732Y-110936388D01*
X136738860Y-110932192D01*
X136730443Y-110927147D01*
X136722561Y-110921301D01*
X136715289Y-110914711D01*
X136708699Y-110907439D01*
X136702853Y-110899557D01*
X136697808Y-110891140D01*
X136693612Y-110882268D01*
X136690306Y-110873028D01*
X136687921Y-110863509D01*
X136686482Y-110853802D01*
X136686000Y-110844000D01*
X136686000Y-110644000D01*
X136686482Y-110634198D01*
X136687921Y-110624491D01*
X136690306Y-110614972D01*
X136693612Y-110605732D01*
X136697808Y-110596860D01*
X136702853Y-110588443D01*
X136708699Y-110580561D01*
X136715289Y-110573289D01*
X136722561Y-110566699D01*
X136730443Y-110560853D01*
X136738860Y-110555808D01*
X136747732Y-110551612D01*
X136756972Y-110548306D01*
X136766491Y-110545921D01*
X136776198Y-110544482D01*
X136786000Y-110544000D01*
X137386000Y-110544000D01*
X137395802Y-110544482D01*
X137395802Y-110544482D01*
G37*
D15*
X137086000Y-110744000D03*
D12*
G36*
X137395802Y-109544482D02*
X137405509Y-109545921D01*
X137415028Y-109548306D01*
X137424268Y-109551612D01*
X137433140Y-109555808D01*
X137441557Y-109560853D01*
X137449439Y-109566699D01*
X137456711Y-109573289D01*
X137463301Y-109580561D01*
X137469147Y-109588443D01*
X137474192Y-109596860D01*
X137478388Y-109605732D01*
X137481694Y-109614972D01*
X137484079Y-109624491D01*
X137485518Y-109634198D01*
X137486000Y-109644000D01*
X137486000Y-109844000D01*
X137485518Y-109853802D01*
X137484079Y-109863509D01*
X137481694Y-109873028D01*
X137478388Y-109882268D01*
X137474192Y-109891140D01*
X137469147Y-109899557D01*
X137463301Y-109907439D01*
X137456711Y-109914711D01*
X137449439Y-109921301D01*
X137441557Y-109927147D01*
X137433140Y-109932192D01*
X137424268Y-109936388D01*
X137415028Y-109939694D01*
X137405509Y-109942079D01*
X137395802Y-109943518D01*
X137386000Y-109944000D01*
X136786000Y-109944000D01*
X136776198Y-109943518D01*
X136766491Y-109942079D01*
X136756972Y-109939694D01*
X136747732Y-109936388D01*
X136738860Y-109932192D01*
X136730443Y-109927147D01*
X136722561Y-109921301D01*
X136715289Y-109914711D01*
X136708699Y-109907439D01*
X136702853Y-109899557D01*
X136697808Y-109891140D01*
X136693612Y-109882268D01*
X136690306Y-109873028D01*
X136687921Y-109863509D01*
X136686482Y-109853802D01*
X136686000Y-109844000D01*
X136686000Y-109644000D01*
X136686482Y-109634198D01*
X136687921Y-109624491D01*
X136690306Y-109614972D01*
X136693612Y-109605732D01*
X136697808Y-109596860D01*
X136702853Y-109588443D01*
X136708699Y-109580561D01*
X136715289Y-109573289D01*
X136722561Y-109566699D01*
X136730443Y-109560853D01*
X136738860Y-109555808D01*
X136747732Y-109551612D01*
X136756972Y-109548306D01*
X136766491Y-109545921D01*
X136776198Y-109544482D01*
X136786000Y-109544000D01*
X137386000Y-109544000D01*
X137395802Y-109544482D01*
X137395802Y-109544482D01*
G37*
D15*
X137086000Y-109744000D03*
D12*
G36*
X134495802Y-109544482D02*
X134505509Y-109545921D01*
X134515028Y-109548306D01*
X134524268Y-109551612D01*
X134533140Y-109555808D01*
X134541557Y-109560853D01*
X134549439Y-109566699D01*
X134556711Y-109573289D01*
X134563301Y-109580561D01*
X134569147Y-109588443D01*
X134574192Y-109596860D01*
X134578388Y-109605732D01*
X134581694Y-109614972D01*
X134584079Y-109624491D01*
X134585518Y-109634198D01*
X134586000Y-109644000D01*
X134586000Y-109844000D01*
X134585518Y-109853802D01*
X134584079Y-109863509D01*
X134581694Y-109873028D01*
X134578388Y-109882268D01*
X134574192Y-109891140D01*
X134569147Y-109899557D01*
X134563301Y-109907439D01*
X134556711Y-109914711D01*
X134549439Y-109921301D01*
X134541557Y-109927147D01*
X134533140Y-109932192D01*
X134524268Y-109936388D01*
X134515028Y-109939694D01*
X134505509Y-109942079D01*
X134495802Y-109943518D01*
X134486000Y-109944000D01*
X133886000Y-109944000D01*
X133876198Y-109943518D01*
X133866491Y-109942079D01*
X133856972Y-109939694D01*
X133847732Y-109936388D01*
X133838860Y-109932192D01*
X133830443Y-109927147D01*
X133822561Y-109921301D01*
X133815289Y-109914711D01*
X133808699Y-109907439D01*
X133802853Y-109899557D01*
X133797808Y-109891140D01*
X133793612Y-109882268D01*
X133790306Y-109873028D01*
X133787921Y-109863509D01*
X133786482Y-109853802D01*
X133786000Y-109844000D01*
X133786000Y-109644000D01*
X133786482Y-109634198D01*
X133787921Y-109624491D01*
X133790306Y-109614972D01*
X133793612Y-109605732D01*
X133797808Y-109596860D01*
X133802853Y-109588443D01*
X133808699Y-109580561D01*
X133815289Y-109573289D01*
X133822561Y-109566699D01*
X133830443Y-109560853D01*
X133838860Y-109555808D01*
X133847732Y-109551612D01*
X133856972Y-109548306D01*
X133866491Y-109545921D01*
X133876198Y-109544482D01*
X133886000Y-109544000D01*
X134486000Y-109544000D01*
X134495802Y-109544482D01*
X134495802Y-109544482D01*
G37*
D15*
X134186000Y-109744000D03*
D12*
G36*
X134495802Y-110544482D02*
X134505509Y-110545921D01*
X134515028Y-110548306D01*
X134524268Y-110551612D01*
X134533140Y-110555808D01*
X134541557Y-110560853D01*
X134549439Y-110566699D01*
X134556711Y-110573289D01*
X134563301Y-110580561D01*
X134569147Y-110588443D01*
X134574192Y-110596860D01*
X134578388Y-110605732D01*
X134581694Y-110614972D01*
X134584079Y-110624491D01*
X134585518Y-110634198D01*
X134586000Y-110644000D01*
X134586000Y-110844000D01*
X134585518Y-110853802D01*
X134584079Y-110863509D01*
X134581694Y-110873028D01*
X134578388Y-110882268D01*
X134574192Y-110891140D01*
X134569147Y-110899557D01*
X134563301Y-110907439D01*
X134556711Y-110914711D01*
X134549439Y-110921301D01*
X134541557Y-110927147D01*
X134533140Y-110932192D01*
X134524268Y-110936388D01*
X134515028Y-110939694D01*
X134505509Y-110942079D01*
X134495802Y-110943518D01*
X134486000Y-110944000D01*
X133886000Y-110944000D01*
X133876198Y-110943518D01*
X133866491Y-110942079D01*
X133856972Y-110939694D01*
X133847732Y-110936388D01*
X133838860Y-110932192D01*
X133830443Y-110927147D01*
X133822561Y-110921301D01*
X133815289Y-110914711D01*
X133808699Y-110907439D01*
X133802853Y-110899557D01*
X133797808Y-110891140D01*
X133793612Y-110882268D01*
X133790306Y-110873028D01*
X133787921Y-110863509D01*
X133786482Y-110853802D01*
X133786000Y-110844000D01*
X133786000Y-110644000D01*
X133786482Y-110634198D01*
X133787921Y-110624491D01*
X133790306Y-110614972D01*
X133793612Y-110605732D01*
X133797808Y-110596860D01*
X133802853Y-110588443D01*
X133808699Y-110580561D01*
X133815289Y-110573289D01*
X133822561Y-110566699D01*
X133830443Y-110560853D01*
X133838860Y-110555808D01*
X133847732Y-110551612D01*
X133856972Y-110548306D01*
X133866491Y-110545921D01*
X133876198Y-110544482D01*
X133886000Y-110544000D01*
X134486000Y-110544000D01*
X134495802Y-110544482D01*
X134495802Y-110544482D01*
G37*
D15*
X134186000Y-110744000D03*
D12*
G36*
X134495802Y-111544482D02*
X134505509Y-111545921D01*
X134515028Y-111548306D01*
X134524268Y-111551612D01*
X134533140Y-111555808D01*
X134541557Y-111560853D01*
X134549439Y-111566699D01*
X134556711Y-111573289D01*
X134563301Y-111580561D01*
X134569147Y-111588443D01*
X134574192Y-111596860D01*
X134578388Y-111605732D01*
X134581694Y-111614972D01*
X134584079Y-111624491D01*
X134585518Y-111634198D01*
X134586000Y-111644000D01*
X134586000Y-111844000D01*
X134585518Y-111853802D01*
X134584079Y-111863509D01*
X134581694Y-111873028D01*
X134578388Y-111882268D01*
X134574192Y-111891140D01*
X134569147Y-111899557D01*
X134563301Y-111907439D01*
X134556711Y-111914711D01*
X134549439Y-111921301D01*
X134541557Y-111927147D01*
X134533140Y-111932192D01*
X134524268Y-111936388D01*
X134515028Y-111939694D01*
X134505509Y-111942079D01*
X134495802Y-111943518D01*
X134486000Y-111944000D01*
X133886000Y-111944000D01*
X133876198Y-111943518D01*
X133866491Y-111942079D01*
X133856972Y-111939694D01*
X133847732Y-111936388D01*
X133838860Y-111932192D01*
X133830443Y-111927147D01*
X133822561Y-111921301D01*
X133815289Y-111914711D01*
X133808699Y-111907439D01*
X133802853Y-111899557D01*
X133797808Y-111891140D01*
X133793612Y-111882268D01*
X133790306Y-111873028D01*
X133787921Y-111863509D01*
X133786482Y-111853802D01*
X133786000Y-111844000D01*
X133786000Y-111644000D01*
X133786482Y-111634198D01*
X133787921Y-111624491D01*
X133790306Y-111614972D01*
X133793612Y-111605732D01*
X133797808Y-111596860D01*
X133802853Y-111588443D01*
X133808699Y-111580561D01*
X133815289Y-111573289D01*
X133822561Y-111566699D01*
X133830443Y-111560853D01*
X133838860Y-111555808D01*
X133847732Y-111551612D01*
X133856972Y-111548306D01*
X133866491Y-111545921D01*
X133876198Y-111544482D01*
X133886000Y-111544000D01*
X134486000Y-111544000D01*
X134495802Y-111544482D01*
X134495802Y-111544482D01*
G37*
D15*
X134186000Y-111744000D03*
G04 #@! TD*
D16*
G04 #@! TO.C,BT1*
X150530000Y-83710000D03*
X150530000Y-162370000D03*
G04 #@! TD*
D12*
G04 #@! TO.C,C1*
G36*
X81977142Y-102933174D02*
X82000803Y-102936684D01*
X82024007Y-102942496D01*
X82046529Y-102950554D01*
X82068153Y-102960782D01*
X82088670Y-102973079D01*
X82107883Y-102987329D01*
X82125607Y-103003393D01*
X82141671Y-103021117D01*
X82155921Y-103040330D01*
X82168218Y-103060847D01*
X82178446Y-103082471D01*
X82186504Y-103104993D01*
X82192316Y-103128197D01*
X82195826Y-103151858D01*
X82197000Y-103175750D01*
X82197000Y-104088250D01*
X82195826Y-104112142D01*
X82192316Y-104135803D01*
X82186504Y-104159007D01*
X82178446Y-104181529D01*
X82168218Y-104203153D01*
X82155921Y-104223670D01*
X82141671Y-104242883D01*
X82125607Y-104260607D01*
X82107883Y-104276671D01*
X82088670Y-104290921D01*
X82068153Y-104303218D01*
X82046529Y-104313446D01*
X82024007Y-104321504D01*
X82000803Y-104327316D01*
X81977142Y-104330826D01*
X81953250Y-104332000D01*
X81465750Y-104332000D01*
X81441858Y-104330826D01*
X81418197Y-104327316D01*
X81394993Y-104321504D01*
X81372471Y-104313446D01*
X81350847Y-104303218D01*
X81330330Y-104290921D01*
X81311117Y-104276671D01*
X81293393Y-104260607D01*
X81277329Y-104242883D01*
X81263079Y-104223670D01*
X81250782Y-104203153D01*
X81240554Y-104181529D01*
X81232496Y-104159007D01*
X81226684Y-104135803D01*
X81223174Y-104112142D01*
X81222000Y-104088250D01*
X81222000Y-103175750D01*
X81223174Y-103151858D01*
X81226684Y-103128197D01*
X81232496Y-103104993D01*
X81240554Y-103082471D01*
X81250782Y-103060847D01*
X81263079Y-103040330D01*
X81277329Y-103021117D01*
X81293393Y-103003393D01*
X81311117Y-102987329D01*
X81330330Y-102973079D01*
X81350847Y-102960782D01*
X81372471Y-102950554D01*
X81394993Y-102942496D01*
X81418197Y-102936684D01*
X81441858Y-102933174D01*
X81465750Y-102932000D01*
X81953250Y-102932000D01*
X81977142Y-102933174D01*
X81977142Y-102933174D01*
G37*
D13*
X81709500Y-103632000D03*
D12*
G36*
X80102142Y-102933174D02*
X80125803Y-102936684D01*
X80149007Y-102942496D01*
X80171529Y-102950554D01*
X80193153Y-102960782D01*
X80213670Y-102973079D01*
X80232883Y-102987329D01*
X80250607Y-103003393D01*
X80266671Y-103021117D01*
X80280921Y-103040330D01*
X80293218Y-103060847D01*
X80303446Y-103082471D01*
X80311504Y-103104993D01*
X80317316Y-103128197D01*
X80320826Y-103151858D01*
X80322000Y-103175750D01*
X80322000Y-104088250D01*
X80320826Y-104112142D01*
X80317316Y-104135803D01*
X80311504Y-104159007D01*
X80303446Y-104181529D01*
X80293218Y-104203153D01*
X80280921Y-104223670D01*
X80266671Y-104242883D01*
X80250607Y-104260607D01*
X80232883Y-104276671D01*
X80213670Y-104290921D01*
X80193153Y-104303218D01*
X80171529Y-104313446D01*
X80149007Y-104321504D01*
X80125803Y-104327316D01*
X80102142Y-104330826D01*
X80078250Y-104332000D01*
X79590750Y-104332000D01*
X79566858Y-104330826D01*
X79543197Y-104327316D01*
X79519993Y-104321504D01*
X79497471Y-104313446D01*
X79475847Y-104303218D01*
X79455330Y-104290921D01*
X79436117Y-104276671D01*
X79418393Y-104260607D01*
X79402329Y-104242883D01*
X79388079Y-104223670D01*
X79375782Y-104203153D01*
X79365554Y-104181529D01*
X79357496Y-104159007D01*
X79351684Y-104135803D01*
X79348174Y-104112142D01*
X79347000Y-104088250D01*
X79347000Y-103175750D01*
X79348174Y-103151858D01*
X79351684Y-103128197D01*
X79357496Y-103104993D01*
X79365554Y-103082471D01*
X79375782Y-103060847D01*
X79388079Y-103040330D01*
X79402329Y-103021117D01*
X79418393Y-103003393D01*
X79436117Y-102987329D01*
X79455330Y-102973079D01*
X79475847Y-102960782D01*
X79497471Y-102950554D01*
X79519993Y-102942496D01*
X79543197Y-102936684D01*
X79566858Y-102933174D01*
X79590750Y-102932000D01*
X80078250Y-102932000D01*
X80102142Y-102933174D01*
X80102142Y-102933174D01*
G37*
D13*
X79834500Y-103632000D03*
G04 #@! TD*
D12*
G04 #@! TO.C,C2*
G36*
X72108142Y-118815174D02*
X72131803Y-118818684D01*
X72155007Y-118824496D01*
X72177529Y-118832554D01*
X72199153Y-118842782D01*
X72219670Y-118855079D01*
X72238883Y-118869329D01*
X72256607Y-118885393D01*
X72272671Y-118903117D01*
X72286921Y-118922330D01*
X72299218Y-118942847D01*
X72309446Y-118964471D01*
X72317504Y-118986993D01*
X72323316Y-119010197D01*
X72326826Y-119033858D01*
X72328000Y-119057750D01*
X72328000Y-119545250D01*
X72326826Y-119569142D01*
X72323316Y-119592803D01*
X72317504Y-119616007D01*
X72309446Y-119638529D01*
X72299218Y-119660153D01*
X72286921Y-119680670D01*
X72272671Y-119699883D01*
X72256607Y-119717607D01*
X72238883Y-119733671D01*
X72219670Y-119747921D01*
X72199153Y-119760218D01*
X72177529Y-119770446D01*
X72155007Y-119778504D01*
X72131803Y-119784316D01*
X72108142Y-119787826D01*
X72084250Y-119789000D01*
X71171750Y-119789000D01*
X71147858Y-119787826D01*
X71124197Y-119784316D01*
X71100993Y-119778504D01*
X71078471Y-119770446D01*
X71056847Y-119760218D01*
X71036330Y-119747921D01*
X71017117Y-119733671D01*
X70999393Y-119717607D01*
X70983329Y-119699883D01*
X70969079Y-119680670D01*
X70956782Y-119660153D01*
X70946554Y-119638529D01*
X70938496Y-119616007D01*
X70932684Y-119592803D01*
X70929174Y-119569142D01*
X70928000Y-119545250D01*
X70928000Y-119057750D01*
X70929174Y-119033858D01*
X70932684Y-119010197D01*
X70938496Y-118986993D01*
X70946554Y-118964471D01*
X70956782Y-118942847D01*
X70969079Y-118922330D01*
X70983329Y-118903117D01*
X70999393Y-118885393D01*
X71017117Y-118869329D01*
X71036330Y-118855079D01*
X71056847Y-118842782D01*
X71078471Y-118832554D01*
X71100993Y-118824496D01*
X71124197Y-118818684D01*
X71147858Y-118815174D01*
X71171750Y-118814000D01*
X72084250Y-118814000D01*
X72108142Y-118815174D01*
X72108142Y-118815174D01*
G37*
D13*
X71628000Y-119301500D03*
D12*
G36*
X72108142Y-116940174D02*
X72131803Y-116943684D01*
X72155007Y-116949496D01*
X72177529Y-116957554D01*
X72199153Y-116967782D01*
X72219670Y-116980079D01*
X72238883Y-116994329D01*
X72256607Y-117010393D01*
X72272671Y-117028117D01*
X72286921Y-117047330D01*
X72299218Y-117067847D01*
X72309446Y-117089471D01*
X72317504Y-117111993D01*
X72323316Y-117135197D01*
X72326826Y-117158858D01*
X72328000Y-117182750D01*
X72328000Y-117670250D01*
X72326826Y-117694142D01*
X72323316Y-117717803D01*
X72317504Y-117741007D01*
X72309446Y-117763529D01*
X72299218Y-117785153D01*
X72286921Y-117805670D01*
X72272671Y-117824883D01*
X72256607Y-117842607D01*
X72238883Y-117858671D01*
X72219670Y-117872921D01*
X72199153Y-117885218D01*
X72177529Y-117895446D01*
X72155007Y-117903504D01*
X72131803Y-117909316D01*
X72108142Y-117912826D01*
X72084250Y-117914000D01*
X71171750Y-117914000D01*
X71147858Y-117912826D01*
X71124197Y-117909316D01*
X71100993Y-117903504D01*
X71078471Y-117895446D01*
X71056847Y-117885218D01*
X71036330Y-117872921D01*
X71017117Y-117858671D01*
X70999393Y-117842607D01*
X70983329Y-117824883D01*
X70969079Y-117805670D01*
X70956782Y-117785153D01*
X70946554Y-117763529D01*
X70938496Y-117741007D01*
X70932684Y-117717803D01*
X70929174Y-117694142D01*
X70928000Y-117670250D01*
X70928000Y-117182750D01*
X70929174Y-117158858D01*
X70932684Y-117135197D01*
X70938496Y-117111993D01*
X70946554Y-117089471D01*
X70956782Y-117067847D01*
X70969079Y-117047330D01*
X70983329Y-117028117D01*
X70999393Y-117010393D01*
X71017117Y-116994329D01*
X71036330Y-116980079D01*
X71056847Y-116967782D01*
X71078471Y-116957554D01*
X71100993Y-116949496D01*
X71124197Y-116943684D01*
X71147858Y-116940174D01*
X71171750Y-116939000D01*
X72084250Y-116939000D01*
X72108142Y-116940174D01*
X72108142Y-116940174D01*
G37*
D13*
X71628000Y-117426500D03*
G04 #@! TD*
D12*
G04 #@! TO.C,C3*
G36*
X137890142Y-93356174D02*
X137913803Y-93359684D01*
X137937007Y-93365496D01*
X137959529Y-93373554D01*
X137981153Y-93383782D01*
X138001670Y-93396079D01*
X138020883Y-93410329D01*
X138038607Y-93426393D01*
X138054671Y-93444117D01*
X138068921Y-93463330D01*
X138081218Y-93483847D01*
X138091446Y-93505471D01*
X138099504Y-93527993D01*
X138105316Y-93551197D01*
X138108826Y-93574858D01*
X138110000Y-93598750D01*
X138110000Y-94086250D01*
X138108826Y-94110142D01*
X138105316Y-94133803D01*
X138099504Y-94157007D01*
X138091446Y-94179529D01*
X138081218Y-94201153D01*
X138068921Y-94221670D01*
X138054671Y-94240883D01*
X138038607Y-94258607D01*
X138020883Y-94274671D01*
X138001670Y-94288921D01*
X137981153Y-94301218D01*
X137959529Y-94311446D01*
X137937007Y-94319504D01*
X137913803Y-94325316D01*
X137890142Y-94328826D01*
X137866250Y-94330000D01*
X136953750Y-94330000D01*
X136929858Y-94328826D01*
X136906197Y-94325316D01*
X136882993Y-94319504D01*
X136860471Y-94311446D01*
X136838847Y-94301218D01*
X136818330Y-94288921D01*
X136799117Y-94274671D01*
X136781393Y-94258607D01*
X136765329Y-94240883D01*
X136751079Y-94221670D01*
X136738782Y-94201153D01*
X136728554Y-94179529D01*
X136720496Y-94157007D01*
X136714684Y-94133803D01*
X136711174Y-94110142D01*
X136710000Y-94086250D01*
X136710000Y-93598750D01*
X136711174Y-93574858D01*
X136714684Y-93551197D01*
X136720496Y-93527993D01*
X136728554Y-93505471D01*
X136738782Y-93483847D01*
X136751079Y-93463330D01*
X136765329Y-93444117D01*
X136781393Y-93426393D01*
X136799117Y-93410329D01*
X136818330Y-93396079D01*
X136838847Y-93383782D01*
X136860471Y-93373554D01*
X136882993Y-93365496D01*
X136906197Y-93359684D01*
X136929858Y-93356174D01*
X136953750Y-93355000D01*
X137866250Y-93355000D01*
X137890142Y-93356174D01*
X137890142Y-93356174D01*
G37*
D13*
X137410000Y-93842500D03*
D12*
G36*
X137890142Y-95231174D02*
X137913803Y-95234684D01*
X137937007Y-95240496D01*
X137959529Y-95248554D01*
X137981153Y-95258782D01*
X138001670Y-95271079D01*
X138020883Y-95285329D01*
X138038607Y-95301393D01*
X138054671Y-95319117D01*
X138068921Y-95338330D01*
X138081218Y-95358847D01*
X138091446Y-95380471D01*
X138099504Y-95402993D01*
X138105316Y-95426197D01*
X138108826Y-95449858D01*
X138110000Y-95473750D01*
X138110000Y-95961250D01*
X138108826Y-95985142D01*
X138105316Y-96008803D01*
X138099504Y-96032007D01*
X138091446Y-96054529D01*
X138081218Y-96076153D01*
X138068921Y-96096670D01*
X138054671Y-96115883D01*
X138038607Y-96133607D01*
X138020883Y-96149671D01*
X138001670Y-96163921D01*
X137981153Y-96176218D01*
X137959529Y-96186446D01*
X137937007Y-96194504D01*
X137913803Y-96200316D01*
X137890142Y-96203826D01*
X137866250Y-96205000D01*
X136953750Y-96205000D01*
X136929858Y-96203826D01*
X136906197Y-96200316D01*
X136882993Y-96194504D01*
X136860471Y-96186446D01*
X136838847Y-96176218D01*
X136818330Y-96163921D01*
X136799117Y-96149671D01*
X136781393Y-96133607D01*
X136765329Y-96115883D01*
X136751079Y-96096670D01*
X136738782Y-96076153D01*
X136728554Y-96054529D01*
X136720496Y-96032007D01*
X136714684Y-96008803D01*
X136711174Y-95985142D01*
X136710000Y-95961250D01*
X136710000Y-95473750D01*
X136711174Y-95449858D01*
X136714684Y-95426197D01*
X136720496Y-95402993D01*
X136728554Y-95380471D01*
X136738782Y-95358847D01*
X136751079Y-95338330D01*
X136765329Y-95319117D01*
X136781393Y-95301393D01*
X136799117Y-95285329D01*
X136818330Y-95271079D01*
X136838847Y-95258782D01*
X136860471Y-95248554D01*
X136882993Y-95240496D01*
X136906197Y-95234684D01*
X136929858Y-95231174D01*
X136953750Y-95230000D01*
X137866250Y-95230000D01*
X137890142Y-95231174D01*
X137890142Y-95231174D01*
G37*
D13*
X137410000Y-95717500D03*
G04 #@! TD*
D12*
G04 #@! TO.C,C4*
G36*
X132810142Y-96501174D02*
X132833803Y-96504684D01*
X132857007Y-96510496D01*
X132879529Y-96518554D01*
X132901153Y-96528782D01*
X132921670Y-96541079D01*
X132940883Y-96555329D01*
X132958607Y-96571393D01*
X132974671Y-96589117D01*
X132988921Y-96608330D01*
X133001218Y-96628847D01*
X133011446Y-96650471D01*
X133019504Y-96672993D01*
X133025316Y-96696197D01*
X133028826Y-96719858D01*
X133030000Y-96743750D01*
X133030000Y-97231250D01*
X133028826Y-97255142D01*
X133025316Y-97278803D01*
X133019504Y-97302007D01*
X133011446Y-97324529D01*
X133001218Y-97346153D01*
X132988921Y-97366670D01*
X132974671Y-97385883D01*
X132958607Y-97403607D01*
X132940883Y-97419671D01*
X132921670Y-97433921D01*
X132901153Y-97446218D01*
X132879529Y-97456446D01*
X132857007Y-97464504D01*
X132833803Y-97470316D01*
X132810142Y-97473826D01*
X132786250Y-97475000D01*
X131873750Y-97475000D01*
X131849858Y-97473826D01*
X131826197Y-97470316D01*
X131802993Y-97464504D01*
X131780471Y-97456446D01*
X131758847Y-97446218D01*
X131738330Y-97433921D01*
X131719117Y-97419671D01*
X131701393Y-97403607D01*
X131685329Y-97385883D01*
X131671079Y-97366670D01*
X131658782Y-97346153D01*
X131648554Y-97324529D01*
X131640496Y-97302007D01*
X131634684Y-97278803D01*
X131631174Y-97255142D01*
X131630000Y-97231250D01*
X131630000Y-96743750D01*
X131631174Y-96719858D01*
X131634684Y-96696197D01*
X131640496Y-96672993D01*
X131648554Y-96650471D01*
X131658782Y-96628847D01*
X131671079Y-96608330D01*
X131685329Y-96589117D01*
X131701393Y-96571393D01*
X131719117Y-96555329D01*
X131738330Y-96541079D01*
X131758847Y-96528782D01*
X131780471Y-96518554D01*
X131802993Y-96510496D01*
X131826197Y-96504684D01*
X131849858Y-96501174D01*
X131873750Y-96500000D01*
X132786250Y-96500000D01*
X132810142Y-96501174D01*
X132810142Y-96501174D01*
G37*
D13*
X132330000Y-96987500D03*
D12*
G36*
X132810142Y-94626174D02*
X132833803Y-94629684D01*
X132857007Y-94635496D01*
X132879529Y-94643554D01*
X132901153Y-94653782D01*
X132921670Y-94666079D01*
X132940883Y-94680329D01*
X132958607Y-94696393D01*
X132974671Y-94714117D01*
X132988921Y-94733330D01*
X133001218Y-94753847D01*
X133011446Y-94775471D01*
X133019504Y-94797993D01*
X133025316Y-94821197D01*
X133028826Y-94844858D01*
X133030000Y-94868750D01*
X133030000Y-95356250D01*
X133028826Y-95380142D01*
X133025316Y-95403803D01*
X133019504Y-95427007D01*
X133011446Y-95449529D01*
X133001218Y-95471153D01*
X132988921Y-95491670D01*
X132974671Y-95510883D01*
X132958607Y-95528607D01*
X132940883Y-95544671D01*
X132921670Y-95558921D01*
X132901153Y-95571218D01*
X132879529Y-95581446D01*
X132857007Y-95589504D01*
X132833803Y-95595316D01*
X132810142Y-95598826D01*
X132786250Y-95600000D01*
X131873750Y-95600000D01*
X131849858Y-95598826D01*
X131826197Y-95595316D01*
X131802993Y-95589504D01*
X131780471Y-95581446D01*
X131758847Y-95571218D01*
X131738330Y-95558921D01*
X131719117Y-95544671D01*
X131701393Y-95528607D01*
X131685329Y-95510883D01*
X131671079Y-95491670D01*
X131658782Y-95471153D01*
X131648554Y-95449529D01*
X131640496Y-95427007D01*
X131634684Y-95403803D01*
X131631174Y-95380142D01*
X131630000Y-95356250D01*
X131630000Y-94868750D01*
X131631174Y-94844858D01*
X131634684Y-94821197D01*
X131640496Y-94797993D01*
X131648554Y-94775471D01*
X131658782Y-94753847D01*
X131671079Y-94733330D01*
X131685329Y-94714117D01*
X131701393Y-94696393D01*
X131719117Y-94680329D01*
X131738330Y-94666079D01*
X131758847Y-94653782D01*
X131780471Y-94643554D01*
X131802993Y-94635496D01*
X131826197Y-94629684D01*
X131849858Y-94626174D01*
X131873750Y-94625000D01*
X132786250Y-94625000D01*
X132810142Y-94626174D01*
X132810142Y-94626174D01*
G37*
D13*
X132330000Y-95112500D03*
G04 #@! TD*
D12*
G04 #@! TO.C,C5*
G36*
X110160142Y-104441174D02*
X110183803Y-104444684D01*
X110207007Y-104450496D01*
X110229529Y-104458554D01*
X110251153Y-104468782D01*
X110271670Y-104481079D01*
X110290883Y-104495329D01*
X110308607Y-104511393D01*
X110324671Y-104529117D01*
X110338921Y-104548330D01*
X110351218Y-104568847D01*
X110361446Y-104590471D01*
X110369504Y-104612993D01*
X110375316Y-104636197D01*
X110378826Y-104659858D01*
X110380000Y-104683750D01*
X110380000Y-105171250D01*
X110378826Y-105195142D01*
X110375316Y-105218803D01*
X110369504Y-105242007D01*
X110361446Y-105264529D01*
X110351218Y-105286153D01*
X110338921Y-105306670D01*
X110324671Y-105325883D01*
X110308607Y-105343607D01*
X110290883Y-105359671D01*
X110271670Y-105373921D01*
X110251153Y-105386218D01*
X110229529Y-105396446D01*
X110207007Y-105404504D01*
X110183803Y-105410316D01*
X110160142Y-105413826D01*
X110136250Y-105415000D01*
X109223750Y-105415000D01*
X109199858Y-105413826D01*
X109176197Y-105410316D01*
X109152993Y-105404504D01*
X109130471Y-105396446D01*
X109108847Y-105386218D01*
X109088330Y-105373921D01*
X109069117Y-105359671D01*
X109051393Y-105343607D01*
X109035329Y-105325883D01*
X109021079Y-105306670D01*
X109008782Y-105286153D01*
X108998554Y-105264529D01*
X108990496Y-105242007D01*
X108984684Y-105218803D01*
X108981174Y-105195142D01*
X108980000Y-105171250D01*
X108980000Y-104683750D01*
X108981174Y-104659858D01*
X108984684Y-104636197D01*
X108990496Y-104612993D01*
X108998554Y-104590471D01*
X109008782Y-104568847D01*
X109021079Y-104548330D01*
X109035329Y-104529117D01*
X109051393Y-104511393D01*
X109069117Y-104495329D01*
X109088330Y-104481079D01*
X109108847Y-104468782D01*
X109130471Y-104458554D01*
X109152993Y-104450496D01*
X109176197Y-104444684D01*
X109199858Y-104441174D01*
X109223750Y-104440000D01*
X110136250Y-104440000D01*
X110160142Y-104441174D01*
X110160142Y-104441174D01*
G37*
D13*
X109680000Y-104927500D03*
D12*
G36*
X110160142Y-102566174D02*
X110183803Y-102569684D01*
X110207007Y-102575496D01*
X110229529Y-102583554D01*
X110251153Y-102593782D01*
X110271670Y-102606079D01*
X110290883Y-102620329D01*
X110308607Y-102636393D01*
X110324671Y-102654117D01*
X110338921Y-102673330D01*
X110351218Y-102693847D01*
X110361446Y-102715471D01*
X110369504Y-102737993D01*
X110375316Y-102761197D01*
X110378826Y-102784858D01*
X110380000Y-102808750D01*
X110380000Y-103296250D01*
X110378826Y-103320142D01*
X110375316Y-103343803D01*
X110369504Y-103367007D01*
X110361446Y-103389529D01*
X110351218Y-103411153D01*
X110338921Y-103431670D01*
X110324671Y-103450883D01*
X110308607Y-103468607D01*
X110290883Y-103484671D01*
X110271670Y-103498921D01*
X110251153Y-103511218D01*
X110229529Y-103521446D01*
X110207007Y-103529504D01*
X110183803Y-103535316D01*
X110160142Y-103538826D01*
X110136250Y-103540000D01*
X109223750Y-103540000D01*
X109199858Y-103538826D01*
X109176197Y-103535316D01*
X109152993Y-103529504D01*
X109130471Y-103521446D01*
X109108847Y-103511218D01*
X109088330Y-103498921D01*
X109069117Y-103484671D01*
X109051393Y-103468607D01*
X109035329Y-103450883D01*
X109021079Y-103431670D01*
X109008782Y-103411153D01*
X108998554Y-103389529D01*
X108990496Y-103367007D01*
X108984684Y-103343803D01*
X108981174Y-103320142D01*
X108980000Y-103296250D01*
X108980000Y-102808750D01*
X108981174Y-102784858D01*
X108984684Y-102761197D01*
X108990496Y-102737993D01*
X108998554Y-102715471D01*
X109008782Y-102693847D01*
X109021079Y-102673330D01*
X109035329Y-102654117D01*
X109051393Y-102636393D01*
X109069117Y-102620329D01*
X109088330Y-102606079D01*
X109108847Y-102593782D01*
X109130471Y-102583554D01*
X109152993Y-102575496D01*
X109176197Y-102569684D01*
X109199858Y-102566174D01*
X109223750Y-102565000D01*
X110136250Y-102565000D01*
X110160142Y-102566174D01*
X110160142Y-102566174D01*
G37*
D13*
X109680000Y-103052500D03*
G04 #@! TD*
D12*
G04 #@! TO.C,C6*
G36*
X104445142Y-102566174D02*
X104468803Y-102569684D01*
X104492007Y-102575496D01*
X104514529Y-102583554D01*
X104536153Y-102593782D01*
X104556670Y-102606079D01*
X104575883Y-102620329D01*
X104593607Y-102636393D01*
X104609671Y-102654117D01*
X104623921Y-102673330D01*
X104636218Y-102693847D01*
X104646446Y-102715471D01*
X104654504Y-102737993D01*
X104660316Y-102761197D01*
X104663826Y-102784858D01*
X104665000Y-102808750D01*
X104665000Y-103296250D01*
X104663826Y-103320142D01*
X104660316Y-103343803D01*
X104654504Y-103367007D01*
X104646446Y-103389529D01*
X104636218Y-103411153D01*
X104623921Y-103431670D01*
X104609671Y-103450883D01*
X104593607Y-103468607D01*
X104575883Y-103484671D01*
X104556670Y-103498921D01*
X104536153Y-103511218D01*
X104514529Y-103521446D01*
X104492007Y-103529504D01*
X104468803Y-103535316D01*
X104445142Y-103538826D01*
X104421250Y-103540000D01*
X103508750Y-103540000D01*
X103484858Y-103538826D01*
X103461197Y-103535316D01*
X103437993Y-103529504D01*
X103415471Y-103521446D01*
X103393847Y-103511218D01*
X103373330Y-103498921D01*
X103354117Y-103484671D01*
X103336393Y-103468607D01*
X103320329Y-103450883D01*
X103306079Y-103431670D01*
X103293782Y-103411153D01*
X103283554Y-103389529D01*
X103275496Y-103367007D01*
X103269684Y-103343803D01*
X103266174Y-103320142D01*
X103265000Y-103296250D01*
X103265000Y-102808750D01*
X103266174Y-102784858D01*
X103269684Y-102761197D01*
X103275496Y-102737993D01*
X103283554Y-102715471D01*
X103293782Y-102693847D01*
X103306079Y-102673330D01*
X103320329Y-102654117D01*
X103336393Y-102636393D01*
X103354117Y-102620329D01*
X103373330Y-102606079D01*
X103393847Y-102593782D01*
X103415471Y-102583554D01*
X103437993Y-102575496D01*
X103461197Y-102569684D01*
X103484858Y-102566174D01*
X103508750Y-102565000D01*
X104421250Y-102565000D01*
X104445142Y-102566174D01*
X104445142Y-102566174D01*
G37*
D13*
X103965000Y-103052500D03*
D12*
G36*
X104445142Y-104441174D02*
X104468803Y-104444684D01*
X104492007Y-104450496D01*
X104514529Y-104458554D01*
X104536153Y-104468782D01*
X104556670Y-104481079D01*
X104575883Y-104495329D01*
X104593607Y-104511393D01*
X104609671Y-104529117D01*
X104623921Y-104548330D01*
X104636218Y-104568847D01*
X104646446Y-104590471D01*
X104654504Y-104612993D01*
X104660316Y-104636197D01*
X104663826Y-104659858D01*
X104665000Y-104683750D01*
X104665000Y-105171250D01*
X104663826Y-105195142D01*
X104660316Y-105218803D01*
X104654504Y-105242007D01*
X104646446Y-105264529D01*
X104636218Y-105286153D01*
X104623921Y-105306670D01*
X104609671Y-105325883D01*
X104593607Y-105343607D01*
X104575883Y-105359671D01*
X104556670Y-105373921D01*
X104536153Y-105386218D01*
X104514529Y-105396446D01*
X104492007Y-105404504D01*
X104468803Y-105410316D01*
X104445142Y-105413826D01*
X104421250Y-105415000D01*
X103508750Y-105415000D01*
X103484858Y-105413826D01*
X103461197Y-105410316D01*
X103437993Y-105404504D01*
X103415471Y-105396446D01*
X103393847Y-105386218D01*
X103373330Y-105373921D01*
X103354117Y-105359671D01*
X103336393Y-105343607D01*
X103320329Y-105325883D01*
X103306079Y-105306670D01*
X103293782Y-105286153D01*
X103283554Y-105264529D01*
X103275496Y-105242007D01*
X103269684Y-105218803D01*
X103266174Y-105195142D01*
X103265000Y-105171250D01*
X103265000Y-104683750D01*
X103266174Y-104659858D01*
X103269684Y-104636197D01*
X103275496Y-104612993D01*
X103283554Y-104590471D01*
X103293782Y-104568847D01*
X103306079Y-104548330D01*
X103320329Y-104529117D01*
X103336393Y-104511393D01*
X103354117Y-104495329D01*
X103373330Y-104481079D01*
X103393847Y-104468782D01*
X103415471Y-104458554D01*
X103437993Y-104450496D01*
X103461197Y-104444684D01*
X103484858Y-104441174D01*
X103508750Y-104440000D01*
X104421250Y-104440000D01*
X104445142Y-104441174D01*
X104445142Y-104441174D01*
G37*
D13*
X103965000Y-104927500D03*
G04 #@! TD*
D12*
G04 #@! TO.C,C7*
G36*
X96440142Y-104491174D02*
X96463803Y-104494684D01*
X96487007Y-104500496D01*
X96509529Y-104508554D01*
X96531153Y-104518782D01*
X96551670Y-104531079D01*
X96570883Y-104545329D01*
X96588607Y-104561393D01*
X96604671Y-104579117D01*
X96618921Y-104598330D01*
X96631218Y-104618847D01*
X96641446Y-104640471D01*
X96649504Y-104662993D01*
X96655316Y-104686197D01*
X96658826Y-104709858D01*
X96660000Y-104733750D01*
X96660000Y-105221250D01*
X96658826Y-105245142D01*
X96655316Y-105268803D01*
X96649504Y-105292007D01*
X96641446Y-105314529D01*
X96631218Y-105336153D01*
X96618921Y-105356670D01*
X96604671Y-105375883D01*
X96588607Y-105393607D01*
X96570883Y-105409671D01*
X96551670Y-105423921D01*
X96531153Y-105436218D01*
X96509529Y-105446446D01*
X96487007Y-105454504D01*
X96463803Y-105460316D01*
X96440142Y-105463826D01*
X96416250Y-105465000D01*
X95503750Y-105465000D01*
X95479858Y-105463826D01*
X95456197Y-105460316D01*
X95432993Y-105454504D01*
X95410471Y-105446446D01*
X95388847Y-105436218D01*
X95368330Y-105423921D01*
X95349117Y-105409671D01*
X95331393Y-105393607D01*
X95315329Y-105375883D01*
X95301079Y-105356670D01*
X95288782Y-105336153D01*
X95278554Y-105314529D01*
X95270496Y-105292007D01*
X95264684Y-105268803D01*
X95261174Y-105245142D01*
X95260000Y-105221250D01*
X95260000Y-104733750D01*
X95261174Y-104709858D01*
X95264684Y-104686197D01*
X95270496Y-104662993D01*
X95278554Y-104640471D01*
X95288782Y-104618847D01*
X95301079Y-104598330D01*
X95315329Y-104579117D01*
X95331393Y-104561393D01*
X95349117Y-104545329D01*
X95368330Y-104531079D01*
X95388847Y-104518782D01*
X95410471Y-104508554D01*
X95432993Y-104500496D01*
X95456197Y-104494684D01*
X95479858Y-104491174D01*
X95503750Y-104490000D01*
X96416250Y-104490000D01*
X96440142Y-104491174D01*
X96440142Y-104491174D01*
G37*
D13*
X95960000Y-104977500D03*
D12*
G36*
X96440142Y-102616174D02*
X96463803Y-102619684D01*
X96487007Y-102625496D01*
X96509529Y-102633554D01*
X96531153Y-102643782D01*
X96551670Y-102656079D01*
X96570883Y-102670329D01*
X96588607Y-102686393D01*
X96604671Y-102704117D01*
X96618921Y-102723330D01*
X96631218Y-102743847D01*
X96641446Y-102765471D01*
X96649504Y-102787993D01*
X96655316Y-102811197D01*
X96658826Y-102834858D01*
X96660000Y-102858750D01*
X96660000Y-103346250D01*
X96658826Y-103370142D01*
X96655316Y-103393803D01*
X96649504Y-103417007D01*
X96641446Y-103439529D01*
X96631218Y-103461153D01*
X96618921Y-103481670D01*
X96604671Y-103500883D01*
X96588607Y-103518607D01*
X96570883Y-103534671D01*
X96551670Y-103548921D01*
X96531153Y-103561218D01*
X96509529Y-103571446D01*
X96487007Y-103579504D01*
X96463803Y-103585316D01*
X96440142Y-103588826D01*
X96416250Y-103590000D01*
X95503750Y-103590000D01*
X95479858Y-103588826D01*
X95456197Y-103585316D01*
X95432993Y-103579504D01*
X95410471Y-103571446D01*
X95388847Y-103561218D01*
X95368330Y-103548921D01*
X95349117Y-103534671D01*
X95331393Y-103518607D01*
X95315329Y-103500883D01*
X95301079Y-103481670D01*
X95288782Y-103461153D01*
X95278554Y-103439529D01*
X95270496Y-103417007D01*
X95264684Y-103393803D01*
X95261174Y-103370142D01*
X95260000Y-103346250D01*
X95260000Y-102858750D01*
X95261174Y-102834858D01*
X95264684Y-102811197D01*
X95270496Y-102787993D01*
X95278554Y-102765471D01*
X95288782Y-102743847D01*
X95301079Y-102723330D01*
X95315329Y-102704117D01*
X95331393Y-102686393D01*
X95349117Y-102670329D01*
X95368330Y-102656079D01*
X95388847Y-102643782D01*
X95410471Y-102633554D01*
X95432993Y-102625496D01*
X95456197Y-102619684D01*
X95479858Y-102616174D01*
X95503750Y-102615000D01*
X96416250Y-102615000D01*
X96440142Y-102616174D01*
X96440142Y-102616174D01*
G37*
D13*
X95960000Y-103102500D03*
G04 #@! TD*
D12*
G04 #@! TO.C,C8*
G36*
X88690142Y-109641174D02*
X88713803Y-109644684D01*
X88737007Y-109650496D01*
X88759529Y-109658554D01*
X88781153Y-109668782D01*
X88801670Y-109681079D01*
X88820883Y-109695329D01*
X88838607Y-109711393D01*
X88854671Y-109729117D01*
X88868921Y-109748330D01*
X88881218Y-109768847D01*
X88891446Y-109790471D01*
X88899504Y-109812993D01*
X88905316Y-109836197D01*
X88908826Y-109859858D01*
X88910000Y-109883750D01*
X88910000Y-110796250D01*
X88908826Y-110820142D01*
X88905316Y-110843803D01*
X88899504Y-110867007D01*
X88891446Y-110889529D01*
X88881218Y-110911153D01*
X88868921Y-110931670D01*
X88854671Y-110950883D01*
X88838607Y-110968607D01*
X88820883Y-110984671D01*
X88801670Y-110998921D01*
X88781153Y-111011218D01*
X88759529Y-111021446D01*
X88737007Y-111029504D01*
X88713803Y-111035316D01*
X88690142Y-111038826D01*
X88666250Y-111040000D01*
X88178750Y-111040000D01*
X88154858Y-111038826D01*
X88131197Y-111035316D01*
X88107993Y-111029504D01*
X88085471Y-111021446D01*
X88063847Y-111011218D01*
X88043330Y-110998921D01*
X88024117Y-110984671D01*
X88006393Y-110968607D01*
X87990329Y-110950883D01*
X87976079Y-110931670D01*
X87963782Y-110911153D01*
X87953554Y-110889529D01*
X87945496Y-110867007D01*
X87939684Y-110843803D01*
X87936174Y-110820142D01*
X87935000Y-110796250D01*
X87935000Y-109883750D01*
X87936174Y-109859858D01*
X87939684Y-109836197D01*
X87945496Y-109812993D01*
X87953554Y-109790471D01*
X87963782Y-109768847D01*
X87976079Y-109748330D01*
X87990329Y-109729117D01*
X88006393Y-109711393D01*
X88024117Y-109695329D01*
X88043330Y-109681079D01*
X88063847Y-109668782D01*
X88085471Y-109658554D01*
X88107993Y-109650496D01*
X88131197Y-109644684D01*
X88154858Y-109641174D01*
X88178750Y-109640000D01*
X88666250Y-109640000D01*
X88690142Y-109641174D01*
X88690142Y-109641174D01*
G37*
D13*
X88422500Y-110340000D03*
D12*
G36*
X90565142Y-109641174D02*
X90588803Y-109644684D01*
X90612007Y-109650496D01*
X90634529Y-109658554D01*
X90656153Y-109668782D01*
X90676670Y-109681079D01*
X90695883Y-109695329D01*
X90713607Y-109711393D01*
X90729671Y-109729117D01*
X90743921Y-109748330D01*
X90756218Y-109768847D01*
X90766446Y-109790471D01*
X90774504Y-109812993D01*
X90780316Y-109836197D01*
X90783826Y-109859858D01*
X90785000Y-109883750D01*
X90785000Y-110796250D01*
X90783826Y-110820142D01*
X90780316Y-110843803D01*
X90774504Y-110867007D01*
X90766446Y-110889529D01*
X90756218Y-110911153D01*
X90743921Y-110931670D01*
X90729671Y-110950883D01*
X90713607Y-110968607D01*
X90695883Y-110984671D01*
X90676670Y-110998921D01*
X90656153Y-111011218D01*
X90634529Y-111021446D01*
X90612007Y-111029504D01*
X90588803Y-111035316D01*
X90565142Y-111038826D01*
X90541250Y-111040000D01*
X90053750Y-111040000D01*
X90029858Y-111038826D01*
X90006197Y-111035316D01*
X89982993Y-111029504D01*
X89960471Y-111021446D01*
X89938847Y-111011218D01*
X89918330Y-110998921D01*
X89899117Y-110984671D01*
X89881393Y-110968607D01*
X89865329Y-110950883D01*
X89851079Y-110931670D01*
X89838782Y-110911153D01*
X89828554Y-110889529D01*
X89820496Y-110867007D01*
X89814684Y-110843803D01*
X89811174Y-110820142D01*
X89810000Y-110796250D01*
X89810000Y-109883750D01*
X89811174Y-109859858D01*
X89814684Y-109836197D01*
X89820496Y-109812993D01*
X89828554Y-109790471D01*
X89838782Y-109768847D01*
X89851079Y-109748330D01*
X89865329Y-109729117D01*
X89881393Y-109711393D01*
X89899117Y-109695329D01*
X89918330Y-109681079D01*
X89938847Y-109668782D01*
X89960471Y-109658554D01*
X89982993Y-109650496D01*
X90006197Y-109644684D01*
X90029858Y-109641174D01*
X90053750Y-109640000D01*
X90541250Y-109640000D01*
X90565142Y-109641174D01*
X90565142Y-109641174D01*
G37*
D13*
X90297500Y-110340000D03*
G04 #@! TD*
D12*
G04 #@! TO.C,C9*
G36*
X90904142Y-115767174D02*
X90927803Y-115770684D01*
X90951007Y-115776496D01*
X90973529Y-115784554D01*
X90995153Y-115794782D01*
X91015670Y-115807079D01*
X91034883Y-115821329D01*
X91052607Y-115837393D01*
X91068671Y-115855117D01*
X91082921Y-115874330D01*
X91095218Y-115894847D01*
X91105446Y-115916471D01*
X91113504Y-115938993D01*
X91119316Y-115962197D01*
X91122826Y-115985858D01*
X91124000Y-116009750D01*
X91124000Y-116497250D01*
X91122826Y-116521142D01*
X91119316Y-116544803D01*
X91113504Y-116568007D01*
X91105446Y-116590529D01*
X91095218Y-116612153D01*
X91082921Y-116632670D01*
X91068671Y-116651883D01*
X91052607Y-116669607D01*
X91034883Y-116685671D01*
X91015670Y-116699921D01*
X90995153Y-116712218D01*
X90973529Y-116722446D01*
X90951007Y-116730504D01*
X90927803Y-116736316D01*
X90904142Y-116739826D01*
X90880250Y-116741000D01*
X89967750Y-116741000D01*
X89943858Y-116739826D01*
X89920197Y-116736316D01*
X89896993Y-116730504D01*
X89874471Y-116722446D01*
X89852847Y-116712218D01*
X89832330Y-116699921D01*
X89813117Y-116685671D01*
X89795393Y-116669607D01*
X89779329Y-116651883D01*
X89765079Y-116632670D01*
X89752782Y-116612153D01*
X89742554Y-116590529D01*
X89734496Y-116568007D01*
X89728684Y-116544803D01*
X89725174Y-116521142D01*
X89724000Y-116497250D01*
X89724000Y-116009750D01*
X89725174Y-115985858D01*
X89728684Y-115962197D01*
X89734496Y-115938993D01*
X89742554Y-115916471D01*
X89752782Y-115894847D01*
X89765079Y-115874330D01*
X89779329Y-115855117D01*
X89795393Y-115837393D01*
X89813117Y-115821329D01*
X89832330Y-115807079D01*
X89852847Y-115794782D01*
X89874471Y-115784554D01*
X89896993Y-115776496D01*
X89920197Y-115770684D01*
X89943858Y-115767174D01*
X89967750Y-115766000D01*
X90880250Y-115766000D01*
X90904142Y-115767174D01*
X90904142Y-115767174D01*
G37*
D13*
X90424000Y-116253500D03*
D12*
G36*
X90904142Y-113892174D02*
X90927803Y-113895684D01*
X90951007Y-113901496D01*
X90973529Y-113909554D01*
X90995153Y-113919782D01*
X91015670Y-113932079D01*
X91034883Y-113946329D01*
X91052607Y-113962393D01*
X91068671Y-113980117D01*
X91082921Y-113999330D01*
X91095218Y-114019847D01*
X91105446Y-114041471D01*
X91113504Y-114063993D01*
X91119316Y-114087197D01*
X91122826Y-114110858D01*
X91124000Y-114134750D01*
X91124000Y-114622250D01*
X91122826Y-114646142D01*
X91119316Y-114669803D01*
X91113504Y-114693007D01*
X91105446Y-114715529D01*
X91095218Y-114737153D01*
X91082921Y-114757670D01*
X91068671Y-114776883D01*
X91052607Y-114794607D01*
X91034883Y-114810671D01*
X91015670Y-114824921D01*
X90995153Y-114837218D01*
X90973529Y-114847446D01*
X90951007Y-114855504D01*
X90927803Y-114861316D01*
X90904142Y-114864826D01*
X90880250Y-114866000D01*
X89967750Y-114866000D01*
X89943858Y-114864826D01*
X89920197Y-114861316D01*
X89896993Y-114855504D01*
X89874471Y-114847446D01*
X89852847Y-114837218D01*
X89832330Y-114824921D01*
X89813117Y-114810671D01*
X89795393Y-114794607D01*
X89779329Y-114776883D01*
X89765079Y-114757670D01*
X89752782Y-114737153D01*
X89742554Y-114715529D01*
X89734496Y-114693007D01*
X89728684Y-114669803D01*
X89725174Y-114646142D01*
X89724000Y-114622250D01*
X89724000Y-114134750D01*
X89725174Y-114110858D01*
X89728684Y-114087197D01*
X89734496Y-114063993D01*
X89742554Y-114041471D01*
X89752782Y-114019847D01*
X89765079Y-113999330D01*
X89779329Y-113980117D01*
X89795393Y-113962393D01*
X89813117Y-113946329D01*
X89832330Y-113932079D01*
X89852847Y-113919782D01*
X89874471Y-113909554D01*
X89896993Y-113901496D01*
X89920197Y-113895684D01*
X89943858Y-113892174D01*
X89967750Y-113891000D01*
X90880250Y-113891000D01*
X90904142Y-113892174D01*
X90904142Y-113892174D01*
G37*
D13*
X90424000Y-114378500D03*
G04 #@! TD*
D12*
G04 #@! TO.C,C10*
G36*
X90396142Y-121004174D02*
X90419803Y-121007684D01*
X90443007Y-121013496D01*
X90465529Y-121021554D01*
X90487153Y-121031782D01*
X90507670Y-121044079D01*
X90526883Y-121058329D01*
X90544607Y-121074393D01*
X90560671Y-121092117D01*
X90574921Y-121111330D01*
X90587218Y-121131847D01*
X90597446Y-121153471D01*
X90605504Y-121175993D01*
X90611316Y-121199197D01*
X90614826Y-121222858D01*
X90616000Y-121246750D01*
X90616000Y-121734250D01*
X90614826Y-121758142D01*
X90611316Y-121781803D01*
X90605504Y-121805007D01*
X90597446Y-121827529D01*
X90587218Y-121849153D01*
X90574921Y-121869670D01*
X90560671Y-121888883D01*
X90544607Y-121906607D01*
X90526883Y-121922671D01*
X90507670Y-121936921D01*
X90487153Y-121949218D01*
X90465529Y-121959446D01*
X90443007Y-121967504D01*
X90419803Y-121973316D01*
X90396142Y-121976826D01*
X90372250Y-121978000D01*
X89459750Y-121978000D01*
X89435858Y-121976826D01*
X89412197Y-121973316D01*
X89388993Y-121967504D01*
X89366471Y-121959446D01*
X89344847Y-121949218D01*
X89324330Y-121936921D01*
X89305117Y-121922671D01*
X89287393Y-121906607D01*
X89271329Y-121888883D01*
X89257079Y-121869670D01*
X89244782Y-121849153D01*
X89234554Y-121827529D01*
X89226496Y-121805007D01*
X89220684Y-121781803D01*
X89217174Y-121758142D01*
X89216000Y-121734250D01*
X89216000Y-121246750D01*
X89217174Y-121222858D01*
X89220684Y-121199197D01*
X89226496Y-121175993D01*
X89234554Y-121153471D01*
X89244782Y-121131847D01*
X89257079Y-121111330D01*
X89271329Y-121092117D01*
X89287393Y-121074393D01*
X89305117Y-121058329D01*
X89324330Y-121044079D01*
X89344847Y-121031782D01*
X89366471Y-121021554D01*
X89388993Y-121013496D01*
X89412197Y-121007684D01*
X89435858Y-121004174D01*
X89459750Y-121003000D01*
X90372250Y-121003000D01*
X90396142Y-121004174D01*
X90396142Y-121004174D01*
G37*
D13*
X89916000Y-121490500D03*
D12*
G36*
X90396142Y-122879174D02*
X90419803Y-122882684D01*
X90443007Y-122888496D01*
X90465529Y-122896554D01*
X90487153Y-122906782D01*
X90507670Y-122919079D01*
X90526883Y-122933329D01*
X90544607Y-122949393D01*
X90560671Y-122967117D01*
X90574921Y-122986330D01*
X90587218Y-123006847D01*
X90597446Y-123028471D01*
X90605504Y-123050993D01*
X90611316Y-123074197D01*
X90614826Y-123097858D01*
X90616000Y-123121750D01*
X90616000Y-123609250D01*
X90614826Y-123633142D01*
X90611316Y-123656803D01*
X90605504Y-123680007D01*
X90597446Y-123702529D01*
X90587218Y-123724153D01*
X90574921Y-123744670D01*
X90560671Y-123763883D01*
X90544607Y-123781607D01*
X90526883Y-123797671D01*
X90507670Y-123811921D01*
X90487153Y-123824218D01*
X90465529Y-123834446D01*
X90443007Y-123842504D01*
X90419803Y-123848316D01*
X90396142Y-123851826D01*
X90372250Y-123853000D01*
X89459750Y-123853000D01*
X89435858Y-123851826D01*
X89412197Y-123848316D01*
X89388993Y-123842504D01*
X89366471Y-123834446D01*
X89344847Y-123824218D01*
X89324330Y-123811921D01*
X89305117Y-123797671D01*
X89287393Y-123781607D01*
X89271329Y-123763883D01*
X89257079Y-123744670D01*
X89244782Y-123724153D01*
X89234554Y-123702529D01*
X89226496Y-123680007D01*
X89220684Y-123656803D01*
X89217174Y-123633142D01*
X89216000Y-123609250D01*
X89216000Y-123121750D01*
X89217174Y-123097858D01*
X89220684Y-123074197D01*
X89226496Y-123050993D01*
X89234554Y-123028471D01*
X89244782Y-123006847D01*
X89257079Y-122986330D01*
X89271329Y-122967117D01*
X89287393Y-122949393D01*
X89305117Y-122933329D01*
X89324330Y-122919079D01*
X89344847Y-122906782D01*
X89366471Y-122896554D01*
X89388993Y-122888496D01*
X89412197Y-122882684D01*
X89435858Y-122879174D01*
X89459750Y-122878000D01*
X90372250Y-122878000D01*
X90396142Y-122879174D01*
X90396142Y-122879174D01*
G37*
D13*
X89916000Y-123365500D03*
G04 #@! TD*
D12*
G04 #@! TO.C,C11*
G36*
X90565142Y-126151174D02*
X90588803Y-126154684D01*
X90612007Y-126160496D01*
X90634529Y-126168554D01*
X90656153Y-126178782D01*
X90676670Y-126191079D01*
X90695883Y-126205329D01*
X90713607Y-126221393D01*
X90729671Y-126239117D01*
X90743921Y-126258330D01*
X90756218Y-126278847D01*
X90766446Y-126300471D01*
X90774504Y-126322993D01*
X90780316Y-126346197D01*
X90783826Y-126369858D01*
X90785000Y-126393750D01*
X90785000Y-127306250D01*
X90783826Y-127330142D01*
X90780316Y-127353803D01*
X90774504Y-127377007D01*
X90766446Y-127399529D01*
X90756218Y-127421153D01*
X90743921Y-127441670D01*
X90729671Y-127460883D01*
X90713607Y-127478607D01*
X90695883Y-127494671D01*
X90676670Y-127508921D01*
X90656153Y-127521218D01*
X90634529Y-127531446D01*
X90612007Y-127539504D01*
X90588803Y-127545316D01*
X90565142Y-127548826D01*
X90541250Y-127550000D01*
X90053750Y-127550000D01*
X90029858Y-127548826D01*
X90006197Y-127545316D01*
X89982993Y-127539504D01*
X89960471Y-127531446D01*
X89938847Y-127521218D01*
X89918330Y-127508921D01*
X89899117Y-127494671D01*
X89881393Y-127478607D01*
X89865329Y-127460883D01*
X89851079Y-127441670D01*
X89838782Y-127421153D01*
X89828554Y-127399529D01*
X89820496Y-127377007D01*
X89814684Y-127353803D01*
X89811174Y-127330142D01*
X89810000Y-127306250D01*
X89810000Y-126393750D01*
X89811174Y-126369858D01*
X89814684Y-126346197D01*
X89820496Y-126322993D01*
X89828554Y-126300471D01*
X89838782Y-126278847D01*
X89851079Y-126258330D01*
X89865329Y-126239117D01*
X89881393Y-126221393D01*
X89899117Y-126205329D01*
X89918330Y-126191079D01*
X89938847Y-126178782D01*
X89960471Y-126168554D01*
X89982993Y-126160496D01*
X90006197Y-126154684D01*
X90029858Y-126151174D01*
X90053750Y-126150000D01*
X90541250Y-126150000D01*
X90565142Y-126151174D01*
X90565142Y-126151174D01*
G37*
D13*
X90297500Y-126850000D03*
D12*
G36*
X88690142Y-126151174D02*
X88713803Y-126154684D01*
X88737007Y-126160496D01*
X88759529Y-126168554D01*
X88781153Y-126178782D01*
X88801670Y-126191079D01*
X88820883Y-126205329D01*
X88838607Y-126221393D01*
X88854671Y-126239117D01*
X88868921Y-126258330D01*
X88881218Y-126278847D01*
X88891446Y-126300471D01*
X88899504Y-126322993D01*
X88905316Y-126346197D01*
X88908826Y-126369858D01*
X88910000Y-126393750D01*
X88910000Y-127306250D01*
X88908826Y-127330142D01*
X88905316Y-127353803D01*
X88899504Y-127377007D01*
X88891446Y-127399529D01*
X88881218Y-127421153D01*
X88868921Y-127441670D01*
X88854671Y-127460883D01*
X88838607Y-127478607D01*
X88820883Y-127494671D01*
X88801670Y-127508921D01*
X88781153Y-127521218D01*
X88759529Y-127531446D01*
X88737007Y-127539504D01*
X88713803Y-127545316D01*
X88690142Y-127548826D01*
X88666250Y-127550000D01*
X88178750Y-127550000D01*
X88154858Y-127548826D01*
X88131197Y-127545316D01*
X88107993Y-127539504D01*
X88085471Y-127531446D01*
X88063847Y-127521218D01*
X88043330Y-127508921D01*
X88024117Y-127494671D01*
X88006393Y-127478607D01*
X87990329Y-127460883D01*
X87976079Y-127441670D01*
X87963782Y-127421153D01*
X87953554Y-127399529D01*
X87945496Y-127377007D01*
X87939684Y-127353803D01*
X87936174Y-127330142D01*
X87935000Y-127306250D01*
X87935000Y-126393750D01*
X87936174Y-126369858D01*
X87939684Y-126346197D01*
X87945496Y-126322993D01*
X87953554Y-126300471D01*
X87963782Y-126278847D01*
X87976079Y-126258330D01*
X87990329Y-126239117D01*
X88006393Y-126221393D01*
X88024117Y-126205329D01*
X88043330Y-126191079D01*
X88063847Y-126178782D01*
X88085471Y-126168554D01*
X88107993Y-126160496D01*
X88131197Y-126154684D01*
X88154858Y-126151174D01*
X88178750Y-126150000D01*
X88666250Y-126150000D01*
X88690142Y-126151174D01*
X88690142Y-126151174D01*
G37*
D13*
X88422500Y-126850000D03*
G04 #@! TD*
D12*
G04 #@! TO.C,C12*
G36*
X100000142Y-132381174D02*
X100023803Y-132384684D01*
X100047007Y-132390496D01*
X100069529Y-132398554D01*
X100091153Y-132408782D01*
X100111670Y-132421079D01*
X100130883Y-132435329D01*
X100148607Y-132451393D01*
X100164671Y-132469117D01*
X100178921Y-132488330D01*
X100191218Y-132508847D01*
X100201446Y-132530471D01*
X100209504Y-132552993D01*
X100215316Y-132576197D01*
X100218826Y-132599858D01*
X100220000Y-132623750D01*
X100220000Y-133111250D01*
X100218826Y-133135142D01*
X100215316Y-133158803D01*
X100209504Y-133182007D01*
X100201446Y-133204529D01*
X100191218Y-133226153D01*
X100178921Y-133246670D01*
X100164671Y-133265883D01*
X100148607Y-133283607D01*
X100130883Y-133299671D01*
X100111670Y-133313921D01*
X100091153Y-133326218D01*
X100069529Y-133336446D01*
X100047007Y-133344504D01*
X100023803Y-133350316D01*
X100000142Y-133353826D01*
X99976250Y-133355000D01*
X99063750Y-133355000D01*
X99039858Y-133353826D01*
X99016197Y-133350316D01*
X98992993Y-133344504D01*
X98970471Y-133336446D01*
X98948847Y-133326218D01*
X98928330Y-133313921D01*
X98909117Y-133299671D01*
X98891393Y-133283607D01*
X98875329Y-133265883D01*
X98861079Y-133246670D01*
X98848782Y-133226153D01*
X98838554Y-133204529D01*
X98830496Y-133182007D01*
X98824684Y-133158803D01*
X98821174Y-133135142D01*
X98820000Y-133111250D01*
X98820000Y-132623750D01*
X98821174Y-132599858D01*
X98824684Y-132576197D01*
X98830496Y-132552993D01*
X98838554Y-132530471D01*
X98848782Y-132508847D01*
X98861079Y-132488330D01*
X98875329Y-132469117D01*
X98891393Y-132451393D01*
X98909117Y-132435329D01*
X98928330Y-132421079D01*
X98948847Y-132408782D01*
X98970471Y-132398554D01*
X98992993Y-132390496D01*
X99016197Y-132384684D01*
X99039858Y-132381174D01*
X99063750Y-132380000D01*
X99976250Y-132380000D01*
X100000142Y-132381174D01*
X100000142Y-132381174D01*
G37*
D13*
X99520000Y-132867500D03*
D12*
G36*
X100000142Y-130506174D02*
X100023803Y-130509684D01*
X100047007Y-130515496D01*
X100069529Y-130523554D01*
X100091153Y-130533782D01*
X100111670Y-130546079D01*
X100130883Y-130560329D01*
X100148607Y-130576393D01*
X100164671Y-130594117D01*
X100178921Y-130613330D01*
X100191218Y-130633847D01*
X100201446Y-130655471D01*
X100209504Y-130677993D01*
X100215316Y-130701197D01*
X100218826Y-130724858D01*
X100220000Y-130748750D01*
X100220000Y-131236250D01*
X100218826Y-131260142D01*
X100215316Y-131283803D01*
X100209504Y-131307007D01*
X100201446Y-131329529D01*
X100191218Y-131351153D01*
X100178921Y-131371670D01*
X100164671Y-131390883D01*
X100148607Y-131408607D01*
X100130883Y-131424671D01*
X100111670Y-131438921D01*
X100091153Y-131451218D01*
X100069529Y-131461446D01*
X100047007Y-131469504D01*
X100023803Y-131475316D01*
X100000142Y-131478826D01*
X99976250Y-131480000D01*
X99063750Y-131480000D01*
X99039858Y-131478826D01*
X99016197Y-131475316D01*
X98992993Y-131469504D01*
X98970471Y-131461446D01*
X98948847Y-131451218D01*
X98928330Y-131438921D01*
X98909117Y-131424671D01*
X98891393Y-131408607D01*
X98875329Y-131390883D01*
X98861079Y-131371670D01*
X98848782Y-131351153D01*
X98838554Y-131329529D01*
X98830496Y-131307007D01*
X98824684Y-131283803D01*
X98821174Y-131260142D01*
X98820000Y-131236250D01*
X98820000Y-130748750D01*
X98821174Y-130724858D01*
X98824684Y-130701197D01*
X98830496Y-130677993D01*
X98838554Y-130655471D01*
X98848782Y-130633847D01*
X98861079Y-130613330D01*
X98875329Y-130594117D01*
X98891393Y-130576393D01*
X98909117Y-130560329D01*
X98928330Y-130546079D01*
X98948847Y-130533782D01*
X98970471Y-130523554D01*
X98992993Y-130515496D01*
X99016197Y-130509684D01*
X99039858Y-130506174D01*
X99063750Y-130505000D01*
X99976250Y-130505000D01*
X100000142Y-130506174D01*
X100000142Y-130506174D01*
G37*
D13*
X99520000Y-130992500D03*
G04 #@! TD*
D12*
G04 #@! TO.C,C13*
G36*
X105636142Y-130506174D02*
X105659803Y-130509684D01*
X105683007Y-130515496D01*
X105705529Y-130523554D01*
X105727153Y-130533782D01*
X105747670Y-130546079D01*
X105766883Y-130560329D01*
X105784607Y-130576393D01*
X105800671Y-130594117D01*
X105814921Y-130613330D01*
X105827218Y-130633847D01*
X105837446Y-130655471D01*
X105845504Y-130677993D01*
X105851316Y-130701197D01*
X105854826Y-130724858D01*
X105856000Y-130748750D01*
X105856000Y-131236250D01*
X105854826Y-131260142D01*
X105851316Y-131283803D01*
X105845504Y-131307007D01*
X105837446Y-131329529D01*
X105827218Y-131351153D01*
X105814921Y-131371670D01*
X105800671Y-131390883D01*
X105784607Y-131408607D01*
X105766883Y-131424671D01*
X105747670Y-131438921D01*
X105727153Y-131451218D01*
X105705529Y-131461446D01*
X105683007Y-131469504D01*
X105659803Y-131475316D01*
X105636142Y-131478826D01*
X105612250Y-131480000D01*
X104699750Y-131480000D01*
X104675858Y-131478826D01*
X104652197Y-131475316D01*
X104628993Y-131469504D01*
X104606471Y-131461446D01*
X104584847Y-131451218D01*
X104564330Y-131438921D01*
X104545117Y-131424671D01*
X104527393Y-131408607D01*
X104511329Y-131390883D01*
X104497079Y-131371670D01*
X104484782Y-131351153D01*
X104474554Y-131329529D01*
X104466496Y-131307007D01*
X104460684Y-131283803D01*
X104457174Y-131260142D01*
X104456000Y-131236250D01*
X104456000Y-130748750D01*
X104457174Y-130724858D01*
X104460684Y-130701197D01*
X104466496Y-130677993D01*
X104474554Y-130655471D01*
X104484782Y-130633847D01*
X104497079Y-130613330D01*
X104511329Y-130594117D01*
X104527393Y-130576393D01*
X104545117Y-130560329D01*
X104564330Y-130546079D01*
X104584847Y-130533782D01*
X104606471Y-130523554D01*
X104628993Y-130515496D01*
X104652197Y-130509684D01*
X104675858Y-130506174D01*
X104699750Y-130505000D01*
X105612250Y-130505000D01*
X105636142Y-130506174D01*
X105636142Y-130506174D01*
G37*
D13*
X105156000Y-130992500D03*
D12*
G36*
X105636142Y-132381174D02*
X105659803Y-132384684D01*
X105683007Y-132390496D01*
X105705529Y-132398554D01*
X105727153Y-132408782D01*
X105747670Y-132421079D01*
X105766883Y-132435329D01*
X105784607Y-132451393D01*
X105800671Y-132469117D01*
X105814921Y-132488330D01*
X105827218Y-132508847D01*
X105837446Y-132530471D01*
X105845504Y-132552993D01*
X105851316Y-132576197D01*
X105854826Y-132599858D01*
X105856000Y-132623750D01*
X105856000Y-133111250D01*
X105854826Y-133135142D01*
X105851316Y-133158803D01*
X105845504Y-133182007D01*
X105837446Y-133204529D01*
X105827218Y-133226153D01*
X105814921Y-133246670D01*
X105800671Y-133265883D01*
X105784607Y-133283607D01*
X105766883Y-133299671D01*
X105747670Y-133313921D01*
X105727153Y-133326218D01*
X105705529Y-133336446D01*
X105683007Y-133344504D01*
X105659803Y-133350316D01*
X105636142Y-133353826D01*
X105612250Y-133355000D01*
X104699750Y-133355000D01*
X104675858Y-133353826D01*
X104652197Y-133350316D01*
X104628993Y-133344504D01*
X104606471Y-133336446D01*
X104584847Y-133326218D01*
X104564330Y-133313921D01*
X104545117Y-133299671D01*
X104527393Y-133283607D01*
X104511329Y-133265883D01*
X104497079Y-133246670D01*
X104484782Y-133226153D01*
X104474554Y-133204529D01*
X104466496Y-133182007D01*
X104460684Y-133158803D01*
X104457174Y-133135142D01*
X104456000Y-133111250D01*
X104456000Y-132623750D01*
X104457174Y-132599858D01*
X104460684Y-132576197D01*
X104466496Y-132552993D01*
X104474554Y-132530471D01*
X104484782Y-132508847D01*
X104497079Y-132488330D01*
X104511329Y-132469117D01*
X104527393Y-132451393D01*
X104545117Y-132435329D01*
X104564330Y-132421079D01*
X104584847Y-132408782D01*
X104606471Y-132398554D01*
X104628993Y-132390496D01*
X104652197Y-132384684D01*
X104675858Y-132381174D01*
X104699750Y-132380000D01*
X105612250Y-132380000D01*
X105636142Y-132381174D01*
X105636142Y-132381174D01*
G37*
D13*
X105156000Y-132867500D03*
G04 #@! TD*
D12*
G04 #@! TO.C,C24*
G36*
X136841142Y-118173174D02*
X136864803Y-118176684D01*
X136888007Y-118182496D01*
X136910529Y-118190554D01*
X136932153Y-118200782D01*
X136952670Y-118213079D01*
X136971883Y-118227329D01*
X136989607Y-118243393D01*
X137005671Y-118261117D01*
X137019921Y-118280330D01*
X137032218Y-118300847D01*
X137042446Y-118322471D01*
X137050504Y-118344993D01*
X137056316Y-118368197D01*
X137059826Y-118391858D01*
X137061000Y-118415750D01*
X137061000Y-119328250D01*
X137059826Y-119352142D01*
X137056316Y-119375803D01*
X137050504Y-119399007D01*
X137042446Y-119421529D01*
X137032218Y-119443153D01*
X137019921Y-119463670D01*
X137005671Y-119482883D01*
X136989607Y-119500607D01*
X136971883Y-119516671D01*
X136952670Y-119530921D01*
X136932153Y-119543218D01*
X136910529Y-119553446D01*
X136888007Y-119561504D01*
X136864803Y-119567316D01*
X136841142Y-119570826D01*
X136817250Y-119572000D01*
X136329750Y-119572000D01*
X136305858Y-119570826D01*
X136282197Y-119567316D01*
X136258993Y-119561504D01*
X136236471Y-119553446D01*
X136214847Y-119543218D01*
X136194330Y-119530921D01*
X136175117Y-119516671D01*
X136157393Y-119500607D01*
X136141329Y-119482883D01*
X136127079Y-119463670D01*
X136114782Y-119443153D01*
X136104554Y-119421529D01*
X136096496Y-119399007D01*
X136090684Y-119375803D01*
X136087174Y-119352142D01*
X136086000Y-119328250D01*
X136086000Y-118415750D01*
X136087174Y-118391858D01*
X136090684Y-118368197D01*
X136096496Y-118344993D01*
X136104554Y-118322471D01*
X136114782Y-118300847D01*
X136127079Y-118280330D01*
X136141329Y-118261117D01*
X136157393Y-118243393D01*
X136175117Y-118227329D01*
X136194330Y-118213079D01*
X136214847Y-118200782D01*
X136236471Y-118190554D01*
X136258993Y-118182496D01*
X136282197Y-118176684D01*
X136305858Y-118173174D01*
X136329750Y-118172000D01*
X136817250Y-118172000D01*
X136841142Y-118173174D01*
X136841142Y-118173174D01*
G37*
D13*
X136573500Y-118872000D03*
D12*
G36*
X134966142Y-118173174D02*
X134989803Y-118176684D01*
X135013007Y-118182496D01*
X135035529Y-118190554D01*
X135057153Y-118200782D01*
X135077670Y-118213079D01*
X135096883Y-118227329D01*
X135114607Y-118243393D01*
X135130671Y-118261117D01*
X135144921Y-118280330D01*
X135157218Y-118300847D01*
X135167446Y-118322471D01*
X135175504Y-118344993D01*
X135181316Y-118368197D01*
X135184826Y-118391858D01*
X135186000Y-118415750D01*
X135186000Y-119328250D01*
X135184826Y-119352142D01*
X135181316Y-119375803D01*
X135175504Y-119399007D01*
X135167446Y-119421529D01*
X135157218Y-119443153D01*
X135144921Y-119463670D01*
X135130671Y-119482883D01*
X135114607Y-119500607D01*
X135096883Y-119516671D01*
X135077670Y-119530921D01*
X135057153Y-119543218D01*
X135035529Y-119553446D01*
X135013007Y-119561504D01*
X134989803Y-119567316D01*
X134966142Y-119570826D01*
X134942250Y-119572000D01*
X134454750Y-119572000D01*
X134430858Y-119570826D01*
X134407197Y-119567316D01*
X134383993Y-119561504D01*
X134361471Y-119553446D01*
X134339847Y-119543218D01*
X134319330Y-119530921D01*
X134300117Y-119516671D01*
X134282393Y-119500607D01*
X134266329Y-119482883D01*
X134252079Y-119463670D01*
X134239782Y-119443153D01*
X134229554Y-119421529D01*
X134221496Y-119399007D01*
X134215684Y-119375803D01*
X134212174Y-119352142D01*
X134211000Y-119328250D01*
X134211000Y-118415750D01*
X134212174Y-118391858D01*
X134215684Y-118368197D01*
X134221496Y-118344993D01*
X134229554Y-118322471D01*
X134239782Y-118300847D01*
X134252079Y-118280330D01*
X134266329Y-118261117D01*
X134282393Y-118243393D01*
X134300117Y-118227329D01*
X134319330Y-118213079D01*
X134339847Y-118200782D01*
X134361471Y-118190554D01*
X134383993Y-118182496D01*
X134407197Y-118176684D01*
X134430858Y-118173174D01*
X134454750Y-118172000D01*
X134942250Y-118172000D01*
X134966142Y-118173174D01*
X134966142Y-118173174D01*
G37*
D13*
X134698500Y-118872000D03*
G04 #@! TD*
D12*
G04 #@! TO.C,C22*
G36*
X123768142Y-151459174D02*
X123791803Y-151462684D01*
X123815007Y-151468496D01*
X123837529Y-151476554D01*
X123859153Y-151486782D01*
X123879670Y-151499079D01*
X123898883Y-151513329D01*
X123916607Y-151529393D01*
X123932671Y-151547117D01*
X123946921Y-151566330D01*
X123959218Y-151586847D01*
X123969446Y-151608471D01*
X123977504Y-151630993D01*
X123983316Y-151654197D01*
X123986826Y-151677858D01*
X123988000Y-151701750D01*
X123988000Y-152189250D01*
X123986826Y-152213142D01*
X123983316Y-152236803D01*
X123977504Y-152260007D01*
X123969446Y-152282529D01*
X123959218Y-152304153D01*
X123946921Y-152324670D01*
X123932671Y-152343883D01*
X123916607Y-152361607D01*
X123898883Y-152377671D01*
X123879670Y-152391921D01*
X123859153Y-152404218D01*
X123837529Y-152414446D01*
X123815007Y-152422504D01*
X123791803Y-152428316D01*
X123768142Y-152431826D01*
X123744250Y-152433000D01*
X122831750Y-152433000D01*
X122807858Y-152431826D01*
X122784197Y-152428316D01*
X122760993Y-152422504D01*
X122738471Y-152414446D01*
X122716847Y-152404218D01*
X122696330Y-152391921D01*
X122677117Y-152377671D01*
X122659393Y-152361607D01*
X122643329Y-152343883D01*
X122629079Y-152324670D01*
X122616782Y-152304153D01*
X122606554Y-152282529D01*
X122598496Y-152260007D01*
X122592684Y-152236803D01*
X122589174Y-152213142D01*
X122588000Y-152189250D01*
X122588000Y-151701750D01*
X122589174Y-151677858D01*
X122592684Y-151654197D01*
X122598496Y-151630993D01*
X122606554Y-151608471D01*
X122616782Y-151586847D01*
X122629079Y-151566330D01*
X122643329Y-151547117D01*
X122659393Y-151529393D01*
X122677117Y-151513329D01*
X122696330Y-151499079D01*
X122716847Y-151486782D01*
X122738471Y-151476554D01*
X122760993Y-151468496D01*
X122784197Y-151462684D01*
X122807858Y-151459174D01*
X122831750Y-151458000D01*
X123744250Y-151458000D01*
X123768142Y-151459174D01*
X123768142Y-151459174D01*
G37*
D13*
X123288000Y-151945500D03*
D12*
G36*
X123768142Y-149584174D02*
X123791803Y-149587684D01*
X123815007Y-149593496D01*
X123837529Y-149601554D01*
X123859153Y-149611782D01*
X123879670Y-149624079D01*
X123898883Y-149638329D01*
X123916607Y-149654393D01*
X123932671Y-149672117D01*
X123946921Y-149691330D01*
X123959218Y-149711847D01*
X123969446Y-149733471D01*
X123977504Y-149755993D01*
X123983316Y-149779197D01*
X123986826Y-149802858D01*
X123988000Y-149826750D01*
X123988000Y-150314250D01*
X123986826Y-150338142D01*
X123983316Y-150361803D01*
X123977504Y-150385007D01*
X123969446Y-150407529D01*
X123959218Y-150429153D01*
X123946921Y-150449670D01*
X123932671Y-150468883D01*
X123916607Y-150486607D01*
X123898883Y-150502671D01*
X123879670Y-150516921D01*
X123859153Y-150529218D01*
X123837529Y-150539446D01*
X123815007Y-150547504D01*
X123791803Y-150553316D01*
X123768142Y-150556826D01*
X123744250Y-150558000D01*
X122831750Y-150558000D01*
X122807858Y-150556826D01*
X122784197Y-150553316D01*
X122760993Y-150547504D01*
X122738471Y-150539446D01*
X122716847Y-150529218D01*
X122696330Y-150516921D01*
X122677117Y-150502671D01*
X122659393Y-150486607D01*
X122643329Y-150468883D01*
X122629079Y-150449670D01*
X122616782Y-150429153D01*
X122606554Y-150407529D01*
X122598496Y-150385007D01*
X122592684Y-150361803D01*
X122589174Y-150338142D01*
X122588000Y-150314250D01*
X122588000Y-149826750D01*
X122589174Y-149802858D01*
X122592684Y-149779197D01*
X122598496Y-149755993D01*
X122606554Y-149733471D01*
X122616782Y-149711847D01*
X122629079Y-149691330D01*
X122643329Y-149672117D01*
X122659393Y-149654393D01*
X122677117Y-149638329D01*
X122696330Y-149624079D01*
X122716847Y-149611782D01*
X122738471Y-149601554D01*
X122760993Y-149593496D01*
X122784197Y-149587684D01*
X122807858Y-149584174D01*
X122831750Y-149583000D01*
X123744250Y-149583000D01*
X123768142Y-149584174D01*
X123768142Y-149584174D01*
G37*
D13*
X123288000Y-150070500D03*
G04 #@! TD*
D12*
G04 #@! TO.C,C21*
G36*
X125768142Y-149584174D02*
X125791803Y-149587684D01*
X125815007Y-149593496D01*
X125837529Y-149601554D01*
X125859153Y-149611782D01*
X125879670Y-149624079D01*
X125898883Y-149638329D01*
X125916607Y-149654393D01*
X125932671Y-149672117D01*
X125946921Y-149691330D01*
X125959218Y-149711847D01*
X125969446Y-149733471D01*
X125977504Y-149755993D01*
X125983316Y-149779197D01*
X125986826Y-149802858D01*
X125988000Y-149826750D01*
X125988000Y-150314250D01*
X125986826Y-150338142D01*
X125983316Y-150361803D01*
X125977504Y-150385007D01*
X125969446Y-150407529D01*
X125959218Y-150429153D01*
X125946921Y-150449670D01*
X125932671Y-150468883D01*
X125916607Y-150486607D01*
X125898883Y-150502671D01*
X125879670Y-150516921D01*
X125859153Y-150529218D01*
X125837529Y-150539446D01*
X125815007Y-150547504D01*
X125791803Y-150553316D01*
X125768142Y-150556826D01*
X125744250Y-150558000D01*
X124831750Y-150558000D01*
X124807858Y-150556826D01*
X124784197Y-150553316D01*
X124760993Y-150547504D01*
X124738471Y-150539446D01*
X124716847Y-150529218D01*
X124696330Y-150516921D01*
X124677117Y-150502671D01*
X124659393Y-150486607D01*
X124643329Y-150468883D01*
X124629079Y-150449670D01*
X124616782Y-150429153D01*
X124606554Y-150407529D01*
X124598496Y-150385007D01*
X124592684Y-150361803D01*
X124589174Y-150338142D01*
X124588000Y-150314250D01*
X124588000Y-149826750D01*
X124589174Y-149802858D01*
X124592684Y-149779197D01*
X124598496Y-149755993D01*
X124606554Y-149733471D01*
X124616782Y-149711847D01*
X124629079Y-149691330D01*
X124643329Y-149672117D01*
X124659393Y-149654393D01*
X124677117Y-149638329D01*
X124696330Y-149624079D01*
X124716847Y-149611782D01*
X124738471Y-149601554D01*
X124760993Y-149593496D01*
X124784197Y-149587684D01*
X124807858Y-149584174D01*
X124831750Y-149583000D01*
X125744250Y-149583000D01*
X125768142Y-149584174D01*
X125768142Y-149584174D01*
G37*
D13*
X125288000Y-150070500D03*
D12*
G36*
X125768142Y-151459174D02*
X125791803Y-151462684D01*
X125815007Y-151468496D01*
X125837529Y-151476554D01*
X125859153Y-151486782D01*
X125879670Y-151499079D01*
X125898883Y-151513329D01*
X125916607Y-151529393D01*
X125932671Y-151547117D01*
X125946921Y-151566330D01*
X125959218Y-151586847D01*
X125969446Y-151608471D01*
X125977504Y-151630993D01*
X125983316Y-151654197D01*
X125986826Y-151677858D01*
X125988000Y-151701750D01*
X125988000Y-152189250D01*
X125986826Y-152213142D01*
X125983316Y-152236803D01*
X125977504Y-152260007D01*
X125969446Y-152282529D01*
X125959218Y-152304153D01*
X125946921Y-152324670D01*
X125932671Y-152343883D01*
X125916607Y-152361607D01*
X125898883Y-152377671D01*
X125879670Y-152391921D01*
X125859153Y-152404218D01*
X125837529Y-152414446D01*
X125815007Y-152422504D01*
X125791803Y-152428316D01*
X125768142Y-152431826D01*
X125744250Y-152433000D01*
X124831750Y-152433000D01*
X124807858Y-152431826D01*
X124784197Y-152428316D01*
X124760993Y-152422504D01*
X124738471Y-152414446D01*
X124716847Y-152404218D01*
X124696330Y-152391921D01*
X124677117Y-152377671D01*
X124659393Y-152361607D01*
X124643329Y-152343883D01*
X124629079Y-152324670D01*
X124616782Y-152304153D01*
X124606554Y-152282529D01*
X124598496Y-152260007D01*
X124592684Y-152236803D01*
X124589174Y-152213142D01*
X124588000Y-152189250D01*
X124588000Y-151701750D01*
X124589174Y-151677858D01*
X124592684Y-151654197D01*
X124598496Y-151630993D01*
X124606554Y-151608471D01*
X124616782Y-151586847D01*
X124629079Y-151566330D01*
X124643329Y-151547117D01*
X124659393Y-151529393D01*
X124677117Y-151513329D01*
X124696330Y-151499079D01*
X124716847Y-151486782D01*
X124738471Y-151476554D01*
X124760993Y-151468496D01*
X124784197Y-151462684D01*
X124807858Y-151459174D01*
X124831750Y-151458000D01*
X125744250Y-151458000D01*
X125768142Y-151459174D01*
X125768142Y-151459174D01*
G37*
D13*
X125288000Y-151945500D03*
G04 #@! TD*
D12*
G04 #@! TO.C,C20*
G36*
X99032142Y-102616174D02*
X99055803Y-102619684D01*
X99079007Y-102625496D01*
X99101529Y-102633554D01*
X99123153Y-102643782D01*
X99143670Y-102656079D01*
X99162883Y-102670329D01*
X99180607Y-102686393D01*
X99196671Y-102704117D01*
X99210921Y-102723330D01*
X99223218Y-102743847D01*
X99233446Y-102765471D01*
X99241504Y-102787993D01*
X99247316Y-102811197D01*
X99250826Y-102834858D01*
X99252000Y-102858750D01*
X99252000Y-103346250D01*
X99250826Y-103370142D01*
X99247316Y-103393803D01*
X99241504Y-103417007D01*
X99233446Y-103439529D01*
X99223218Y-103461153D01*
X99210921Y-103481670D01*
X99196671Y-103500883D01*
X99180607Y-103518607D01*
X99162883Y-103534671D01*
X99143670Y-103548921D01*
X99123153Y-103561218D01*
X99101529Y-103571446D01*
X99079007Y-103579504D01*
X99055803Y-103585316D01*
X99032142Y-103588826D01*
X99008250Y-103590000D01*
X98095750Y-103590000D01*
X98071858Y-103588826D01*
X98048197Y-103585316D01*
X98024993Y-103579504D01*
X98002471Y-103571446D01*
X97980847Y-103561218D01*
X97960330Y-103548921D01*
X97941117Y-103534671D01*
X97923393Y-103518607D01*
X97907329Y-103500883D01*
X97893079Y-103481670D01*
X97880782Y-103461153D01*
X97870554Y-103439529D01*
X97862496Y-103417007D01*
X97856684Y-103393803D01*
X97853174Y-103370142D01*
X97852000Y-103346250D01*
X97852000Y-102858750D01*
X97853174Y-102834858D01*
X97856684Y-102811197D01*
X97862496Y-102787993D01*
X97870554Y-102765471D01*
X97880782Y-102743847D01*
X97893079Y-102723330D01*
X97907329Y-102704117D01*
X97923393Y-102686393D01*
X97941117Y-102670329D01*
X97960330Y-102656079D01*
X97980847Y-102643782D01*
X98002471Y-102633554D01*
X98024993Y-102625496D01*
X98048197Y-102619684D01*
X98071858Y-102616174D01*
X98095750Y-102615000D01*
X99008250Y-102615000D01*
X99032142Y-102616174D01*
X99032142Y-102616174D01*
G37*
D13*
X98552000Y-103102500D03*
D12*
G36*
X99032142Y-104491174D02*
X99055803Y-104494684D01*
X99079007Y-104500496D01*
X99101529Y-104508554D01*
X99123153Y-104518782D01*
X99143670Y-104531079D01*
X99162883Y-104545329D01*
X99180607Y-104561393D01*
X99196671Y-104579117D01*
X99210921Y-104598330D01*
X99223218Y-104618847D01*
X99233446Y-104640471D01*
X99241504Y-104662993D01*
X99247316Y-104686197D01*
X99250826Y-104709858D01*
X99252000Y-104733750D01*
X99252000Y-105221250D01*
X99250826Y-105245142D01*
X99247316Y-105268803D01*
X99241504Y-105292007D01*
X99233446Y-105314529D01*
X99223218Y-105336153D01*
X99210921Y-105356670D01*
X99196671Y-105375883D01*
X99180607Y-105393607D01*
X99162883Y-105409671D01*
X99143670Y-105423921D01*
X99123153Y-105436218D01*
X99101529Y-105446446D01*
X99079007Y-105454504D01*
X99055803Y-105460316D01*
X99032142Y-105463826D01*
X99008250Y-105465000D01*
X98095750Y-105465000D01*
X98071858Y-105463826D01*
X98048197Y-105460316D01*
X98024993Y-105454504D01*
X98002471Y-105446446D01*
X97980847Y-105436218D01*
X97960330Y-105423921D01*
X97941117Y-105409671D01*
X97923393Y-105393607D01*
X97907329Y-105375883D01*
X97893079Y-105356670D01*
X97880782Y-105336153D01*
X97870554Y-105314529D01*
X97862496Y-105292007D01*
X97856684Y-105268803D01*
X97853174Y-105245142D01*
X97852000Y-105221250D01*
X97852000Y-104733750D01*
X97853174Y-104709858D01*
X97856684Y-104686197D01*
X97862496Y-104662993D01*
X97870554Y-104640471D01*
X97880782Y-104618847D01*
X97893079Y-104598330D01*
X97907329Y-104579117D01*
X97923393Y-104561393D01*
X97941117Y-104545329D01*
X97960330Y-104531079D01*
X97980847Y-104518782D01*
X98002471Y-104508554D01*
X98024993Y-104500496D01*
X98048197Y-104494684D01*
X98071858Y-104491174D01*
X98095750Y-104490000D01*
X99008250Y-104490000D01*
X99032142Y-104491174D01*
X99032142Y-104491174D01*
G37*
D13*
X98552000Y-104977500D03*
G04 #@! TD*
D12*
G04 #@! TO.C,C19*
G36*
X96665142Y-130341174D02*
X96688803Y-130344684D01*
X96712007Y-130350496D01*
X96734529Y-130358554D01*
X96756153Y-130368782D01*
X96776670Y-130381079D01*
X96795883Y-130395329D01*
X96813607Y-130411393D01*
X96829671Y-130429117D01*
X96843921Y-130448330D01*
X96856218Y-130468847D01*
X96866446Y-130490471D01*
X96874504Y-130512993D01*
X96880316Y-130536197D01*
X96883826Y-130559858D01*
X96885000Y-130583750D01*
X96885000Y-131496250D01*
X96883826Y-131520142D01*
X96880316Y-131543803D01*
X96874504Y-131567007D01*
X96866446Y-131589529D01*
X96856218Y-131611153D01*
X96843921Y-131631670D01*
X96829671Y-131650883D01*
X96813607Y-131668607D01*
X96795883Y-131684671D01*
X96776670Y-131698921D01*
X96756153Y-131711218D01*
X96734529Y-131721446D01*
X96712007Y-131729504D01*
X96688803Y-131735316D01*
X96665142Y-131738826D01*
X96641250Y-131740000D01*
X96153750Y-131740000D01*
X96129858Y-131738826D01*
X96106197Y-131735316D01*
X96082993Y-131729504D01*
X96060471Y-131721446D01*
X96038847Y-131711218D01*
X96018330Y-131698921D01*
X95999117Y-131684671D01*
X95981393Y-131668607D01*
X95965329Y-131650883D01*
X95951079Y-131631670D01*
X95938782Y-131611153D01*
X95928554Y-131589529D01*
X95920496Y-131567007D01*
X95914684Y-131543803D01*
X95911174Y-131520142D01*
X95910000Y-131496250D01*
X95910000Y-130583750D01*
X95911174Y-130559858D01*
X95914684Y-130536197D01*
X95920496Y-130512993D01*
X95928554Y-130490471D01*
X95938782Y-130468847D01*
X95951079Y-130448330D01*
X95965329Y-130429117D01*
X95981393Y-130411393D01*
X95999117Y-130395329D01*
X96018330Y-130381079D01*
X96038847Y-130368782D01*
X96060471Y-130358554D01*
X96082993Y-130350496D01*
X96106197Y-130344684D01*
X96129858Y-130341174D01*
X96153750Y-130340000D01*
X96641250Y-130340000D01*
X96665142Y-130341174D01*
X96665142Y-130341174D01*
G37*
D13*
X96397500Y-131040000D03*
D12*
G36*
X94790142Y-130341174D02*
X94813803Y-130344684D01*
X94837007Y-130350496D01*
X94859529Y-130358554D01*
X94881153Y-130368782D01*
X94901670Y-130381079D01*
X94920883Y-130395329D01*
X94938607Y-130411393D01*
X94954671Y-130429117D01*
X94968921Y-130448330D01*
X94981218Y-130468847D01*
X94991446Y-130490471D01*
X94999504Y-130512993D01*
X95005316Y-130536197D01*
X95008826Y-130559858D01*
X95010000Y-130583750D01*
X95010000Y-131496250D01*
X95008826Y-131520142D01*
X95005316Y-131543803D01*
X94999504Y-131567007D01*
X94991446Y-131589529D01*
X94981218Y-131611153D01*
X94968921Y-131631670D01*
X94954671Y-131650883D01*
X94938607Y-131668607D01*
X94920883Y-131684671D01*
X94901670Y-131698921D01*
X94881153Y-131711218D01*
X94859529Y-131721446D01*
X94837007Y-131729504D01*
X94813803Y-131735316D01*
X94790142Y-131738826D01*
X94766250Y-131740000D01*
X94278750Y-131740000D01*
X94254858Y-131738826D01*
X94231197Y-131735316D01*
X94207993Y-131729504D01*
X94185471Y-131721446D01*
X94163847Y-131711218D01*
X94143330Y-131698921D01*
X94124117Y-131684671D01*
X94106393Y-131668607D01*
X94090329Y-131650883D01*
X94076079Y-131631670D01*
X94063782Y-131611153D01*
X94053554Y-131589529D01*
X94045496Y-131567007D01*
X94039684Y-131543803D01*
X94036174Y-131520142D01*
X94035000Y-131496250D01*
X94035000Y-130583750D01*
X94036174Y-130559858D01*
X94039684Y-130536197D01*
X94045496Y-130512993D01*
X94053554Y-130490471D01*
X94063782Y-130468847D01*
X94076079Y-130448330D01*
X94090329Y-130429117D01*
X94106393Y-130411393D01*
X94124117Y-130395329D01*
X94143330Y-130381079D01*
X94163847Y-130368782D01*
X94185471Y-130358554D01*
X94207993Y-130350496D01*
X94231197Y-130344684D01*
X94254858Y-130341174D01*
X94278750Y-130340000D01*
X94766250Y-130340000D01*
X94790142Y-130341174D01*
X94790142Y-130341174D01*
G37*
D13*
X94522500Y-131040000D03*
G04 #@! TD*
D12*
G04 #@! TO.C,C18*
G36*
X118665142Y-109333174D02*
X118688803Y-109336684D01*
X118712007Y-109342496D01*
X118734529Y-109350554D01*
X118756153Y-109360782D01*
X118776670Y-109373079D01*
X118795883Y-109387329D01*
X118813607Y-109403393D01*
X118829671Y-109421117D01*
X118843921Y-109440330D01*
X118856218Y-109460847D01*
X118866446Y-109482471D01*
X118874504Y-109504993D01*
X118880316Y-109528197D01*
X118883826Y-109551858D01*
X118885000Y-109575750D01*
X118885000Y-110488250D01*
X118883826Y-110512142D01*
X118880316Y-110535803D01*
X118874504Y-110559007D01*
X118866446Y-110581529D01*
X118856218Y-110603153D01*
X118843921Y-110623670D01*
X118829671Y-110642883D01*
X118813607Y-110660607D01*
X118795883Y-110676671D01*
X118776670Y-110690921D01*
X118756153Y-110703218D01*
X118734529Y-110713446D01*
X118712007Y-110721504D01*
X118688803Y-110727316D01*
X118665142Y-110730826D01*
X118641250Y-110732000D01*
X118153750Y-110732000D01*
X118129858Y-110730826D01*
X118106197Y-110727316D01*
X118082993Y-110721504D01*
X118060471Y-110713446D01*
X118038847Y-110703218D01*
X118018330Y-110690921D01*
X117999117Y-110676671D01*
X117981393Y-110660607D01*
X117965329Y-110642883D01*
X117951079Y-110623670D01*
X117938782Y-110603153D01*
X117928554Y-110581529D01*
X117920496Y-110559007D01*
X117914684Y-110535803D01*
X117911174Y-110512142D01*
X117910000Y-110488250D01*
X117910000Y-109575750D01*
X117911174Y-109551858D01*
X117914684Y-109528197D01*
X117920496Y-109504993D01*
X117928554Y-109482471D01*
X117938782Y-109460847D01*
X117951079Y-109440330D01*
X117965329Y-109421117D01*
X117981393Y-109403393D01*
X117999117Y-109387329D01*
X118018330Y-109373079D01*
X118038847Y-109360782D01*
X118060471Y-109350554D01*
X118082993Y-109342496D01*
X118106197Y-109336684D01*
X118129858Y-109333174D01*
X118153750Y-109332000D01*
X118641250Y-109332000D01*
X118665142Y-109333174D01*
X118665142Y-109333174D01*
G37*
D13*
X118397500Y-110032000D03*
D12*
G36*
X116790142Y-109333174D02*
X116813803Y-109336684D01*
X116837007Y-109342496D01*
X116859529Y-109350554D01*
X116881153Y-109360782D01*
X116901670Y-109373079D01*
X116920883Y-109387329D01*
X116938607Y-109403393D01*
X116954671Y-109421117D01*
X116968921Y-109440330D01*
X116981218Y-109460847D01*
X116991446Y-109482471D01*
X116999504Y-109504993D01*
X117005316Y-109528197D01*
X117008826Y-109551858D01*
X117010000Y-109575750D01*
X117010000Y-110488250D01*
X117008826Y-110512142D01*
X117005316Y-110535803D01*
X116999504Y-110559007D01*
X116991446Y-110581529D01*
X116981218Y-110603153D01*
X116968921Y-110623670D01*
X116954671Y-110642883D01*
X116938607Y-110660607D01*
X116920883Y-110676671D01*
X116901670Y-110690921D01*
X116881153Y-110703218D01*
X116859529Y-110713446D01*
X116837007Y-110721504D01*
X116813803Y-110727316D01*
X116790142Y-110730826D01*
X116766250Y-110732000D01*
X116278750Y-110732000D01*
X116254858Y-110730826D01*
X116231197Y-110727316D01*
X116207993Y-110721504D01*
X116185471Y-110713446D01*
X116163847Y-110703218D01*
X116143330Y-110690921D01*
X116124117Y-110676671D01*
X116106393Y-110660607D01*
X116090329Y-110642883D01*
X116076079Y-110623670D01*
X116063782Y-110603153D01*
X116053554Y-110581529D01*
X116045496Y-110559007D01*
X116039684Y-110535803D01*
X116036174Y-110512142D01*
X116035000Y-110488250D01*
X116035000Y-109575750D01*
X116036174Y-109551858D01*
X116039684Y-109528197D01*
X116045496Y-109504993D01*
X116053554Y-109482471D01*
X116063782Y-109460847D01*
X116076079Y-109440330D01*
X116090329Y-109421117D01*
X116106393Y-109403393D01*
X116124117Y-109387329D01*
X116143330Y-109373079D01*
X116163847Y-109360782D01*
X116185471Y-109350554D01*
X116207993Y-109342496D01*
X116231197Y-109336684D01*
X116254858Y-109333174D01*
X116278750Y-109332000D01*
X116766250Y-109332000D01*
X116790142Y-109333174D01*
X116790142Y-109333174D01*
G37*
D13*
X116522500Y-110032000D03*
G04 #@! TD*
D12*
G04 #@! TO.C,C17*
G36*
X116790142Y-107333174D02*
X116813803Y-107336684D01*
X116837007Y-107342496D01*
X116859529Y-107350554D01*
X116881153Y-107360782D01*
X116901670Y-107373079D01*
X116920883Y-107387329D01*
X116938607Y-107403393D01*
X116954671Y-107421117D01*
X116968921Y-107440330D01*
X116981218Y-107460847D01*
X116991446Y-107482471D01*
X116999504Y-107504993D01*
X117005316Y-107528197D01*
X117008826Y-107551858D01*
X117010000Y-107575750D01*
X117010000Y-108488250D01*
X117008826Y-108512142D01*
X117005316Y-108535803D01*
X116999504Y-108559007D01*
X116991446Y-108581529D01*
X116981218Y-108603153D01*
X116968921Y-108623670D01*
X116954671Y-108642883D01*
X116938607Y-108660607D01*
X116920883Y-108676671D01*
X116901670Y-108690921D01*
X116881153Y-108703218D01*
X116859529Y-108713446D01*
X116837007Y-108721504D01*
X116813803Y-108727316D01*
X116790142Y-108730826D01*
X116766250Y-108732000D01*
X116278750Y-108732000D01*
X116254858Y-108730826D01*
X116231197Y-108727316D01*
X116207993Y-108721504D01*
X116185471Y-108713446D01*
X116163847Y-108703218D01*
X116143330Y-108690921D01*
X116124117Y-108676671D01*
X116106393Y-108660607D01*
X116090329Y-108642883D01*
X116076079Y-108623670D01*
X116063782Y-108603153D01*
X116053554Y-108581529D01*
X116045496Y-108559007D01*
X116039684Y-108535803D01*
X116036174Y-108512142D01*
X116035000Y-108488250D01*
X116035000Y-107575750D01*
X116036174Y-107551858D01*
X116039684Y-107528197D01*
X116045496Y-107504993D01*
X116053554Y-107482471D01*
X116063782Y-107460847D01*
X116076079Y-107440330D01*
X116090329Y-107421117D01*
X116106393Y-107403393D01*
X116124117Y-107387329D01*
X116143330Y-107373079D01*
X116163847Y-107360782D01*
X116185471Y-107350554D01*
X116207993Y-107342496D01*
X116231197Y-107336684D01*
X116254858Y-107333174D01*
X116278750Y-107332000D01*
X116766250Y-107332000D01*
X116790142Y-107333174D01*
X116790142Y-107333174D01*
G37*
D13*
X116522500Y-108032000D03*
D12*
G36*
X118665142Y-107333174D02*
X118688803Y-107336684D01*
X118712007Y-107342496D01*
X118734529Y-107350554D01*
X118756153Y-107360782D01*
X118776670Y-107373079D01*
X118795883Y-107387329D01*
X118813607Y-107403393D01*
X118829671Y-107421117D01*
X118843921Y-107440330D01*
X118856218Y-107460847D01*
X118866446Y-107482471D01*
X118874504Y-107504993D01*
X118880316Y-107528197D01*
X118883826Y-107551858D01*
X118885000Y-107575750D01*
X118885000Y-108488250D01*
X118883826Y-108512142D01*
X118880316Y-108535803D01*
X118874504Y-108559007D01*
X118866446Y-108581529D01*
X118856218Y-108603153D01*
X118843921Y-108623670D01*
X118829671Y-108642883D01*
X118813607Y-108660607D01*
X118795883Y-108676671D01*
X118776670Y-108690921D01*
X118756153Y-108703218D01*
X118734529Y-108713446D01*
X118712007Y-108721504D01*
X118688803Y-108727316D01*
X118665142Y-108730826D01*
X118641250Y-108732000D01*
X118153750Y-108732000D01*
X118129858Y-108730826D01*
X118106197Y-108727316D01*
X118082993Y-108721504D01*
X118060471Y-108713446D01*
X118038847Y-108703218D01*
X118018330Y-108690921D01*
X117999117Y-108676671D01*
X117981393Y-108660607D01*
X117965329Y-108642883D01*
X117951079Y-108623670D01*
X117938782Y-108603153D01*
X117928554Y-108581529D01*
X117920496Y-108559007D01*
X117914684Y-108535803D01*
X117911174Y-108512142D01*
X117910000Y-108488250D01*
X117910000Y-107575750D01*
X117911174Y-107551858D01*
X117914684Y-107528197D01*
X117920496Y-107504993D01*
X117928554Y-107482471D01*
X117938782Y-107460847D01*
X117951079Y-107440330D01*
X117965329Y-107421117D01*
X117981393Y-107403393D01*
X117999117Y-107387329D01*
X118018330Y-107373079D01*
X118038847Y-107360782D01*
X118060471Y-107350554D01*
X118082993Y-107342496D01*
X118106197Y-107336684D01*
X118129858Y-107333174D01*
X118153750Y-107332000D01*
X118641250Y-107332000D01*
X118665142Y-107333174D01*
X118665142Y-107333174D01*
G37*
D13*
X118397500Y-108032000D03*
G04 #@! TD*
D12*
G04 #@! TO.C,C16*
G36*
X118505142Y-114721174D02*
X118528803Y-114724684D01*
X118552007Y-114730496D01*
X118574529Y-114738554D01*
X118596153Y-114748782D01*
X118616670Y-114761079D01*
X118635883Y-114775329D01*
X118653607Y-114791393D01*
X118669671Y-114809117D01*
X118683921Y-114828330D01*
X118696218Y-114848847D01*
X118706446Y-114870471D01*
X118714504Y-114892993D01*
X118720316Y-114916197D01*
X118723826Y-114939858D01*
X118725000Y-114963750D01*
X118725000Y-115876250D01*
X118723826Y-115900142D01*
X118720316Y-115923803D01*
X118714504Y-115947007D01*
X118706446Y-115969529D01*
X118696218Y-115991153D01*
X118683921Y-116011670D01*
X118669671Y-116030883D01*
X118653607Y-116048607D01*
X118635883Y-116064671D01*
X118616670Y-116078921D01*
X118596153Y-116091218D01*
X118574529Y-116101446D01*
X118552007Y-116109504D01*
X118528803Y-116115316D01*
X118505142Y-116118826D01*
X118481250Y-116120000D01*
X117993750Y-116120000D01*
X117969858Y-116118826D01*
X117946197Y-116115316D01*
X117922993Y-116109504D01*
X117900471Y-116101446D01*
X117878847Y-116091218D01*
X117858330Y-116078921D01*
X117839117Y-116064671D01*
X117821393Y-116048607D01*
X117805329Y-116030883D01*
X117791079Y-116011670D01*
X117778782Y-115991153D01*
X117768554Y-115969529D01*
X117760496Y-115947007D01*
X117754684Y-115923803D01*
X117751174Y-115900142D01*
X117750000Y-115876250D01*
X117750000Y-114963750D01*
X117751174Y-114939858D01*
X117754684Y-114916197D01*
X117760496Y-114892993D01*
X117768554Y-114870471D01*
X117778782Y-114848847D01*
X117791079Y-114828330D01*
X117805329Y-114809117D01*
X117821393Y-114791393D01*
X117839117Y-114775329D01*
X117858330Y-114761079D01*
X117878847Y-114748782D01*
X117900471Y-114738554D01*
X117922993Y-114730496D01*
X117946197Y-114724684D01*
X117969858Y-114721174D01*
X117993750Y-114720000D01*
X118481250Y-114720000D01*
X118505142Y-114721174D01*
X118505142Y-114721174D01*
G37*
D13*
X118237500Y-115420000D03*
D12*
G36*
X116630142Y-114721174D02*
X116653803Y-114724684D01*
X116677007Y-114730496D01*
X116699529Y-114738554D01*
X116721153Y-114748782D01*
X116741670Y-114761079D01*
X116760883Y-114775329D01*
X116778607Y-114791393D01*
X116794671Y-114809117D01*
X116808921Y-114828330D01*
X116821218Y-114848847D01*
X116831446Y-114870471D01*
X116839504Y-114892993D01*
X116845316Y-114916197D01*
X116848826Y-114939858D01*
X116850000Y-114963750D01*
X116850000Y-115876250D01*
X116848826Y-115900142D01*
X116845316Y-115923803D01*
X116839504Y-115947007D01*
X116831446Y-115969529D01*
X116821218Y-115991153D01*
X116808921Y-116011670D01*
X116794671Y-116030883D01*
X116778607Y-116048607D01*
X116760883Y-116064671D01*
X116741670Y-116078921D01*
X116721153Y-116091218D01*
X116699529Y-116101446D01*
X116677007Y-116109504D01*
X116653803Y-116115316D01*
X116630142Y-116118826D01*
X116606250Y-116120000D01*
X116118750Y-116120000D01*
X116094858Y-116118826D01*
X116071197Y-116115316D01*
X116047993Y-116109504D01*
X116025471Y-116101446D01*
X116003847Y-116091218D01*
X115983330Y-116078921D01*
X115964117Y-116064671D01*
X115946393Y-116048607D01*
X115930329Y-116030883D01*
X115916079Y-116011670D01*
X115903782Y-115991153D01*
X115893554Y-115969529D01*
X115885496Y-115947007D01*
X115879684Y-115923803D01*
X115876174Y-115900142D01*
X115875000Y-115876250D01*
X115875000Y-114963750D01*
X115876174Y-114939858D01*
X115879684Y-114916197D01*
X115885496Y-114892993D01*
X115893554Y-114870471D01*
X115903782Y-114848847D01*
X115916079Y-114828330D01*
X115930329Y-114809117D01*
X115946393Y-114791393D01*
X115964117Y-114775329D01*
X115983330Y-114761079D01*
X116003847Y-114748782D01*
X116025471Y-114738554D01*
X116047993Y-114730496D01*
X116071197Y-114724684D01*
X116094858Y-114721174D01*
X116118750Y-114720000D01*
X116606250Y-114720000D01*
X116630142Y-114721174D01*
X116630142Y-114721174D01*
G37*
D13*
X116362500Y-115420000D03*
G04 #@! TD*
D12*
G04 #@! TO.C,C15*
G36*
X116630142Y-119801174D02*
X116653803Y-119804684D01*
X116677007Y-119810496D01*
X116699529Y-119818554D01*
X116721153Y-119828782D01*
X116741670Y-119841079D01*
X116760883Y-119855329D01*
X116778607Y-119871393D01*
X116794671Y-119889117D01*
X116808921Y-119908330D01*
X116821218Y-119928847D01*
X116831446Y-119950471D01*
X116839504Y-119972993D01*
X116845316Y-119996197D01*
X116848826Y-120019858D01*
X116850000Y-120043750D01*
X116850000Y-120956250D01*
X116848826Y-120980142D01*
X116845316Y-121003803D01*
X116839504Y-121027007D01*
X116831446Y-121049529D01*
X116821218Y-121071153D01*
X116808921Y-121091670D01*
X116794671Y-121110883D01*
X116778607Y-121128607D01*
X116760883Y-121144671D01*
X116741670Y-121158921D01*
X116721153Y-121171218D01*
X116699529Y-121181446D01*
X116677007Y-121189504D01*
X116653803Y-121195316D01*
X116630142Y-121198826D01*
X116606250Y-121200000D01*
X116118750Y-121200000D01*
X116094858Y-121198826D01*
X116071197Y-121195316D01*
X116047993Y-121189504D01*
X116025471Y-121181446D01*
X116003847Y-121171218D01*
X115983330Y-121158921D01*
X115964117Y-121144671D01*
X115946393Y-121128607D01*
X115930329Y-121110883D01*
X115916079Y-121091670D01*
X115903782Y-121071153D01*
X115893554Y-121049529D01*
X115885496Y-121027007D01*
X115879684Y-121003803D01*
X115876174Y-120980142D01*
X115875000Y-120956250D01*
X115875000Y-120043750D01*
X115876174Y-120019858D01*
X115879684Y-119996197D01*
X115885496Y-119972993D01*
X115893554Y-119950471D01*
X115903782Y-119928847D01*
X115916079Y-119908330D01*
X115930329Y-119889117D01*
X115946393Y-119871393D01*
X115964117Y-119855329D01*
X115983330Y-119841079D01*
X116003847Y-119828782D01*
X116025471Y-119818554D01*
X116047993Y-119810496D01*
X116071197Y-119804684D01*
X116094858Y-119801174D01*
X116118750Y-119800000D01*
X116606250Y-119800000D01*
X116630142Y-119801174D01*
X116630142Y-119801174D01*
G37*
D13*
X116362500Y-120500000D03*
D12*
G36*
X118505142Y-119801174D02*
X118528803Y-119804684D01*
X118552007Y-119810496D01*
X118574529Y-119818554D01*
X118596153Y-119828782D01*
X118616670Y-119841079D01*
X118635883Y-119855329D01*
X118653607Y-119871393D01*
X118669671Y-119889117D01*
X118683921Y-119908330D01*
X118696218Y-119928847D01*
X118706446Y-119950471D01*
X118714504Y-119972993D01*
X118720316Y-119996197D01*
X118723826Y-120019858D01*
X118725000Y-120043750D01*
X118725000Y-120956250D01*
X118723826Y-120980142D01*
X118720316Y-121003803D01*
X118714504Y-121027007D01*
X118706446Y-121049529D01*
X118696218Y-121071153D01*
X118683921Y-121091670D01*
X118669671Y-121110883D01*
X118653607Y-121128607D01*
X118635883Y-121144671D01*
X118616670Y-121158921D01*
X118596153Y-121171218D01*
X118574529Y-121181446D01*
X118552007Y-121189504D01*
X118528803Y-121195316D01*
X118505142Y-121198826D01*
X118481250Y-121200000D01*
X117993750Y-121200000D01*
X117969858Y-121198826D01*
X117946197Y-121195316D01*
X117922993Y-121189504D01*
X117900471Y-121181446D01*
X117878847Y-121171218D01*
X117858330Y-121158921D01*
X117839117Y-121144671D01*
X117821393Y-121128607D01*
X117805329Y-121110883D01*
X117791079Y-121091670D01*
X117778782Y-121071153D01*
X117768554Y-121049529D01*
X117760496Y-121027007D01*
X117754684Y-121003803D01*
X117751174Y-120980142D01*
X117750000Y-120956250D01*
X117750000Y-120043750D01*
X117751174Y-120019858D01*
X117754684Y-119996197D01*
X117760496Y-119972993D01*
X117768554Y-119950471D01*
X117778782Y-119928847D01*
X117791079Y-119908330D01*
X117805329Y-119889117D01*
X117821393Y-119871393D01*
X117839117Y-119855329D01*
X117858330Y-119841079D01*
X117878847Y-119828782D01*
X117900471Y-119818554D01*
X117922993Y-119810496D01*
X117946197Y-119804684D01*
X117969858Y-119801174D01*
X117993750Y-119800000D01*
X118481250Y-119800000D01*
X118505142Y-119801174D01*
X118505142Y-119801174D01*
G37*
D13*
X118237500Y-120500000D03*
G04 #@! TD*
D12*
G04 #@! TO.C,C14*
G36*
X112065142Y-132381174D02*
X112088803Y-132384684D01*
X112112007Y-132390496D01*
X112134529Y-132398554D01*
X112156153Y-132408782D01*
X112176670Y-132421079D01*
X112195883Y-132435329D01*
X112213607Y-132451393D01*
X112229671Y-132469117D01*
X112243921Y-132488330D01*
X112256218Y-132508847D01*
X112266446Y-132530471D01*
X112274504Y-132552993D01*
X112280316Y-132576197D01*
X112283826Y-132599858D01*
X112285000Y-132623750D01*
X112285000Y-133111250D01*
X112283826Y-133135142D01*
X112280316Y-133158803D01*
X112274504Y-133182007D01*
X112266446Y-133204529D01*
X112256218Y-133226153D01*
X112243921Y-133246670D01*
X112229671Y-133265883D01*
X112213607Y-133283607D01*
X112195883Y-133299671D01*
X112176670Y-133313921D01*
X112156153Y-133326218D01*
X112134529Y-133336446D01*
X112112007Y-133344504D01*
X112088803Y-133350316D01*
X112065142Y-133353826D01*
X112041250Y-133355000D01*
X111128750Y-133355000D01*
X111104858Y-133353826D01*
X111081197Y-133350316D01*
X111057993Y-133344504D01*
X111035471Y-133336446D01*
X111013847Y-133326218D01*
X110993330Y-133313921D01*
X110974117Y-133299671D01*
X110956393Y-133283607D01*
X110940329Y-133265883D01*
X110926079Y-133246670D01*
X110913782Y-133226153D01*
X110903554Y-133204529D01*
X110895496Y-133182007D01*
X110889684Y-133158803D01*
X110886174Y-133135142D01*
X110885000Y-133111250D01*
X110885000Y-132623750D01*
X110886174Y-132599858D01*
X110889684Y-132576197D01*
X110895496Y-132552993D01*
X110903554Y-132530471D01*
X110913782Y-132508847D01*
X110926079Y-132488330D01*
X110940329Y-132469117D01*
X110956393Y-132451393D01*
X110974117Y-132435329D01*
X110993330Y-132421079D01*
X111013847Y-132408782D01*
X111035471Y-132398554D01*
X111057993Y-132390496D01*
X111081197Y-132384684D01*
X111104858Y-132381174D01*
X111128750Y-132380000D01*
X112041250Y-132380000D01*
X112065142Y-132381174D01*
X112065142Y-132381174D01*
G37*
D13*
X111585000Y-132867500D03*
D12*
G36*
X112065142Y-130506174D02*
X112088803Y-130509684D01*
X112112007Y-130515496D01*
X112134529Y-130523554D01*
X112156153Y-130533782D01*
X112176670Y-130546079D01*
X112195883Y-130560329D01*
X112213607Y-130576393D01*
X112229671Y-130594117D01*
X112243921Y-130613330D01*
X112256218Y-130633847D01*
X112266446Y-130655471D01*
X112274504Y-130677993D01*
X112280316Y-130701197D01*
X112283826Y-130724858D01*
X112285000Y-130748750D01*
X112285000Y-131236250D01*
X112283826Y-131260142D01*
X112280316Y-131283803D01*
X112274504Y-131307007D01*
X112266446Y-131329529D01*
X112256218Y-131351153D01*
X112243921Y-131371670D01*
X112229671Y-131390883D01*
X112213607Y-131408607D01*
X112195883Y-131424671D01*
X112176670Y-131438921D01*
X112156153Y-131451218D01*
X112134529Y-131461446D01*
X112112007Y-131469504D01*
X112088803Y-131475316D01*
X112065142Y-131478826D01*
X112041250Y-131480000D01*
X111128750Y-131480000D01*
X111104858Y-131478826D01*
X111081197Y-131475316D01*
X111057993Y-131469504D01*
X111035471Y-131461446D01*
X111013847Y-131451218D01*
X110993330Y-131438921D01*
X110974117Y-131424671D01*
X110956393Y-131408607D01*
X110940329Y-131390883D01*
X110926079Y-131371670D01*
X110913782Y-131351153D01*
X110903554Y-131329529D01*
X110895496Y-131307007D01*
X110889684Y-131283803D01*
X110886174Y-131260142D01*
X110885000Y-131236250D01*
X110885000Y-130748750D01*
X110886174Y-130724858D01*
X110889684Y-130701197D01*
X110895496Y-130677993D01*
X110903554Y-130655471D01*
X110913782Y-130633847D01*
X110926079Y-130613330D01*
X110940329Y-130594117D01*
X110956393Y-130576393D01*
X110974117Y-130560329D01*
X110993330Y-130546079D01*
X111013847Y-130533782D01*
X111035471Y-130523554D01*
X111057993Y-130515496D01*
X111081197Y-130509684D01*
X111104858Y-130506174D01*
X111128750Y-130505000D01*
X112041250Y-130505000D01*
X112065142Y-130506174D01*
X112065142Y-130506174D01*
G37*
D13*
X111585000Y-130992500D03*
G04 #@! TD*
D12*
G04 #@! TO.C,C25*
G36*
X133442142Y-106997174D02*
X133465803Y-107000684D01*
X133489007Y-107006496D01*
X133511529Y-107014554D01*
X133533153Y-107024782D01*
X133553670Y-107037079D01*
X133572883Y-107051329D01*
X133590607Y-107067393D01*
X133606671Y-107085117D01*
X133620921Y-107104330D01*
X133633218Y-107124847D01*
X133643446Y-107146471D01*
X133651504Y-107168993D01*
X133657316Y-107192197D01*
X133660826Y-107215858D01*
X133662000Y-107239750D01*
X133662000Y-108152250D01*
X133660826Y-108176142D01*
X133657316Y-108199803D01*
X133651504Y-108223007D01*
X133643446Y-108245529D01*
X133633218Y-108267153D01*
X133620921Y-108287670D01*
X133606671Y-108306883D01*
X133590607Y-108324607D01*
X133572883Y-108340671D01*
X133553670Y-108354921D01*
X133533153Y-108367218D01*
X133511529Y-108377446D01*
X133489007Y-108385504D01*
X133465803Y-108391316D01*
X133442142Y-108394826D01*
X133418250Y-108396000D01*
X132930750Y-108396000D01*
X132906858Y-108394826D01*
X132883197Y-108391316D01*
X132859993Y-108385504D01*
X132837471Y-108377446D01*
X132815847Y-108367218D01*
X132795330Y-108354921D01*
X132776117Y-108340671D01*
X132758393Y-108324607D01*
X132742329Y-108306883D01*
X132728079Y-108287670D01*
X132715782Y-108267153D01*
X132705554Y-108245529D01*
X132697496Y-108223007D01*
X132691684Y-108199803D01*
X132688174Y-108176142D01*
X132687000Y-108152250D01*
X132687000Y-107239750D01*
X132688174Y-107215858D01*
X132691684Y-107192197D01*
X132697496Y-107168993D01*
X132705554Y-107146471D01*
X132715782Y-107124847D01*
X132728079Y-107104330D01*
X132742329Y-107085117D01*
X132758393Y-107067393D01*
X132776117Y-107051329D01*
X132795330Y-107037079D01*
X132815847Y-107024782D01*
X132837471Y-107014554D01*
X132859993Y-107006496D01*
X132883197Y-107000684D01*
X132906858Y-106997174D01*
X132930750Y-106996000D01*
X133418250Y-106996000D01*
X133442142Y-106997174D01*
X133442142Y-106997174D01*
G37*
D13*
X133174500Y-107696000D03*
D12*
G36*
X135317142Y-106997174D02*
X135340803Y-107000684D01*
X135364007Y-107006496D01*
X135386529Y-107014554D01*
X135408153Y-107024782D01*
X135428670Y-107037079D01*
X135447883Y-107051329D01*
X135465607Y-107067393D01*
X135481671Y-107085117D01*
X135495921Y-107104330D01*
X135508218Y-107124847D01*
X135518446Y-107146471D01*
X135526504Y-107168993D01*
X135532316Y-107192197D01*
X135535826Y-107215858D01*
X135537000Y-107239750D01*
X135537000Y-108152250D01*
X135535826Y-108176142D01*
X135532316Y-108199803D01*
X135526504Y-108223007D01*
X135518446Y-108245529D01*
X135508218Y-108267153D01*
X135495921Y-108287670D01*
X135481671Y-108306883D01*
X135465607Y-108324607D01*
X135447883Y-108340671D01*
X135428670Y-108354921D01*
X135408153Y-108367218D01*
X135386529Y-108377446D01*
X135364007Y-108385504D01*
X135340803Y-108391316D01*
X135317142Y-108394826D01*
X135293250Y-108396000D01*
X134805750Y-108396000D01*
X134781858Y-108394826D01*
X134758197Y-108391316D01*
X134734993Y-108385504D01*
X134712471Y-108377446D01*
X134690847Y-108367218D01*
X134670330Y-108354921D01*
X134651117Y-108340671D01*
X134633393Y-108324607D01*
X134617329Y-108306883D01*
X134603079Y-108287670D01*
X134590782Y-108267153D01*
X134580554Y-108245529D01*
X134572496Y-108223007D01*
X134566684Y-108199803D01*
X134563174Y-108176142D01*
X134562000Y-108152250D01*
X134562000Y-107239750D01*
X134563174Y-107215858D01*
X134566684Y-107192197D01*
X134572496Y-107168993D01*
X134580554Y-107146471D01*
X134590782Y-107124847D01*
X134603079Y-107104330D01*
X134617329Y-107085117D01*
X134633393Y-107067393D01*
X134651117Y-107051329D01*
X134670330Y-107037079D01*
X134690847Y-107024782D01*
X134712471Y-107014554D01*
X134734993Y-107006496D01*
X134758197Y-107000684D01*
X134781858Y-106997174D01*
X134805750Y-106996000D01*
X135293250Y-106996000D01*
X135317142Y-106997174D01*
X135317142Y-106997174D01*
G37*
D13*
X135049500Y-107696000D03*
G04 #@! TD*
D17*
G04 #@! TO.C,J2*
X108250000Y-149605000D03*
X109200000Y-149605000D03*
X116900000Y-149605000D03*
X115800000Y-149605000D03*
X114700000Y-149605000D03*
X113600000Y-149605000D03*
X112500000Y-149605000D03*
X111400000Y-149605000D03*
X110300000Y-149605000D03*
D18*
X118450000Y-149605000D03*
X107300000Y-153905000D03*
D19*
X107300000Y-160105000D03*
D20*
X107300000Y-164255000D03*
D21*
X120800000Y-164705000D03*
G04 #@! TD*
D12*
G04 #@! TO.C,D2*
G36*
X104064142Y-93295174D02*
X104087803Y-93298684D01*
X104111007Y-93304496D01*
X104133529Y-93312554D01*
X104155153Y-93322782D01*
X104175670Y-93335079D01*
X104194883Y-93349329D01*
X104212607Y-93365393D01*
X104228671Y-93383117D01*
X104242921Y-93402330D01*
X104255218Y-93422847D01*
X104265446Y-93444471D01*
X104273504Y-93466993D01*
X104279316Y-93490197D01*
X104282826Y-93513858D01*
X104284000Y-93537750D01*
X104284000Y-94025250D01*
X104282826Y-94049142D01*
X104279316Y-94072803D01*
X104273504Y-94096007D01*
X104265446Y-94118529D01*
X104255218Y-94140153D01*
X104242921Y-94160670D01*
X104228671Y-94179883D01*
X104212607Y-94197607D01*
X104194883Y-94213671D01*
X104175670Y-94227921D01*
X104155153Y-94240218D01*
X104133529Y-94250446D01*
X104111007Y-94258504D01*
X104087803Y-94264316D01*
X104064142Y-94267826D01*
X104040250Y-94269000D01*
X103127750Y-94269000D01*
X103103858Y-94267826D01*
X103080197Y-94264316D01*
X103056993Y-94258504D01*
X103034471Y-94250446D01*
X103012847Y-94240218D01*
X102992330Y-94227921D01*
X102973117Y-94213671D01*
X102955393Y-94197607D01*
X102939329Y-94179883D01*
X102925079Y-94160670D01*
X102912782Y-94140153D01*
X102902554Y-94118529D01*
X102894496Y-94096007D01*
X102888684Y-94072803D01*
X102885174Y-94049142D01*
X102884000Y-94025250D01*
X102884000Y-93537750D01*
X102885174Y-93513858D01*
X102888684Y-93490197D01*
X102894496Y-93466993D01*
X102902554Y-93444471D01*
X102912782Y-93422847D01*
X102925079Y-93402330D01*
X102939329Y-93383117D01*
X102955393Y-93365393D01*
X102973117Y-93349329D01*
X102992330Y-93335079D01*
X103012847Y-93322782D01*
X103034471Y-93312554D01*
X103056993Y-93304496D01*
X103080197Y-93298684D01*
X103103858Y-93295174D01*
X103127750Y-93294000D01*
X104040250Y-93294000D01*
X104064142Y-93295174D01*
X104064142Y-93295174D01*
G37*
D13*
X103584000Y-93781500D03*
D12*
G36*
X104064142Y-95170174D02*
X104087803Y-95173684D01*
X104111007Y-95179496D01*
X104133529Y-95187554D01*
X104155153Y-95197782D01*
X104175670Y-95210079D01*
X104194883Y-95224329D01*
X104212607Y-95240393D01*
X104228671Y-95258117D01*
X104242921Y-95277330D01*
X104255218Y-95297847D01*
X104265446Y-95319471D01*
X104273504Y-95341993D01*
X104279316Y-95365197D01*
X104282826Y-95388858D01*
X104284000Y-95412750D01*
X104284000Y-95900250D01*
X104282826Y-95924142D01*
X104279316Y-95947803D01*
X104273504Y-95971007D01*
X104265446Y-95993529D01*
X104255218Y-96015153D01*
X104242921Y-96035670D01*
X104228671Y-96054883D01*
X104212607Y-96072607D01*
X104194883Y-96088671D01*
X104175670Y-96102921D01*
X104155153Y-96115218D01*
X104133529Y-96125446D01*
X104111007Y-96133504D01*
X104087803Y-96139316D01*
X104064142Y-96142826D01*
X104040250Y-96144000D01*
X103127750Y-96144000D01*
X103103858Y-96142826D01*
X103080197Y-96139316D01*
X103056993Y-96133504D01*
X103034471Y-96125446D01*
X103012847Y-96115218D01*
X102992330Y-96102921D01*
X102973117Y-96088671D01*
X102955393Y-96072607D01*
X102939329Y-96054883D01*
X102925079Y-96035670D01*
X102912782Y-96015153D01*
X102902554Y-95993529D01*
X102894496Y-95971007D01*
X102888684Y-95947803D01*
X102885174Y-95924142D01*
X102884000Y-95900250D01*
X102884000Y-95412750D01*
X102885174Y-95388858D01*
X102888684Y-95365197D01*
X102894496Y-95341993D01*
X102902554Y-95319471D01*
X102912782Y-95297847D01*
X102925079Y-95277330D01*
X102939329Y-95258117D01*
X102955393Y-95240393D01*
X102973117Y-95224329D01*
X102992330Y-95210079D01*
X103012847Y-95197782D01*
X103034471Y-95187554D01*
X103056993Y-95179496D01*
X103080197Y-95173684D01*
X103103858Y-95170174D01*
X103127750Y-95169000D01*
X104040250Y-95169000D01*
X104064142Y-95170174D01*
X104064142Y-95170174D01*
G37*
D13*
X103584000Y-95656500D03*
G04 #@! TD*
D12*
G04 #@! TO.C,D1*
G36*
X107239142Y-95170174D02*
X107262803Y-95173684D01*
X107286007Y-95179496D01*
X107308529Y-95187554D01*
X107330153Y-95197782D01*
X107350670Y-95210079D01*
X107369883Y-95224329D01*
X107387607Y-95240393D01*
X107403671Y-95258117D01*
X107417921Y-95277330D01*
X107430218Y-95297847D01*
X107440446Y-95319471D01*
X107448504Y-95341993D01*
X107454316Y-95365197D01*
X107457826Y-95388858D01*
X107459000Y-95412750D01*
X107459000Y-95900250D01*
X107457826Y-95924142D01*
X107454316Y-95947803D01*
X107448504Y-95971007D01*
X107440446Y-95993529D01*
X107430218Y-96015153D01*
X107417921Y-96035670D01*
X107403671Y-96054883D01*
X107387607Y-96072607D01*
X107369883Y-96088671D01*
X107350670Y-96102921D01*
X107330153Y-96115218D01*
X107308529Y-96125446D01*
X107286007Y-96133504D01*
X107262803Y-96139316D01*
X107239142Y-96142826D01*
X107215250Y-96144000D01*
X106302750Y-96144000D01*
X106278858Y-96142826D01*
X106255197Y-96139316D01*
X106231993Y-96133504D01*
X106209471Y-96125446D01*
X106187847Y-96115218D01*
X106167330Y-96102921D01*
X106148117Y-96088671D01*
X106130393Y-96072607D01*
X106114329Y-96054883D01*
X106100079Y-96035670D01*
X106087782Y-96015153D01*
X106077554Y-95993529D01*
X106069496Y-95971007D01*
X106063684Y-95947803D01*
X106060174Y-95924142D01*
X106059000Y-95900250D01*
X106059000Y-95412750D01*
X106060174Y-95388858D01*
X106063684Y-95365197D01*
X106069496Y-95341993D01*
X106077554Y-95319471D01*
X106087782Y-95297847D01*
X106100079Y-95277330D01*
X106114329Y-95258117D01*
X106130393Y-95240393D01*
X106148117Y-95224329D01*
X106167330Y-95210079D01*
X106187847Y-95197782D01*
X106209471Y-95187554D01*
X106231993Y-95179496D01*
X106255197Y-95173684D01*
X106278858Y-95170174D01*
X106302750Y-95169000D01*
X107215250Y-95169000D01*
X107239142Y-95170174D01*
X107239142Y-95170174D01*
G37*
D13*
X106759000Y-95656500D03*
D12*
G36*
X107239142Y-93295174D02*
X107262803Y-93298684D01*
X107286007Y-93304496D01*
X107308529Y-93312554D01*
X107330153Y-93322782D01*
X107350670Y-93335079D01*
X107369883Y-93349329D01*
X107387607Y-93365393D01*
X107403671Y-93383117D01*
X107417921Y-93402330D01*
X107430218Y-93422847D01*
X107440446Y-93444471D01*
X107448504Y-93466993D01*
X107454316Y-93490197D01*
X107457826Y-93513858D01*
X107459000Y-93537750D01*
X107459000Y-94025250D01*
X107457826Y-94049142D01*
X107454316Y-94072803D01*
X107448504Y-94096007D01*
X107440446Y-94118529D01*
X107430218Y-94140153D01*
X107417921Y-94160670D01*
X107403671Y-94179883D01*
X107387607Y-94197607D01*
X107369883Y-94213671D01*
X107350670Y-94227921D01*
X107330153Y-94240218D01*
X107308529Y-94250446D01*
X107286007Y-94258504D01*
X107262803Y-94264316D01*
X107239142Y-94267826D01*
X107215250Y-94269000D01*
X106302750Y-94269000D01*
X106278858Y-94267826D01*
X106255197Y-94264316D01*
X106231993Y-94258504D01*
X106209471Y-94250446D01*
X106187847Y-94240218D01*
X106167330Y-94227921D01*
X106148117Y-94213671D01*
X106130393Y-94197607D01*
X106114329Y-94179883D01*
X106100079Y-94160670D01*
X106087782Y-94140153D01*
X106077554Y-94118529D01*
X106069496Y-94096007D01*
X106063684Y-94072803D01*
X106060174Y-94049142D01*
X106059000Y-94025250D01*
X106059000Y-93537750D01*
X106060174Y-93513858D01*
X106063684Y-93490197D01*
X106069496Y-93466993D01*
X106077554Y-93444471D01*
X106087782Y-93422847D01*
X106100079Y-93402330D01*
X106114329Y-93383117D01*
X106130393Y-93365393D01*
X106148117Y-93349329D01*
X106167330Y-93335079D01*
X106187847Y-93322782D01*
X106209471Y-93312554D01*
X106231993Y-93304496D01*
X106255197Y-93298684D01*
X106278858Y-93295174D01*
X106302750Y-93294000D01*
X107215250Y-93294000D01*
X107239142Y-93295174D01*
X107239142Y-93295174D01*
G37*
D13*
X106759000Y-93781500D03*
G04 #@! TD*
D12*
G04 #@! TO.C,D3*
G36*
X100889142Y-93295174D02*
X100912803Y-93298684D01*
X100936007Y-93304496D01*
X100958529Y-93312554D01*
X100980153Y-93322782D01*
X101000670Y-93335079D01*
X101019883Y-93349329D01*
X101037607Y-93365393D01*
X101053671Y-93383117D01*
X101067921Y-93402330D01*
X101080218Y-93422847D01*
X101090446Y-93444471D01*
X101098504Y-93466993D01*
X101104316Y-93490197D01*
X101107826Y-93513858D01*
X101109000Y-93537750D01*
X101109000Y-94025250D01*
X101107826Y-94049142D01*
X101104316Y-94072803D01*
X101098504Y-94096007D01*
X101090446Y-94118529D01*
X101080218Y-94140153D01*
X101067921Y-94160670D01*
X101053671Y-94179883D01*
X101037607Y-94197607D01*
X101019883Y-94213671D01*
X101000670Y-94227921D01*
X100980153Y-94240218D01*
X100958529Y-94250446D01*
X100936007Y-94258504D01*
X100912803Y-94264316D01*
X100889142Y-94267826D01*
X100865250Y-94269000D01*
X99952750Y-94269000D01*
X99928858Y-94267826D01*
X99905197Y-94264316D01*
X99881993Y-94258504D01*
X99859471Y-94250446D01*
X99837847Y-94240218D01*
X99817330Y-94227921D01*
X99798117Y-94213671D01*
X99780393Y-94197607D01*
X99764329Y-94179883D01*
X99750079Y-94160670D01*
X99737782Y-94140153D01*
X99727554Y-94118529D01*
X99719496Y-94096007D01*
X99713684Y-94072803D01*
X99710174Y-94049142D01*
X99709000Y-94025250D01*
X99709000Y-93537750D01*
X99710174Y-93513858D01*
X99713684Y-93490197D01*
X99719496Y-93466993D01*
X99727554Y-93444471D01*
X99737782Y-93422847D01*
X99750079Y-93402330D01*
X99764329Y-93383117D01*
X99780393Y-93365393D01*
X99798117Y-93349329D01*
X99817330Y-93335079D01*
X99837847Y-93322782D01*
X99859471Y-93312554D01*
X99881993Y-93304496D01*
X99905197Y-93298684D01*
X99928858Y-93295174D01*
X99952750Y-93294000D01*
X100865250Y-93294000D01*
X100889142Y-93295174D01*
X100889142Y-93295174D01*
G37*
D13*
X100409000Y-93781500D03*
D12*
G36*
X100889142Y-95170174D02*
X100912803Y-95173684D01*
X100936007Y-95179496D01*
X100958529Y-95187554D01*
X100980153Y-95197782D01*
X101000670Y-95210079D01*
X101019883Y-95224329D01*
X101037607Y-95240393D01*
X101053671Y-95258117D01*
X101067921Y-95277330D01*
X101080218Y-95297847D01*
X101090446Y-95319471D01*
X101098504Y-95341993D01*
X101104316Y-95365197D01*
X101107826Y-95388858D01*
X101109000Y-95412750D01*
X101109000Y-95900250D01*
X101107826Y-95924142D01*
X101104316Y-95947803D01*
X101098504Y-95971007D01*
X101090446Y-95993529D01*
X101080218Y-96015153D01*
X101067921Y-96035670D01*
X101053671Y-96054883D01*
X101037607Y-96072607D01*
X101019883Y-96088671D01*
X101000670Y-96102921D01*
X100980153Y-96115218D01*
X100958529Y-96125446D01*
X100936007Y-96133504D01*
X100912803Y-96139316D01*
X100889142Y-96142826D01*
X100865250Y-96144000D01*
X99952750Y-96144000D01*
X99928858Y-96142826D01*
X99905197Y-96139316D01*
X99881993Y-96133504D01*
X99859471Y-96125446D01*
X99837847Y-96115218D01*
X99817330Y-96102921D01*
X99798117Y-96088671D01*
X99780393Y-96072607D01*
X99764329Y-96054883D01*
X99750079Y-96035670D01*
X99737782Y-96015153D01*
X99727554Y-95993529D01*
X99719496Y-95971007D01*
X99713684Y-95947803D01*
X99710174Y-95924142D01*
X99709000Y-95900250D01*
X99709000Y-95412750D01*
X99710174Y-95388858D01*
X99713684Y-95365197D01*
X99719496Y-95341993D01*
X99727554Y-95319471D01*
X99737782Y-95297847D01*
X99750079Y-95277330D01*
X99764329Y-95258117D01*
X99780393Y-95240393D01*
X99798117Y-95224329D01*
X99817330Y-95210079D01*
X99837847Y-95197782D01*
X99859471Y-95187554D01*
X99881993Y-95179496D01*
X99905197Y-95173684D01*
X99928858Y-95170174D01*
X99952750Y-95169000D01*
X100865250Y-95169000D01*
X100889142Y-95170174D01*
X100889142Y-95170174D01*
G37*
D13*
X100409000Y-95656500D03*
G04 #@! TD*
D12*
G04 #@! TO.C,U5*
G36*
X134560351Y-116399361D02*
X134567632Y-116400441D01*
X134574771Y-116402229D01*
X134581701Y-116404709D01*
X134588355Y-116407856D01*
X134594668Y-116411640D01*
X134600579Y-116416024D01*
X134606033Y-116420967D01*
X134610976Y-116426421D01*
X134615360Y-116432332D01*
X134619144Y-116438645D01*
X134622291Y-116445299D01*
X134624771Y-116452229D01*
X134626559Y-116459368D01*
X134627639Y-116466649D01*
X134628000Y-116474000D01*
X134628000Y-116974000D01*
X134627639Y-116981351D01*
X134626559Y-116988632D01*
X134624771Y-116995771D01*
X134622291Y-117002701D01*
X134619144Y-117009355D01*
X134615360Y-117015668D01*
X134610976Y-117021579D01*
X134606033Y-117027033D01*
X134600579Y-117031976D01*
X134594668Y-117036360D01*
X134588355Y-117040144D01*
X134581701Y-117043291D01*
X134574771Y-117045771D01*
X134567632Y-117047559D01*
X134560351Y-117048639D01*
X134553000Y-117049000D01*
X134403000Y-117049000D01*
X134395649Y-117048639D01*
X134388368Y-117047559D01*
X134381229Y-117045771D01*
X134374299Y-117043291D01*
X134367645Y-117040144D01*
X134361332Y-117036360D01*
X134355421Y-117031976D01*
X134349967Y-117027033D01*
X134345024Y-117021579D01*
X134340640Y-117015668D01*
X134336856Y-117009355D01*
X134333709Y-117002701D01*
X134331229Y-116995771D01*
X134329441Y-116988632D01*
X134328361Y-116981351D01*
X134328000Y-116974000D01*
X134328000Y-116474000D01*
X134328361Y-116466649D01*
X134329441Y-116459368D01*
X134331229Y-116452229D01*
X134333709Y-116445299D01*
X134336856Y-116438645D01*
X134340640Y-116432332D01*
X134345024Y-116426421D01*
X134349967Y-116420967D01*
X134355421Y-116416024D01*
X134361332Y-116411640D01*
X134367645Y-116407856D01*
X134374299Y-116404709D01*
X134381229Y-116402229D01*
X134388368Y-116400441D01*
X134395649Y-116399361D01*
X134403000Y-116399000D01*
X134553000Y-116399000D01*
X134560351Y-116399361D01*
X134560351Y-116399361D01*
G37*
D22*
X134478000Y-116724000D03*
D12*
G36*
X135210351Y-116399361D02*
X135217632Y-116400441D01*
X135224771Y-116402229D01*
X135231701Y-116404709D01*
X135238355Y-116407856D01*
X135244668Y-116411640D01*
X135250579Y-116416024D01*
X135256033Y-116420967D01*
X135260976Y-116426421D01*
X135265360Y-116432332D01*
X135269144Y-116438645D01*
X135272291Y-116445299D01*
X135274771Y-116452229D01*
X135276559Y-116459368D01*
X135277639Y-116466649D01*
X135278000Y-116474000D01*
X135278000Y-116974000D01*
X135277639Y-116981351D01*
X135276559Y-116988632D01*
X135274771Y-116995771D01*
X135272291Y-117002701D01*
X135269144Y-117009355D01*
X135265360Y-117015668D01*
X135260976Y-117021579D01*
X135256033Y-117027033D01*
X135250579Y-117031976D01*
X135244668Y-117036360D01*
X135238355Y-117040144D01*
X135231701Y-117043291D01*
X135224771Y-117045771D01*
X135217632Y-117047559D01*
X135210351Y-117048639D01*
X135203000Y-117049000D01*
X135053000Y-117049000D01*
X135045649Y-117048639D01*
X135038368Y-117047559D01*
X135031229Y-117045771D01*
X135024299Y-117043291D01*
X135017645Y-117040144D01*
X135011332Y-117036360D01*
X135005421Y-117031976D01*
X134999967Y-117027033D01*
X134995024Y-117021579D01*
X134990640Y-117015668D01*
X134986856Y-117009355D01*
X134983709Y-117002701D01*
X134981229Y-116995771D01*
X134979441Y-116988632D01*
X134978361Y-116981351D01*
X134978000Y-116974000D01*
X134978000Y-116474000D01*
X134978361Y-116466649D01*
X134979441Y-116459368D01*
X134981229Y-116452229D01*
X134983709Y-116445299D01*
X134986856Y-116438645D01*
X134990640Y-116432332D01*
X134995024Y-116426421D01*
X134999967Y-116420967D01*
X135005421Y-116416024D01*
X135011332Y-116411640D01*
X135017645Y-116407856D01*
X135024299Y-116404709D01*
X135031229Y-116402229D01*
X135038368Y-116400441D01*
X135045649Y-116399361D01*
X135053000Y-116399000D01*
X135203000Y-116399000D01*
X135210351Y-116399361D01*
X135210351Y-116399361D01*
G37*
D22*
X135128000Y-116724000D03*
D12*
G36*
X135860351Y-116399361D02*
X135867632Y-116400441D01*
X135874771Y-116402229D01*
X135881701Y-116404709D01*
X135888355Y-116407856D01*
X135894668Y-116411640D01*
X135900579Y-116416024D01*
X135906033Y-116420967D01*
X135910976Y-116426421D01*
X135915360Y-116432332D01*
X135919144Y-116438645D01*
X135922291Y-116445299D01*
X135924771Y-116452229D01*
X135926559Y-116459368D01*
X135927639Y-116466649D01*
X135928000Y-116474000D01*
X135928000Y-116974000D01*
X135927639Y-116981351D01*
X135926559Y-116988632D01*
X135924771Y-116995771D01*
X135922291Y-117002701D01*
X135919144Y-117009355D01*
X135915360Y-117015668D01*
X135910976Y-117021579D01*
X135906033Y-117027033D01*
X135900579Y-117031976D01*
X135894668Y-117036360D01*
X135888355Y-117040144D01*
X135881701Y-117043291D01*
X135874771Y-117045771D01*
X135867632Y-117047559D01*
X135860351Y-117048639D01*
X135853000Y-117049000D01*
X135703000Y-117049000D01*
X135695649Y-117048639D01*
X135688368Y-117047559D01*
X135681229Y-117045771D01*
X135674299Y-117043291D01*
X135667645Y-117040144D01*
X135661332Y-117036360D01*
X135655421Y-117031976D01*
X135649967Y-117027033D01*
X135645024Y-117021579D01*
X135640640Y-117015668D01*
X135636856Y-117009355D01*
X135633709Y-117002701D01*
X135631229Y-116995771D01*
X135629441Y-116988632D01*
X135628361Y-116981351D01*
X135628000Y-116974000D01*
X135628000Y-116474000D01*
X135628361Y-116466649D01*
X135629441Y-116459368D01*
X135631229Y-116452229D01*
X135633709Y-116445299D01*
X135636856Y-116438645D01*
X135640640Y-116432332D01*
X135645024Y-116426421D01*
X135649967Y-116420967D01*
X135655421Y-116416024D01*
X135661332Y-116411640D01*
X135667645Y-116407856D01*
X135674299Y-116404709D01*
X135681229Y-116402229D01*
X135688368Y-116400441D01*
X135695649Y-116399361D01*
X135703000Y-116399000D01*
X135853000Y-116399000D01*
X135860351Y-116399361D01*
X135860351Y-116399361D01*
G37*
D22*
X135778000Y-116724000D03*
D12*
G36*
X135860351Y-114599361D02*
X135867632Y-114600441D01*
X135874771Y-114602229D01*
X135881701Y-114604709D01*
X135888355Y-114607856D01*
X135894668Y-114611640D01*
X135900579Y-114616024D01*
X135906033Y-114620967D01*
X135910976Y-114626421D01*
X135915360Y-114632332D01*
X135919144Y-114638645D01*
X135922291Y-114645299D01*
X135924771Y-114652229D01*
X135926559Y-114659368D01*
X135927639Y-114666649D01*
X135928000Y-114674000D01*
X135928000Y-115174000D01*
X135927639Y-115181351D01*
X135926559Y-115188632D01*
X135924771Y-115195771D01*
X135922291Y-115202701D01*
X135919144Y-115209355D01*
X135915360Y-115215668D01*
X135910976Y-115221579D01*
X135906033Y-115227033D01*
X135900579Y-115231976D01*
X135894668Y-115236360D01*
X135888355Y-115240144D01*
X135881701Y-115243291D01*
X135874771Y-115245771D01*
X135867632Y-115247559D01*
X135860351Y-115248639D01*
X135853000Y-115249000D01*
X135703000Y-115249000D01*
X135695649Y-115248639D01*
X135688368Y-115247559D01*
X135681229Y-115245771D01*
X135674299Y-115243291D01*
X135667645Y-115240144D01*
X135661332Y-115236360D01*
X135655421Y-115231976D01*
X135649967Y-115227033D01*
X135645024Y-115221579D01*
X135640640Y-115215668D01*
X135636856Y-115209355D01*
X135633709Y-115202701D01*
X135631229Y-115195771D01*
X135629441Y-115188632D01*
X135628361Y-115181351D01*
X135628000Y-115174000D01*
X135628000Y-114674000D01*
X135628361Y-114666649D01*
X135629441Y-114659368D01*
X135631229Y-114652229D01*
X135633709Y-114645299D01*
X135636856Y-114638645D01*
X135640640Y-114632332D01*
X135645024Y-114626421D01*
X135649967Y-114620967D01*
X135655421Y-114616024D01*
X135661332Y-114611640D01*
X135667645Y-114607856D01*
X135674299Y-114604709D01*
X135681229Y-114602229D01*
X135688368Y-114600441D01*
X135695649Y-114599361D01*
X135703000Y-114599000D01*
X135853000Y-114599000D01*
X135860351Y-114599361D01*
X135860351Y-114599361D01*
G37*
D22*
X135778000Y-114924000D03*
D12*
G36*
X135210351Y-114599361D02*
X135217632Y-114600441D01*
X135224771Y-114602229D01*
X135231701Y-114604709D01*
X135238355Y-114607856D01*
X135244668Y-114611640D01*
X135250579Y-114616024D01*
X135256033Y-114620967D01*
X135260976Y-114626421D01*
X135265360Y-114632332D01*
X135269144Y-114638645D01*
X135272291Y-114645299D01*
X135274771Y-114652229D01*
X135276559Y-114659368D01*
X135277639Y-114666649D01*
X135278000Y-114674000D01*
X135278000Y-115174000D01*
X135277639Y-115181351D01*
X135276559Y-115188632D01*
X135274771Y-115195771D01*
X135272291Y-115202701D01*
X135269144Y-115209355D01*
X135265360Y-115215668D01*
X135260976Y-115221579D01*
X135256033Y-115227033D01*
X135250579Y-115231976D01*
X135244668Y-115236360D01*
X135238355Y-115240144D01*
X135231701Y-115243291D01*
X135224771Y-115245771D01*
X135217632Y-115247559D01*
X135210351Y-115248639D01*
X135203000Y-115249000D01*
X135053000Y-115249000D01*
X135045649Y-115248639D01*
X135038368Y-115247559D01*
X135031229Y-115245771D01*
X135024299Y-115243291D01*
X135017645Y-115240144D01*
X135011332Y-115236360D01*
X135005421Y-115231976D01*
X134999967Y-115227033D01*
X134995024Y-115221579D01*
X134990640Y-115215668D01*
X134986856Y-115209355D01*
X134983709Y-115202701D01*
X134981229Y-115195771D01*
X134979441Y-115188632D01*
X134978361Y-115181351D01*
X134978000Y-115174000D01*
X134978000Y-114674000D01*
X134978361Y-114666649D01*
X134979441Y-114659368D01*
X134981229Y-114652229D01*
X134983709Y-114645299D01*
X134986856Y-114638645D01*
X134990640Y-114632332D01*
X134995024Y-114626421D01*
X134999967Y-114620967D01*
X135005421Y-114616024D01*
X135011332Y-114611640D01*
X135017645Y-114607856D01*
X135024299Y-114604709D01*
X135031229Y-114602229D01*
X135038368Y-114600441D01*
X135045649Y-114599361D01*
X135053000Y-114599000D01*
X135203000Y-114599000D01*
X135210351Y-114599361D01*
X135210351Y-114599361D01*
G37*
D22*
X135128000Y-114924000D03*
D12*
G36*
X134560351Y-114599361D02*
X134567632Y-114600441D01*
X134574771Y-114602229D01*
X134581701Y-114604709D01*
X134588355Y-114607856D01*
X134594668Y-114611640D01*
X134600579Y-114616024D01*
X134606033Y-114620967D01*
X134610976Y-114626421D01*
X134615360Y-114632332D01*
X134619144Y-114638645D01*
X134622291Y-114645299D01*
X134624771Y-114652229D01*
X134626559Y-114659368D01*
X134627639Y-114666649D01*
X134628000Y-114674000D01*
X134628000Y-115174000D01*
X134627639Y-115181351D01*
X134626559Y-115188632D01*
X134624771Y-115195771D01*
X134622291Y-115202701D01*
X134619144Y-115209355D01*
X134615360Y-115215668D01*
X134610976Y-115221579D01*
X134606033Y-115227033D01*
X134600579Y-115231976D01*
X134594668Y-115236360D01*
X134588355Y-115240144D01*
X134581701Y-115243291D01*
X134574771Y-115245771D01*
X134567632Y-115247559D01*
X134560351Y-115248639D01*
X134553000Y-115249000D01*
X134403000Y-115249000D01*
X134395649Y-115248639D01*
X134388368Y-115247559D01*
X134381229Y-115245771D01*
X134374299Y-115243291D01*
X134367645Y-115240144D01*
X134361332Y-115236360D01*
X134355421Y-115231976D01*
X134349967Y-115227033D01*
X134345024Y-115221579D01*
X134340640Y-115215668D01*
X134336856Y-115209355D01*
X134333709Y-115202701D01*
X134331229Y-115195771D01*
X134329441Y-115188632D01*
X134328361Y-115181351D01*
X134328000Y-115174000D01*
X134328000Y-114674000D01*
X134328361Y-114666649D01*
X134329441Y-114659368D01*
X134331229Y-114652229D01*
X134333709Y-114645299D01*
X134336856Y-114638645D01*
X134340640Y-114632332D01*
X134345024Y-114626421D01*
X134349967Y-114620967D01*
X134355421Y-114616024D01*
X134361332Y-114611640D01*
X134367645Y-114607856D01*
X134374299Y-114604709D01*
X134381229Y-114602229D01*
X134388368Y-114600441D01*
X134395649Y-114599361D01*
X134403000Y-114599000D01*
X134553000Y-114599000D01*
X134560351Y-114599361D01*
X134560351Y-114599361D01*
G37*
D22*
X134478000Y-114924000D03*
G04 #@! TD*
D23*
G04 #@! TO.C,U1*
X84543000Y-99599000D03*
X84543000Y-100869000D03*
X84543000Y-102139000D03*
X84543000Y-103409000D03*
X84543000Y-104679000D03*
X84543000Y-105949000D03*
X84543000Y-107219000D03*
X89943000Y-107219000D03*
X89943000Y-105949000D03*
X89943000Y-104679000D03*
X89943000Y-103409000D03*
X89943000Y-102139000D03*
X89943000Y-100869000D03*
X89943000Y-99599000D03*
G04 #@! TD*
D24*
G04 #@! TO.C,U2*
X132330000Y-86550000D03*
D25*
X132330000Y-92850000D03*
X134630000Y-92850000D03*
X130030000Y-92850000D03*
G04 #@! TD*
D12*
G04 #@! TO.C,R3*
G36*
X69568142Y-121101174D02*
X69591803Y-121104684D01*
X69615007Y-121110496D01*
X69637529Y-121118554D01*
X69659153Y-121128782D01*
X69679670Y-121141079D01*
X69698883Y-121155329D01*
X69716607Y-121171393D01*
X69732671Y-121189117D01*
X69746921Y-121208330D01*
X69759218Y-121228847D01*
X69769446Y-121250471D01*
X69777504Y-121272993D01*
X69783316Y-121296197D01*
X69786826Y-121319858D01*
X69788000Y-121343750D01*
X69788000Y-121831250D01*
X69786826Y-121855142D01*
X69783316Y-121878803D01*
X69777504Y-121902007D01*
X69769446Y-121924529D01*
X69759218Y-121946153D01*
X69746921Y-121966670D01*
X69732671Y-121985883D01*
X69716607Y-122003607D01*
X69698883Y-122019671D01*
X69679670Y-122033921D01*
X69659153Y-122046218D01*
X69637529Y-122056446D01*
X69615007Y-122064504D01*
X69591803Y-122070316D01*
X69568142Y-122073826D01*
X69544250Y-122075000D01*
X68631750Y-122075000D01*
X68607858Y-122073826D01*
X68584197Y-122070316D01*
X68560993Y-122064504D01*
X68538471Y-122056446D01*
X68516847Y-122046218D01*
X68496330Y-122033921D01*
X68477117Y-122019671D01*
X68459393Y-122003607D01*
X68443329Y-121985883D01*
X68429079Y-121966670D01*
X68416782Y-121946153D01*
X68406554Y-121924529D01*
X68398496Y-121902007D01*
X68392684Y-121878803D01*
X68389174Y-121855142D01*
X68388000Y-121831250D01*
X68388000Y-121343750D01*
X68389174Y-121319858D01*
X68392684Y-121296197D01*
X68398496Y-121272993D01*
X68406554Y-121250471D01*
X68416782Y-121228847D01*
X68429079Y-121208330D01*
X68443329Y-121189117D01*
X68459393Y-121171393D01*
X68477117Y-121155329D01*
X68496330Y-121141079D01*
X68516847Y-121128782D01*
X68538471Y-121118554D01*
X68560993Y-121110496D01*
X68584197Y-121104684D01*
X68607858Y-121101174D01*
X68631750Y-121100000D01*
X69544250Y-121100000D01*
X69568142Y-121101174D01*
X69568142Y-121101174D01*
G37*
D13*
X69088000Y-121587500D03*
D12*
G36*
X69568142Y-119226174D02*
X69591803Y-119229684D01*
X69615007Y-119235496D01*
X69637529Y-119243554D01*
X69659153Y-119253782D01*
X69679670Y-119266079D01*
X69698883Y-119280329D01*
X69716607Y-119296393D01*
X69732671Y-119314117D01*
X69746921Y-119333330D01*
X69759218Y-119353847D01*
X69769446Y-119375471D01*
X69777504Y-119397993D01*
X69783316Y-119421197D01*
X69786826Y-119444858D01*
X69788000Y-119468750D01*
X69788000Y-119956250D01*
X69786826Y-119980142D01*
X69783316Y-120003803D01*
X69777504Y-120027007D01*
X69769446Y-120049529D01*
X69759218Y-120071153D01*
X69746921Y-120091670D01*
X69732671Y-120110883D01*
X69716607Y-120128607D01*
X69698883Y-120144671D01*
X69679670Y-120158921D01*
X69659153Y-120171218D01*
X69637529Y-120181446D01*
X69615007Y-120189504D01*
X69591803Y-120195316D01*
X69568142Y-120198826D01*
X69544250Y-120200000D01*
X68631750Y-120200000D01*
X68607858Y-120198826D01*
X68584197Y-120195316D01*
X68560993Y-120189504D01*
X68538471Y-120181446D01*
X68516847Y-120171218D01*
X68496330Y-120158921D01*
X68477117Y-120144671D01*
X68459393Y-120128607D01*
X68443329Y-120110883D01*
X68429079Y-120091670D01*
X68416782Y-120071153D01*
X68406554Y-120049529D01*
X68398496Y-120027007D01*
X68392684Y-120003803D01*
X68389174Y-119980142D01*
X68388000Y-119956250D01*
X68388000Y-119468750D01*
X68389174Y-119444858D01*
X68392684Y-119421197D01*
X68398496Y-119397993D01*
X68406554Y-119375471D01*
X68416782Y-119353847D01*
X68429079Y-119333330D01*
X68443329Y-119314117D01*
X68459393Y-119296393D01*
X68477117Y-119280329D01*
X68496330Y-119266079D01*
X68516847Y-119253782D01*
X68538471Y-119243554D01*
X68560993Y-119235496D01*
X68584197Y-119229684D01*
X68607858Y-119226174D01*
X68631750Y-119225000D01*
X69544250Y-119225000D01*
X69568142Y-119226174D01*
X69568142Y-119226174D01*
G37*
D13*
X69088000Y-119712500D03*
G04 #@! TD*
D12*
G04 #@! TO.C,R4*
G36*
X72833142Y-98361174D02*
X72856803Y-98364684D01*
X72880007Y-98370496D01*
X72902529Y-98378554D01*
X72924153Y-98388782D01*
X72944670Y-98401079D01*
X72963883Y-98415329D01*
X72981607Y-98431393D01*
X72997671Y-98449117D01*
X73011921Y-98468330D01*
X73024218Y-98488847D01*
X73034446Y-98510471D01*
X73042504Y-98532993D01*
X73048316Y-98556197D01*
X73051826Y-98579858D01*
X73053000Y-98603750D01*
X73053000Y-99516250D01*
X73051826Y-99540142D01*
X73048316Y-99563803D01*
X73042504Y-99587007D01*
X73034446Y-99609529D01*
X73024218Y-99631153D01*
X73011921Y-99651670D01*
X72997671Y-99670883D01*
X72981607Y-99688607D01*
X72963883Y-99704671D01*
X72944670Y-99718921D01*
X72924153Y-99731218D01*
X72902529Y-99741446D01*
X72880007Y-99749504D01*
X72856803Y-99755316D01*
X72833142Y-99758826D01*
X72809250Y-99760000D01*
X72321750Y-99760000D01*
X72297858Y-99758826D01*
X72274197Y-99755316D01*
X72250993Y-99749504D01*
X72228471Y-99741446D01*
X72206847Y-99731218D01*
X72186330Y-99718921D01*
X72167117Y-99704671D01*
X72149393Y-99688607D01*
X72133329Y-99670883D01*
X72119079Y-99651670D01*
X72106782Y-99631153D01*
X72096554Y-99609529D01*
X72088496Y-99587007D01*
X72082684Y-99563803D01*
X72079174Y-99540142D01*
X72078000Y-99516250D01*
X72078000Y-98603750D01*
X72079174Y-98579858D01*
X72082684Y-98556197D01*
X72088496Y-98532993D01*
X72096554Y-98510471D01*
X72106782Y-98488847D01*
X72119079Y-98468330D01*
X72133329Y-98449117D01*
X72149393Y-98431393D01*
X72167117Y-98415329D01*
X72186330Y-98401079D01*
X72206847Y-98388782D01*
X72228471Y-98378554D01*
X72250993Y-98370496D01*
X72274197Y-98364684D01*
X72297858Y-98361174D01*
X72321750Y-98360000D01*
X72809250Y-98360000D01*
X72833142Y-98361174D01*
X72833142Y-98361174D01*
G37*
D13*
X72565500Y-99060000D03*
D12*
G36*
X70958142Y-98361174D02*
X70981803Y-98364684D01*
X71005007Y-98370496D01*
X71027529Y-98378554D01*
X71049153Y-98388782D01*
X71069670Y-98401079D01*
X71088883Y-98415329D01*
X71106607Y-98431393D01*
X71122671Y-98449117D01*
X71136921Y-98468330D01*
X71149218Y-98488847D01*
X71159446Y-98510471D01*
X71167504Y-98532993D01*
X71173316Y-98556197D01*
X71176826Y-98579858D01*
X71178000Y-98603750D01*
X71178000Y-99516250D01*
X71176826Y-99540142D01*
X71173316Y-99563803D01*
X71167504Y-99587007D01*
X71159446Y-99609529D01*
X71149218Y-99631153D01*
X71136921Y-99651670D01*
X71122671Y-99670883D01*
X71106607Y-99688607D01*
X71088883Y-99704671D01*
X71069670Y-99718921D01*
X71049153Y-99731218D01*
X71027529Y-99741446D01*
X71005007Y-99749504D01*
X70981803Y-99755316D01*
X70958142Y-99758826D01*
X70934250Y-99760000D01*
X70446750Y-99760000D01*
X70422858Y-99758826D01*
X70399197Y-99755316D01*
X70375993Y-99749504D01*
X70353471Y-99741446D01*
X70331847Y-99731218D01*
X70311330Y-99718921D01*
X70292117Y-99704671D01*
X70274393Y-99688607D01*
X70258329Y-99670883D01*
X70244079Y-99651670D01*
X70231782Y-99631153D01*
X70221554Y-99609529D01*
X70213496Y-99587007D01*
X70207684Y-99563803D01*
X70204174Y-99540142D01*
X70203000Y-99516250D01*
X70203000Y-98603750D01*
X70204174Y-98579858D01*
X70207684Y-98556197D01*
X70213496Y-98532993D01*
X70221554Y-98510471D01*
X70231782Y-98488847D01*
X70244079Y-98468330D01*
X70258329Y-98449117D01*
X70274393Y-98431393D01*
X70292117Y-98415329D01*
X70311330Y-98401079D01*
X70331847Y-98388782D01*
X70353471Y-98378554D01*
X70375993Y-98370496D01*
X70399197Y-98364684D01*
X70422858Y-98361174D01*
X70446750Y-98360000D01*
X70934250Y-98360000D01*
X70958142Y-98361174D01*
X70958142Y-98361174D01*
G37*
D13*
X70690500Y-99060000D03*
G04 #@! TD*
D12*
G04 #@! TO.C,R5*
G36*
X118535142Y-145201174D02*
X118558803Y-145204684D01*
X118582007Y-145210496D01*
X118604529Y-145218554D01*
X118626153Y-145228782D01*
X118646670Y-145241079D01*
X118665883Y-145255329D01*
X118683607Y-145271393D01*
X118699671Y-145289117D01*
X118713921Y-145308330D01*
X118726218Y-145328847D01*
X118736446Y-145350471D01*
X118744504Y-145372993D01*
X118750316Y-145396197D01*
X118753826Y-145419858D01*
X118755000Y-145443750D01*
X118755000Y-146356250D01*
X118753826Y-146380142D01*
X118750316Y-146403803D01*
X118744504Y-146427007D01*
X118736446Y-146449529D01*
X118726218Y-146471153D01*
X118713921Y-146491670D01*
X118699671Y-146510883D01*
X118683607Y-146528607D01*
X118665883Y-146544671D01*
X118646670Y-146558921D01*
X118626153Y-146571218D01*
X118604529Y-146581446D01*
X118582007Y-146589504D01*
X118558803Y-146595316D01*
X118535142Y-146598826D01*
X118511250Y-146600000D01*
X118023750Y-146600000D01*
X117999858Y-146598826D01*
X117976197Y-146595316D01*
X117952993Y-146589504D01*
X117930471Y-146581446D01*
X117908847Y-146571218D01*
X117888330Y-146558921D01*
X117869117Y-146544671D01*
X117851393Y-146528607D01*
X117835329Y-146510883D01*
X117821079Y-146491670D01*
X117808782Y-146471153D01*
X117798554Y-146449529D01*
X117790496Y-146427007D01*
X117784684Y-146403803D01*
X117781174Y-146380142D01*
X117780000Y-146356250D01*
X117780000Y-145443750D01*
X117781174Y-145419858D01*
X117784684Y-145396197D01*
X117790496Y-145372993D01*
X117798554Y-145350471D01*
X117808782Y-145328847D01*
X117821079Y-145308330D01*
X117835329Y-145289117D01*
X117851393Y-145271393D01*
X117869117Y-145255329D01*
X117888330Y-145241079D01*
X117908847Y-145228782D01*
X117930471Y-145218554D01*
X117952993Y-145210496D01*
X117976197Y-145204684D01*
X117999858Y-145201174D01*
X118023750Y-145200000D01*
X118511250Y-145200000D01*
X118535142Y-145201174D01*
X118535142Y-145201174D01*
G37*
D13*
X118267500Y-145900000D03*
D12*
G36*
X120410142Y-145201174D02*
X120433803Y-145204684D01*
X120457007Y-145210496D01*
X120479529Y-145218554D01*
X120501153Y-145228782D01*
X120521670Y-145241079D01*
X120540883Y-145255329D01*
X120558607Y-145271393D01*
X120574671Y-145289117D01*
X120588921Y-145308330D01*
X120601218Y-145328847D01*
X120611446Y-145350471D01*
X120619504Y-145372993D01*
X120625316Y-145396197D01*
X120628826Y-145419858D01*
X120630000Y-145443750D01*
X120630000Y-146356250D01*
X120628826Y-146380142D01*
X120625316Y-146403803D01*
X120619504Y-146427007D01*
X120611446Y-146449529D01*
X120601218Y-146471153D01*
X120588921Y-146491670D01*
X120574671Y-146510883D01*
X120558607Y-146528607D01*
X120540883Y-146544671D01*
X120521670Y-146558921D01*
X120501153Y-146571218D01*
X120479529Y-146581446D01*
X120457007Y-146589504D01*
X120433803Y-146595316D01*
X120410142Y-146598826D01*
X120386250Y-146600000D01*
X119898750Y-146600000D01*
X119874858Y-146598826D01*
X119851197Y-146595316D01*
X119827993Y-146589504D01*
X119805471Y-146581446D01*
X119783847Y-146571218D01*
X119763330Y-146558921D01*
X119744117Y-146544671D01*
X119726393Y-146528607D01*
X119710329Y-146510883D01*
X119696079Y-146491670D01*
X119683782Y-146471153D01*
X119673554Y-146449529D01*
X119665496Y-146427007D01*
X119659684Y-146403803D01*
X119656174Y-146380142D01*
X119655000Y-146356250D01*
X119655000Y-145443750D01*
X119656174Y-145419858D01*
X119659684Y-145396197D01*
X119665496Y-145372993D01*
X119673554Y-145350471D01*
X119683782Y-145328847D01*
X119696079Y-145308330D01*
X119710329Y-145289117D01*
X119726393Y-145271393D01*
X119744117Y-145255329D01*
X119763330Y-145241079D01*
X119783847Y-145228782D01*
X119805471Y-145218554D01*
X119827993Y-145210496D01*
X119851197Y-145204684D01*
X119874858Y-145201174D01*
X119898750Y-145200000D01*
X120386250Y-145200000D01*
X120410142Y-145201174D01*
X120410142Y-145201174D01*
G37*
D13*
X120142500Y-145900000D03*
G04 #@! TD*
D12*
G04 #@! TO.C,R6*
G36*
X120410142Y-142026174D02*
X120433803Y-142029684D01*
X120457007Y-142035496D01*
X120479529Y-142043554D01*
X120501153Y-142053782D01*
X120521670Y-142066079D01*
X120540883Y-142080329D01*
X120558607Y-142096393D01*
X120574671Y-142114117D01*
X120588921Y-142133330D01*
X120601218Y-142153847D01*
X120611446Y-142175471D01*
X120619504Y-142197993D01*
X120625316Y-142221197D01*
X120628826Y-142244858D01*
X120630000Y-142268750D01*
X120630000Y-143181250D01*
X120628826Y-143205142D01*
X120625316Y-143228803D01*
X120619504Y-143252007D01*
X120611446Y-143274529D01*
X120601218Y-143296153D01*
X120588921Y-143316670D01*
X120574671Y-143335883D01*
X120558607Y-143353607D01*
X120540883Y-143369671D01*
X120521670Y-143383921D01*
X120501153Y-143396218D01*
X120479529Y-143406446D01*
X120457007Y-143414504D01*
X120433803Y-143420316D01*
X120410142Y-143423826D01*
X120386250Y-143425000D01*
X119898750Y-143425000D01*
X119874858Y-143423826D01*
X119851197Y-143420316D01*
X119827993Y-143414504D01*
X119805471Y-143406446D01*
X119783847Y-143396218D01*
X119763330Y-143383921D01*
X119744117Y-143369671D01*
X119726393Y-143353607D01*
X119710329Y-143335883D01*
X119696079Y-143316670D01*
X119683782Y-143296153D01*
X119673554Y-143274529D01*
X119665496Y-143252007D01*
X119659684Y-143228803D01*
X119656174Y-143205142D01*
X119655000Y-143181250D01*
X119655000Y-142268750D01*
X119656174Y-142244858D01*
X119659684Y-142221197D01*
X119665496Y-142197993D01*
X119673554Y-142175471D01*
X119683782Y-142153847D01*
X119696079Y-142133330D01*
X119710329Y-142114117D01*
X119726393Y-142096393D01*
X119744117Y-142080329D01*
X119763330Y-142066079D01*
X119783847Y-142053782D01*
X119805471Y-142043554D01*
X119827993Y-142035496D01*
X119851197Y-142029684D01*
X119874858Y-142026174D01*
X119898750Y-142025000D01*
X120386250Y-142025000D01*
X120410142Y-142026174D01*
X120410142Y-142026174D01*
G37*
D13*
X120142500Y-142725000D03*
D12*
G36*
X118535142Y-142026174D02*
X118558803Y-142029684D01*
X118582007Y-142035496D01*
X118604529Y-142043554D01*
X118626153Y-142053782D01*
X118646670Y-142066079D01*
X118665883Y-142080329D01*
X118683607Y-142096393D01*
X118699671Y-142114117D01*
X118713921Y-142133330D01*
X118726218Y-142153847D01*
X118736446Y-142175471D01*
X118744504Y-142197993D01*
X118750316Y-142221197D01*
X118753826Y-142244858D01*
X118755000Y-142268750D01*
X118755000Y-143181250D01*
X118753826Y-143205142D01*
X118750316Y-143228803D01*
X118744504Y-143252007D01*
X118736446Y-143274529D01*
X118726218Y-143296153D01*
X118713921Y-143316670D01*
X118699671Y-143335883D01*
X118683607Y-143353607D01*
X118665883Y-143369671D01*
X118646670Y-143383921D01*
X118626153Y-143396218D01*
X118604529Y-143406446D01*
X118582007Y-143414504D01*
X118558803Y-143420316D01*
X118535142Y-143423826D01*
X118511250Y-143425000D01*
X118023750Y-143425000D01*
X117999858Y-143423826D01*
X117976197Y-143420316D01*
X117952993Y-143414504D01*
X117930471Y-143406446D01*
X117908847Y-143396218D01*
X117888330Y-143383921D01*
X117869117Y-143369671D01*
X117851393Y-143353607D01*
X117835329Y-143335883D01*
X117821079Y-143316670D01*
X117808782Y-143296153D01*
X117798554Y-143274529D01*
X117790496Y-143252007D01*
X117784684Y-143228803D01*
X117781174Y-143205142D01*
X117780000Y-143181250D01*
X117780000Y-142268750D01*
X117781174Y-142244858D01*
X117784684Y-142221197D01*
X117790496Y-142197993D01*
X117798554Y-142175471D01*
X117808782Y-142153847D01*
X117821079Y-142133330D01*
X117835329Y-142114117D01*
X117851393Y-142096393D01*
X117869117Y-142080329D01*
X117888330Y-142066079D01*
X117908847Y-142053782D01*
X117930471Y-142043554D01*
X117952993Y-142035496D01*
X117976197Y-142029684D01*
X117999858Y-142026174D01*
X118023750Y-142025000D01*
X118511250Y-142025000D01*
X118535142Y-142026174D01*
X118535142Y-142026174D01*
G37*
D13*
X118267500Y-142725000D03*
G04 #@! TD*
D12*
G04 #@! TO.C,R7*
G36*
X118535142Y-138851174D02*
X118558803Y-138854684D01*
X118582007Y-138860496D01*
X118604529Y-138868554D01*
X118626153Y-138878782D01*
X118646670Y-138891079D01*
X118665883Y-138905329D01*
X118683607Y-138921393D01*
X118699671Y-138939117D01*
X118713921Y-138958330D01*
X118726218Y-138978847D01*
X118736446Y-139000471D01*
X118744504Y-139022993D01*
X118750316Y-139046197D01*
X118753826Y-139069858D01*
X118755000Y-139093750D01*
X118755000Y-140006250D01*
X118753826Y-140030142D01*
X118750316Y-140053803D01*
X118744504Y-140077007D01*
X118736446Y-140099529D01*
X118726218Y-140121153D01*
X118713921Y-140141670D01*
X118699671Y-140160883D01*
X118683607Y-140178607D01*
X118665883Y-140194671D01*
X118646670Y-140208921D01*
X118626153Y-140221218D01*
X118604529Y-140231446D01*
X118582007Y-140239504D01*
X118558803Y-140245316D01*
X118535142Y-140248826D01*
X118511250Y-140250000D01*
X118023750Y-140250000D01*
X117999858Y-140248826D01*
X117976197Y-140245316D01*
X117952993Y-140239504D01*
X117930471Y-140231446D01*
X117908847Y-140221218D01*
X117888330Y-140208921D01*
X117869117Y-140194671D01*
X117851393Y-140178607D01*
X117835329Y-140160883D01*
X117821079Y-140141670D01*
X117808782Y-140121153D01*
X117798554Y-140099529D01*
X117790496Y-140077007D01*
X117784684Y-140053803D01*
X117781174Y-140030142D01*
X117780000Y-140006250D01*
X117780000Y-139093750D01*
X117781174Y-139069858D01*
X117784684Y-139046197D01*
X117790496Y-139022993D01*
X117798554Y-139000471D01*
X117808782Y-138978847D01*
X117821079Y-138958330D01*
X117835329Y-138939117D01*
X117851393Y-138921393D01*
X117869117Y-138905329D01*
X117888330Y-138891079D01*
X117908847Y-138878782D01*
X117930471Y-138868554D01*
X117952993Y-138860496D01*
X117976197Y-138854684D01*
X117999858Y-138851174D01*
X118023750Y-138850000D01*
X118511250Y-138850000D01*
X118535142Y-138851174D01*
X118535142Y-138851174D01*
G37*
D13*
X118267500Y-139550000D03*
D12*
G36*
X120410142Y-138851174D02*
X120433803Y-138854684D01*
X120457007Y-138860496D01*
X120479529Y-138868554D01*
X120501153Y-138878782D01*
X120521670Y-138891079D01*
X120540883Y-138905329D01*
X120558607Y-138921393D01*
X120574671Y-138939117D01*
X120588921Y-138958330D01*
X120601218Y-138978847D01*
X120611446Y-139000471D01*
X120619504Y-139022993D01*
X120625316Y-139046197D01*
X120628826Y-139069858D01*
X120630000Y-139093750D01*
X120630000Y-140006250D01*
X120628826Y-140030142D01*
X120625316Y-140053803D01*
X120619504Y-140077007D01*
X120611446Y-140099529D01*
X120601218Y-140121153D01*
X120588921Y-140141670D01*
X120574671Y-140160883D01*
X120558607Y-140178607D01*
X120540883Y-140194671D01*
X120521670Y-140208921D01*
X120501153Y-140221218D01*
X120479529Y-140231446D01*
X120457007Y-140239504D01*
X120433803Y-140245316D01*
X120410142Y-140248826D01*
X120386250Y-140250000D01*
X119898750Y-140250000D01*
X119874858Y-140248826D01*
X119851197Y-140245316D01*
X119827993Y-140239504D01*
X119805471Y-140231446D01*
X119783847Y-140221218D01*
X119763330Y-140208921D01*
X119744117Y-140194671D01*
X119726393Y-140178607D01*
X119710329Y-140160883D01*
X119696079Y-140141670D01*
X119683782Y-140121153D01*
X119673554Y-140099529D01*
X119665496Y-140077007D01*
X119659684Y-140053803D01*
X119656174Y-140030142D01*
X119655000Y-140006250D01*
X119655000Y-139093750D01*
X119656174Y-139069858D01*
X119659684Y-139046197D01*
X119665496Y-139022993D01*
X119673554Y-139000471D01*
X119683782Y-138978847D01*
X119696079Y-138958330D01*
X119710329Y-138939117D01*
X119726393Y-138921393D01*
X119744117Y-138905329D01*
X119763330Y-138891079D01*
X119783847Y-138878782D01*
X119805471Y-138868554D01*
X119827993Y-138860496D01*
X119851197Y-138854684D01*
X119874858Y-138851174D01*
X119898750Y-138850000D01*
X120386250Y-138850000D01*
X120410142Y-138851174D01*
X120410142Y-138851174D01*
G37*
D13*
X120142500Y-139550000D03*
G04 #@! TD*
D12*
G04 #@! TO.C,R8*
G36*
X108550142Y-144589174D02*
X108573803Y-144592684D01*
X108597007Y-144598496D01*
X108619529Y-144606554D01*
X108641153Y-144616782D01*
X108661670Y-144629079D01*
X108680883Y-144643329D01*
X108698607Y-144659393D01*
X108714671Y-144677117D01*
X108728921Y-144696330D01*
X108741218Y-144716847D01*
X108751446Y-144738471D01*
X108759504Y-144760993D01*
X108765316Y-144784197D01*
X108768826Y-144807858D01*
X108770000Y-144831750D01*
X108770000Y-145744250D01*
X108768826Y-145768142D01*
X108765316Y-145791803D01*
X108759504Y-145815007D01*
X108751446Y-145837529D01*
X108741218Y-145859153D01*
X108728921Y-145879670D01*
X108714671Y-145898883D01*
X108698607Y-145916607D01*
X108680883Y-145932671D01*
X108661670Y-145946921D01*
X108641153Y-145959218D01*
X108619529Y-145969446D01*
X108597007Y-145977504D01*
X108573803Y-145983316D01*
X108550142Y-145986826D01*
X108526250Y-145988000D01*
X108038750Y-145988000D01*
X108014858Y-145986826D01*
X107991197Y-145983316D01*
X107967993Y-145977504D01*
X107945471Y-145969446D01*
X107923847Y-145959218D01*
X107903330Y-145946921D01*
X107884117Y-145932671D01*
X107866393Y-145916607D01*
X107850329Y-145898883D01*
X107836079Y-145879670D01*
X107823782Y-145859153D01*
X107813554Y-145837529D01*
X107805496Y-145815007D01*
X107799684Y-145791803D01*
X107796174Y-145768142D01*
X107795000Y-145744250D01*
X107795000Y-144831750D01*
X107796174Y-144807858D01*
X107799684Y-144784197D01*
X107805496Y-144760993D01*
X107813554Y-144738471D01*
X107823782Y-144716847D01*
X107836079Y-144696330D01*
X107850329Y-144677117D01*
X107866393Y-144659393D01*
X107884117Y-144643329D01*
X107903330Y-144629079D01*
X107923847Y-144616782D01*
X107945471Y-144606554D01*
X107967993Y-144598496D01*
X107991197Y-144592684D01*
X108014858Y-144589174D01*
X108038750Y-144588000D01*
X108526250Y-144588000D01*
X108550142Y-144589174D01*
X108550142Y-144589174D01*
G37*
D13*
X108282500Y-145288000D03*
D12*
G36*
X110425142Y-144589174D02*
X110448803Y-144592684D01*
X110472007Y-144598496D01*
X110494529Y-144606554D01*
X110516153Y-144616782D01*
X110536670Y-144629079D01*
X110555883Y-144643329D01*
X110573607Y-144659393D01*
X110589671Y-144677117D01*
X110603921Y-144696330D01*
X110616218Y-144716847D01*
X110626446Y-144738471D01*
X110634504Y-144760993D01*
X110640316Y-144784197D01*
X110643826Y-144807858D01*
X110645000Y-144831750D01*
X110645000Y-145744250D01*
X110643826Y-145768142D01*
X110640316Y-145791803D01*
X110634504Y-145815007D01*
X110626446Y-145837529D01*
X110616218Y-145859153D01*
X110603921Y-145879670D01*
X110589671Y-145898883D01*
X110573607Y-145916607D01*
X110555883Y-145932671D01*
X110536670Y-145946921D01*
X110516153Y-145959218D01*
X110494529Y-145969446D01*
X110472007Y-145977504D01*
X110448803Y-145983316D01*
X110425142Y-145986826D01*
X110401250Y-145988000D01*
X109913750Y-145988000D01*
X109889858Y-145986826D01*
X109866197Y-145983316D01*
X109842993Y-145977504D01*
X109820471Y-145969446D01*
X109798847Y-145959218D01*
X109778330Y-145946921D01*
X109759117Y-145932671D01*
X109741393Y-145916607D01*
X109725329Y-145898883D01*
X109711079Y-145879670D01*
X109698782Y-145859153D01*
X109688554Y-145837529D01*
X109680496Y-145815007D01*
X109674684Y-145791803D01*
X109671174Y-145768142D01*
X109670000Y-145744250D01*
X109670000Y-144831750D01*
X109671174Y-144807858D01*
X109674684Y-144784197D01*
X109680496Y-144760993D01*
X109688554Y-144738471D01*
X109698782Y-144716847D01*
X109711079Y-144696330D01*
X109725329Y-144677117D01*
X109741393Y-144659393D01*
X109759117Y-144643329D01*
X109778330Y-144629079D01*
X109798847Y-144616782D01*
X109820471Y-144606554D01*
X109842993Y-144598496D01*
X109866197Y-144592684D01*
X109889858Y-144589174D01*
X109913750Y-144588000D01*
X110401250Y-144588000D01*
X110425142Y-144589174D01*
X110425142Y-144589174D01*
G37*
D13*
X110157500Y-145288000D03*
G04 #@! TD*
D12*
G04 #@! TO.C,R9*
G36*
X109409142Y-146621174D02*
X109432803Y-146624684D01*
X109456007Y-146630496D01*
X109478529Y-146638554D01*
X109500153Y-146648782D01*
X109520670Y-146661079D01*
X109539883Y-146675329D01*
X109557607Y-146691393D01*
X109573671Y-146709117D01*
X109587921Y-146728330D01*
X109600218Y-146748847D01*
X109610446Y-146770471D01*
X109618504Y-146792993D01*
X109624316Y-146816197D01*
X109627826Y-146839858D01*
X109629000Y-146863750D01*
X109629000Y-147776250D01*
X109627826Y-147800142D01*
X109624316Y-147823803D01*
X109618504Y-147847007D01*
X109610446Y-147869529D01*
X109600218Y-147891153D01*
X109587921Y-147911670D01*
X109573671Y-147930883D01*
X109557607Y-147948607D01*
X109539883Y-147964671D01*
X109520670Y-147978921D01*
X109500153Y-147991218D01*
X109478529Y-148001446D01*
X109456007Y-148009504D01*
X109432803Y-148015316D01*
X109409142Y-148018826D01*
X109385250Y-148020000D01*
X108897750Y-148020000D01*
X108873858Y-148018826D01*
X108850197Y-148015316D01*
X108826993Y-148009504D01*
X108804471Y-148001446D01*
X108782847Y-147991218D01*
X108762330Y-147978921D01*
X108743117Y-147964671D01*
X108725393Y-147948607D01*
X108709329Y-147930883D01*
X108695079Y-147911670D01*
X108682782Y-147891153D01*
X108672554Y-147869529D01*
X108664496Y-147847007D01*
X108658684Y-147823803D01*
X108655174Y-147800142D01*
X108654000Y-147776250D01*
X108654000Y-146863750D01*
X108655174Y-146839858D01*
X108658684Y-146816197D01*
X108664496Y-146792993D01*
X108672554Y-146770471D01*
X108682782Y-146748847D01*
X108695079Y-146728330D01*
X108709329Y-146709117D01*
X108725393Y-146691393D01*
X108743117Y-146675329D01*
X108762330Y-146661079D01*
X108782847Y-146648782D01*
X108804471Y-146638554D01*
X108826993Y-146630496D01*
X108850197Y-146624684D01*
X108873858Y-146621174D01*
X108897750Y-146620000D01*
X109385250Y-146620000D01*
X109409142Y-146621174D01*
X109409142Y-146621174D01*
G37*
D13*
X109141500Y-147320000D03*
D12*
G36*
X107534142Y-146621174D02*
X107557803Y-146624684D01*
X107581007Y-146630496D01*
X107603529Y-146638554D01*
X107625153Y-146648782D01*
X107645670Y-146661079D01*
X107664883Y-146675329D01*
X107682607Y-146691393D01*
X107698671Y-146709117D01*
X107712921Y-146728330D01*
X107725218Y-146748847D01*
X107735446Y-146770471D01*
X107743504Y-146792993D01*
X107749316Y-146816197D01*
X107752826Y-146839858D01*
X107754000Y-146863750D01*
X107754000Y-147776250D01*
X107752826Y-147800142D01*
X107749316Y-147823803D01*
X107743504Y-147847007D01*
X107735446Y-147869529D01*
X107725218Y-147891153D01*
X107712921Y-147911670D01*
X107698671Y-147930883D01*
X107682607Y-147948607D01*
X107664883Y-147964671D01*
X107645670Y-147978921D01*
X107625153Y-147991218D01*
X107603529Y-148001446D01*
X107581007Y-148009504D01*
X107557803Y-148015316D01*
X107534142Y-148018826D01*
X107510250Y-148020000D01*
X107022750Y-148020000D01*
X106998858Y-148018826D01*
X106975197Y-148015316D01*
X106951993Y-148009504D01*
X106929471Y-148001446D01*
X106907847Y-147991218D01*
X106887330Y-147978921D01*
X106868117Y-147964671D01*
X106850393Y-147948607D01*
X106834329Y-147930883D01*
X106820079Y-147911670D01*
X106807782Y-147891153D01*
X106797554Y-147869529D01*
X106789496Y-147847007D01*
X106783684Y-147823803D01*
X106780174Y-147800142D01*
X106779000Y-147776250D01*
X106779000Y-146863750D01*
X106780174Y-146839858D01*
X106783684Y-146816197D01*
X106789496Y-146792993D01*
X106797554Y-146770471D01*
X106807782Y-146748847D01*
X106820079Y-146728330D01*
X106834329Y-146709117D01*
X106850393Y-146691393D01*
X106868117Y-146675329D01*
X106887330Y-146661079D01*
X106907847Y-146648782D01*
X106929471Y-146638554D01*
X106951993Y-146630496D01*
X106975197Y-146624684D01*
X106998858Y-146621174D01*
X107022750Y-146620000D01*
X107510250Y-146620000D01*
X107534142Y-146621174D01*
X107534142Y-146621174D01*
G37*
D13*
X107266500Y-147320000D03*
G04 #@! TD*
D12*
G04 #@! TO.C,R10*
G36*
X107239142Y-88850174D02*
X107262803Y-88853684D01*
X107286007Y-88859496D01*
X107308529Y-88867554D01*
X107330153Y-88877782D01*
X107350670Y-88890079D01*
X107369883Y-88904329D01*
X107387607Y-88920393D01*
X107403671Y-88938117D01*
X107417921Y-88957330D01*
X107430218Y-88977847D01*
X107440446Y-88999471D01*
X107448504Y-89021993D01*
X107454316Y-89045197D01*
X107457826Y-89068858D01*
X107459000Y-89092750D01*
X107459000Y-89580250D01*
X107457826Y-89604142D01*
X107454316Y-89627803D01*
X107448504Y-89651007D01*
X107440446Y-89673529D01*
X107430218Y-89695153D01*
X107417921Y-89715670D01*
X107403671Y-89734883D01*
X107387607Y-89752607D01*
X107369883Y-89768671D01*
X107350670Y-89782921D01*
X107330153Y-89795218D01*
X107308529Y-89805446D01*
X107286007Y-89813504D01*
X107262803Y-89819316D01*
X107239142Y-89822826D01*
X107215250Y-89824000D01*
X106302750Y-89824000D01*
X106278858Y-89822826D01*
X106255197Y-89819316D01*
X106231993Y-89813504D01*
X106209471Y-89805446D01*
X106187847Y-89795218D01*
X106167330Y-89782921D01*
X106148117Y-89768671D01*
X106130393Y-89752607D01*
X106114329Y-89734883D01*
X106100079Y-89715670D01*
X106087782Y-89695153D01*
X106077554Y-89673529D01*
X106069496Y-89651007D01*
X106063684Y-89627803D01*
X106060174Y-89604142D01*
X106059000Y-89580250D01*
X106059000Y-89092750D01*
X106060174Y-89068858D01*
X106063684Y-89045197D01*
X106069496Y-89021993D01*
X106077554Y-88999471D01*
X106087782Y-88977847D01*
X106100079Y-88957330D01*
X106114329Y-88938117D01*
X106130393Y-88920393D01*
X106148117Y-88904329D01*
X106167330Y-88890079D01*
X106187847Y-88877782D01*
X106209471Y-88867554D01*
X106231993Y-88859496D01*
X106255197Y-88853684D01*
X106278858Y-88850174D01*
X106302750Y-88849000D01*
X107215250Y-88849000D01*
X107239142Y-88850174D01*
X107239142Y-88850174D01*
G37*
D13*
X106759000Y-89336500D03*
D12*
G36*
X107239142Y-90725174D02*
X107262803Y-90728684D01*
X107286007Y-90734496D01*
X107308529Y-90742554D01*
X107330153Y-90752782D01*
X107350670Y-90765079D01*
X107369883Y-90779329D01*
X107387607Y-90795393D01*
X107403671Y-90813117D01*
X107417921Y-90832330D01*
X107430218Y-90852847D01*
X107440446Y-90874471D01*
X107448504Y-90896993D01*
X107454316Y-90920197D01*
X107457826Y-90943858D01*
X107459000Y-90967750D01*
X107459000Y-91455250D01*
X107457826Y-91479142D01*
X107454316Y-91502803D01*
X107448504Y-91526007D01*
X107440446Y-91548529D01*
X107430218Y-91570153D01*
X107417921Y-91590670D01*
X107403671Y-91609883D01*
X107387607Y-91627607D01*
X107369883Y-91643671D01*
X107350670Y-91657921D01*
X107330153Y-91670218D01*
X107308529Y-91680446D01*
X107286007Y-91688504D01*
X107262803Y-91694316D01*
X107239142Y-91697826D01*
X107215250Y-91699000D01*
X106302750Y-91699000D01*
X106278858Y-91697826D01*
X106255197Y-91694316D01*
X106231993Y-91688504D01*
X106209471Y-91680446D01*
X106187847Y-91670218D01*
X106167330Y-91657921D01*
X106148117Y-91643671D01*
X106130393Y-91627607D01*
X106114329Y-91609883D01*
X106100079Y-91590670D01*
X106087782Y-91570153D01*
X106077554Y-91548529D01*
X106069496Y-91526007D01*
X106063684Y-91502803D01*
X106060174Y-91479142D01*
X106059000Y-91455250D01*
X106059000Y-90967750D01*
X106060174Y-90943858D01*
X106063684Y-90920197D01*
X106069496Y-90896993D01*
X106077554Y-90874471D01*
X106087782Y-90852847D01*
X106100079Y-90832330D01*
X106114329Y-90813117D01*
X106130393Y-90795393D01*
X106148117Y-90779329D01*
X106167330Y-90765079D01*
X106187847Y-90752782D01*
X106209471Y-90742554D01*
X106231993Y-90734496D01*
X106255197Y-90728684D01*
X106278858Y-90725174D01*
X106302750Y-90724000D01*
X107215250Y-90724000D01*
X107239142Y-90725174D01*
X107239142Y-90725174D01*
G37*
D13*
X106759000Y-91211500D03*
G04 #@! TD*
D12*
G04 #@! TO.C,R11*
G36*
X104064142Y-90725174D02*
X104087803Y-90728684D01*
X104111007Y-90734496D01*
X104133529Y-90742554D01*
X104155153Y-90752782D01*
X104175670Y-90765079D01*
X104194883Y-90779329D01*
X104212607Y-90795393D01*
X104228671Y-90813117D01*
X104242921Y-90832330D01*
X104255218Y-90852847D01*
X104265446Y-90874471D01*
X104273504Y-90896993D01*
X104279316Y-90920197D01*
X104282826Y-90943858D01*
X104284000Y-90967750D01*
X104284000Y-91455250D01*
X104282826Y-91479142D01*
X104279316Y-91502803D01*
X104273504Y-91526007D01*
X104265446Y-91548529D01*
X104255218Y-91570153D01*
X104242921Y-91590670D01*
X104228671Y-91609883D01*
X104212607Y-91627607D01*
X104194883Y-91643671D01*
X104175670Y-91657921D01*
X104155153Y-91670218D01*
X104133529Y-91680446D01*
X104111007Y-91688504D01*
X104087803Y-91694316D01*
X104064142Y-91697826D01*
X104040250Y-91699000D01*
X103127750Y-91699000D01*
X103103858Y-91697826D01*
X103080197Y-91694316D01*
X103056993Y-91688504D01*
X103034471Y-91680446D01*
X103012847Y-91670218D01*
X102992330Y-91657921D01*
X102973117Y-91643671D01*
X102955393Y-91627607D01*
X102939329Y-91609883D01*
X102925079Y-91590670D01*
X102912782Y-91570153D01*
X102902554Y-91548529D01*
X102894496Y-91526007D01*
X102888684Y-91502803D01*
X102885174Y-91479142D01*
X102884000Y-91455250D01*
X102884000Y-90967750D01*
X102885174Y-90943858D01*
X102888684Y-90920197D01*
X102894496Y-90896993D01*
X102902554Y-90874471D01*
X102912782Y-90852847D01*
X102925079Y-90832330D01*
X102939329Y-90813117D01*
X102955393Y-90795393D01*
X102973117Y-90779329D01*
X102992330Y-90765079D01*
X103012847Y-90752782D01*
X103034471Y-90742554D01*
X103056993Y-90734496D01*
X103080197Y-90728684D01*
X103103858Y-90725174D01*
X103127750Y-90724000D01*
X104040250Y-90724000D01*
X104064142Y-90725174D01*
X104064142Y-90725174D01*
G37*
D13*
X103584000Y-91211500D03*
D12*
G36*
X104064142Y-88850174D02*
X104087803Y-88853684D01*
X104111007Y-88859496D01*
X104133529Y-88867554D01*
X104155153Y-88877782D01*
X104175670Y-88890079D01*
X104194883Y-88904329D01*
X104212607Y-88920393D01*
X104228671Y-88938117D01*
X104242921Y-88957330D01*
X104255218Y-88977847D01*
X104265446Y-88999471D01*
X104273504Y-89021993D01*
X104279316Y-89045197D01*
X104282826Y-89068858D01*
X104284000Y-89092750D01*
X104284000Y-89580250D01*
X104282826Y-89604142D01*
X104279316Y-89627803D01*
X104273504Y-89651007D01*
X104265446Y-89673529D01*
X104255218Y-89695153D01*
X104242921Y-89715670D01*
X104228671Y-89734883D01*
X104212607Y-89752607D01*
X104194883Y-89768671D01*
X104175670Y-89782921D01*
X104155153Y-89795218D01*
X104133529Y-89805446D01*
X104111007Y-89813504D01*
X104087803Y-89819316D01*
X104064142Y-89822826D01*
X104040250Y-89824000D01*
X103127750Y-89824000D01*
X103103858Y-89822826D01*
X103080197Y-89819316D01*
X103056993Y-89813504D01*
X103034471Y-89805446D01*
X103012847Y-89795218D01*
X102992330Y-89782921D01*
X102973117Y-89768671D01*
X102955393Y-89752607D01*
X102939329Y-89734883D01*
X102925079Y-89715670D01*
X102912782Y-89695153D01*
X102902554Y-89673529D01*
X102894496Y-89651007D01*
X102888684Y-89627803D01*
X102885174Y-89604142D01*
X102884000Y-89580250D01*
X102884000Y-89092750D01*
X102885174Y-89068858D01*
X102888684Y-89045197D01*
X102894496Y-89021993D01*
X102902554Y-88999471D01*
X102912782Y-88977847D01*
X102925079Y-88957330D01*
X102939329Y-88938117D01*
X102955393Y-88920393D01*
X102973117Y-88904329D01*
X102992330Y-88890079D01*
X103012847Y-88877782D01*
X103034471Y-88867554D01*
X103056993Y-88859496D01*
X103080197Y-88853684D01*
X103103858Y-88850174D01*
X103127750Y-88849000D01*
X104040250Y-88849000D01*
X104064142Y-88850174D01*
X104064142Y-88850174D01*
G37*
D13*
X103584000Y-89336500D03*
G04 #@! TD*
D12*
G04 #@! TO.C,R13*
G36*
X126440142Y-109616174D02*
X126463803Y-109619684D01*
X126487007Y-109625496D01*
X126509529Y-109633554D01*
X126531153Y-109643782D01*
X126551670Y-109656079D01*
X126570883Y-109670329D01*
X126588607Y-109686393D01*
X126604671Y-109704117D01*
X126618921Y-109723330D01*
X126631218Y-109743847D01*
X126641446Y-109765471D01*
X126649504Y-109787993D01*
X126655316Y-109811197D01*
X126658826Y-109834858D01*
X126660000Y-109858750D01*
X126660000Y-110346250D01*
X126658826Y-110370142D01*
X126655316Y-110393803D01*
X126649504Y-110417007D01*
X126641446Y-110439529D01*
X126631218Y-110461153D01*
X126618921Y-110481670D01*
X126604671Y-110500883D01*
X126588607Y-110518607D01*
X126570883Y-110534671D01*
X126551670Y-110548921D01*
X126531153Y-110561218D01*
X126509529Y-110571446D01*
X126487007Y-110579504D01*
X126463803Y-110585316D01*
X126440142Y-110588826D01*
X126416250Y-110590000D01*
X125503750Y-110590000D01*
X125479858Y-110588826D01*
X125456197Y-110585316D01*
X125432993Y-110579504D01*
X125410471Y-110571446D01*
X125388847Y-110561218D01*
X125368330Y-110548921D01*
X125349117Y-110534671D01*
X125331393Y-110518607D01*
X125315329Y-110500883D01*
X125301079Y-110481670D01*
X125288782Y-110461153D01*
X125278554Y-110439529D01*
X125270496Y-110417007D01*
X125264684Y-110393803D01*
X125261174Y-110370142D01*
X125260000Y-110346250D01*
X125260000Y-109858750D01*
X125261174Y-109834858D01*
X125264684Y-109811197D01*
X125270496Y-109787993D01*
X125278554Y-109765471D01*
X125288782Y-109743847D01*
X125301079Y-109723330D01*
X125315329Y-109704117D01*
X125331393Y-109686393D01*
X125349117Y-109670329D01*
X125368330Y-109656079D01*
X125388847Y-109643782D01*
X125410471Y-109633554D01*
X125432993Y-109625496D01*
X125456197Y-109619684D01*
X125479858Y-109616174D01*
X125503750Y-109615000D01*
X126416250Y-109615000D01*
X126440142Y-109616174D01*
X126440142Y-109616174D01*
G37*
D13*
X125960000Y-110102500D03*
D12*
G36*
X126440142Y-111491174D02*
X126463803Y-111494684D01*
X126487007Y-111500496D01*
X126509529Y-111508554D01*
X126531153Y-111518782D01*
X126551670Y-111531079D01*
X126570883Y-111545329D01*
X126588607Y-111561393D01*
X126604671Y-111579117D01*
X126618921Y-111598330D01*
X126631218Y-111618847D01*
X126641446Y-111640471D01*
X126649504Y-111662993D01*
X126655316Y-111686197D01*
X126658826Y-111709858D01*
X126660000Y-111733750D01*
X126660000Y-112221250D01*
X126658826Y-112245142D01*
X126655316Y-112268803D01*
X126649504Y-112292007D01*
X126641446Y-112314529D01*
X126631218Y-112336153D01*
X126618921Y-112356670D01*
X126604671Y-112375883D01*
X126588607Y-112393607D01*
X126570883Y-112409671D01*
X126551670Y-112423921D01*
X126531153Y-112436218D01*
X126509529Y-112446446D01*
X126487007Y-112454504D01*
X126463803Y-112460316D01*
X126440142Y-112463826D01*
X126416250Y-112465000D01*
X125503750Y-112465000D01*
X125479858Y-112463826D01*
X125456197Y-112460316D01*
X125432993Y-112454504D01*
X125410471Y-112446446D01*
X125388847Y-112436218D01*
X125368330Y-112423921D01*
X125349117Y-112409671D01*
X125331393Y-112393607D01*
X125315329Y-112375883D01*
X125301079Y-112356670D01*
X125288782Y-112336153D01*
X125278554Y-112314529D01*
X125270496Y-112292007D01*
X125264684Y-112268803D01*
X125261174Y-112245142D01*
X125260000Y-112221250D01*
X125260000Y-111733750D01*
X125261174Y-111709858D01*
X125264684Y-111686197D01*
X125270496Y-111662993D01*
X125278554Y-111640471D01*
X125288782Y-111618847D01*
X125301079Y-111598330D01*
X125315329Y-111579117D01*
X125331393Y-111561393D01*
X125349117Y-111545329D01*
X125368330Y-111531079D01*
X125388847Y-111518782D01*
X125410471Y-111508554D01*
X125432993Y-111500496D01*
X125456197Y-111494684D01*
X125479858Y-111491174D01*
X125503750Y-111490000D01*
X126416250Y-111490000D01*
X126440142Y-111491174D01*
X126440142Y-111491174D01*
G37*
D13*
X125960000Y-111977500D03*
G04 #@! TD*
D12*
G04 #@! TO.C,R14*
G36*
X124440142Y-111491174D02*
X124463803Y-111494684D01*
X124487007Y-111500496D01*
X124509529Y-111508554D01*
X124531153Y-111518782D01*
X124551670Y-111531079D01*
X124570883Y-111545329D01*
X124588607Y-111561393D01*
X124604671Y-111579117D01*
X124618921Y-111598330D01*
X124631218Y-111618847D01*
X124641446Y-111640471D01*
X124649504Y-111662993D01*
X124655316Y-111686197D01*
X124658826Y-111709858D01*
X124660000Y-111733750D01*
X124660000Y-112221250D01*
X124658826Y-112245142D01*
X124655316Y-112268803D01*
X124649504Y-112292007D01*
X124641446Y-112314529D01*
X124631218Y-112336153D01*
X124618921Y-112356670D01*
X124604671Y-112375883D01*
X124588607Y-112393607D01*
X124570883Y-112409671D01*
X124551670Y-112423921D01*
X124531153Y-112436218D01*
X124509529Y-112446446D01*
X124487007Y-112454504D01*
X124463803Y-112460316D01*
X124440142Y-112463826D01*
X124416250Y-112465000D01*
X123503750Y-112465000D01*
X123479858Y-112463826D01*
X123456197Y-112460316D01*
X123432993Y-112454504D01*
X123410471Y-112446446D01*
X123388847Y-112436218D01*
X123368330Y-112423921D01*
X123349117Y-112409671D01*
X123331393Y-112393607D01*
X123315329Y-112375883D01*
X123301079Y-112356670D01*
X123288782Y-112336153D01*
X123278554Y-112314529D01*
X123270496Y-112292007D01*
X123264684Y-112268803D01*
X123261174Y-112245142D01*
X123260000Y-112221250D01*
X123260000Y-111733750D01*
X123261174Y-111709858D01*
X123264684Y-111686197D01*
X123270496Y-111662993D01*
X123278554Y-111640471D01*
X123288782Y-111618847D01*
X123301079Y-111598330D01*
X123315329Y-111579117D01*
X123331393Y-111561393D01*
X123349117Y-111545329D01*
X123368330Y-111531079D01*
X123388847Y-111518782D01*
X123410471Y-111508554D01*
X123432993Y-111500496D01*
X123456197Y-111494684D01*
X123479858Y-111491174D01*
X123503750Y-111490000D01*
X124416250Y-111490000D01*
X124440142Y-111491174D01*
X124440142Y-111491174D01*
G37*
D13*
X123960000Y-111977500D03*
D12*
G36*
X124440142Y-109616174D02*
X124463803Y-109619684D01*
X124487007Y-109625496D01*
X124509529Y-109633554D01*
X124531153Y-109643782D01*
X124551670Y-109656079D01*
X124570883Y-109670329D01*
X124588607Y-109686393D01*
X124604671Y-109704117D01*
X124618921Y-109723330D01*
X124631218Y-109743847D01*
X124641446Y-109765471D01*
X124649504Y-109787993D01*
X124655316Y-109811197D01*
X124658826Y-109834858D01*
X124660000Y-109858750D01*
X124660000Y-110346250D01*
X124658826Y-110370142D01*
X124655316Y-110393803D01*
X124649504Y-110417007D01*
X124641446Y-110439529D01*
X124631218Y-110461153D01*
X124618921Y-110481670D01*
X124604671Y-110500883D01*
X124588607Y-110518607D01*
X124570883Y-110534671D01*
X124551670Y-110548921D01*
X124531153Y-110561218D01*
X124509529Y-110571446D01*
X124487007Y-110579504D01*
X124463803Y-110585316D01*
X124440142Y-110588826D01*
X124416250Y-110590000D01*
X123503750Y-110590000D01*
X123479858Y-110588826D01*
X123456197Y-110585316D01*
X123432993Y-110579504D01*
X123410471Y-110571446D01*
X123388847Y-110561218D01*
X123368330Y-110548921D01*
X123349117Y-110534671D01*
X123331393Y-110518607D01*
X123315329Y-110500883D01*
X123301079Y-110481670D01*
X123288782Y-110461153D01*
X123278554Y-110439529D01*
X123270496Y-110417007D01*
X123264684Y-110393803D01*
X123261174Y-110370142D01*
X123260000Y-110346250D01*
X123260000Y-109858750D01*
X123261174Y-109834858D01*
X123264684Y-109811197D01*
X123270496Y-109787993D01*
X123278554Y-109765471D01*
X123288782Y-109743847D01*
X123301079Y-109723330D01*
X123315329Y-109704117D01*
X123331393Y-109686393D01*
X123349117Y-109670329D01*
X123368330Y-109656079D01*
X123388847Y-109643782D01*
X123410471Y-109633554D01*
X123432993Y-109625496D01*
X123456197Y-109619684D01*
X123479858Y-109616174D01*
X123503750Y-109615000D01*
X124416250Y-109615000D01*
X124440142Y-109616174D01*
X124440142Y-109616174D01*
G37*
D13*
X123960000Y-110102500D03*
G04 #@! TD*
D12*
G04 #@! TO.C,R1*
G36*
X74140142Y-116940174D02*
X74163803Y-116943684D01*
X74187007Y-116949496D01*
X74209529Y-116957554D01*
X74231153Y-116967782D01*
X74251670Y-116980079D01*
X74270883Y-116994329D01*
X74288607Y-117010393D01*
X74304671Y-117028117D01*
X74318921Y-117047330D01*
X74331218Y-117067847D01*
X74341446Y-117089471D01*
X74349504Y-117111993D01*
X74355316Y-117135197D01*
X74358826Y-117158858D01*
X74360000Y-117182750D01*
X74360000Y-117670250D01*
X74358826Y-117694142D01*
X74355316Y-117717803D01*
X74349504Y-117741007D01*
X74341446Y-117763529D01*
X74331218Y-117785153D01*
X74318921Y-117805670D01*
X74304671Y-117824883D01*
X74288607Y-117842607D01*
X74270883Y-117858671D01*
X74251670Y-117872921D01*
X74231153Y-117885218D01*
X74209529Y-117895446D01*
X74187007Y-117903504D01*
X74163803Y-117909316D01*
X74140142Y-117912826D01*
X74116250Y-117914000D01*
X73203750Y-117914000D01*
X73179858Y-117912826D01*
X73156197Y-117909316D01*
X73132993Y-117903504D01*
X73110471Y-117895446D01*
X73088847Y-117885218D01*
X73068330Y-117872921D01*
X73049117Y-117858671D01*
X73031393Y-117842607D01*
X73015329Y-117824883D01*
X73001079Y-117805670D01*
X72988782Y-117785153D01*
X72978554Y-117763529D01*
X72970496Y-117741007D01*
X72964684Y-117717803D01*
X72961174Y-117694142D01*
X72960000Y-117670250D01*
X72960000Y-117182750D01*
X72961174Y-117158858D01*
X72964684Y-117135197D01*
X72970496Y-117111993D01*
X72978554Y-117089471D01*
X72988782Y-117067847D01*
X73001079Y-117047330D01*
X73015329Y-117028117D01*
X73031393Y-117010393D01*
X73049117Y-116994329D01*
X73068330Y-116980079D01*
X73088847Y-116967782D01*
X73110471Y-116957554D01*
X73132993Y-116949496D01*
X73156197Y-116943684D01*
X73179858Y-116940174D01*
X73203750Y-116939000D01*
X74116250Y-116939000D01*
X74140142Y-116940174D01*
X74140142Y-116940174D01*
G37*
D13*
X73660000Y-117426500D03*
D12*
G36*
X74140142Y-118815174D02*
X74163803Y-118818684D01*
X74187007Y-118824496D01*
X74209529Y-118832554D01*
X74231153Y-118842782D01*
X74251670Y-118855079D01*
X74270883Y-118869329D01*
X74288607Y-118885393D01*
X74304671Y-118903117D01*
X74318921Y-118922330D01*
X74331218Y-118942847D01*
X74341446Y-118964471D01*
X74349504Y-118986993D01*
X74355316Y-119010197D01*
X74358826Y-119033858D01*
X74360000Y-119057750D01*
X74360000Y-119545250D01*
X74358826Y-119569142D01*
X74355316Y-119592803D01*
X74349504Y-119616007D01*
X74341446Y-119638529D01*
X74331218Y-119660153D01*
X74318921Y-119680670D01*
X74304671Y-119699883D01*
X74288607Y-119717607D01*
X74270883Y-119733671D01*
X74251670Y-119747921D01*
X74231153Y-119760218D01*
X74209529Y-119770446D01*
X74187007Y-119778504D01*
X74163803Y-119784316D01*
X74140142Y-119787826D01*
X74116250Y-119789000D01*
X73203750Y-119789000D01*
X73179858Y-119787826D01*
X73156197Y-119784316D01*
X73132993Y-119778504D01*
X73110471Y-119770446D01*
X73088847Y-119760218D01*
X73068330Y-119747921D01*
X73049117Y-119733671D01*
X73031393Y-119717607D01*
X73015329Y-119699883D01*
X73001079Y-119680670D01*
X72988782Y-119660153D01*
X72978554Y-119638529D01*
X72970496Y-119616007D01*
X72964684Y-119592803D01*
X72961174Y-119569142D01*
X72960000Y-119545250D01*
X72960000Y-119057750D01*
X72961174Y-119033858D01*
X72964684Y-119010197D01*
X72970496Y-118986993D01*
X72978554Y-118964471D01*
X72988782Y-118942847D01*
X73001079Y-118922330D01*
X73015329Y-118903117D01*
X73031393Y-118885393D01*
X73049117Y-118869329D01*
X73068330Y-118855079D01*
X73088847Y-118842782D01*
X73110471Y-118832554D01*
X73132993Y-118824496D01*
X73156197Y-118818684D01*
X73179858Y-118815174D01*
X73203750Y-118814000D01*
X74116250Y-118814000D01*
X74140142Y-118815174D01*
X74140142Y-118815174D01*
G37*
D13*
X73660000Y-119301500D03*
G04 #@! TD*
D12*
G04 #@! TO.C,R12*
G36*
X100889142Y-90725174D02*
X100912803Y-90728684D01*
X100936007Y-90734496D01*
X100958529Y-90742554D01*
X100980153Y-90752782D01*
X101000670Y-90765079D01*
X101019883Y-90779329D01*
X101037607Y-90795393D01*
X101053671Y-90813117D01*
X101067921Y-90832330D01*
X101080218Y-90852847D01*
X101090446Y-90874471D01*
X101098504Y-90896993D01*
X101104316Y-90920197D01*
X101107826Y-90943858D01*
X101109000Y-90967750D01*
X101109000Y-91455250D01*
X101107826Y-91479142D01*
X101104316Y-91502803D01*
X101098504Y-91526007D01*
X101090446Y-91548529D01*
X101080218Y-91570153D01*
X101067921Y-91590670D01*
X101053671Y-91609883D01*
X101037607Y-91627607D01*
X101019883Y-91643671D01*
X101000670Y-91657921D01*
X100980153Y-91670218D01*
X100958529Y-91680446D01*
X100936007Y-91688504D01*
X100912803Y-91694316D01*
X100889142Y-91697826D01*
X100865250Y-91699000D01*
X99952750Y-91699000D01*
X99928858Y-91697826D01*
X99905197Y-91694316D01*
X99881993Y-91688504D01*
X99859471Y-91680446D01*
X99837847Y-91670218D01*
X99817330Y-91657921D01*
X99798117Y-91643671D01*
X99780393Y-91627607D01*
X99764329Y-91609883D01*
X99750079Y-91590670D01*
X99737782Y-91570153D01*
X99727554Y-91548529D01*
X99719496Y-91526007D01*
X99713684Y-91502803D01*
X99710174Y-91479142D01*
X99709000Y-91455250D01*
X99709000Y-90967750D01*
X99710174Y-90943858D01*
X99713684Y-90920197D01*
X99719496Y-90896993D01*
X99727554Y-90874471D01*
X99737782Y-90852847D01*
X99750079Y-90832330D01*
X99764329Y-90813117D01*
X99780393Y-90795393D01*
X99798117Y-90779329D01*
X99817330Y-90765079D01*
X99837847Y-90752782D01*
X99859471Y-90742554D01*
X99881993Y-90734496D01*
X99905197Y-90728684D01*
X99928858Y-90725174D01*
X99952750Y-90724000D01*
X100865250Y-90724000D01*
X100889142Y-90725174D01*
X100889142Y-90725174D01*
G37*
D13*
X100409000Y-91211500D03*
D12*
G36*
X100889142Y-88850174D02*
X100912803Y-88853684D01*
X100936007Y-88859496D01*
X100958529Y-88867554D01*
X100980153Y-88877782D01*
X101000670Y-88890079D01*
X101019883Y-88904329D01*
X101037607Y-88920393D01*
X101053671Y-88938117D01*
X101067921Y-88957330D01*
X101080218Y-88977847D01*
X101090446Y-88999471D01*
X101098504Y-89021993D01*
X101104316Y-89045197D01*
X101107826Y-89068858D01*
X101109000Y-89092750D01*
X101109000Y-89580250D01*
X101107826Y-89604142D01*
X101104316Y-89627803D01*
X101098504Y-89651007D01*
X101090446Y-89673529D01*
X101080218Y-89695153D01*
X101067921Y-89715670D01*
X101053671Y-89734883D01*
X101037607Y-89752607D01*
X101019883Y-89768671D01*
X101000670Y-89782921D01*
X100980153Y-89795218D01*
X100958529Y-89805446D01*
X100936007Y-89813504D01*
X100912803Y-89819316D01*
X100889142Y-89822826D01*
X100865250Y-89824000D01*
X99952750Y-89824000D01*
X99928858Y-89822826D01*
X99905197Y-89819316D01*
X99881993Y-89813504D01*
X99859471Y-89805446D01*
X99837847Y-89795218D01*
X99817330Y-89782921D01*
X99798117Y-89768671D01*
X99780393Y-89752607D01*
X99764329Y-89734883D01*
X99750079Y-89715670D01*
X99737782Y-89695153D01*
X99727554Y-89673529D01*
X99719496Y-89651007D01*
X99713684Y-89627803D01*
X99710174Y-89604142D01*
X99709000Y-89580250D01*
X99709000Y-89092750D01*
X99710174Y-89068858D01*
X99713684Y-89045197D01*
X99719496Y-89021993D01*
X99727554Y-88999471D01*
X99737782Y-88977847D01*
X99750079Y-88957330D01*
X99764329Y-88938117D01*
X99780393Y-88920393D01*
X99798117Y-88904329D01*
X99817330Y-88890079D01*
X99837847Y-88877782D01*
X99859471Y-88867554D01*
X99881993Y-88859496D01*
X99905197Y-88853684D01*
X99928858Y-88850174D01*
X99952750Y-88849000D01*
X100865250Y-88849000D01*
X100889142Y-88850174D01*
X100889142Y-88850174D01*
G37*
D13*
X100409000Y-89336500D03*
G04 #@! TD*
D12*
G04 #@! TO.C,R2*
G36*
X69568142Y-115670174D02*
X69591803Y-115673684D01*
X69615007Y-115679496D01*
X69637529Y-115687554D01*
X69659153Y-115697782D01*
X69679670Y-115710079D01*
X69698883Y-115724329D01*
X69716607Y-115740393D01*
X69732671Y-115758117D01*
X69746921Y-115777330D01*
X69759218Y-115797847D01*
X69769446Y-115819471D01*
X69777504Y-115841993D01*
X69783316Y-115865197D01*
X69786826Y-115888858D01*
X69788000Y-115912750D01*
X69788000Y-116400250D01*
X69786826Y-116424142D01*
X69783316Y-116447803D01*
X69777504Y-116471007D01*
X69769446Y-116493529D01*
X69759218Y-116515153D01*
X69746921Y-116535670D01*
X69732671Y-116554883D01*
X69716607Y-116572607D01*
X69698883Y-116588671D01*
X69679670Y-116602921D01*
X69659153Y-116615218D01*
X69637529Y-116625446D01*
X69615007Y-116633504D01*
X69591803Y-116639316D01*
X69568142Y-116642826D01*
X69544250Y-116644000D01*
X68631750Y-116644000D01*
X68607858Y-116642826D01*
X68584197Y-116639316D01*
X68560993Y-116633504D01*
X68538471Y-116625446D01*
X68516847Y-116615218D01*
X68496330Y-116602921D01*
X68477117Y-116588671D01*
X68459393Y-116572607D01*
X68443329Y-116554883D01*
X68429079Y-116535670D01*
X68416782Y-116515153D01*
X68406554Y-116493529D01*
X68398496Y-116471007D01*
X68392684Y-116447803D01*
X68389174Y-116424142D01*
X68388000Y-116400250D01*
X68388000Y-115912750D01*
X68389174Y-115888858D01*
X68392684Y-115865197D01*
X68398496Y-115841993D01*
X68406554Y-115819471D01*
X68416782Y-115797847D01*
X68429079Y-115777330D01*
X68443329Y-115758117D01*
X68459393Y-115740393D01*
X68477117Y-115724329D01*
X68496330Y-115710079D01*
X68516847Y-115697782D01*
X68538471Y-115687554D01*
X68560993Y-115679496D01*
X68584197Y-115673684D01*
X68607858Y-115670174D01*
X68631750Y-115669000D01*
X69544250Y-115669000D01*
X69568142Y-115670174D01*
X69568142Y-115670174D01*
G37*
D13*
X69088000Y-116156500D03*
D12*
G36*
X69568142Y-117545174D02*
X69591803Y-117548684D01*
X69615007Y-117554496D01*
X69637529Y-117562554D01*
X69659153Y-117572782D01*
X69679670Y-117585079D01*
X69698883Y-117599329D01*
X69716607Y-117615393D01*
X69732671Y-117633117D01*
X69746921Y-117652330D01*
X69759218Y-117672847D01*
X69769446Y-117694471D01*
X69777504Y-117716993D01*
X69783316Y-117740197D01*
X69786826Y-117763858D01*
X69788000Y-117787750D01*
X69788000Y-118275250D01*
X69786826Y-118299142D01*
X69783316Y-118322803D01*
X69777504Y-118346007D01*
X69769446Y-118368529D01*
X69759218Y-118390153D01*
X69746921Y-118410670D01*
X69732671Y-118429883D01*
X69716607Y-118447607D01*
X69698883Y-118463671D01*
X69679670Y-118477921D01*
X69659153Y-118490218D01*
X69637529Y-118500446D01*
X69615007Y-118508504D01*
X69591803Y-118514316D01*
X69568142Y-118517826D01*
X69544250Y-118519000D01*
X68631750Y-118519000D01*
X68607858Y-118517826D01*
X68584197Y-118514316D01*
X68560993Y-118508504D01*
X68538471Y-118500446D01*
X68516847Y-118490218D01*
X68496330Y-118477921D01*
X68477117Y-118463671D01*
X68459393Y-118447607D01*
X68443329Y-118429883D01*
X68429079Y-118410670D01*
X68416782Y-118390153D01*
X68406554Y-118368529D01*
X68398496Y-118346007D01*
X68392684Y-118322803D01*
X68389174Y-118299142D01*
X68388000Y-118275250D01*
X68388000Y-117787750D01*
X68389174Y-117763858D01*
X68392684Y-117740197D01*
X68398496Y-117716993D01*
X68406554Y-117694471D01*
X68416782Y-117672847D01*
X68429079Y-117652330D01*
X68443329Y-117633117D01*
X68459393Y-117615393D01*
X68477117Y-117599329D01*
X68496330Y-117585079D01*
X68516847Y-117572782D01*
X68538471Y-117562554D01*
X68560993Y-117554496D01*
X68584197Y-117548684D01*
X68607858Y-117545174D01*
X68631750Y-117544000D01*
X69544250Y-117544000D01*
X69568142Y-117545174D01*
X69568142Y-117545174D01*
G37*
D13*
X69088000Y-118031500D03*
G04 #@! TD*
M02*
