G04 #@! TF.GenerationSoftware,KiCad,Pcbnew,5.1.4-e60b266~84~ubuntu16.04.1*
G04 #@! TF.CreationDate,2019-10-09T19:58:53-07:00*
G04 #@! TF.ProjectId,birdEar,62697264-4561-4722-9e6b-696361645f70,rev?*
G04 #@! TF.SameCoordinates,Original*
G04 #@! TF.FileFunction,Soldermask,Bot*
G04 #@! TF.FilePolarity,Negative*
%FSLAX46Y46*%
G04 Gerber Fmt 4.6, Leading zero omitted, Abs format (unit mm)*
G04 Created by KiCad (PCBNEW 5.1.4-e60b266~84~ubuntu16.04.1) date 2019-10-09 19:58:53*
%MOMM*%
%LPD*%
G04 APERTURE LIST*
%ADD10C,0.100000*%
G04 APERTURE END LIST*
D10*
G36*
X159048039Y-148932250D02*
G01*
X159237372Y-149010675D01*
X159371251Y-149066129D01*
X159662134Y-149260491D01*
X159909509Y-149507866D01*
X160103871Y-149798749D01*
X160103871Y-149798750D01*
X160237750Y-150121961D01*
X160306000Y-150465078D01*
X160306000Y-150814922D01*
X160237750Y-151158039D01*
X160159325Y-151347372D01*
X160103871Y-151481251D01*
X159909509Y-151772134D01*
X159662134Y-152019509D01*
X159371251Y-152213871D01*
X159237372Y-152269325D01*
X159048039Y-152347750D01*
X158704922Y-152416000D01*
X158355078Y-152416000D01*
X158011961Y-152347750D01*
X157822628Y-152269325D01*
X157688749Y-152213871D01*
X157397866Y-152019509D01*
X157150491Y-151772134D01*
X156956129Y-151481251D01*
X156900675Y-151347372D01*
X156822250Y-151158039D01*
X156754000Y-150814922D01*
X156754000Y-150465078D01*
X156822250Y-150121961D01*
X156956129Y-149798750D01*
X156956129Y-149798749D01*
X157150491Y-149507866D01*
X157397866Y-149260491D01*
X157688749Y-149066129D01*
X157822628Y-149010675D01*
X158011961Y-148932250D01*
X158355078Y-148864000D01*
X158704922Y-148864000D01*
X159048039Y-148932250D01*
X159048039Y-148932250D01*
G37*
G36*
X134730442Y-150235518D02*
G01*
X134796627Y-150242037D01*
X134966466Y-150293557D01*
X135122991Y-150377222D01*
X135158729Y-150406552D01*
X135260186Y-150489814D01*
X135343448Y-150591271D01*
X135372778Y-150627009D01*
X135456443Y-150783534D01*
X135507963Y-150953373D01*
X135525359Y-151130000D01*
X135507963Y-151306627D01*
X135456443Y-151476466D01*
X135372778Y-151632991D01*
X135343448Y-151668729D01*
X135260186Y-151770186D01*
X135158729Y-151853448D01*
X135122991Y-151882778D01*
X134966466Y-151966443D01*
X134796627Y-152017963D01*
X134730442Y-152024482D01*
X134664260Y-152031000D01*
X134575740Y-152031000D01*
X134509558Y-152024482D01*
X134443373Y-152017963D01*
X134273534Y-151966443D01*
X134117009Y-151882778D01*
X134081271Y-151853448D01*
X133979814Y-151770186D01*
X133896552Y-151668729D01*
X133867222Y-151632991D01*
X133783557Y-151476466D01*
X133732037Y-151306627D01*
X133714641Y-151130000D01*
X133732037Y-150953373D01*
X133783557Y-150783534D01*
X133867222Y-150627009D01*
X133896552Y-150591271D01*
X133979814Y-150489814D01*
X134081271Y-150406552D01*
X134117009Y-150377222D01*
X134273534Y-150293557D01*
X134443373Y-150242037D01*
X134509558Y-150235518D01*
X134575740Y-150229000D01*
X134664260Y-150229000D01*
X134730442Y-150235518D01*
X134730442Y-150235518D01*
G37*
G36*
X135521000Y-149491000D02*
G01*
X133719000Y-149491000D01*
X133719000Y-147689000D01*
X135521000Y-147689000D01*
X135521000Y-149491000D01*
X135521000Y-149491000D01*
G37*
G36*
X87007000Y-146697000D02*
G01*
X85205000Y-146697000D01*
X85205000Y-144895000D01*
X87007000Y-144895000D01*
X87007000Y-146697000D01*
X87007000Y-146697000D01*
G37*
G36*
X83676442Y-144901518D02*
G01*
X83742627Y-144908037D01*
X83912466Y-144959557D01*
X84068991Y-145043222D01*
X84104729Y-145072552D01*
X84206186Y-145155814D01*
X84289448Y-145257271D01*
X84318778Y-145293009D01*
X84402443Y-145449534D01*
X84453963Y-145619373D01*
X84471359Y-145796000D01*
X84453963Y-145972627D01*
X84402443Y-146142466D01*
X84318778Y-146298991D01*
X84289448Y-146334729D01*
X84206186Y-146436186D01*
X84104729Y-146519448D01*
X84068991Y-146548778D01*
X83912466Y-146632443D01*
X83742627Y-146683963D01*
X83676443Y-146690481D01*
X83610260Y-146697000D01*
X83521740Y-146697000D01*
X83455557Y-146690481D01*
X83389373Y-146683963D01*
X83219534Y-146632443D01*
X83063009Y-146548778D01*
X83027271Y-146519448D01*
X82925814Y-146436186D01*
X82842552Y-146334729D01*
X82813222Y-146298991D01*
X82729557Y-146142466D01*
X82678037Y-145972627D01*
X82660641Y-145796000D01*
X82678037Y-145619373D01*
X82729557Y-145449534D01*
X82813222Y-145293009D01*
X82842552Y-145257271D01*
X82925814Y-145155814D01*
X83027271Y-145072552D01*
X83063009Y-145043222D01*
X83219534Y-144959557D01*
X83389373Y-144908037D01*
X83455558Y-144901518D01*
X83521740Y-144895000D01*
X83610260Y-144895000D01*
X83676442Y-144901518D01*
X83676442Y-144901518D01*
G37*
G36*
X111362443Y-139821519D02*
G01*
X111428627Y-139828037D01*
X111598466Y-139879557D01*
X111754991Y-139963222D01*
X111790729Y-139992552D01*
X111892186Y-140075814D01*
X111975448Y-140177271D01*
X112004778Y-140213009D01*
X112088443Y-140369534D01*
X112139963Y-140539373D01*
X112157359Y-140716000D01*
X112139963Y-140892627D01*
X112088443Y-141062466D01*
X112004778Y-141218991D01*
X111975448Y-141254729D01*
X111892186Y-141356186D01*
X111790729Y-141439448D01*
X111754991Y-141468778D01*
X111598466Y-141552443D01*
X111428627Y-141603963D01*
X111362443Y-141610481D01*
X111296260Y-141617000D01*
X111207740Y-141617000D01*
X111141557Y-141610481D01*
X111075373Y-141603963D01*
X110905534Y-141552443D01*
X110749009Y-141468778D01*
X110713271Y-141439448D01*
X110611814Y-141356186D01*
X110528552Y-141254729D01*
X110499222Y-141218991D01*
X110415557Y-141062466D01*
X110364037Y-140892627D01*
X110346641Y-140716000D01*
X110364037Y-140539373D01*
X110415557Y-140369534D01*
X110499222Y-140213009D01*
X110528552Y-140177271D01*
X110611814Y-140075814D01*
X110713271Y-139992552D01*
X110749009Y-139963222D01*
X110905534Y-139879557D01*
X111075373Y-139828037D01*
X111141557Y-139821519D01*
X111207740Y-139815000D01*
X111296260Y-139815000D01*
X111362443Y-139821519D01*
X111362443Y-139821519D01*
G37*
G36*
X111362442Y-137281518D02*
G01*
X111428627Y-137288037D01*
X111598466Y-137339557D01*
X111754991Y-137423222D01*
X111790729Y-137452552D01*
X111892186Y-137535814D01*
X111975448Y-137637271D01*
X112004778Y-137673009D01*
X112088443Y-137829534D01*
X112139963Y-137999373D01*
X112157359Y-138176000D01*
X112139963Y-138352627D01*
X112088443Y-138522466D01*
X112004778Y-138678991D01*
X111975448Y-138714729D01*
X111892186Y-138816186D01*
X111790729Y-138899448D01*
X111754991Y-138928778D01*
X111598466Y-139012443D01*
X111428627Y-139063963D01*
X111362442Y-139070482D01*
X111296260Y-139077000D01*
X111207740Y-139077000D01*
X111141558Y-139070482D01*
X111075373Y-139063963D01*
X110905534Y-139012443D01*
X110749009Y-138928778D01*
X110713271Y-138899448D01*
X110611814Y-138816186D01*
X110528552Y-138714729D01*
X110499222Y-138678991D01*
X110415557Y-138522466D01*
X110364037Y-138352627D01*
X110346641Y-138176000D01*
X110364037Y-137999373D01*
X110415557Y-137829534D01*
X110499222Y-137673009D01*
X110528552Y-137637271D01*
X110611814Y-137535814D01*
X110713271Y-137452552D01*
X110749009Y-137423222D01*
X110905534Y-137339557D01*
X111075373Y-137288037D01*
X111141558Y-137281518D01*
X111207740Y-137275000D01*
X111296260Y-137275000D01*
X111362442Y-137281518D01*
X111362442Y-137281518D01*
G37*
G36*
X112153000Y-136537000D02*
G01*
X110351000Y-136537000D01*
X110351000Y-134735000D01*
X112153000Y-134735000D01*
X112153000Y-136537000D01*
X112153000Y-136537000D01*
G37*
G36*
X85454442Y-131185518D02*
G01*
X85520627Y-131192037D01*
X85690466Y-131243557D01*
X85846991Y-131327222D01*
X85882729Y-131356552D01*
X85984186Y-131439814D01*
X86067448Y-131541271D01*
X86096778Y-131577009D01*
X86180443Y-131733534D01*
X86231963Y-131903373D01*
X86249359Y-132080000D01*
X86231963Y-132256627D01*
X86180443Y-132426466D01*
X86096778Y-132582991D01*
X86067448Y-132618729D01*
X85984186Y-132720186D01*
X85882729Y-132803448D01*
X85846991Y-132832778D01*
X85690466Y-132916443D01*
X85520627Y-132967963D01*
X85454443Y-132974481D01*
X85388260Y-132981000D01*
X85299740Y-132981000D01*
X85233557Y-132974481D01*
X85167373Y-132967963D01*
X84997534Y-132916443D01*
X84841009Y-132832778D01*
X84805271Y-132803448D01*
X84703814Y-132720186D01*
X84620552Y-132618729D01*
X84591222Y-132582991D01*
X84507557Y-132426466D01*
X84456037Y-132256627D01*
X84438641Y-132080000D01*
X84456037Y-131903373D01*
X84507557Y-131733534D01*
X84591222Y-131577009D01*
X84620552Y-131541271D01*
X84703814Y-131439814D01*
X84805271Y-131356552D01*
X84841009Y-131327222D01*
X84997534Y-131243557D01*
X85167373Y-131192037D01*
X85233558Y-131185518D01*
X85299740Y-131179000D01*
X85388260Y-131179000D01*
X85454442Y-131185518D01*
X85454442Y-131185518D01*
G37*
G36*
X85454443Y-128645519D02*
G01*
X85520627Y-128652037D01*
X85690466Y-128703557D01*
X85846991Y-128787222D01*
X85882729Y-128816552D01*
X85984186Y-128899814D01*
X86067448Y-129001271D01*
X86096778Y-129037009D01*
X86180443Y-129193534D01*
X86231963Y-129363373D01*
X86249359Y-129540000D01*
X86231963Y-129716627D01*
X86180443Y-129886466D01*
X86096778Y-130042991D01*
X86067448Y-130078729D01*
X85984186Y-130180186D01*
X85882729Y-130263448D01*
X85846991Y-130292778D01*
X85690466Y-130376443D01*
X85520627Y-130427963D01*
X85454443Y-130434481D01*
X85388260Y-130441000D01*
X85299740Y-130441000D01*
X85233557Y-130434481D01*
X85167373Y-130427963D01*
X84997534Y-130376443D01*
X84841009Y-130292778D01*
X84805271Y-130263448D01*
X84703814Y-130180186D01*
X84620552Y-130078729D01*
X84591222Y-130042991D01*
X84507557Y-129886466D01*
X84456037Y-129716627D01*
X84438641Y-129540000D01*
X84456037Y-129363373D01*
X84507557Y-129193534D01*
X84591222Y-129037009D01*
X84620552Y-129001271D01*
X84703814Y-128899814D01*
X84805271Y-128816552D01*
X84841009Y-128787222D01*
X84997534Y-128703557D01*
X85167373Y-128652037D01*
X85233557Y-128645519D01*
X85299740Y-128639000D01*
X85388260Y-128639000D01*
X85454443Y-128645519D01*
X85454443Y-128645519D01*
G37*
G36*
X85454443Y-126105519D02*
G01*
X85520627Y-126112037D01*
X85690466Y-126163557D01*
X85846991Y-126247222D01*
X85882729Y-126276552D01*
X85984186Y-126359814D01*
X86067448Y-126461271D01*
X86096778Y-126497009D01*
X86180443Y-126653534D01*
X86231963Y-126823373D01*
X86249359Y-127000000D01*
X86231963Y-127176627D01*
X86180443Y-127346466D01*
X86096778Y-127502991D01*
X86067448Y-127538729D01*
X85984186Y-127640186D01*
X85882729Y-127723448D01*
X85846991Y-127752778D01*
X85690466Y-127836443D01*
X85520627Y-127887963D01*
X85454442Y-127894482D01*
X85388260Y-127901000D01*
X85299740Y-127901000D01*
X85233558Y-127894482D01*
X85167373Y-127887963D01*
X84997534Y-127836443D01*
X84841009Y-127752778D01*
X84805271Y-127723448D01*
X84703814Y-127640186D01*
X84620552Y-127538729D01*
X84591222Y-127502991D01*
X84507557Y-127346466D01*
X84456037Y-127176627D01*
X84438641Y-127000000D01*
X84456037Y-126823373D01*
X84507557Y-126653534D01*
X84591222Y-126497009D01*
X84620552Y-126461271D01*
X84703814Y-126359814D01*
X84805271Y-126276552D01*
X84841009Y-126247222D01*
X84997534Y-126163557D01*
X85167373Y-126112037D01*
X85233557Y-126105519D01*
X85299740Y-126099000D01*
X85388260Y-126099000D01*
X85454443Y-126105519D01*
X85454443Y-126105519D01*
G37*
G36*
X85454442Y-123565518D02*
G01*
X85520627Y-123572037D01*
X85690466Y-123623557D01*
X85846991Y-123707222D01*
X85882729Y-123736552D01*
X85984186Y-123819814D01*
X86067448Y-123921271D01*
X86096778Y-123957009D01*
X86180443Y-124113534D01*
X86231963Y-124283373D01*
X86249359Y-124460000D01*
X86231963Y-124636627D01*
X86180443Y-124806466D01*
X86096778Y-124962991D01*
X86067448Y-124998729D01*
X85984186Y-125100186D01*
X85882729Y-125183448D01*
X85846991Y-125212778D01*
X85690466Y-125296443D01*
X85520627Y-125347963D01*
X85454442Y-125354482D01*
X85388260Y-125361000D01*
X85299740Y-125361000D01*
X85233558Y-125354482D01*
X85167373Y-125347963D01*
X84997534Y-125296443D01*
X84841009Y-125212778D01*
X84805271Y-125183448D01*
X84703814Y-125100186D01*
X84620552Y-124998729D01*
X84591222Y-124962991D01*
X84507557Y-124806466D01*
X84456037Y-124636627D01*
X84438641Y-124460000D01*
X84456037Y-124283373D01*
X84507557Y-124113534D01*
X84591222Y-123957009D01*
X84620552Y-123921271D01*
X84703814Y-123819814D01*
X84805271Y-123736552D01*
X84841009Y-123707222D01*
X84997534Y-123623557D01*
X85167373Y-123572037D01*
X85233558Y-123565518D01*
X85299740Y-123559000D01*
X85388260Y-123559000D01*
X85454442Y-123565518D01*
X85454442Y-123565518D01*
G37*
G36*
X125205442Y-123565518D02*
G01*
X125271627Y-123572037D01*
X125441466Y-123623557D01*
X125597991Y-123707222D01*
X125633729Y-123736552D01*
X125735186Y-123819814D01*
X125818448Y-123921271D01*
X125847778Y-123957009D01*
X125931443Y-124113534D01*
X125982963Y-124283373D01*
X126000359Y-124460000D01*
X125982963Y-124636627D01*
X125931443Y-124806466D01*
X125847778Y-124962991D01*
X125818448Y-124998729D01*
X125735186Y-125100186D01*
X125633729Y-125183448D01*
X125597991Y-125212778D01*
X125441466Y-125296443D01*
X125271627Y-125347963D01*
X125205442Y-125354482D01*
X125139260Y-125361000D01*
X125050740Y-125361000D01*
X124984558Y-125354482D01*
X124918373Y-125347963D01*
X124748534Y-125296443D01*
X124592009Y-125212778D01*
X124556271Y-125183448D01*
X124454814Y-125100186D01*
X124371552Y-124998729D01*
X124342222Y-124962991D01*
X124258557Y-124806466D01*
X124207037Y-124636627D01*
X124189641Y-124460000D01*
X124207037Y-124283373D01*
X124258557Y-124113534D01*
X124342222Y-123957009D01*
X124371552Y-123921271D01*
X124454814Y-123819814D01*
X124556271Y-123736552D01*
X124592009Y-123707222D01*
X124748534Y-123623557D01*
X124918373Y-123572037D01*
X124984558Y-123565518D01*
X125050740Y-123559000D01*
X125139260Y-123559000D01*
X125205442Y-123565518D01*
X125205442Y-123565518D01*
G37*
G36*
X130285442Y-123565518D02*
G01*
X130351627Y-123572037D01*
X130521466Y-123623557D01*
X130677991Y-123707222D01*
X130713729Y-123736552D01*
X130815186Y-123819814D01*
X130898448Y-123921271D01*
X130927778Y-123957009D01*
X131011443Y-124113534D01*
X131062963Y-124283373D01*
X131080359Y-124460000D01*
X131062963Y-124636627D01*
X131011443Y-124806466D01*
X130927778Y-124962991D01*
X130898448Y-124998729D01*
X130815186Y-125100186D01*
X130713729Y-125183448D01*
X130677991Y-125212778D01*
X130521466Y-125296443D01*
X130351627Y-125347963D01*
X130285442Y-125354482D01*
X130219260Y-125361000D01*
X130130740Y-125361000D01*
X130064558Y-125354482D01*
X129998373Y-125347963D01*
X129828534Y-125296443D01*
X129672009Y-125212778D01*
X129636271Y-125183448D01*
X129534814Y-125100186D01*
X129451552Y-124998729D01*
X129422222Y-124962991D01*
X129338557Y-124806466D01*
X129287037Y-124636627D01*
X129269641Y-124460000D01*
X129287037Y-124283373D01*
X129338557Y-124113534D01*
X129422222Y-123957009D01*
X129451552Y-123921271D01*
X129534814Y-123819814D01*
X129636271Y-123736552D01*
X129672009Y-123707222D01*
X129828534Y-123623557D01*
X129998373Y-123572037D01*
X130064558Y-123565518D01*
X130130740Y-123559000D01*
X130219260Y-123559000D01*
X130285442Y-123565518D01*
X130285442Y-123565518D01*
G37*
G36*
X127745442Y-123565518D02*
G01*
X127811627Y-123572037D01*
X127981466Y-123623557D01*
X128137991Y-123707222D01*
X128173729Y-123736552D01*
X128275186Y-123819814D01*
X128358448Y-123921271D01*
X128387778Y-123957009D01*
X128471443Y-124113534D01*
X128522963Y-124283373D01*
X128540359Y-124460000D01*
X128522963Y-124636627D01*
X128471443Y-124806466D01*
X128387778Y-124962991D01*
X128358448Y-124998729D01*
X128275186Y-125100186D01*
X128173729Y-125183448D01*
X128137991Y-125212778D01*
X127981466Y-125296443D01*
X127811627Y-125347963D01*
X127745442Y-125354482D01*
X127679260Y-125361000D01*
X127590740Y-125361000D01*
X127524558Y-125354482D01*
X127458373Y-125347963D01*
X127288534Y-125296443D01*
X127132009Y-125212778D01*
X127096271Y-125183448D01*
X126994814Y-125100186D01*
X126911552Y-124998729D01*
X126882222Y-124962991D01*
X126798557Y-124806466D01*
X126747037Y-124636627D01*
X126729641Y-124460000D01*
X126747037Y-124283373D01*
X126798557Y-124113534D01*
X126882222Y-123957009D01*
X126911552Y-123921271D01*
X126994814Y-123819814D01*
X127096271Y-123736552D01*
X127132009Y-123707222D01*
X127288534Y-123623557D01*
X127458373Y-123572037D01*
X127524558Y-123565518D01*
X127590740Y-123559000D01*
X127679260Y-123559000D01*
X127745442Y-123565518D01*
X127745442Y-123565518D01*
G37*
G36*
X125205442Y-121025518D02*
G01*
X125271627Y-121032037D01*
X125441466Y-121083557D01*
X125597991Y-121167222D01*
X125633729Y-121196552D01*
X125735186Y-121279814D01*
X125818448Y-121381271D01*
X125847778Y-121417009D01*
X125931443Y-121573534D01*
X125982963Y-121743373D01*
X126000359Y-121920000D01*
X125982963Y-122096627D01*
X125931443Y-122266466D01*
X125847778Y-122422991D01*
X125818448Y-122458729D01*
X125735186Y-122560186D01*
X125633729Y-122643448D01*
X125597991Y-122672778D01*
X125441466Y-122756443D01*
X125271627Y-122807963D01*
X125205443Y-122814481D01*
X125139260Y-122821000D01*
X125050740Y-122821000D01*
X124984557Y-122814481D01*
X124918373Y-122807963D01*
X124748534Y-122756443D01*
X124592009Y-122672778D01*
X124556271Y-122643448D01*
X124454814Y-122560186D01*
X124371552Y-122458729D01*
X124342222Y-122422991D01*
X124258557Y-122266466D01*
X124207037Y-122096627D01*
X124189641Y-121920000D01*
X124207037Y-121743373D01*
X124258557Y-121573534D01*
X124342222Y-121417009D01*
X124371552Y-121381271D01*
X124454814Y-121279814D01*
X124556271Y-121196552D01*
X124592009Y-121167222D01*
X124748534Y-121083557D01*
X124918373Y-121032037D01*
X124984558Y-121025518D01*
X125050740Y-121019000D01*
X125139260Y-121019000D01*
X125205442Y-121025518D01*
X125205442Y-121025518D01*
G37*
G36*
X127745442Y-121025518D02*
G01*
X127811627Y-121032037D01*
X127981466Y-121083557D01*
X128137991Y-121167222D01*
X128173729Y-121196552D01*
X128275186Y-121279814D01*
X128358448Y-121381271D01*
X128387778Y-121417009D01*
X128471443Y-121573534D01*
X128522963Y-121743373D01*
X128540359Y-121920000D01*
X128522963Y-122096627D01*
X128471443Y-122266466D01*
X128387778Y-122422991D01*
X128358448Y-122458729D01*
X128275186Y-122560186D01*
X128173729Y-122643448D01*
X128137991Y-122672778D01*
X127981466Y-122756443D01*
X127811627Y-122807963D01*
X127745443Y-122814481D01*
X127679260Y-122821000D01*
X127590740Y-122821000D01*
X127524557Y-122814481D01*
X127458373Y-122807963D01*
X127288534Y-122756443D01*
X127132009Y-122672778D01*
X127096271Y-122643448D01*
X126994814Y-122560186D01*
X126911552Y-122458729D01*
X126882222Y-122422991D01*
X126798557Y-122266466D01*
X126747037Y-122096627D01*
X126729641Y-121920000D01*
X126747037Y-121743373D01*
X126798557Y-121573534D01*
X126882222Y-121417009D01*
X126911552Y-121381271D01*
X126994814Y-121279814D01*
X127096271Y-121196552D01*
X127132009Y-121167222D01*
X127288534Y-121083557D01*
X127458373Y-121032037D01*
X127524558Y-121025518D01*
X127590740Y-121019000D01*
X127679260Y-121019000D01*
X127745442Y-121025518D01*
X127745442Y-121025518D01*
G37*
G36*
X131076000Y-122821000D02*
G01*
X129274000Y-122821000D01*
X129274000Y-121019000D01*
X131076000Y-121019000D01*
X131076000Y-122821000D01*
X131076000Y-122821000D01*
G37*
G36*
X85454442Y-121025518D02*
G01*
X85520627Y-121032037D01*
X85690466Y-121083557D01*
X85846991Y-121167222D01*
X85882729Y-121196552D01*
X85984186Y-121279814D01*
X86067448Y-121381271D01*
X86096778Y-121417009D01*
X86180443Y-121573534D01*
X86231963Y-121743373D01*
X86249359Y-121920000D01*
X86231963Y-122096627D01*
X86180443Y-122266466D01*
X86096778Y-122422991D01*
X86067448Y-122458729D01*
X85984186Y-122560186D01*
X85882729Y-122643448D01*
X85846991Y-122672778D01*
X85690466Y-122756443D01*
X85520627Y-122807963D01*
X85454443Y-122814481D01*
X85388260Y-122821000D01*
X85299740Y-122821000D01*
X85233557Y-122814481D01*
X85167373Y-122807963D01*
X84997534Y-122756443D01*
X84841009Y-122672778D01*
X84805271Y-122643448D01*
X84703814Y-122560186D01*
X84620552Y-122458729D01*
X84591222Y-122422991D01*
X84507557Y-122266466D01*
X84456037Y-122096627D01*
X84438641Y-121920000D01*
X84456037Y-121743373D01*
X84507557Y-121573534D01*
X84591222Y-121417009D01*
X84620552Y-121381271D01*
X84703814Y-121279814D01*
X84805271Y-121196552D01*
X84841009Y-121167222D01*
X84997534Y-121083557D01*
X85167373Y-121032037D01*
X85233558Y-121025518D01*
X85299740Y-121019000D01*
X85388260Y-121019000D01*
X85454442Y-121025518D01*
X85454442Y-121025518D01*
G37*
G36*
X85454442Y-118485518D02*
G01*
X85520627Y-118492037D01*
X85690466Y-118543557D01*
X85846991Y-118627222D01*
X85882729Y-118656552D01*
X85984186Y-118739814D01*
X86067448Y-118841271D01*
X86096778Y-118877009D01*
X86180443Y-119033534D01*
X86231963Y-119203373D01*
X86249359Y-119380000D01*
X86231963Y-119556627D01*
X86180443Y-119726466D01*
X86096778Y-119882991D01*
X86067448Y-119918729D01*
X85984186Y-120020186D01*
X85882729Y-120103448D01*
X85846991Y-120132778D01*
X85690466Y-120216443D01*
X85520627Y-120267963D01*
X85454442Y-120274482D01*
X85388260Y-120281000D01*
X85299740Y-120281000D01*
X85233558Y-120274482D01*
X85167373Y-120267963D01*
X84997534Y-120216443D01*
X84841009Y-120132778D01*
X84805271Y-120103448D01*
X84703814Y-120020186D01*
X84620552Y-119918729D01*
X84591222Y-119882991D01*
X84507557Y-119726466D01*
X84456037Y-119556627D01*
X84438641Y-119380000D01*
X84456037Y-119203373D01*
X84507557Y-119033534D01*
X84591222Y-118877009D01*
X84620552Y-118841271D01*
X84703814Y-118739814D01*
X84805271Y-118656552D01*
X84841009Y-118627222D01*
X84997534Y-118543557D01*
X85167373Y-118492037D01*
X85233558Y-118485518D01*
X85299740Y-118479000D01*
X85388260Y-118479000D01*
X85454442Y-118485518D01*
X85454442Y-118485518D01*
G37*
G36*
X85454442Y-115945518D02*
G01*
X85520627Y-115952037D01*
X85690466Y-116003557D01*
X85846991Y-116087222D01*
X85882729Y-116116552D01*
X85984186Y-116199814D01*
X86067448Y-116301271D01*
X86096778Y-116337009D01*
X86180443Y-116493534D01*
X86231963Y-116663373D01*
X86249359Y-116840000D01*
X86231963Y-117016627D01*
X86180443Y-117186466D01*
X86096778Y-117342991D01*
X86067448Y-117378729D01*
X85984186Y-117480186D01*
X85882729Y-117563448D01*
X85846991Y-117592778D01*
X85690466Y-117676443D01*
X85520627Y-117727963D01*
X85454442Y-117734482D01*
X85388260Y-117741000D01*
X85299740Y-117741000D01*
X85233558Y-117734482D01*
X85167373Y-117727963D01*
X84997534Y-117676443D01*
X84841009Y-117592778D01*
X84805271Y-117563448D01*
X84703814Y-117480186D01*
X84620552Y-117378729D01*
X84591222Y-117342991D01*
X84507557Y-117186466D01*
X84456037Y-117016627D01*
X84438641Y-116840000D01*
X84456037Y-116663373D01*
X84507557Y-116493534D01*
X84591222Y-116337009D01*
X84620552Y-116301271D01*
X84703814Y-116199814D01*
X84805271Y-116116552D01*
X84841009Y-116087222D01*
X84997534Y-116003557D01*
X85167373Y-115952037D01*
X85233558Y-115945518D01*
X85299740Y-115939000D01*
X85388260Y-115939000D01*
X85454442Y-115945518D01*
X85454442Y-115945518D01*
G37*
G36*
X86245000Y-115201000D02*
G01*
X84443000Y-115201000D01*
X84443000Y-113399000D01*
X86245000Y-113399000D01*
X86245000Y-115201000D01*
X86245000Y-115201000D01*
G37*
G36*
X81913589Y-113538876D02*
G01*
X82012893Y-113558629D01*
X82153206Y-113616748D01*
X82279484Y-113701125D01*
X82386875Y-113808516D01*
X82471252Y-113934794D01*
X82529371Y-114075107D01*
X82559000Y-114224063D01*
X82559000Y-114375937D01*
X82529371Y-114524893D01*
X82471252Y-114665206D01*
X82386875Y-114791484D01*
X82279484Y-114898875D01*
X82153206Y-114983252D01*
X82012893Y-115041371D01*
X81913589Y-115061124D01*
X81863938Y-115071000D01*
X81712062Y-115071000D01*
X81662411Y-115061124D01*
X81563107Y-115041371D01*
X81422794Y-114983252D01*
X81296516Y-114898875D01*
X81189125Y-114791484D01*
X81104748Y-114665206D01*
X81046629Y-114524893D01*
X81017000Y-114375937D01*
X81017000Y-114224063D01*
X81046629Y-114075107D01*
X81104748Y-113934794D01*
X81189125Y-113808516D01*
X81296516Y-113701125D01*
X81422794Y-113616748D01*
X81563107Y-113558629D01*
X81662411Y-113538876D01*
X81712062Y-113529000D01*
X81863938Y-113529000D01*
X81913589Y-113538876D01*
X81913589Y-113538876D01*
G37*
G36*
X76833589Y-113538876D02*
G01*
X76932893Y-113558629D01*
X77073206Y-113616748D01*
X77199484Y-113701125D01*
X77306875Y-113808516D01*
X77391252Y-113934794D01*
X77449371Y-114075107D01*
X77479000Y-114224063D01*
X77479000Y-114375937D01*
X77449371Y-114524893D01*
X77391252Y-114665206D01*
X77306875Y-114791484D01*
X77199484Y-114898875D01*
X77073206Y-114983252D01*
X76932893Y-115041371D01*
X76833589Y-115061124D01*
X76783938Y-115071000D01*
X76632062Y-115071000D01*
X76582411Y-115061124D01*
X76483107Y-115041371D01*
X76342794Y-114983252D01*
X76216516Y-114898875D01*
X76109125Y-114791484D01*
X76024748Y-114665206D01*
X75966629Y-114524893D01*
X75937000Y-114375937D01*
X75937000Y-114224063D01*
X75966629Y-114075107D01*
X76024748Y-113934794D01*
X76109125Y-113808516D01*
X76216516Y-113701125D01*
X76342794Y-113616748D01*
X76483107Y-113558629D01*
X76582411Y-113538876D01*
X76632062Y-113529000D01*
X76783938Y-113529000D01*
X76833589Y-113538876D01*
X76833589Y-113538876D01*
G37*
G36*
X79373589Y-110998876D02*
G01*
X79472893Y-111018629D01*
X79613206Y-111076748D01*
X79739484Y-111161125D01*
X79846875Y-111268516D01*
X79931252Y-111394794D01*
X79989371Y-111535107D01*
X80019000Y-111684063D01*
X80019000Y-111835937D01*
X79989371Y-111984893D01*
X79931252Y-112125206D01*
X79846875Y-112251484D01*
X79739484Y-112358875D01*
X79613206Y-112443252D01*
X79472893Y-112501371D01*
X79373589Y-112521124D01*
X79323938Y-112531000D01*
X79172062Y-112531000D01*
X79122411Y-112521124D01*
X79023107Y-112501371D01*
X78882794Y-112443252D01*
X78756516Y-112358875D01*
X78649125Y-112251484D01*
X78564748Y-112125206D01*
X78506629Y-111984893D01*
X78477000Y-111835937D01*
X78477000Y-111684063D01*
X78506629Y-111535107D01*
X78564748Y-111394794D01*
X78649125Y-111268516D01*
X78756516Y-111161125D01*
X78882794Y-111076748D01*
X79023107Y-111018629D01*
X79122411Y-110998876D01*
X79172062Y-110989000D01*
X79323938Y-110989000D01*
X79373589Y-110998876D01*
X79373589Y-110998876D01*
G37*
G36*
X77849589Y-99314876D02*
G01*
X77948893Y-99334629D01*
X78089206Y-99392748D01*
X78215484Y-99477125D01*
X78322875Y-99584516D01*
X78407252Y-99710794D01*
X78465371Y-99851107D01*
X78495000Y-100000063D01*
X78495000Y-100151937D01*
X78465371Y-100300893D01*
X78407252Y-100441206D01*
X78322875Y-100567484D01*
X78215484Y-100674875D01*
X78089206Y-100759252D01*
X77948893Y-100817371D01*
X77849589Y-100837124D01*
X77799938Y-100847000D01*
X77648062Y-100847000D01*
X77598411Y-100837124D01*
X77499107Y-100817371D01*
X77358794Y-100759252D01*
X77232516Y-100674875D01*
X77125125Y-100567484D01*
X77040748Y-100441206D01*
X76982629Y-100300893D01*
X76953000Y-100151937D01*
X76953000Y-100000063D01*
X76982629Y-99851107D01*
X77040748Y-99710794D01*
X77125125Y-99584516D01*
X77232516Y-99477125D01*
X77358794Y-99392748D01*
X77499107Y-99334629D01*
X77598411Y-99314876D01*
X77648062Y-99305000D01*
X77799938Y-99305000D01*
X77849589Y-99314876D01*
X77849589Y-99314876D01*
G37*
G36*
X80389589Y-96774876D02*
G01*
X80488893Y-96794629D01*
X80629206Y-96852748D01*
X80755484Y-96937125D01*
X80862875Y-97044516D01*
X80947252Y-97170794D01*
X81005371Y-97311107D01*
X81035000Y-97460063D01*
X81035000Y-97611937D01*
X81005371Y-97760893D01*
X80947252Y-97901206D01*
X80862875Y-98027484D01*
X80755484Y-98134875D01*
X80629206Y-98219252D01*
X80488893Y-98277371D01*
X80389589Y-98297124D01*
X80339938Y-98307000D01*
X80188062Y-98307000D01*
X80138411Y-98297124D01*
X80039107Y-98277371D01*
X79898794Y-98219252D01*
X79772516Y-98134875D01*
X79665125Y-98027484D01*
X79580748Y-97901206D01*
X79522629Y-97760893D01*
X79493000Y-97611937D01*
X79493000Y-97460063D01*
X79522629Y-97311107D01*
X79580748Y-97170794D01*
X79665125Y-97044516D01*
X79772516Y-96937125D01*
X79898794Y-96852748D01*
X80039107Y-96794629D01*
X80138411Y-96774876D01*
X80188062Y-96765000D01*
X80339938Y-96765000D01*
X80389589Y-96774876D01*
X80389589Y-96774876D01*
G37*
G36*
X92550425Y-95774599D02*
G01*
X92674621Y-95799302D01*
X92811022Y-95855801D01*
X92933779Y-95937825D01*
X93038175Y-96042221D01*
X93120199Y-96164978D01*
X93176698Y-96301379D01*
X93201401Y-96425575D01*
X93205031Y-96443820D01*
X93205500Y-96446181D01*
X93205500Y-96593819D01*
X93176698Y-96738621D01*
X93120199Y-96875022D01*
X93038175Y-96997779D01*
X92933779Y-97102175D01*
X92811022Y-97184199D01*
X92674621Y-97240698D01*
X92550425Y-97265401D01*
X92529820Y-97269500D01*
X92382180Y-97269500D01*
X92361575Y-97265401D01*
X92237379Y-97240698D01*
X92100978Y-97184199D01*
X91978221Y-97102175D01*
X91873825Y-96997779D01*
X91791801Y-96875022D01*
X91735302Y-96738621D01*
X91706500Y-96593819D01*
X91706500Y-96446181D01*
X91706970Y-96443820D01*
X91710599Y-96425575D01*
X91735302Y-96301379D01*
X91791801Y-96164978D01*
X91873825Y-96042221D01*
X91978221Y-95937825D01*
X92100978Y-95855801D01*
X92237379Y-95799302D01*
X92361575Y-95774599D01*
X92382180Y-95770500D01*
X92529820Y-95770500D01*
X92550425Y-95774599D01*
X92550425Y-95774599D01*
G37*
G36*
X97630425Y-95774599D02*
G01*
X97754621Y-95799302D01*
X97891022Y-95855801D01*
X98013779Y-95937825D01*
X98118175Y-96042221D01*
X98200199Y-96164978D01*
X98256698Y-96301379D01*
X98281401Y-96425575D01*
X98285031Y-96443820D01*
X98285500Y-96446181D01*
X98285500Y-96593819D01*
X98256698Y-96738621D01*
X98200199Y-96875022D01*
X98118175Y-96997779D01*
X98013779Y-97102175D01*
X97891022Y-97184199D01*
X97754621Y-97240698D01*
X97630425Y-97265401D01*
X97609820Y-97269500D01*
X97462180Y-97269500D01*
X97441575Y-97265401D01*
X97317379Y-97240698D01*
X97180978Y-97184199D01*
X97058221Y-97102175D01*
X96953825Y-96997779D01*
X96871801Y-96875022D01*
X96815302Y-96738621D01*
X96786500Y-96593819D01*
X96786500Y-96446181D01*
X96786970Y-96443820D01*
X96790599Y-96425575D01*
X96815302Y-96301379D01*
X96871801Y-96164978D01*
X96953825Y-96042221D01*
X97058221Y-95937825D01*
X97180978Y-95855801D01*
X97317379Y-95799302D01*
X97441575Y-95774599D01*
X97462180Y-95770500D01*
X97609820Y-95770500D01*
X97630425Y-95774599D01*
X97630425Y-95774599D01*
G37*
G36*
X143048039Y-93732250D02*
G01*
X143237372Y-93810675D01*
X143371251Y-93866129D01*
X143662134Y-94060491D01*
X143909509Y-94307866D01*
X144103871Y-94598749D01*
X144103871Y-94598750D01*
X144237750Y-94921961D01*
X144306000Y-95265078D01*
X144306000Y-95614922D01*
X144237750Y-95958039D01*
X144202879Y-96042224D01*
X144103871Y-96281251D01*
X143909509Y-96572134D01*
X143662134Y-96819509D01*
X143371251Y-97013871D01*
X143237372Y-97069325D01*
X143048039Y-97147750D01*
X142704922Y-97216000D01*
X142355078Y-97216000D01*
X142011961Y-97147750D01*
X141822628Y-97069325D01*
X141688749Y-97013871D01*
X141397866Y-96819509D01*
X141150491Y-96572134D01*
X140956129Y-96281251D01*
X140857121Y-96042224D01*
X140822250Y-95958039D01*
X140754000Y-95614922D01*
X140754000Y-95265078D01*
X140822250Y-94921961D01*
X140956129Y-94598750D01*
X140956129Y-94598749D01*
X141150491Y-94307866D01*
X141397866Y-94060491D01*
X141688749Y-93866129D01*
X141822628Y-93810675D01*
X142011961Y-93732250D01*
X142355078Y-93664000D01*
X142704922Y-93664000D01*
X143048039Y-93732250D01*
X143048039Y-93732250D01*
G37*
G36*
X116124425Y-95624599D02*
G01*
X116248621Y-95649302D01*
X116385022Y-95705801D01*
X116507779Y-95787825D01*
X116612175Y-95892221D01*
X116694199Y-96014978D01*
X116750698Y-96151379D01*
X116775401Y-96275575D01*
X116779500Y-96296180D01*
X116779500Y-96443820D01*
X116779030Y-96446181D01*
X116750698Y-96588621D01*
X116694199Y-96725022D01*
X116612175Y-96847779D01*
X116507779Y-96952175D01*
X116385022Y-97034199D01*
X116248621Y-97090698D01*
X116124425Y-97115401D01*
X116103820Y-97119500D01*
X115956180Y-97119500D01*
X115935575Y-97115401D01*
X115811379Y-97090698D01*
X115674978Y-97034199D01*
X115552221Y-96952175D01*
X115447825Y-96847779D01*
X115365801Y-96725022D01*
X115309302Y-96588621D01*
X115280970Y-96446181D01*
X115280500Y-96443820D01*
X115280500Y-96296180D01*
X115284599Y-96275575D01*
X115309302Y-96151379D01*
X115365801Y-96014978D01*
X115447825Y-95892221D01*
X115552221Y-95787825D01*
X115674978Y-95705801D01*
X115811379Y-95649302D01*
X115935575Y-95624599D01*
X115956180Y-95620500D01*
X116103820Y-95620500D01*
X116124425Y-95624599D01*
X116124425Y-95624599D01*
G37*
G36*
X125649425Y-95624599D02*
G01*
X125773621Y-95649302D01*
X125910022Y-95705801D01*
X126032779Y-95787825D01*
X126137175Y-95892221D01*
X126219199Y-96014978D01*
X126275698Y-96151379D01*
X126300401Y-96275575D01*
X126304500Y-96296180D01*
X126304500Y-96443820D01*
X126304030Y-96446181D01*
X126275698Y-96588621D01*
X126219199Y-96725022D01*
X126137175Y-96847779D01*
X126032779Y-96952175D01*
X125910022Y-97034199D01*
X125773621Y-97090698D01*
X125649425Y-97115401D01*
X125628820Y-97119500D01*
X125481180Y-97119500D01*
X125460575Y-97115401D01*
X125336379Y-97090698D01*
X125199978Y-97034199D01*
X125077221Y-96952175D01*
X124972825Y-96847779D01*
X124890801Y-96725022D01*
X124834302Y-96588621D01*
X124805970Y-96446181D01*
X124805500Y-96443820D01*
X124805500Y-96296180D01*
X124809599Y-96275575D01*
X124834302Y-96151379D01*
X124890801Y-96014978D01*
X124972825Y-95892221D01*
X125077221Y-95787825D01*
X125199978Y-95705801D01*
X125336379Y-95649302D01*
X125460575Y-95624599D01*
X125481180Y-95620500D01*
X125628820Y-95620500D01*
X125649425Y-95624599D01*
X125649425Y-95624599D01*
G37*
G36*
X120569425Y-95624599D02*
G01*
X120693621Y-95649302D01*
X120830022Y-95705801D01*
X120952779Y-95787825D01*
X121057175Y-95892221D01*
X121139199Y-96014978D01*
X121195698Y-96151379D01*
X121220401Y-96275575D01*
X121224500Y-96296180D01*
X121224500Y-96443820D01*
X121224030Y-96446181D01*
X121195698Y-96588621D01*
X121139199Y-96725022D01*
X121057175Y-96847779D01*
X120952779Y-96952175D01*
X120830022Y-97034199D01*
X120693621Y-97090698D01*
X120569425Y-97115401D01*
X120548820Y-97119500D01*
X120401180Y-97119500D01*
X120380575Y-97115401D01*
X120256379Y-97090698D01*
X120119978Y-97034199D01*
X119997221Y-96952175D01*
X119892825Y-96847779D01*
X119810801Y-96725022D01*
X119754302Y-96588621D01*
X119725970Y-96446181D01*
X119725500Y-96443820D01*
X119725500Y-96296180D01*
X119729599Y-96275575D01*
X119754302Y-96151379D01*
X119810801Y-96014978D01*
X119892825Y-95892221D01*
X119997221Y-95787825D01*
X120119978Y-95705801D01*
X120256379Y-95649302D01*
X120380575Y-95624599D01*
X120401180Y-95620500D01*
X120548820Y-95620500D01*
X120569425Y-95624599D01*
X120569425Y-95624599D01*
G37*
G36*
X111044425Y-95624599D02*
G01*
X111168621Y-95649302D01*
X111305022Y-95705801D01*
X111427779Y-95787825D01*
X111532175Y-95892221D01*
X111614199Y-96014978D01*
X111670698Y-96151379D01*
X111695401Y-96275575D01*
X111699500Y-96296180D01*
X111699500Y-96443820D01*
X111699030Y-96446181D01*
X111670698Y-96588621D01*
X111614199Y-96725022D01*
X111532175Y-96847779D01*
X111427779Y-96952175D01*
X111305022Y-97034199D01*
X111168621Y-97090698D01*
X111044425Y-97115401D01*
X111023820Y-97119500D01*
X110876180Y-97119500D01*
X110855575Y-97115401D01*
X110731379Y-97090698D01*
X110594978Y-97034199D01*
X110472221Y-96952175D01*
X110367825Y-96847779D01*
X110285801Y-96725022D01*
X110229302Y-96588621D01*
X110200970Y-96446181D01*
X110200500Y-96443820D01*
X110200500Y-96296180D01*
X110204599Y-96275575D01*
X110229302Y-96151379D01*
X110285801Y-96014978D01*
X110367825Y-95892221D01*
X110472221Y-95787825D01*
X110594978Y-95705801D01*
X110731379Y-95649302D01*
X110855575Y-95624599D01*
X110876180Y-95620500D01*
X111023820Y-95620500D01*
X111044425Y-95624599D01*
X111044425Y-95624599D01*
G37*
G36*
X77849589Y-94234876D02*
G01*
X77948893Y-94254629D01*
X78089206Y-94312748D01*
X78215484Y-94397125D01*
X78322875Y-94504516D01*
X78407252Y-94630794D01*
X78465371Y-94771107D01*
X78495000Y-94920063D01*
X78495000Y-95071937D01*
X78465371Y-95220893D01*
X78407252Y-95361206D01*
X78322875Y-95487484D01*
X78215484Y-95594875D01*
X78089206Y-95679252D01*
X77948893Y-95737371D01*
X77849589Y-95757124D01*
X77799938Y-95767000D01*
X77648062Y-95767000D01*
X77598411Y-95757124D01*
X77499107Y-95737371D01*
X77358794Y-95679252D01*
X77232516Y-95594875D01*
X77125125Y-95487484D01*
X77040748Y-95361206D01*
X76982629Y-95220893D01*
X76953000Y-95071937D01*
X76953000Y-94920063D01*
X76982629Y-94771107D01*
X77040748Y-94630794D01*
X77125125Y-94504516D01*
X77232516Y-94397125D01*
X77358794Y-94312748D01*
X77499107Y-94254629D01*
X77598411Y-94234876D01*
X77648062Y-94225000D01*
X77799938Y-94225000D01*
X77849589Y-94234876D01*
X77849589Y-94234876D01*
G37*
G36*
X85454443Y-90545519D02*
G01*
X85520627Y-90552037D01*
X85690466Y-90603557D01*
X85846991Y-90687222D01*
X85882729Y-90716552D01*
X85984186Y-90799814D01*
X86067448Y-90901271D01*
X86096778Y-90937009D01*
X86180443Y-91093534D01*
X86231963Y-91263373D01*
X86249359Y-91440000D01*
X86231963Y-91616627D01*
X86180443Y-91786466D01*
X86096778Y-91942991D01*
X86067448Y-91978729D01*
X85984186Y-92080186D01*
X85882729Y-92163448D01*
X85846991Y-92192778D01*
X85690466Y-92276443D01*
X85520627Y-92327963D01*
X85454443Y-92334481D01*
X85388260Y-92341000D01*
X85299740Y-92341000D01*
X85233557Y-92334481D01*
X85167373Y-92327963D01*
X84997534Y-92276443D01*
X84841009Y-92192778D01*
X84805271Y-92163448D01*
X84703814Y-92080186D01*
X84620552Y-91978729D01*
X84591222Y-91942991D01*
X84507557Y-91786466D01*
X84456037Y-91616627D01*
X84438641Y-91440000D01*
X84456037Y-91263373D01*
X84507557Y-91093534D01*
X84591222Y-90937009D01*
X84620552Y-90901271D01*
X84703814Y-90799814D01*
X84805271Y-90716552D01*
X84841009Y-90687222D01*
X84997534Y-90603557D01*
X85167373Y-90552037D01*
X85233557Y-90545519D01*
X85299740Y-90539000D01*
X85388260Y-90539000D01*
X85454443Y-90545519D01*
X85454443Y-90545519D01*
G37*
G36*
X82914443Y-90545519D02*
G01*
X82980627Y-90552037D01*
X83150466Y-90603557D01*
X83306991Y-90687222D01*
X83342729Y-90716552D01*
X83444186Y-90799814D01*
X83527448Y-90901271D01*
X83556778Y-90937009D01*
X83640443Y-91093534D01*
X83691963Y-91263373D01*
X83709359Y-91440000D01*
X83691963Y-91616627D01*
X83640443Y-91786466D01*
X83556778Y-91942991D01*
X83527448Y-91978729D01*
X83444186Y-92080186D01*
X83342729Y-92163448D01*
X83306991Y-92192778D01*
X83150466Y-92276443D01*
X82980627Y-92327963D01*
X82914443Y-92334481D01*
X82848260Y-92341000D01*
X82759740Y-92341000D01*
X82693557Y-92334481D01*
X82627373Y-92327963D01*
X82457534Y-92276443D01*
X82301009Y-92192778D01*
X82265271Y-92163448D01*
X82163814Y-92080186D01*
X82080552Y-91978729D01*
X82051222Y-91942991D01*
X81967557Y-91786466D01*
X81916037Y-91616627D01*
X81898641Y-91440000D01*
X81916037Y-91263373D01*
X81967557Y-91093534D01*
X82051222Y-90937009D01*
X82080552Y-90901271D01*
X82163814Y-90799814D01*
X82265271Y-90716552D01*
X82301009Y-90687222D01*
X82457534Y-90603557D01*
X82627373Y-90552037D01*
X82693557Y-90545519D01*
X82759740Y-90539000D01*
X82848260Y-90539000D01*
X82914443Y-90545519D01*
X82914443Y-90545519D01*
G37*
G36*
X88785000Y-92341000D02*
G01*
X86983000Y-92341000D01*
X86983000Y-90539000D01*
X88785000Y-90539000D01*
X88785000Y-92341000D01*
X88785000Y-92341000D01*
G37*
G36*
X92550425Y-88154599D02*
G01*
X92674621Y-88179302D01*
X92811022Y-88235801D01*
X92933779Y-88317825D01*
X93038175Y-88422221D01*
X93120199Y-88544978D01*
X93176698Y-88681379D01*
X93201401Y-88805575D01*
X93205031Y-88823820D01*
X93205500Y-88826181D01*
X93205500Y-88973819D01*
X93176698Y-89118621D01*
X93120199Y-89255022D01*
X93038175Y-89377779D01*
X92933779Y-89482175D01*
X92811022Y-89564199D01*
X92674621Y-89620698D01*
X92550425Y-89645401D01*
X92529820Y-89649500D01*
X92382180Y-89649500D01*
X92361575Y-89645401D01*
X92237379Y-89620698D01*
X92100978Y-89564199D01*
X91978221Y-89482175D01*
X91873825Y-89377779D01*
X91791801Y-89255022D01*
X91735302Y-89118621D01*
X91706500Y-88973819D01*
X91706500Y-88826181D01*
X91706970Y-88823820D01*
X91710599Y-88805575D01*
X91735302Y-88681379D01*
X91791801Y-88544978D01*
X91873825Y-88422221D01*
X91978221Y-88317825D01*
X92100978Y-88235801D01*
X92237379Y-88179302D01*
X92361575Y-88154599D01*
X92382180Y-88150500D01*
X92529820Y-88150500D01*
X92550425Y-88154599D01*
X92550425Y-88154599D01*
G37*
G36*
X97630425Y-88154599D02*
G01*
X97754621Y-88179302D01*
X97891022Y-88235801D01*
X98013779Y-88317825D01*
X98118175Y-88422221D01*
X98200199Y-88544978D01*
X98256698Y-88681379D01*
X98281401Y-88805575D01*
X98285031Y-88823820D01*
X98285500Y-88826181D01*
X98285500Y-88973819D01*
X98256698Y-89118621D01*
X98200199Y-89255022D01*
X98118175Y-89377779D01*
X98013779Y-89482175D01*
X97891022Y-89564199D01*
X97754621Y-89620698D01*
X97630425Y-89645401D01*
X97609820Y-89649500D01*
X97462180Y-89649500D01*
X97441575Y-89645401D01*
X97317379Y-89620698D01*
X97180978Y-89564199D01*
X97058221Y-89482175D01*
X96953825Y-89377779D01*
X96871801Y-89255022D01*
X96815302Y-89118621D01*
X96786500Y-88973819D01*
X96786500Y-88826181D01*
X96786970Y-88823820D01*
X96790599Y-88805575D01*
X96815302Y-88681379D01*
X96871801Y-88544978D01*
X96953825Y-88422221D01*
X97058221Y-88317825D01*
X97180978Y-88235801D01*
X97317379Y-88179302D01*
X97441575Y-88154599D01*
X97462180Y-88150500D01*
X97609820Y-88150500D01*
X97630425Y-88154599D01*
X97630425Y-88154599D01*
G37*
G36*
X125649425Y-88004599D02*
G01*
X125773621Y-88029302D01*
X125910022Y-88085801D01*
X126032779Y-88167825D01*
X126137175Y-88272221D01*
X126219199Y-88394978D01*
X126275698Y-88531379D01*
X126300401Y-88655575D01*
X126304500Y-88676180D01*
X126304500Y-88823820D01*
X126304030Y-88826181D01*
X126275698Y-88968621D01*
X126219199Y-89105022D01*
X126137175Y-89227779D01*
X126032779Y-89332175D01*
X125910022Y-89414199D01*
X125773621Y-89470698D01*
X125649425Y-89495401D01*
X125628820Y-89499500D01*
X125481180Y-89499500D01*
X125460575Y-89495401D01*
X125336379Y-89470698D01*
X125199978Y-89414199D01*
X125077221Y-89332175D01*
X124972825Y-89227779D01*
X124890801Y-89105022D01*
X124834302Y-88968621D01*
X124805970Y-88826181D01*
X124805500Y-88823820D01*
X124805500Y-88676180D01*
X124809599Y-88655575D01*
X124834302Y-88531379D01*
X124890801Y-88394978D01*
X124972825Y-88272221D01*
X125077221Y-88167825D01*
X125199978Y-88085801D01*
X125336379Y-88029302D01*
X125460575Y-88004599D01*
X125481180Y-88000500D01*
X125628820Y-88000500D01*
X125649425Y-88004599D01*
X125649425Y-88004599D01*
G37*
G36*
X116124425Y-88004599D02*
G01*
X116248621Y-88029302D01*
X116385022Y-88085801D01*
X116507779Y-88167825D01*
X116612175Y-88272221D01*
X116694199Y-88394978D01*
X116750698Y-88531379D01*
X116775401Y-88655575D01*
X116779500Y-88676180D01*
X116779500Y-88823820D01*
X116779030Y-88826181D01*
X116750698Y-88968621D01*
X116694199Y-89105022D01*
X116612175Y-89227779D01*
X116507779Y-89332175D01*
X116385022Y-89414199D01*
X116248621Y-89470698D01*
X116124425Y-89495401D01*
X116103820Y-89499500D01*
X115956180Y-89499500D01*
X115935575Y-89495401D01*
X115811379Y-89470698D01*
X115674978Y-89414199D01*
X115552221Y-89332175D01*
X115447825Y-89227779D01*
X115365801Y-89105022D01*
X115309302Y-88968621D01*
X115280970Y-88826181D01*
X115280500Y-88823820D01*
X115280500Y-88676180D01*
X115284599Y-88655575D01*
X115309302Y-88531379D01*
X115365801Y-88394978D01*
X115447825Y-88272221D01*
X115552221Y-88167825D01*
X115674978Y-88085801D01*
X115811379Y-88029302D01*
X115935575Y-88004599D01*
X115956180Y-88000500D01*
X116103820Y-88000500D01*
X116124425Y-88004599D01*
X116124425Y-88004599D01*
G37*
G36*
X120569425Y-88004599D02*
G01*
X120693621Y-88029302D01*
X120830022Y-88085801D01*
X120952779Y-88167825D01*
X121057175Y-88272221D01*
X121139199Y-88394978D01*
X121195698Y-88531379D01*
X121220401Y-88655575D01*
X121224500Y-88676180D01*
X121224500Y-88823820D01*
X121224030Y-88826181D01*
X121195698Y-88968621D01*
X121139199Y-89105022D01*
X121057175Y-89227779D01*
X120952779Y-89332175D01*
X120830022Y-89414199D01*
X120693621Y-89470698D01*
X120569425Y-89495401D01*
X120548820Y-89499500D01*
X120401180Y-89499500D01*
X120380575Y-89495401D01*
X120256379Y-89470698D01*
X120119978Y-89414199D01*
X119997221Y-89332175D01*
X119892825Y-89227779D01*
X119810801Y-89105022D01*
X119754302Y-88968621D01*
X119725970Y-88826181D01*
X119725500Y-88823820D01*
X119725500Y-88676180D01*
X119729599Y-88655575D01*
X119754302Y-88531379D01*
X119810801Y-88394978D01*
X119892825Y-88272221D01*
X119997221Y-88167825D01*
X120119978Y-88085801D01*
X120256379Y-88029302D01*
X120380575Y-88004599D01*
X120401180Y-88000500D01*
X120548820Y-88000500D01*
X120569425Y-88004599D01*
X120569425Y-88004599D01*
G37*
G36*
X111044425Y-88004599D02*
G01*
X111168621Y-88029302D01*
X111305022Y-88085801D01*
X111427779Y-88167825D01*
X111532175Y-88272221D01*
X111614199Y-88394978D01*
X111670698Y-88531379D01*
X111695401Y-88655575D01*
X111699500Y-88676180D01*
X111699500Y-88823820D01*
X111699030Y-88826181D01*
X111670698Y-88968621D01*
X111614199Y-89105022D01*
X111532175Y-89227779D01*
X111427779Y-89332175D01*
X111305022Y-89414199D01*
X111168621Y-89470698D01*
X111044425Y-89495401D01*
X111023820Y-89499500D01*
X110876180Y-89499500D01*
X110855575Y-89495401D01*
X110731379Y-89470698D01*
X110594978Y-89414199D01*
X110472221Y-89332175D01*
X110367825Y-89227779D01*
X110285801Y-89105022D01*
X110229302Y-88968621D01*
X110200970Y-88826181D01*
X110200500Y-88823820D01*
X110200500Y-88676180D01*
X110204599Y-88655575D01*
X110229302Y-88531379D01*
X110285801Y-88394978D01*
X110367825Y-88272221D01*
X110472221Y-88167825D01*
X110594978Y-88085801D01*
X110731379Y-88029302D01*
X110855575Y-88004599D01*
X110876180Y-88000500D01*
X111023820Y-88000500D01*
X111044425Y-88004599D01*
X111044425Y-88004599D01*
G37*
G36*
X158893444Y-85911882D02*
G01*
X159120201Y-86005808D01*
X159120202Y-86005809D01*
X159324279Y-86142168D01*
X159497832Y-86315721D01*
X159588944Y-86452081D01*
X159634192Y-86519799D01*
X159728118Y-86746556D01*
X159776000Y-86987278D01*
X159776000Y-87232722D01*
X159728118Y-87473444D01*
X159634192Y-87700201D01*
X159634191Y-87700202D01*
X159497832Y-87904279D01*
X159324279Y-88077832D01*
X159312352Y-88085801D01*
X159120201Y-88214192D01*
X158893444Y-88308118D01*
X158652722Y-88356000D01*
X158407278Y-88356000D01*
X158166556Y-88308118D01*
X157939799Y-88214192D01*
X157747648Y-88085801D01*
X157735721Y-88077832D01*
X157562168Y-87904279D01*
X157425809Y-87700202D01*
X157425808Y-87700201D01*
X157331882Y-87473444D01*
X157284000Y-87232722D01*
X157284000Y-86987278D01*
X157331882Y-86746556D01*
X157425808Y-86519799D01*
X157471056Y-86452081D01*
X157562168Y-86315721D01*
X157735721Y-86142168D01*
X157939798Y-86005809D01*
X157939799Y-86005808D01*
X158166556Y-85911882D01*
X158407278Y-85864000D01*
X158652722Y-85864000D01*
X158893444Y-85911882D01*
X158893444Y-85911882D01*
G37*
G36*
X142361000Y-81941000D02*
G01*
X140559000Y-81941000D01*
X140559000Y-80139000D01*
X142361000Y-80139000D01*
X142361000Y-81941000D01*
X142361000Y-81941000D01*
G37*
G36*
X144110442Y-80145518D02*
G01*
X144176627Y-80152037D01*
X144346466Y-80203557D01*
X144502991Y-80287222D01*
X144538729Y-80316552D01*
X144640186Y-80399814D01*
X144723448Y-80501271D01*
X144752778Y-80537009D01*
X144836443Y-80693534D01*
X144887963Y-80863373D01*
X144905359Y-81040000D01*
X144887963Y-81216627D01*
X144836443Y-81386466D01*
X144752778Y-81542991D01*
X144723448Y-81578729D01*
X144640186Y-81680186D01*
X144538729Y-81763448D01*
X144502991Y-81792778D01*
X144346466Y-81876443D01*
X144176627Y-81927963D01*
X144110443Y-81934481D01*
X144044260Y-81941000D01*
X143955740Y-81941000D01*
X143889557Y-81934481D01*
X143823373Y-81927963D01*
X143653534Y-81876443D01*
X143497009Y-81792778D01*
X143461271Y-81763448D01*
X143359814Y-81680186D01*
X143276552Y-81578729D01*
X143247222Y-81542991D01*
X143163557Y-81386466D01*
X143112037Y-81216627D01*
X143094641Y-81040000D01*
X143112037Y-80863373D01*
X143163557Y-80693534D01*
X143247222Y-80537009D01*
X143276552Y-80501271D01*
X143359814Y-80399814D01*
X143461271Y-80316552D01*
X143497009Y-80287222D01*
X143653534Y-80203557D01*
X143823373Y-80152037D01*
X143889558Y-80145518D01*
X143955740Y-80139000D01*
X144044260Y-80139000D01*
X144110442Y-80145518D01*
X144110442Y-80145518D01*
G37*
M02*
