M48
;DRILL file {KiCad 5.0.2+dfsg1-1~bpo9+1} date Sat 12 Oct 2019 12:43:52 PM PDT
;FORMAT={-:-/ absolute / inch / decimal}
FMAT,2
INCH,TZ
T1C0.0157
T2C0.0315
T3C0.0320
T4C0.0394
T5C0.1378
%
G90
G05
T1
X2.72Y-4.47
X2.98Y-4.62
X3.22Y-4.02
X3.6469Y-5.0731
X3.72Y-4.34
X3.72Y-4.6
X3.72Y-4.8
X3.8Y-4.3
X3.8Y-5.24
X3.8785Y-4.3
X3.94Y-5.
X3.98Y-5.54
X4.1Y-4.3
X4.12Y-5.72
X4.16Y-5.
X4.18Y-5.54
X4.23Y-4.31
X4.23Y-4.4
X4.26Y-5.62
X4.32Y-4.3
X4.32Y-4.98
X4.33Y-5.22
X4.3369Y-5.6231
X4.39Y-4.98
X4.4Y-4.94
X4.42Y-4.56
X4.42Y-4.76
X4.425Y-4.3
X4.48Y-5.08
X4.5Y-5.54
X4.52Y-5.06
X4.56Y-5.54
X4.5953Y-5.68
X4.6Y-5.42
X4.6024Y-5.7979
X4.77Y-4.39
X4.77Y-4.54
X4.8126Y-4.4374
X4.8141Y-5.4941
X4.8159Y-5.7441
X4.8191Y-5.6191
X4.83Y-5.38
X4.925Y-4.25
X4.94Y-5.82
X5.1Y-3.275
X5.14Y-4.37
X5.1561Y-3.275
X5.2061Y-3.325
X5.24Y-4.74
X5.3031Y-4.7431
X5.35Y-4.475
X5.36Y-4.16
T2
X3.06Y-3.74
X3.06Y-3.94
X3.16Y-3.84
X3.02Y-4.5
X3.12Y-4.4
X3.22Y-4.5
T3
X3.64Y-3.5
X3.64Y-3.8
X3.84Y-3.5
X3.84Y-3.8
X4.7431Y-3.4941
X4.7431Y-3.7941
X4.9431Y-3.4941
X4.9431Y-3.7941
X4.3681Y-3.4941
X4.3681Y-3.7941
X4.5681Y-3.4941
X4.5681Y-3.7941
T4
X4.925Y-4.8
X4.925Y-4.9
X5.025Y-4.8
X5.025Y-4.9
X5.125Y-4.8
X5.125Y-4.9
X3.29Y-5.74
X3.39Y-5.74
X4.38Y-5.34
X4.38Y-5.44
X4.38Y-5.54
X3.36Y-4.5
X3.36Y-4.6
X3.36Y-4.7
X3.36Y-4.8
X3.36Y-4.9
X3.36Y-5.
X3.36Y-5.1
X3.36Y-5.2
X5.3Y-5.85
X5.3Y-5.95
X5.5693Y-3.1906
X5.6693Y-3.1906
X3.26Y-3.6
X3.36Y-3.6
X3.46Y-3.6
T5
X3.Y-3.4
X3.Y-6.2
X5.2Y-5.4
T0
M30
